M48
; DRILL file {KiCad 9.0.4} date 2025-09-21T20:33:18-0700
; FORMAT={-:-/ absolute / metric / decimal}
; #@! TF.CreationDate,2025-09-21T20:33:18-07:00
; #@! TF.GenerationSoftware,Kicad,Pcbnew,9.0.4
; #@! TF.FileFunction,Plated,1,4,PTH
FMAT,2
METRIC
; #@! TA.AperFunction,Plated,PTH,ViaDrill
T1C0.300
; #@! TA.AperFunction,Plated,PTH,ComponentDrill
T2C0.750
; #@! TA.AperFunction,Plated,PTH,ComponentDrill
T3C0.950
; #@! TA.AperFunction,Plated,PTH,ComponentDrill
T4C1.000
; #@! TA.AperFunction,Plated,PTH,ComponentDrill
T5C3.200
%
G90
G05
T1
X103.5Y-79.98
X103.5Y-85.0
X103.5Y-90.0
X103.5Y-95.0
X103.5Y-100.0
X103.5Y-105.0
X103.5Y-110.0
X108.5Y-72.5
X108.5Y-112.5
X108.5Y-117.5
X113.5Y-72.5
X113.625Y-100.5
X113.625Y-101.15
X113.7Y-111.3
X113.7Y-111.95
X113.725Y-78.625
X113.725Y-79.275
X113.725Y-89.6
X113.725Y-90.25
X114.425Y-100.5
X114.425Y-101.15
X114.5Y-111.3
X114.5Y-111.95
X114.525Y-78.625
X114.525Y-79.275
X114.525Y-89.6
X114.525Y-90.25
X115.175Y-100.5
X115.175Y-101.15
X115.25Y-111.3
X115.25Y-111.95
X115.275Y-78.625
X115.275Y-79.275
X115.275Y-89.6
X115.275Y-90.25
X117.95Y-100.9
X117.95Y-101.8
X117.975Y-107.65
X118.025Y-111.7
X118.025Y-112.6
X118.05Y-79.025
X118.05Y-79.925
X118.05Y-90.0
X118.05Y-90.9
X118.05Y-118.45
X118.075Y-85.775
X118.075Y-96.75
X118.5Y-72.5
X118.575Y-104.225
X118.65Y-100.9
X118.65Y-101.8
X118.65Y-115.025
X118.675Y-82.35
X118.675Y-93.325
X118.725Y-111.7
X118.725Y-112.6
X118.75Y-79.025
X118.75Y-79.925
X118.75Y-90.0
X118.75Y-90.9
X118.85Y-107.65
X118.925Y-118.45
X118.95Y-85.775
X118.95Y-96.75
X119.275Y-104.206
X119.35Y-115.006
X119.375Y-82.331
X119.375Y-93.306
X119.925Y-101.75
X120.0Y-112.55
X120.025Y-79.875
X120.025Y-90.85
X120.581Y-105.27
X120.6Y-107.1
X120.625Y-101.75
X120.634Y-116.063
X120.65Y-85.25
X120.661Y-94.39
X120.7Y-112.55
X120.7Y-117.825
X120.725Y-79.875
X120.725Y-90.85
X120.75Y-96.2
X120.751Y-83.42
X121.087Y-105.787
X121.18Y-84.0
X121.275Y-101.75
X121.35Y-112.55
X121.375Y-79.875
X121.375Y-90.85
X123.4Y-96.75
X123.5Y-72.5
X124.65Y-111.75
X124.65Y-112.55
X124.65Y-113.4
X125.4Y-115.6
X125.5Y-106.65
X126.4Y-115.6
X126.4Y-116.65
X127.35Y-108.0
X127.4Y-108.9
X128.4Y-108.9
X129.5Y-110.0
X130.3Y-110.0
X130.5Y-89.5
X130.5Y-90.5
X130.5Y-91.5
X130.8Y-98.3
X130.85Y-104.6
X131.0Y-117.5
X131.05Y-110.0
X131.5Y-89.5
X131.5Y-90.5
X131.5Y-91.5
X133.0Y-75.5
X133.0Y-76.5
X133.0Y-77.5
X133.0Y-78.5
X133.5Y-72.5
X133.5Y-82.5
X133.5Y-87.5
X133.5Y-92.5
X133.5Y-110.0
X134.0Y-75.5
X134.0Y-77.5
X134.0Y-78.5
X134.043Y-76.487
X135.0Y-75.497
X135.0Y-76.5
X135.0Y-77.5
X135.0Y-78.5
X138.5Y-72.5
X138.5Y-77.5
X138.5Y-82.5
X138.5Y-87.5
X138.5Y-92.5
X138.5Y-110.0
T2
X108.35Y-90.95
X108.35Y-92.95
X108.35Y-94.95
X108.35Y-96.95
X108.35Y-98.95
X108.35Y-100.95
X137.45Y-96.55
X137.45Y-98.55
X137.45Y-100.55
X137.45Y-102.55
X137.45Y-104.55
X137.45Y-106.55
T3
X126.9Y-97.75
X126.9Y-100.25
X126.9Y-102.75
X126.9Y-105.25
T4
X128.95Y-85.55
X128.95Y-90.55
T5
X104.5Y-75.0
X104.5Y-115.0
X135.5Y-115.0
T4
X125.25Y-78.4G85X125.25Y-75.8
G05
X127.05Y-72.3G85X129.25Y-72.3
G05
X131.55Y-78.2G85X131.55Y-76.0
G05
M30
