G04 #@! TF.GenerationSoftware,KiCad,Pcbnew,9.0.4*
G04 #@! TF.CreationDate,2025-09-21T20:32:14-07:00*
G04 #@! TF.ProjectId,stepper_juicer_v1,73746570-7065-4725-9f6a-75696365725f,rev?*
G04 #@! TF.SameCoordinates,Original*
G04 #@! TF.FileFunction,Copper,L1,Top*
G04 #@! TF.FilePolarity,Positive*
%FSLAX46Y46*%
G04 Gerber Fmt 4.6, Leading zero omitted, Abs format (unit mm)*
G04 Created by KiCad (PCBNEW 9.0.4) date 2025-09-21 20:32:14*
%MOMM*%
%LPD*%
G01*
G04 APERTURE LIST*
G04 Aperture macros list*
%AMRoundRect*
0 Rectangle with rounded corners*
0 $1 Rounding radius*
0 $2 $3 $4 $5 $6 $7 $8 $9 X,Y pos of 4 corners*
0 Add a 4 corners polygon primitive as box body*
4,1,4,$2,$3,$4,$5,$6,$7,$8,$9,$2,$3,0*
0 Add four circle primitives for the rounded corners*
1,1,$1+$1,$2,$3*
1,1,$1+$1,$4,$5*
1,1,$1+$1,$6,$7*
1,1,$1+$1,$8,$9*
0 Add four rect primitives between the rounded corners*
20,1,$1+$1,$2,$3,$4,$5,0*
20,1,$1+$1,$4,$5,$6,$7,0*
20,1,$1+$1,$6,$7,$8,$9,0*
20,1,$1+$1,$8,$9,$2,$3,0*%
%AMFreePoly0*
4,1,9,3.862500,-0.866500,0.737500,-0.866500,0.737500,-0.450000,-0.737500,-0.450000,-0.737500,0.450000,0.737500,0.450000,0.737500,0.866500,3.862500,0.866500,3.862500,-0.866500,3.862500,-0.866500,$1*%
G04 Aperture macros list end*
G04 #@! TA.AperFunction,SMDPad,CuDef*
%ADD10RoundRect,0.200000X0.275000X-0.200000X0.275000X0.200000X-0.275000X0.200000X-0.275000X-0.200000X0*%
G04 #@! TD*
G04 #@! TA.AperFunction,SMDPad,CuDef*
%ADD11RoundRect,0.250000X0.475000X-0.250000X0.475000X0.250000X-0.475000X0.250000X-0.475000X-0.250000X0*%
G04 #@! TD*
G04 #@! TA.AperFunction,SMDPad,CuDef*
%ADD12RoundRect,0.150000X0.200000X-0.150000X0.200000X0.150000X-0.200000X0.150000X-0.200000X-0.150000X0*%
G04 #@! TD*
G04 #@! TA.AperFunction,ComponentPad*
%ADD13C,6.400000*%
G04 #@! TD*
G04 #@! TA.AperFunction,ComponentPad*
%ADD14R,2.000000X4.600000*%
G04 #@! TD*
G04 #@! TA.AperFunction,ComponentPad*
%ADD15O,2.000000X4.200000*%
G04 #@! TD*
G04 #@! TA.AperFunction,ComponentPad*
%ADD16O,4.200000X2.000000*%
G04 #@! TD*
G04 #@! TA.AperFunction,ComponentPad*
%ADD17O,1.750000X1.200000*%
G04 #@! TD*
G04 #@! TA.AperFunction,ComponentPad*
%ADD18RoundRect,0.250000X-0.625000X0.350000X-0.625000X-0.350000X0.625000X-0.350000X0.625000X0.350000X0*%
G04 #@! TD*
G04 #@! TA.AperFunction,SMDPad,CuDef*
%ADD19R,0.340000X0.800000*%
G04 #@! TD*
G04 #@! TA.AperFunction,SMDPad,CuDef*
%ADD20R,2.290000X1.677500*%
G04 #@! TD*
G04 #@! TA.AperFunction,ComponentPad*
%ADD21C,2.000000*%
G04 #@! TD*
G04 #@! TA.AperFunction,ComponentPad*
%ADD22RoundRect,0.250000X-0.750000X0.750000X-0.750000X-0.750000X0.750000X-0.750000X0.750000X0.750000X0*%
G04 #@! TD*
G04 #@! TA.AperFunction,SMDPad,CuDef*
%ADD23RoundRect,0.150000X-0.200000X0.150000X-0.200000X-0.150000X0.200000X-0.150000X0.200000X0.150000X0*%
G04 #@! TD*
G04 #@! TA.AperFunction,SMDPad,CuDef*
%ADD24RoundRect,0.200000X-0.275000X0.200000X-0.275000X-0.200000X0.275000X-0.200000X0.275000X0.200000X0*%
G04 #@! TD*
G04 #@! TA.AperFunction,SMDPad,CuDef*
%ADD25RoundRect,0.062500X-0.350000X-0.062500X0.350000X-0.062500X0.350000X0.062500X-0.350000X0.062500X0*%
G04 #@! TD*
G04 #@! TA.AperFunction,HeatsinkPad*
%ADD26R,1.700000X2.500000*%
G04 #@! TD*
G04 #@! TA.AperFunction,SMDPad,CuDef*
%ADD27RoundRect,0.250000X-0.475000X0.250000X-0.475000X-0.250000X0.475000X-0.250000X0.475000X0.250000X0*%
G04 #@! TD*
G04 #@! TA.AperFunction,SMDPad,CuDef*
%ADD28RoundRect,0.250000X-0.250000X-0.475000X0.250000X-0.475000X0.250000X0.475000X-0.250000X0.475000X0*%
G04 #@! TD*
G04 #@! TA.AperFunction,SMDPad,CuDef*
%ADD29R,1.677500X2.290000*%
G04 #@! TD*
G04 #@! TA.AperFunction,SMDPad,CuDef*
%ADD30R,0.800000X0.340000*%
G04 #@! TD*
G04 #@! TA.AperFunction,ComponentPad*
%ADD31RoundRect,0.250000X-0.725000X0.600000X-0.725000X-0.600000X0.725000X-0.600000X0.725000X0.600000X0*%
G04 #@! TD*
G04 #@! TA.AperFunction,ComponentPad*
%ADD32O,1.950000X1.700000*%
G04 #@! TD*
G04 #@! TA.AperFunction,SMDPad,CuDef*
%ADD33RoundRect,0.125000X-0.125000X-0.125000X0.125000X-0.125000X0.125000X0.125000X-0.125000X0.125000X0*%
G04 #@! TD*
G04 #@! TA.AperFunction,SMDPad,CuDef*
%ADD34RoundRect,0.218750X0.218750X0.256250X-0.218750X0.256250X-0.218750X-0.256250X0.218750X-0.256250X0*%
G04 #@! TD*
G04 #@! TA.AperFunction,SMDPad,CuDef*
%ADD35RoundRect,0.250000X-0.450000X0.262500X-0.450000X-0.262500X0.450000X-0.262500X0.450000X0.262500X0*%
G04 #@! TD*
G04 #@! TA.AperFunction,SMDPad,CuDef*
%ADD36RoundRect,0.250000X-0.262500X-0.450000X0.262500X-0.450000X0.262500X0.450000X-0.262500X0.450000X0*%
G04 #@! TD*
G04 #@! TA.AperFunction,SMDPad,CuDef*
%ADD37RoundRect,0.200000X0.200000X0.275000X-0.200000X0.275000X-0.200000X-0.275000X0.200000X-0.275000X0*%
G04 #@! TD*
G04 #@! TA.AperFunction,SMDPad,CuDef*
%ADD38RoundRect,0.225000X-0.425000X-0.225000X0.425000X-0.225000X0.425000X0.225000X-0.425000X0.225000X0*%
G04 #@! TD*
G04 #@! TA.AperFunction,SMDPad,CuDef*
%ADD39FreePoly0,0.000000*%
G04 #@! TD*
G04 #@! TA.AperFunction,ViaPad*
%ADD40C,0.500000*%
G04 #@! TD*
G04 #@! TA.AperFunction,Conductor*
%ADD41C,0.250000*%
G04 #@! TD*
G04 #@! TA.AperFunction,Conductor*
%ADD42C,0.900000*%
G04 #@! TD*
G04 APERTURE END LIST*
D10*
X116525000Y-101762500D03*
X116525000Y-103412500D03*
D11*
X125937500Y-111000000D03*
X125937500Y-109100000D03*
D12*
X130450000Y-102250000D03*
X130450000Y-103650000D03*
D13*
X135500000Y-115000000D03*
D14*
X125250000Y-77100000D03*
D15*
X131550000Y-77100000D03*
D16*
X128150000Y-72300000D03*
D13*
X104500000Y-115000000D03*
D17*
X108350000Y-100950000D03*
X108350000Y-98950000D03*
X108350000Y-96950000D03*
X108350000Y-94950000D03*
X108350000Y-92950000D03*
D18*
X108350000Y-90950000D03*
D13*
X104500000Y-75000000D03*
D19*
X121325000Y-79075000D03*
X120675000Y-79075000D03*
X120025000Y-79075000D03*
X121975000Y-79075000D03*
X121975000Y-76075000D03*
X121325000Y-76075000D03*
X120675000Y-76075000D03*
X120025000Y-76075000D03*
D20*
X121000000Y-77186250D03*
D19*
X121325000Y-90050000D03*
X120675000Y-90050000D03*
X120025000Y-90050000D03*
X121975000Y-90050000D03*
X121975000Y-87050000D03*
X121325000Y-87050000D03*
X120675000Y-87050000D03*
X120025000Y-87050000D03*
D20*
X121000000Y-88161250D03*
D21*
X128950000Y-90550000D03*
D22*
X128950000Y-85550000D03*
D12*
X130450000Y-97300000D03*
X130450000Y-95900000D03*
D10*
X133400000Y-105350000D03*
X133400000Y-107000000D03*
D17*
X137450000Y-106550000D03*
X137450000Y-104550000D03*
X137450000Y-102550000D03*
X137450000Y-100550000D03*
X137450000Y-98550000D03*
D18*
X137450000Y-96550000D03*
D10*
X133400000Y-99000000D03*
X133400000Y-100650000D03*
D23*
X130450000Y-99350000D03*
X130450000Y-100750000D03*
D24*
X133400000Y-97650000D03*
X133400000Y-96000000D03*
X133400000Y-104000000D03*
X133400000Y-102350000D03*
D23*
X130450000Y-105700000D03*
X130450000Y-107100000D03*
D24*
X131900000Y-105350000D03*
X131900000Y-107000000D03*
X131900000Y-102350000D03*
X131900000Y-104000000D03*
X131900000Y-99000000D03*
X131900000Y-100650000D03*
X131900000Y-96000000D03*
X131900000Y-97650000D03*
D25*
X116925000Y-104862500D03*
X116925000Y-105362500D03*
X116925000Y-105862500D03*
X116925000Y-106362500D03*
X116925000Y-106862500D03*
X119850000Y-106862500D03*
X119850000Y-106362500D03*
X119850000Y-105862500D03*
X119850000Y-105362500D03*
X119850000Y-104862500D03*
D26*
X118387500Y-105862500D03*
D27*
X115350000Y-83525000D03*
X115350000Y-85425000D03*
D20*
X120950000Y-109861250D03*
D19*
X119975000Y-108750000D03*
X120625000Y-108750000D03*
X121275000Y-108750000D03*
X121925000Y-108750000D03*
X121925000Y-111750000D03*
X119975000Y-111750000D03*
X120625000Y-111750000D03*
X121275000Y-111750000D03*
D28*
X118125000Y-92150000D03*
X120025000Y-92150000D03*
D29*
X113826250Y-81050000D03*
D30*
X114937500Y-80075000D03*
X114937500Y-80725000D03*
X114937500Y-81375000D03*
X114937500Y-82025000D03*
X111937500Y-82025000D03*
X111937500Y-80075000D03*
X111937500Y-80725000D03*
X111937500Y-81375000D03*
D27*
X125937500Y-114450000D03*
X125937500Y-112550000D03*
D31*
X126900000Y-97750000D03*
D32*
X126900000Y-100250000D03*
X126900000Y-102750000D03*
X126900000Y-105250000D03*
D33*
X116350000Y-89250000D03*
X118550000Y-89250000D03*
D25*
X117000000Y-83000000D03*
X117000000Y-83500000D03*
X117000000Y-84000000D03*
X117000000Y-84500000D03*
X117000000Y-85000000D03*
X119925000Y-85000000D03*
X119925000Y-84500000D03*
X119925000Y-84000000D03*
X119925000Y-83500000D03*
X119925000Y-83000000D03*
D26*
X118462500Y-84000000D03*
D34*
X127662500Y-114700000D03*
X129237500Y-114700000D03*
D25*
X116962500Y-115675000D03*
X116962500Y-116175000D03*
X116962500Y-116675000D03*
X116962500Y-117175000D03*
X116962500Y-117675000D03*
X119887500Y-117675000D03*
X119887500Y-117175000D03*
X119887500Y-116675000D03*
X119887500Y-116175000D03*
X119887500Y-115675000D03*
D26*
X118425000Y-116675000D03*
D20*
X120900000Y-99073750D03*
D19*
X119925000Y-97962500D03*
X120575000Y-97962500D03*
X121225000Y-97962500D03*
X121875000Y-97962500D03*
X121875000Y-100962500D03*
X119925000Y-100962500D03*
X120575000Y-100962500D03*
X121225000Y-100962500D03*
D35*
X121700000Y-113637500D03*
X121700000Y-115462500D03*
D30*
X111875000Y-92325000D03*
X111875000Y-91675000D03*
X111875000Y-91025000D03*
X111875000Y-92975000D03*
X114875000Y-92975000D03*
X114875000Y-92325000D03*
X114875000Y-91675000D03*
X114875000Y-91025000D03*
D29*
X113763750Y-92000000D03*
D10*
X116637500Y-81575000D03*
X116637500Y-79925000D03*
D35*
X121650000Y-102850000D03*
X121650000Y-104675000D03*
D33*
X116300000Y-100162500D03*
X118500000Y-100162500D03*
D27*
X115300000Y-94500000D03*
X115300000Y-96400000D03*
D36*
X111737500Y-83725000D03*
X113562500Y-83725000D03*
D35*
X121787500Y-80950000D03*
X121787500Y-82775000D03*
D27*
X115250000Y-105412500D03*
X115250000Y-107312500D03*
D30*
X111850000Y-114025000D03*
X111850000Y-113375000D03*
X111850000Y-112725000D03*
X111850000Y-114675000D03*
X114850000Y-114675000D03*
X114850000Y-114025000D03*
X114850000Y-113375000D03*
X114850000Y-112725000D03*
D29*
X113738750Y-113700000D03*
D25*
X117012500Y-93975000D03*
X117012500Y-94475000D03*
X117012500Y-94975000D03*
X117012500Y-95475000D03*
X117012500Y-95975000D03*
X119937500Y-95975000D03*
X119937500Y-95475000D03*
X119937500Y-94975000D03*
X119937500Y-94475000D03*
X119937500Y-93975000D03*
D26*
X118475000Y-94975000D03*
D28*
X118162500Y-81175000D03*
X120062500Y-81175000D03*
D36*
X111687500Y-116400000D03*
X113512500Y-116400000D03*
D10*
X116600000Y-92500000D03*
X116600000Y-90850000D03*
D33*
X116350000Y-110950000D03*
X118550000Y-110950000D03*
D10*
X116550000Y-114200000D03*
X116550000Y-112550000D03*
D36*
X111625000Y-105612500D03*
X113450000Y-105612500D03*
D35*
X121725000Y-91950000D03*
X121725000Y-93775000D03*
D33*
X116412500Y-78275000D03*
X118612500Y-78275000D03*
D37*
X127637500Y-116900000D03*
X129287500Y-116900000D03*
D29*
X113713750Y-102887500D03*
D30*
X114825000Y-101912500D03*
X114825000Y-102562500D03*
X114825000Y-103212500D03*
X114825000Y-103862500D03*
X111825000Y-103862500D03*
X111825000Y-101912500D03*
X111825000Y-102562500D03*
X111825000Y-103212500D03*
D28*
X118100000Y-113850000D03*
X120000000Y-113850000D03*
D27*
X115300000Y-116200000D03*
X115300000Y-118100000D03*
D36*
X111712500Y-94700000D03*
X113537500Y-94700000D03*
D28*
X118025000Y-103062500D03*
X119925000Y-103062500D03*
D38*
X127850000Y-112950000D03*
D39*
X127937500Y-111450000D03*
D38*
X127850000Y-109950000D03*
D40*
X123500000Y-72500000D03*
X118500000Y-72500000D03*
X113500000Y-72500000D03*
X108500000Y-72500000D03*
X103499999Y-79980215D03*
X103500000Y-85000000D03*
X103500000Y-90000000D03*
X103500000Y-95000000D03*
X103500000Y-100000000D03*
X103500000Y-105000000D03*
X103500000Y-110000000D03*
X108500000Y-112500000D03*
X108500000Y-117500000D03*
X131000000Y-117500000D03*
X133500000Y-110000000D03*
X138500000Y-110000000D03*
X133500000Y-72500000D03*
X133500000Y-82500000D03*
X133500000Y-87500000D03*
X133500000Y-92500000D03*
X138500000Y-92500000D03*
X138500000Y-87500000D03*
X138500000Y-82500000D03*
X138500000Y-77500000D03*
X138500000Y-72500000D03*
X124650000Y-111750000D03*
X124650000Y-113400000D03*
X124650000Y-112550000D03*
X126400000Y-116650000D03*
X126400000Y-115600000D03*
X125400000Y-115600000D03*
X128400000Y-108900000D03*
X127350000Y-108000000D03*
X127400000Y-108900000D03*
X130300000Y-110000000D03*
X129500000Y-110000000D03*
X131050000Y-110000000D03*
X130500000Y-91500000D03*
X130500000Y-90500000D03*
X131500000Y-89500000D03*
X130500000Y-89500000D03*
X131500000Y-91500000D03*
X131500000Y-90500000D03*
X134000000Y-78500000D03*
X133000000Y-76500000D03*
X135000000Y-75496510D03*
X134042718Y-76486844D03*
X134000000Y-75500000D03*
X133000000Y-78500000D03*
X135000000Y-77500000D03*
X135000000Y-78500000D03*
X135000000Y-76500000D03*
X134000000Y-77500000D03*
X133000000Y-77500000D03*
X133000000Y-75500000D03*
X130800000Y-98300000D03*
X130850000Y-104600000D03*
X121180164Y-84000000D03*
X123400000Y-96750000D03*
X121087500Y-105787500D03*
X125500000Y-106650000D03*
X118750000Y-79025000D03*
X120725000Y-79875000D03*
X113725000Y-79275000D03*
X118050000Y-79925000D03*
X120025000Y-79875000D03*
X115275000Y-78625000D03*
X115275000Y-79275000D03*
X118050000Y-79025000D03*
X114525000Y-78625000D03*
X114525000Y-79275000D03*
X118750000Y-79925000D03*
X113725000Y-78624997D03*
X120750870Y-83419513D03*
X118075000Y-85775000D03*
X118950000Y-85775000D03*
X121375000Y-79875000D03*
X120650000Y-85250000D03*
X118675000Y-82350000D03*
X119375000Y-82331233D03*
X118750000Y-90000000D03*
X120725000Y-90850000D03*
X113725000Y-90250000D03*
X118050000Y-90900000D03*
X120025000Y-90850000D03*
X115275000Y-89600000D03*
X115275000Y-90250000D03*
X118050000Y-90000000D03*
X114525000Y-89600000D03*
X114525000Y-90250000D03*
X118750000Y-90900000D03*
X113725000Y-89599997D03*
X120661461Y-94389683D03*
X118075000Y-96750000D03*
X118950000Y-96750000D03*
X121375000Y-90850000D03*
X120750000Y-96200000D03*
X118675000Y-93325000D03*
X119375000Y-93306233D03*
X113625000Y-101150000D03*
X113625000Y-100499997D03*
X115175000Y-101150000D03*
X114425000Y-100500000D03*
X115175000Y-100500000D03*
X114425000Y-101150000D03*
X117950000Y-101800000D03*
X117950000Y-100900000D03*
X118650000Y-101800000D03*
X118650000Y-100900000D03*
X119925000Y-101750000D03*
X120625000Y-101750000D03*
X120580636Y-105269874D03*
X117975000Y-107650000D03*
X118850000Y-107650000D03*
X121275000Y-101750000D03*
X120600000Y-107100000D03*
X118575000Y-104225000D03*
X119275000Y-104206233D03*
X115250000Y-111300000D03*
X115250000Y-111950000D03*
X114500000Y-111950000D03*
X113700000Y-111950000D03*
X113700000Y-111299997D03*
X114500000Y-111300000D03*
X120700000Y-112550000D03*
X118925000Y-118450000D03*
X119350000Y-115006233D03*
X121350000Y-112550000D03*
X118650000Y-115025000D03*
X120634290Y-116063247D03*
X120000000Y-112550000D03*
X118050000Y-118450000D03*
X120700000Y-117825000D03*
X118725000Y-111700000D03*
X118025000Y-112600000D03*
X118025000Y-111700000D03*
X118725000Y-112600000D03*
D41*
X126650000Y-116900000D02*
X126400000Y-116650000D01*
X127637500Y-116900000D02*
X126650000Y-116900000D01*
X129237500Y-116850000D02*
X129287500Y-116900000D01*
X129237500Y-114700000D02*
X129237500Y-116850000D01*
X127850000Y-114512500D02*
X127662500Y-114700000D01*
X127850000Y-112950000D02*
X127850000Y-114512500D01*
D42*
X126745000Y-111000000D02*
X125937500Y-111000000D01*
X127937500Y-111450000D02*
X127195000Y-111450000D01*
X127195000Y-111450000D02*
X126745000Y-111000000D01*
D41*
X129950000Y-100250000D02*
X126900000Y-100250000D01*
X130450000Y-100750000D02*
X129950000Y-100250000D01*
X129950000Y-102750000D02*
X126900000Y-102750000D01*
X130450000Y-102250000D02*
X129950000Y-102750000D01*
X128750000Y-107100000D02*
X126900000Y-105250000D01*
X130450000Y-107100000D02*
X128750000Y-107100000D01*
X127000000Y-97750000D02*
X126900000Y-97750000D01*
X128850000Y-95900000D02*
X127000000Y-97750000D01*
X130450000Y-95900000D02*
X128850000Y-95900000D01*
X131900000Y-96000000D02*
X130550000Y-96000000D01*
X130550000Y-96000000D02*
X130450000Y-95900000D01*
X133400000Y-96000000D02*
X131900000Y-96000000D01*
X130550000Y-100650000D02*
X130450000Y-100750000D01*
X131900000Y-100650000D02*
X130550000Y-100650000D01*
X133400000Y-100650000D02*
X131900000Y-100650000D01*
X134625000Y-96550000D02*
X133525000Y-97650000D01*
X137450000Y-96550000D02*
X134625000Y-96550000D01*
X133525000Y-97650000D02*
X133400000Y-97650000D01*
X137450000Y-100550000D02*
X135050000Y-100550000D01*
X135050000Y-100550000D02*
X133500000Y-99000000D01*
X133500000Y-99000000D02*
X133400000Y-99000000D01*
X133475000Y-104000000D02*
X133400000Y-104000000D01*
X134925000Y-102550000D02*
X133475000Y-104000000D01*
X137450000Y-102550000D02*
X134925000Y-102550000D01*
X130550000Y-102350000D02*
X130450000Y-102250000D01*
X131900000Y-102350000D02*
X130550000Y-102350000D01*
X133400000Y-102350000D02*
X131900000Y-102350000D01*
X130550000Y-107000000D02*
X130450000Y-107100000D01*
X131900000Y-107000000D02*
X130550000Y-107000000D01*
X133400000Y-107000000D02*
X131900000Y-107000000D01*
X134600000Y-106550000D02*
X133400000Y-105350000D01*
X137450000Y-106550000D02*
X134600000Y-106550000D01*
X126900000Y-100250000D02*
X123400000Y-96750000D01*
X123400000Y-96750000D02*
X122125000Y-95475000D01*
X122125000Y-95475000D02*
X119937500Y-95475000D01*
X120690742Y-83500000D02*
X119925000Y-83500000D01*
X120703383Y-83467000D02*
X120703383Y-83487359D01*
X120703383Y-83487359D02*
X120690742Y-83500000D01*
X120750870Y-83419513D02*
X120703383Y-83467000D01*
X121180164Y-84000000D02*
X119925000Y-84000000D01*
X120800000Y-84500000D02*
X119925000Y-84500000D01*
X124125000Y-87825000D02*
X120800000Y-84500000D01*
X124125000Y-94750000D02*
X124125000Y-87825000D01*
X123900000Y-94975000D02*
X124125000Y-94750000D01*
X123850000Y-94975000D02*
X123900000Y-94975000D01*
X123850000Y-94975000D02*
X119937500Y-94975000D01*
X124125000Y-94975000D02*
X124125000Y-94750000D01*
X120400000Y-85000000D02*
X119925000Y-85000000D01*
X120650000Y-85250000D02*
X120400000Y-85000000D01*
X124125000Y-94975000D02*
X123850000Y-94975000D01*
X126900000Y-97750000D02*
X124125000Y-94975000D01*
X120675000Y-95975000D02*
X119937500Y-95975000D01*
X120750000Y-96050000D02*
X120675000Y-95975000D01*
X120750000Y-96200000D02*
X120750000Y-96050000D01*
X120661461Y-94389683D02*
X120576144Y-94475000D01*
X120576144Y-94475000D02*
X119937500Y-94475000D01*
X121012500Y-105862500D02*
X119850000Y-105862500D01*
X121087500Y-105787500D02*
X121012500Y-105862500D01*
X120537500Y-105362500D02*
X119850000Y-105362500D01*
X120580636Y-105269874D02*
X120580636Y-105319364D01*
X120580636Y-105319364D02*
X120537500Y-105362500D01*
X122750000Y-106400000D02*
X123050000Y-106700000D01*
X122750000Y-106362500D02*
X122750000Y-106400000D01*
X122750000Y-106362500D02*
X122887500Y-106362500D01*
X122887500Y-106362500D02*
X123100000Y-106150000D01*
X119850000Y-106362500D02*
X122750000Y-106362500D01*
X120600000Y-107100000D02*
X120600000Y-106950000D01*
X120512500Y-106862500D02*
X119850000Y-106862500D01*
X120600000Y-106950000D02*
X120512500Y-106862500D01*
X125500000Y-106650000D02*
X123775000Y-108375000D01*
X123050000Y-116350000D02*
X122725000Y-116675000D01*
X123050000Y-106500000D02*
X123050000Y-116350000D01*
X122725000Y-116675000D02*
X119887500Y-116675000D01*
X123050000Y-106700000D02*
X123050000Y-106500000D01*
X123050000Y-106200000D02*
X123050000Y-106500000D01*
X123100000Y-106150000D02*
X123050000Y-106200000D01*
X126500000Y-102750000D02*
X123100000Y-106150000D01*
X126900000Y-102750000D02*
X126500000Y-102750000D01*
X120522537Y-116175000D02*
X119887500Y-116175000D01*
X120634290Y-116063247D02*
X120522537Y-116175000D01*
X123150000Y-117175000D02*
X119887500Y-117175000D01*
X123775000Y-116550000D02*
X123150000Y-117175000D01*
X123775000Y-108375000D02*
X123775000Y-116550000D01*
X126900000Y-105250000D02*
X125500000Y-106650000D01*
X120650000Y-117675000D02*
X119887500Y-117675000D01*
X120700000Y-117825000D02*
X120700000Y-117725000D01*
X120700000Y-117725000D02*
X120650000Y-117675000D01*
G04 #@! TA.AperFunction,Conductor*
G36*
X114065677Y-115469685D02*
G01*
X114086319Y-115486319D01*
X114213681Y-115613681D01*
X114247166Y-115675004D01*
X114250000Y-115701362D01*
X114250000Y-116500000D01*
X114448477Y-116698477D01*
X114502850Y-116772150D01*
X114576522Y-116826522D01*
X114750000Y-117000000D01*
X116575431Y-117000000D01*
X116578979Y-117001041D01*
X116580508Y-117000962D01*
X116580508Y-117000500D01*
X116586598Y-117000499D01*
X116586599Y-117000500D01*
X117250500Y-117000499D01*
X117317539Y-117020183D01*
X117363294Y-117072987D01*
X117374500Y-117124499D01*
X117374500Y-117225500D01*
X117354815Y-117292539D01*
X117302011Y-117338294D01*
X117250500Y-117349500D01*
X116586602Y-117349500D01*
X116509882Y-117364760D01*
X116488417Y-117379103D01*
X116465536Y-117386266D01*
X116444347Y-117397491D01*
X116432797Y-117396517D01*
X116421739Y-117399980D01*
X116419527Y-117400000D01*
X115840398Y-117400000D01*
X115832162Y-117399614D01*
X115832162Y-117399635D01*
X115829277Y-117399500D01*
X115829266Y-117399500D01*
X114770734Y-117399500D01*
X114770723Y-117399500D01*
X114767838Y-117399635D01*
X114767837Y-117399614D01*
X114759602Y-117400000D01*
X113151362Y-117400000D01*
X113084323Y-117380315D01*
X113063681Y-117363681D01*
X112886319Y-117186319D01*
X112852834Y-117124996D01*
X112850000Y-117098638D01*
X112850000Y-115701362D01*
X112858644Y-115671921D01*
X112865168Y-115641935D01*
X112868922Y-115636919D01*
X112869685Y-115634323D01*
X112886319Y-115613681D01*
X113013681Y-115486319D01*
X113075004Y-115452834D01*
X113101362Y-115450000D01*
X113998638Y-115450000D01*
X114065677Y-115469685D01*
G37*
G04 #@! TD.AperFunction*
G04 #@! TA.AperFunction,Conductor*
G36*
X122365677Y-114769685D02*
G01*
X122386319Y-114786319D01*
X122513681Y-114913681D01*
X122547166Y-114975004D01*
X122550000Y-115001362D01*
X122550000Y-115848638D01*
X122541355Y-115878078D01*
X122534832Y-115908065D01*
X122531077Y-115913080D01*
X122530315Y-115915677D01*
X122513681Y-115936319D01*
X122386319Y-116063681D01*
X122324996Y-116097166D01*
X122298638Y-116100000D01*
X121205678Y-116100000D01*
X121138639Y-116080315D01*
X121092884Y-116027511D01*
X121085903Y-116008094D01*
X121084790Y-116003940D01*
X121084790Y-116003938D01*
X121054089Y-115889361D01*
X120994779Y-115786634D01*
X120910903Y-115702758D01*
X120808176Y-115643448D01*
X120693599Y-115612747D01*
X120574981Y-115612747D01*
X120460404Y-115643448D01*
X120460402Y-115643448D01*
X120460402Y-115643449D01*
X120357677Y-115702758D01*
X120357674Y-115702760D01*
X120273803Y-115786631D01*
X120273798Y-115786637D01*
X120273301Y-115787500D01*
X120272690Y-115788082D01*
X120268853Y-115793083D01*
X120268073Y-115792484D01*
X120222734Y-115835716D01*
X120165914Y-115849500D01*
X119599500Y-115849500D01*
X119590814Y-115846949D01*
X119581853Y-115848238D01*
X119557812Y-115837259D01*
X119532461Y-115829815D01*
X119526533Y-115822974D01*
X119518297Y-115819213D01*
X119504007Y-115796978D01*
X119486706Y-115777011D01*
X119484418Y-115766496D01*
X119480523Y-115760435D01*
X119475500Y-115725500D01*
X119475500Y-115614937D01*
X119495185Y-115547898D01*
X119531542Y-115511218D01*
X120662451Y-114770279D01*
X120729314Y-114750005D01*
X120730406Y-114750000D01*
X122298638Y-114750000D01*
X122365677Y-114769685D01*
G37*
G04 #@! TD.AperFunction*
G04 #@! TA.AperFunction,Conductor*
G36*
X120700000Y-113300000D02*
G01*
X120700000Y-114500000D01*
X118944737Y-115650000D01*
X117585185Y-115650000D01*
X118624729Y-114682148D01*
X118672150Y-114647150D01*
X118693739Y-114617897D01*
X119100000Y-114239656D01*
X119100000Y-113300000D01*
X119250000Y-113100000D01*
X120500000Y-113100000D01*
X120700000Y-113300000D01*
G37*
G04 #@! TD.AperFunction*
G04 #@! TA.AperFunction,Conductor*
G36*
X119274500Y-117763398D02*
G01*
X119289760Y-117840118D01*
X119289761Y-117840120D01*
X119300000Y-117855443D01*
X119300000Y-118650000D01*
X119150000Y-118850000D01*
X117750000Y-118850000D01*
X117550000Y-118650000D01*
X117550000Y-117954494D01*
X117551988Y-117950940D01*
X117551990Y-117950937D01*
X117571675Y-117883898D01*
X117580000Y-117826000D01*
X117580000Y-117750000D01*
X119274500Y-117750000D01*
X119274500Y-117763398D01*
G37*
G04 #@! TD.AperFunction*
G04 #@! TA.AperFunction,Conductor*
G36*
X122415677Y-111219685D02*
G01*
X122436319Y-111236319D01*
X122513681Y-111313681D01*
X122547166Y-111375004D01*
X122550000Y-111401362D01*
X122550000Y-114098638D01*
X122541355Y-114128078D01*
X122534832Y-114158065D01*
X122531077Y-114163080D01*
X122530315Y-114165677D01*
X122513681Y-114186319D01*
X122386319Y-114313681D01*
X122324996Y-114347166D01*
X122298638Y-114350000D01*
X121101362Y-114350000D01*
X121034323Y-114330315D01*
X121013681Y-114313681D01*
X120986319Y-114286319D01*
X120952834Y-114224996D01*
X120950000Y-114198638D01*
X120950000Y-113201362D01*
X120958644Y-113171921D01*
X120965168Y-113141935D01*
X120968922Y-113136919D01*
X120969685Y-113134323D01*
X120986319Y-113113681D01*
X121008181Y-113091819D01*
X121069504Y-113058334D01*
X121095862Y-113055500D01*
X121499995Y-113055500D01*
X121500000Y-113055500D01*
X121567872Y-113043968D01*
X121645310Y-112995310D01*
X121795310Y-112845310D01*
X121835149Y-112789163D01*
X121855500Y-112700000D01*
X121855500Y-112320980D01*
X121854773Y-112303706D01*
X121826999Y-112216569D01*
X121793893Y-112181552D01*
X121762142Y-112119316D01*
X121760000Y-112096366D01*
X121760000Y-111362698D01*
X121762382Y-111338510D01*
X121767679Y-111311877D01*
X121800063Y-111249965D01*
X121801565Y-111248434D01*
X121813685Y-111236315D01*
X121875010Y-111202833D01*
X121901363Y-111200000D01*
X122348638Y-111200000D01*
X122415677Y-111219685D01*
G37*
G04 #@! TD.AperFunction*
G04 #@! TA.AperFunction,Conductor*
G36*
X121568389Y-111268389D02*
G01*
X121566132Y-111271769D01*
X121566131Y-111271770D01*
X121554500Y-111330247D01*
X121554500Y-112169752D01*
X121566131Y-112228229D01*
X121566132Y-112228230D01*
X121610447Y-112294552D01*
X121650000Y-112320980D01*
X121650000Y-112700000D01*
X121500000Y-112850000D01*
X119450000Y-112850000D01*
X119300000Y-112700000D01*
X119300000Y-111400000D01*
X119450000Y-111200000D01*
X121500000Y-111200000D01*
X121568389Y-111268389D01*
G37*
G04 #@! TD.AperFunction*
G04 #@! TA.AperFunction,Conductor*
G36*
X117317539Y-117574685D02*
G01*
X117363294Y-117627489D01*
X117374500Y-117679000D01*
X117374500Y-117826000D01*
X117354815Y-117893039D01*
X117302011Y-117938794D01*
X117250500Y-117950000D01*
X116800000Y-117950000D01*
X115989220Y-118811454D01*
X115928939Y-118846781D01*
X115903655Y-118850000D01*
X114650000Y-118850000D01*
X114500000Y-118700000D01*
X114500000Y-117650000D01*
X114544500Y-117605500D01*
X114759605Y-117605500D01*
X114760249Y-117605484D01*
X114769224Y-117605275D01*
X114771987Y-117605145D01*
X114772191Y-117605136D01*
X114777995Y-117605000D01*
X115822006Y-117605000D01*
X115827810Y-117605136D01*
X115827948Y-117605142D01*
X115830777Y-117605275D01*
X115839750Y-117605484D01*
X115840395Y-117605500D01*
X115840398Y-117605500D01*
X116419523Y-117605500D01*
X116419527Y-117605500D01*
X116420202Y-117605497D01*
X116421392Y-117605492D01*
X116422295Y-117605483D01*
X116423597Y-117605472D01*
X116441815Y-117602601D01*
X116452230Y-117602840D01*
X116469096Y-117598302D01*
X116475618Y-117597275D01*
X116475617Y-117597275D01*
X116483154Y-117596088D01*
X116494212Y-117592625D01*
X116494211Y-117592624D01*
X116515877Y-117585839D01*
X116518268Y-117585076D01*
X116540547Y-117579084D01*
X116545002Y-117576723D01*
X116549812Y-117575218D01*
X116566687Y-117567143D01*
X116620206Y-117555000D01*
X117250500Y-117555000D01*
X117317539Y-117574685D01*
G37*
G04 #@! TD.AperFunction*
G04 #@! TA.AperFunction,Conductor*
G36*
X116915677Y-113669685D02*
G01*
X116936319Y-113686319D01*
X117063681Y-113813681D01*
X117097166Y-113875004D01*
X117100000Y-113901362D01*
X117100000Y-114196705D01*
X117092429Y-114239369D01*
X117086654Y-114255127D01*
X117078775Y-114266159D01*
X117055825Y-114307726D01*
X117034258Y-114360391D01*
X117021460Y-114406124D01*
X117013951Y-114453533D01*
X117009795Y-114464875D01*
X117007092Y-114468528D01*
X117003851Y-114478506D01*
X116993638Y-114498550D01*
X116970834Y-114529936D01*
X116954937Y-114545833D01*
X116923553Y-114568636D01*
X116899645Y-114580817D01*
X116899644Y-114580818D01*
X116858846Y-114608198D01*
X116858841Y-114608202D01*
X116814247Y-114646603D01*
X116814241Y-114646609D01*
X116781113Y-114682885D01*
X116781106Y-114682894D01*
X116305915Y-115348163D01*
X116302945Y-115352429D01*
X116299583Y-115357390D01*
X116299577Y-115357399D01*
X116272511Y-115414797D01*
X116252826Y-115481833D01*
X116252825Y-115481838D01*
X116252825Y-115481839D01*
X116248164Y-115514259D01*
X116244500Y-115539740D01*
X116244500Y-115648638D01*
X116245678Y-115670618D01*
X116248511Y-115696965D01*
X116248512Y-115696967D01*
X116253461Y-115712771D01*
X116272471Y-115773482D01*
X116272473Y-115773486D01*
X116272474Y-115773488D01*
X116284754Y-115795977D01*
X116299891Y-115852624D01*
X116310395Y-116321069D01*
X116426475Y-116444404D01*
X116426477Y-116444404D01*
X116435450Y-116448282D01*
X116440982Y-116448046D01*
X116466863Y-116459479D01*
X116473683Y-116461325D01*
X116476924Y-116463217D01*
X116509883Y-116485240D01*
X116586599Y-116500500D01*
X117250500Y-116500499D01*
X117259186Y-116503049D01*
X117268147Y-116501761D01*
X117292183Y-116512738D01*
X117317539Y-116520183D01*
X117323467Y-116527025D01*
X117331703Y-116530786D01*
X117345989Y-116553017D01*
X117363294Y-116572987D01*
X117365581Y-116583502D01*
X117369477Y-116589564D01*
X117374500Y-116624499D01*
X117374500Y-116670999D01*
X117354815Y-116738038D01*
X117302011Y-116783793D01*
X117250500Y-116794999D01*
X116592692Y-116794999D01*
X116592654Y-116794998D01*
X116586858Y-116794999D01*
X116578002Y-116794684D01*
X116575435Y-116794500D01*
X116575431Y-116794500D01*
X116575426Y-116794500D01*
X114886482Y-116794500D01*
X114819443Y-116774815D01*
X114798801Y-116758181D01*
X114721842Y-116681222D01*
X114721832Y-116681212D01*
X114721822Y-116681204D01*
X114721812Y-116681194D01*
X114698562Y-116661186D01*
X114698557Y-116661182D01*
X114698551Y-116661177D01*
X114686543Y-116652314D01*
X114664839Y-116636296D01*
X114645882Y-116619006D01*
X114642088Y-116614747D01*
X114613822Y-116576447D01*
X114593787Y-116553167D01*
X114533789Y-116493169D01*
X114531408Y-116490496D01*
X114517925Y-116462013D01*
X114502834Y-116434375D01*
X114502243Y-116428883D01*
X114501515Y-116427344D01*
X114501822Y-116424971D01*
X114500000Y-116408017D01*
X114500000Y-115809597D01*
X114519685Y-115742558D01*
X114546536Y-115712771D01*
X114716035Y-115577172D01*
X114780681Y-115550664D01*
X114793497Y-115550000D01*
X115050000Y-115550000D01*
X115950000Y-114700000D01*
X115950000Y-113901362D01*
X115958644Y-113871921D01*
X115965168Y-113841935D01*
X115968922Y-113836919D01*
X115969685Y-113834323D01*
X115986319Y-113813681D01*
X116113681Y-113686319D01*
X116175004Y-113652834D01*
X116201362Y-113650000D01*
X116848638Y-113650000D01*
X116915677Y-113669685D01*
G37*
G04 #@! TD.AperFunction*
G04 #@! TA.AperFunction,Conductor*
G36*
X118965677Y-110469685D02*
G01*
X118986319Y-110486319D01*
X119063681Y-110563681D01*
X119097166Y-110625004D01*
X119100000Y-110651362D01*
X119100000Y-111361930D01*
X119096891Y-111389524D01*
X119094500Y-111399998D01*
X119094500Y-112700001D01*
X119098248Y-112722058D01*
X119100000Y-112742828D01*
X119100000Y-112855106D01*
X119080315Y-112922145D01*
X119071266Y-112934480D01*
X118850000Y-113200000D01*
X118850000Y-113200001D01*
X118850000Y-114137658D01*
X118830315Y-114204697D01*
X118810496Y-114228413D01*
X118553708Y-114467491D01*
X118531798Y-114492051D01*
X118512907Y-114509269D01*
X118502702Y-114516801D01*
X118484693Y-114531746D01*
X117776334Y-115191255D01*
X117713855Y-115222530D01*
X117691838Y-115224500D01*
X117555247Y-115224500D01*
X117496770Y-115236131D01*
X117496769Y-115236132D01*
X117430447Y-115280447D01*
X117386132Y-115346769D01*
X117386131Y-115346770D01*
X117374500Y-115405247D01*
X117374500Y-115676000D01*
X117354815Y-115743039D01*
X117302011Y-115788794D01*
X117250500Y-115800000D01*
X116601362Y-115800000D01*
X116571921Y-115791355D01*
X116541935Y-115784832D01*
X116536919Y-115781077D01*
X116534323Y-115780315D01*
X116513681Y-115763681D01*
X116486319Y-115736319D01*
X116452834Y-115674996D01*
X116450000Y-115648638D01*
X116450000Y-115539737D01*
X116469685Y-115472698D01*
X116473097Y-115467664D01*
X116948336Y-114802329D01*
X116992939Y-114763921D01*
X117063342Y-114728050D01*
X117153050Y-114638342D01*
X117210646Y-114525304D01*
X117224430Y-114438269D01*
X117245997Y-114385604D01*
X117450000Y-114100000D01*
X117450000Y-110651362D01*
X117458644Y-110621921D01*
X117465168Y-110591935D01*
X117468922Y-110586919D01*
X117469685Y-110584323D01*
X117486319Y-110563681D01*
X117563681Y-110486319D01*
X117625004Y-110452834D01*
X117651362Y-110450000D01*
X118898638Y-110450000D01*
X118965677Y-110469685D01*
G37*
G04 #@! TD.AperFunction*
G04 #@! TA.AperFunction,Conductor*
G36*
X112315677Y-114519685D02*
G01*
X112336319Y-114536319D01*
X112413681Y-114613681D01*
X112447166Y-114675004D01*
X112450000Y-114701362D01*
X112450000Y-116998638D01*
X112441355Y-117028078D01*
X112434832Y-117058065D01*
X112431077Y-117063080D01*
X112430315Y-117065677D01*
X112413681Y-117086319D01*
X112286319Y-117213681D01*
X112224996Y-117247166D01*
X112198638Y-117250000D01*
X111301362Y-117250000D01*
X111234323Y-117230315D01*
X111213681Y-117213681D01*
X111086319Y-117086319D01*
X111052834Y-117024996D01*
X111050000Y-116998638D01*
X111050000Y-114701362D01*
X111058644Y-114671921D01*
X111065168Y-114641935D01*
X111068922Y-114636919D01*
X111069685Y-114634323D01*
X111086319Y-114613681D01*
X111163681Y-114536319D01*
X111225004Y-114502834D01*
X111251362Y-114500000D01*
X112248638Y-114500000D01*
X112315677Y-114519685D01*
G37*
G04 #@! TD.AperFunction*
G04 #@! TA.AperFunction,Conductor*
G36*
X115415677Y-110969685D02*
G01*
X115436319Y-110986319D01*
X115613681Y-111163681D01*
X115647166Y-111225004D01*
X115650000Y-111251362D01*
X115650000Y-114498638D01*
X115630315Y-114565677D01*
X115613681Y-114586319D01*
X115386319Y-114813681D01*
X115324996Y-114847166D01*
X115298638Y-114850000D01*
X113174000Y-114850000D01*
X113106961Y-114830315D01*
X113061206Y-114777511D01*
X113050000Y-114726000D01*
X113050000Y-112708078D01*
X113069685Y-112641039D01*
X113094617Y-112612819D01*
X113350000Y-112400000D01*
X113350000Y-111251362D01*
X113369685Y-111184323D01*
X113386319Y-111163681D01*
X113563681Y-110986319D01*
X113625004Y-110952834D01*
X113651362Y-110950000D01*
X115348638Y-110950000D01*
X115415677Y-110969685D01*
G37*
G04 #@! TD.AperFunction*
G04 #@! TA.AperFunction,Conductor*
G36*
X117068003Y-110469685D02*
G01*
X117085773Y-110483537D01*
X117205309Y-110595602D01*
X117240753Y-110655814D01*
X117244500Y-110686065D01*
X117244500Y-112854138D01*
X117235855Y-112883578D01*
X117229332Y-112913565D01*
X117225577Y-112918580D01*
X117224815Y-112921177D01*
X117208181Y-112941819D01*
X117086319Y-113063681D01*
X117024996Y-113097166D01*
X116998638Y-113100000D01*
X116151362Y-113100000D01*
X116084323Y-113080315D01*
X116063681Y-113063681D01*
X115936319Y-112936319D01*
X115902834Y-112874996D01*
X115900000Y-112848638D01*
X115900000Y-110701362D01*
X115908644Y-110671921D01*
X115915168Y-110641935D01*
X115918922Y-110636919D01*
X115919685Y-110634323D01*
X115936319Y-110613681D01*
X116063681Y-110486319D01*
X116125004Y-110452834D01*
X116151362Y-110450000D01*
X117000964Y-110450000D01*
X117068003Y-110469685D01*
G37*
G04 #@! TD.AperFunction*
G04 #@! TA.AperFunction,Conductor*
G36*
X108965677Y-100069685D02*
G01*
X108986319Y-100086319D01*
X109462656Y-100562656D01*
X109496141Y-100623979D01*
X109498972Y-100651180D01*
X109491542Y-101744296D01*
X109471402Y-101811200D01*
X109449268Y-101836712D01*
X108350000Y-102799998D01*
X108350000Y-102800000D01*
X108350000Y-107000000D01*
X109550000Y-108150000D01*
X114059577Y-108131668D01*
X114126695Y-108151080D01*
X114160397Y-108182781D01*
X114163263Y-108186725D01*
X114163270Y-108186734D01*
X114313271Y-108336735D01*
X114329667Y-108350738D01*
X114361653Y-108378056D01*
X114407394Y-108401362D01*
X114474696Y-108435654D01*
X114576419Y-108451765D01*
X114600000Y-108455500D01*
X114600001Y-108455500D01*
X115853258Y-108455500D01*
X115853259Y-108455500D01*
X115853262Y-108455499D01*
X115853278Y-108455499D01*
X115883547Y-108453585D01*
X115904306Y-108452274D01*
X115930028Y-108449010D01*
X115965862Y-108442819D01*
X115979429Y-108437510D01*
X116084000Y-108396589D01*
X116084003Y-108396587D01*
X116084006Y-108396586D01*
X116144287Y-108361259D01*
X116144294Y-108361252D01*
X116144299Y-108361250D01*
X116229558Y-108293300D01*
X116234547Y-108289324D01*
X116355339Y-108160981D01*
X116415616Y-108125657D01*
X116445120Y-108121971D01*
X117143802Y-108119130D01*
X117210918Y-108138542D01*
X117231984Y-108155448D01*
X117413271Y-108336735D01*
X117429667Y-108350738D01*
X117461653Y-108378056D01*
X117507394Y-108401362D01*
X117574696Y-108435654D01*
X117676419Y-108451765D01*
X117700000Y-108455500D01*
X117700001Y-108455500D01*
X119100003Y-108455500D01*
X119151187Y-108447790D01*
X119219437Y-108437511D01*
X119333339Y-108381637D01*
X119424400Y-108293300D01*
X119525391Y-108158644D01*
X119581359Y-108116826D01*
X119624081Y-108109048D01*
X121798345Y-108100209D01*
X121865461Y-108119621D01*
X121886527Y-108136527D01*
X122063681Y-108313681D01*
X122097166Y-108375004D01*
X122100000Y-108401362D01*
X122100000Y-110576000D01*
X122080315Y-110643039D01*
X122027511Y-110688794D01*
X121976000Y-110700000D01*
X119624449Y-110700000D01*
X119557410Y-110680315D01*
X119511655Y-110627511D01*
X119501160Y-110589263D01*
X119500342Y-110581655D01*
X119498854Y-110571560D01*
X119495700Y-110550162D01*
X119495699Y-110550158D01*
X119453065Y-110430668D01*
X119419580Y-110369345D01*
X119419578Y-110369342D01*
X119350419Y-110276956D01*
X119350410Y-110276946D01*
X119273051Y-110199587D01*
X119273034Y-110199572D01*
X119273014Y-110199553D01*
X119240758Y-110170580D01*
X119240751Y-110170574D01*
X119220122Y-110153951D01*
X119220121Y-110153950D01*
X119220112Y-110153943D01*
X119194561Y-110134958D01*
X119184980Y-110130416D01*
X119079927Y-110080612D01*
X119012885Y-110060926D01*
X119012877Y-110060924D01*
X118898638Y-110044500D01*
X117651362Y-110044500D01*
X117651361Y-110044500D01*
X117608003Y-110046824D01*
X117581648Y-110049658D01*
X117550162Y-110054299D01*
X117476419Y-110080611D01*
X117430668Y-110096935D01*
X117430666Y-110096935D01*
X117430666Y-110096936D01*
X117386676Y-110120956D01*
X117318402Y-110135807D01*
X117274132Y-110124170D01*
X117182251Y-110080611D01*
X117115211Y-110060926D01*
X117115203Y-110060924D01*
X117000964Y-110044500D01*
X116151362Y-110044500D01*
X116151361Y-110044500D01*
X116108003Y-110046824D01*
X116081648Y-110049658D01*
X116050162Y-110054299D01*
X115976419Y-110080611D01*
X115930668Y-110096935D01*
X115930666Y-110096935D01*
X115930663Y-110096937D01*
X115869350Y-110130416D01*
X115869342Y-110130421D01*
X115776956Y-110199580D01*
X115776946Y-110199589D01*
X115649582Y-110326954D01*
X115649553Y-110326985D01*
X115620580Y-110359241D01*
X115620574Y-110359248D01*
X115603941Y-110379890D01*
X115585969Y-110404071D01*
X115585017Y-110405353D01*
X115585015Y-110405357D01*
X115584968Y-110405434D01*
X115581434Y-110412669D01*
X115564970Y-110437505D01*
X115547911Y-110481314D01*
X115545650Y-110485945D01*
X115525424Y-110508099D01*
X115507107Y-110531852D01*
X115502115Y-110533632D01*
X115498543Y-110537546D01*
X115469556Y-110545247D01*
X115441300Y-110555328D01*
X115432963Y-110554970D01*
X115431016Y-110555488D01*
X115428862Y-110554794D01*
X115416581Y-110554268D01*
X115348639Y-110544500D01*
X115348638Y-110544500D01*
X113651362Y-110544500D01*
X113651361Y-110544500D01*
X113608003Y-110546824D01*
X113581648Y-110549658D01*
X113550162Y-110554299D01*
X113489342Y-110576000D01*
X113430668Y-110596935D01*
X113430666Y-110596935D01*
X113430663Y-110596937D01*
X113369350Y-110630416D01*
X113369342Y-110630421D01*
X113276956Y-110699580D01*
X113276938Y-110699596D01*
X113099601Y-110876934D01*
X113099553Y-110876985D01*
X113070580Y-110909241D01*
X113070574Y-110909248D01*
X113053951Y-110929877D01*
X113034957Y-110955440D01*
X112980612Y-111070072D01*
X112960926Y-111137114D01*
X112960924Y-111137122D01*
X112944500Y-111251361D01*
X112944500Y-112036554D01*
X112924815Y-112103593D01*
X112872011Y-112149348D01*
X112839897Y-112159027D01*
X112774700Y-112169352D01*
X112774699Y-112169352D01*
X112730500Y-112191873D01*
X112661658Y-112226950D01*
X112661657Y-112226951D01*
X112661652Y-112226954D01*
X112571954Y-112316652D01*
X112571951Y-112316657D01*
X112514352Y-112429698D01*
X112499500Y-112523475D01*
X112499500Y-113987464D01*
X112479815Y-114054503D01*
X112427011Y-114100258D01*
X112357854Y-114110202D01*
X112248639Y-114094500D01*
X112248638Y-114094500D01*
X111251362Y-114094500D01*
X111251361Y-114094500D01*
X111208003Y-114096824D01*
X111181648Y-114099658D01*
X111150162Y-114104299D01*
X111076419Y-114130611D01*
X111030668Y-114146935D01*
X111030666Y-114146935D01*
X111030663Y-114146937D01*
X110969350Y-114180416D01*
X110969342Y-114180421D01*
X110876956Y-114249580D01*
X110876946Y-114249589D01*
X110799582Y-114326954D01*
X110799553Y-114326985D01*
X110770580Y-114359241D01*
X110770574Y-114359248D01*
X110753941Y-114379890D01*
X110735017Y-114405352D01*
X110735014Y-114405357D01*
X110731824Y-114412082D01*
X110714970Y-114437505D01*
X110693012Y-114493894D01*
X110691109Y-114497908D01*
X110680641Y-114519976D01*
X110675309Y-114538118D01*
X110675308Y-114538117D01*
X110673816Y-114543197D01*
X110668938Y-114555728D01*
X110665499Y-114571529D01*
X110664251Y-114575783D01*
X110664249Y-114575793D01*
X110660925Y-114587117D01*
X110660921Y-114587134D01*
X110644500Y-114701359D01*
X110644500Y-116998638D01*
X110646824Y-117041996D01*
X110649658Y-117068351D01*
X110654299Y-117099837D01*
X110654301Y-117099842D01*
X110696935Y-117219332D01*
X110696936Y-117219335D01*
X110696937Y-117219336D01*
X110730416Y-117280649D01*
X110730421Y-117280657D01*
X110799580Y-117373043D01*
X110799586Y-117373049D01*
X110799587Y-117373051D01*
X110926949Y-117500413D01*
X110926967Y-117500429D01*
X110926985Y-117500446D01*
X110959241Y-117529419D01*
X110959248Y-117529425D01*
X110974518Y-117541730D01*
X110979888Y-117546057D01*
X111005439Y-117565042D01*
X111069697Y-117595505D01*
X111120072Y-117619387D01*
X111120074Y-117619387D01*
X111120077Y-117619389D01*
X111187116Y-117639074D01*
X111187120Y-117639074D01*
X111187122Y-117639075D01*
X111202912Y-117641345D01*
X111301362Y-117655500D01*
X111301365Y-117655500D01*
X112198639Y-117655500D01*
X112202709Y-117655281D01*
X112241987Y-117653176D01*
X112268345Y-117650342D01*
X112277962Y-117648924D01*
X112299837Y-117645700D01*
X112299838Y-117645699D01*
X112299842Y-117645699D01*
X112419332Y-117603065D01*
X112480655Y-117569580D01*
X112517860Y-117541728D01*
X112583320Y-117517311D01*
X112651593Y-117532161D01*
X112679850Y-117553314D01*
X112776949Y-117650413D01*
X112776969Y-117650431D01*
X112776985Y-117650446D01*
X112809241Y-117679419D01*
X112809246Y-117679423D01*
X112829888Y-117696057D01*
X112855439Y-117715042D01*
X112919794Y-117745551D01*
X112970072Y-117769387D01*
X112970074Y-117769387D01*
X112970077Y-117769389D01*
X113037116Y-117789074D01*
X113037120Y-117789074D01*
X113037122Y-117789075D01*
X113052912Y-117791345D01*
X113151362Y-117805500D01*
X113151365Y-117805500D01*
X114500000Y-117805500D01*
X114500000Y-118700000D01*
X114650000Y-118850000D01*
X115903655Y-118850000D01*
X115900010Y-118850464D01*
X110291936Y-118899632D01*
X110224727Y-118880536D01*
X110216449Y-118874837D01*
X110131938Y-118811454D01*
X109299600Y-118187200D01*
X109257779Y-118131229D01*
X109250000Y-118088000D01*
X109250000Y-112073610D01*
X109249999Y-112073608D01*
X105687562Y-108610127D01*
X105653217Y-108549282D01*
X105650000Y-108521220D01*
X105650000Y-101476362D01*
X105669685Y-101409323D01*
X105686319Y-101388681D01*
X106988681Y-100086319D01*
X107050004Y-100052834D01*
X107076362Y-100050000D01*
X108898638Y-100050000D01*
X108965677Y-100069685D01*
G37*
G04 #@! TD.AperFunction*
G04 #@! TA.AperFunction,Conductor*
G36*
X122365677Y-100419685D02*
G01*
X122386319Y-100436319D01*
X122463681Y-100513681D01*
X122497166Y-100575004D01*
X122500000Y-100601362D01*
X122500000Y-103298638D01*
X122491355Y-103328078D01*
X122484832Y-103358065D01*
X122481077Y-103363080D01*
X122480315Y-103365677D01*
X122463681Y-103386319D01*
X122336319Y-103513681D01*
X122274996Y-103547166D01*
X122248638Y-103550000D01*
X121051362Y-103550000D01*
X120984323Y-103530315D01*
X120963681Y-103513681D01*
X120936319Y-103486319D01*
X120902834Y-103424996D01*
X120900000Y-103398638D01*
X120900000Y-102401362D01*
X120908644Y-102371921D01*
X120915168Y-102341935D01*
X120918922Y-102336919D01*
X120919685Y-102334323D01*
X120936319Y-102313681D01*
X120958181Y-102291819D01*
X121019504Y-102258334D01*
X121045862Y-102255500D01*
X121449995Y-102255500D01*
X121450000Y-102255500D01*
X121517872Y-102243968D01*
X121595310Y-102195310D01*
X121745310Y-102045310D01*
X121785149Y-101989163D01*
X121805500Y-101900000D01*
X121805500Y-101533480D01*
X121804773Y-101516206D01*
X121776999Y-101429069D01*
X121743893Y-101394052D01*
X121712142Y-101331816D01*
X121710000Y-101308866D01*
X121710000Y-100575194D01*
X121712380Y-100551015D01*
X121715800Y-100533820D01*
X121720375Y-100517062D01*
X121722554Y-100510837D01*
X121727604Y-100496405D01*
X121727603Y-100496404D01*
X121731181Y-100486183D01*
X121760554Y-100439446D01*
X121763696Y-100436305D01*
X121825024Y-100402830D01*
X121851363Y-100400000D01*
X122298638Y-100400000D01*
X122365677Y-100419685D01*
G37*
G04 #@! TD.AperFunction*
G04 #@! TA.AperFunction,Conductor*
G36*
X118915677Y-99669685D02*
G01*
X118936319Y-99686319D01*
X119013681Y-99763681D01*
X119047166Y-99825004D01*
X119050000Y-99851362D01*
X119050000Y-100561930D01*
X119046891Y-100589524D01*
X119044500Y-100599998D01*
X119044500Y-101900001D01*
X119048248Y-101922058D01*
X119050000Y-101942828D01*
X119050000Y-102055106D01*
X119030315Y-102122145D01*
X119021266Y-102134480D01*
X118800000Y-102400000D01*
X118800000Y-102400001D01*
X118800000Y-103337660D01*
X118780315Y-103404699D01*
X118760496Y-103428415D01*
X117739761Y-104378755D01*
X117677282Y-104410030D01*
X117655265Y-104412000D01*
X117517747Y-104412000D01*
X117459270Y-104423631D01*
X117459269Y-104423632D01*
X117392947Y-104467947D01*
X117348632Y-104534269D01*
X117348631Y-104534270D01*
X117337000Y-104592747D01*
X117337000Y-104813688D01*
X117336911Y-104818373D01*
X117336472Y-104829970D01*
X117332499Y-104847380D01*
X117332499Y-104850000D01*
X117334907Y-104871373D01*
X117334555Y-104880685D01*
X117326294Y-104905331D01*
X117321810Y-104930937D01*
X117315371Y-104937923D01*
X117312352Y-104946933D01*
X117292077Y-104963201D01*
X117274462Y-104982317D01*
X117264980Y-104984944D01*
X117257857Y-104990660D01*
X117236062Y-104992956D01*
X117210644Y-105000000D01*
X116575513Y-105000000D01*
X116508474Y-104980315D01*
X116462719Y-104927511D01*
X116451544Y-104878784D01*
X116451063Y-104857362D01*
X116469238Y-104789902D01*
X116475036Y-104781256D01*
X117191684Y-103804285D01*
X117195354Y-103799117D01*
X117199685Y-103792814D01*
X117227490Y-103734333D01*
X117247175Y-103667294D01*
X117255500Y-103609396D01*
X117255500Y-103542038D01*
X117275185Y-103474999D01*
X117278597Y-103469965D01*
X117373100Y-103337660D01*
X117400000Y-103300000D01*
X117400000Y-102095760D01*
X117401262Y-102078113D01*
X117402341Y-102070607D01*
X117405500Y-102048638D01*
X117405500Y-99891221D01*
X117403941Y-99865960D01*
X117403682Y-99863875D01*
X117404220Y-99860588D01*
X117403056Y-99857466D01*
X117409824Y-99826350D01*
X117414968Y-99794928D01*
X117417409Y-99791482D01*
X117417908Y-99789193D01*
X117439053Y-99760946D01*
X117513683Y-99686316D01*
X117575005Y-99652834D01*
X117601362Y-99650000D01*
X118848638Y-99650000D01*
X118915677Y-99669685D01*
G37*
G04 #@! TD.AperFunction*
G04 #@! TA.AperFunction,Conductor*
G36*
X117280039Y-106762185D02*
G01*
X117325794Y-106814989D01*
X117337000Y-106866500D01*
X117337000Y-106895825D01*
X117334615Y-106920030D01*
X117333099Y-106927647D01*
X117319164Y-106964932D01*
X117314852Y-106972481D01*
X117314850Y-106972488D01*
X117296338Y-107053593D01*
X117262229Y-107114572D01*
X117200567Y-107147429D01*
X117175447Y-107150000D01*
X116750000Y-107150000D01*
X115939262Y-108011409D01*
X115878981Y-108046736D01*
X115853259Y-108050000D01*
X114600000Y-108050000D01*
X114450000Y-107900000D01*
X114450000Y-106850000D01*
X114494500Y-106805500D01*
X116363316Y-106805500D01*
X116363320Y-106805500D01*
X116364062Y-106805496D01*
X116365182Y-106805492D01*
X116366124Y-106805483D01*
X116367390Y-106805472D01*
X116426941Y-106796091D01*
X116426942Y-106796090D01*
X116426946Y-106796090D01*
X116453052Y-106787914D01*
X116493617Y-106775213D01*
X116520847Y-106762185D01*
X116536609Y-106754644D01*
X116590127Y-106742500D01*
X117213000Y-106742500D01*
X117280039Y-106762185D01*
G37*
G04 #@! TD.AperFunction*
G04 #@! TA.AperFunction,Conductor*
G36*
X120650000Y-102500000D02*
G01*
X120650000Y-103700000D01*
X118894737Y-104850000D01*
X117537999Y-104850000D01*
X117537999Y-104847380D01*
X119050000Y-103439656D01*
X119050000Y-102500000D01*
X119200000Y-102300000D01*
X120450000Y-102300000D01*
X120650000Y-102500000D01*
G37*
G04 #@! TD.AperFunction*
G04 #@! TA.AperFunction,Conductor*
G36*
X121523396Y-100473396D02*
G01*
X121516132Y-100484269D01*
X121516131Y-100484270D01*
X121504500Y-100542747D01*
X121504500Y-101382252D01*
X121516131Y-101440729D01*
X121516132Y-101440730D01*
X121560447Y-101507052D01*
X121600000Y-101533480D01*
X121600000Y-101900000D01*
X121450000Y-102050000D01*
X119400000Y-102050000D01*
X119250000Y-101900000D01*
X119250000Y-100600000D01*
X119400000Y-100400000D01*
X121450000Y-100400000D01*
X121523396Y-100473396D01*
G37*
G04 #@! TD.AperFunction*
G04 #@! TA.AperFunction,Conductor*
G36*
X122315677Y-103969685D02*
G01*
X122336319Y-103986319D01*
X122463681Y-104113681D01*
X122497166Y-104175004D01*
X122500000Y-104201362D01*
X122500000Y-105048638D01*
X122491355Y-105078078D01*
X122484832Y-105108065D01*
X122481077Y-105113080D01*
X122480315Y-105115677D01*
X122463681Y-105136319D01*
X122336319Y-105263681D01*
X122274996Y-105297166D01*
X122248638Y-105300000D01*
X121150248Y-105300000D01*
X121083209Y-105280315D01*
X121037454Y-105227511D01*
X121030475Y-105208099D01*
X121000435Y-105095988D01*
X120941125Y-104993261D01*
X120857249Y-104909385D01*
X120754522Y-104850075D01*
X120639945Y-104819374D01*
X120521327Y-104819374D01*
X120406750Y-104850075D01*
X120406748Y-104850075D01*
X120406748Y-104850076D01*
X120304023Y-104909385D01*
X120304020Y-104909387D01*
X120214400Y-104999008D01*
X120212291Y-104996899D01*
X120167371Y-105029693D01*
X120125435Y-105037000D01*
X119562000Y-105037000D01*
X119553314Y-105034449D01*
X119544353Y-105035738D01*
X119520312Y-105024759D01*
X119494961Y-105017315D01*
X119489033Y-105010474D01*
X119480797Y-105006713D01*
X119466507Y-104984478D01*
X119449206Y-104964511D01*
X119446918Y-104953996D01*
X119443023Y-104947935D01*
X119438000Y-104913000D01*
X119438000Y-104806747D01*
X119457685Y-104739708D01*
X119494042Y-104703028D01*
X120612451Y-103970279D01*
X120679314Y-103950005D01*
X120680406Y-103950000D01*
X122248638Y-103950000D01*
X122315677Y-103969685D01*
G37*
G04 #@! TD.AperFunction*
G04 #@! TA.AperFunction,Conductor*
G36*
X119237000Y-106950898D02*
G01*
X119250000Y-107016255D01*
X119250000Y-107850000D01*
X119100000Y-108050000D01*
X117700000Y-108050000D01*
X117500000Y-107850000D01*
X117500000Y-107061649D01*
X117522740Y-107027617D01*
X117538000Y-106950901D01*
X117538000Y-106950000D01*
X119237000Y-106950000D01*
X119237000Y-106950898D01*
G37*
G04 #@! TD.AperFunction*
G04 #@! TA.AperFunction,Conductor*
G36*
X116865677Y-102869685D02*
G01*
X116886319Y-102886319D01*
X117013681Y-103013681D01*
X117047166Y-103075004D01*
X117050000Y-103101362D01*
X117050000Y-103609396D01*
X117030315Y-103676435D01*
X117025984Y-103682738D01*
X116243106Y-104749999D01*
X116243106Y-104750000D01*
X116260395Y-105521069D01*
X116376475Y-105644404D01*
X116392360Y-105644404D01*
X116459399Y-105664089D01*
X116461249Y-105665301D01*
X116465894Y-105668404D01*
X116472383Y-105672740D01*
X116472386Y-105672740D01*
X116472387Y-105672741D01*
X116510741Y-105680370D01*
X116549099Y-105688000D01*
X117213000Y-105687999D01*
X117221686Y-105690549D01*
X117230647Y-105689261D01*
X117254683Y-105700238D01*
X117280039Y-105707683D01*
X117285967Y-105714525D01*
X117294203Y-105718286D01*
X117308489Y-105740517D01*
X117325794Y-105760487D01*
X117328081Y-105771002D01*
X117331977Y-105777064D01*
X117337000Y-105811999D01*
X117337000Y-105870500D01*
X117317315Y-105937539D01*
X117264511Y-105983294D01*
X117213000Y-105994500D01*
X114836482Y-105994500D01*
X114769443Y-105974815D01*
X114748801Y-105958181D01*
X114726118Y-105935498D01*
X114714848Y-105925040D01*
X114700819Y-105912967D01*
X114688785Y-105903371D01*
X114685661Y-105901065D01*
X114614837Y-105848796D01*
X114592206Y-105827184D01*
X114590401Y-105824960D01*
X114534124Y-105748707D01*
X114524539Y-105736688D01*
X114512450Y-105722641D01*
X114502000Y-105711380D01*
X114481776Y-105691156D01*
X114477730Y-105686172D01*
X114466622Y-105659627D01*
X114452834Y-105634376D01*
X114451719Y-105624014D01*
X114450759Y-105621718D01*
X114451202Y-105619205D01*
X114450000Y-105608018D01*
X114450000Y-105009597D01*
X114469685Y-104942558D01*
X114496536Y-104912771D01*
X114666035Y-104777172D01*
X114730681Y-104750664D01*
X114743497Y-104750000D01*
X115000000Y-104750000D01*
X115900000Y-103900000D01*
X115900000Y-103101362D01*
X115908644Y-103071921D01*
X115915168Y-103041935D01*
X115918922Y-103036919D01*
X115919685Y-103034323D01*
X115936319Y-103013681D01*
X116063681Y-102886319D01*
X116125004Y-102852834D01*
X116151362Y-102850000D01*
X116798638Y-102850000D01*
X116865677Y-102869685D01*
G37*
G04 #@! TD.AperFunction*
G04 #@! TA.AperFunction,Conductor*
G36*
X114015677Y-104669685D02*
G01*
X114036319Y-104686319D01*
X114163681Y-104813681D01*
X114197166Y-104875004D01*
X114200000Y-104901362D01*
X114200000Y-105700000D01*
X114356690Y-105856690D01*
X114368779Y-105870737D01*
X114452851Y-105984651D01*
X114566760Y-106068719D01*
X114580808Y-106080808D01*
X114700000Y-106200000D01*
X117213000Y-106200000D01*
X117221685Y-106202550D01*
X117230647Y-106201262D01*
X117254687Y-106212240D01*
X117280039Y-106219685D01*
X117285966Y-106226525D01*
X117294203Y-106230287D01*
X117308492Y-106252521D01*
X117325794Y-106272489D01*
X117328081Y-106283003D01*
X117331977Y-106289065D01*
X117337000Y-106324000D01*
X117337000Y-106413000D01*
X117317315Y-106480039D01*
X117264511Y-106525794D01*
X117213000Y-106537000D01*
X116549102Y-106537000D01*
X116472382Y-106552260D01*
X116455290Y-106563681D01*
X116432210Y-106579102D01*
X116365534Y-106599980D01*
X116363320Y-106600000D01*
X113101362Y-106600000D01*
X113034323Y-106580315D01*
X113013681Y-106563681D01*
X112836319Y-106386319D01*
X112802834Y-106324996D01*
X112800000Y-106298638D01*
X112800000Y-104901362D01*
X112808644Y-104871921D01*
X112815168Y-104841935D01*
X112818922Y-104836919D01*
X112819685Y-104834323D01*
X112836319Y-104813681D01*
X112963681Y-104686319D01*
X113025004Y-104652834D01*
X113051362Y-104650000D01*
X113948638Y-104650000D01*
X114015677Y-104669685D01*
G37*
G04 #@! TD.AperFunction*
G04 #@! TA.AperFunction,Conductor*
G36*
X112265677Y-103719685D02*
G01*
X112286319Y-103736319D01*
X112363681Y-103813681D01*
X112397166Y-103875004D01*
X112400000Y-103901362D01*
X112400000Y-106198638D01*
X112391355Y-106228078D01*
X112384832Y-106258065D01*
X112381077Y-106263080D01*
X112380315Y-106265677D01*
X112363681Y-106286319D01*
X112236319Y-106413681D01*
X112174996Y-106447166D01*
X112148638Y-106450000D01*
X111251362Y-106450000D01*
X111184323Y-106430315D01*
X111163681Y-106413681D01*
X111036319Y-106286319D01*
X111002834Y-106224996D01*
X111000000Y-106198638D01*
X111000000Y-103901362D01*
X111008644Y-103871921D01*
X111015168Y-103841935D01*
X111018922Y-103836919D01*
X111019685Y-103834323D01*
X111036319Y-103813681D01*
X111113681Y-103736319D01*
X111175004Y-103702834D01*
X111201362Y-103700000D01*
X112198638Y-103700000D01*
X112265677Y-103719685D01*
G37*
G04 #@! TD.AperFunction*
G04 #@! TA.AperFunction,Conductor*
G36*
X117018003Y-99669685D02*
G01*
X117035773Y-99683537D01*
X117160809Y-99800758D01*
X117196253Y-99860970D01*
X117200000Y-99891221D01*
X117200000Y-102048638D01*
X117191355Y-102078078D01*
X117184832Y-102108065D01*
X117181077Y-102113080D01*
X117180315Y-102115677D01*
X117163681Y-102136319D01*
X117036319Y-102263681D01*
X116974996Y-102297166D01*
X116948638Y-102300000D01*
X116101362Y-102300000D01*
X116034323Y-102280315D01*
X116013681Y-102263681D01*
X115886319Y-102136319D01*
X115852834Y-102074996D01*
X115850000Y-102048638D01*
X115850000Y-99901362D01*
X115858644Y-99871921D01*
X115865168Y-99841935D01*
X115868922Y-99836919D01*
X115869685Y-99834323D01*
X115886319Y-99813681D01*
X116013681Y-99686319D01*
X116075004Y-99652834D01*
X116101362Y-99650000D01*
X116950964Y-99650000D01*
X117018003Y-99669685D01*
G37*
G04 #@! TD.AperFunction*
G04 #@! TA.AperFunction,Conductor*
G36*
X115365677Y-100169685D02*
G01*
X115386319Y-100186319D01*
X115563681Y-100363681D01*
X115597166Y-100425004D01*
X115600000Y-100451362D01*
X115600000Y-103698638D01*
X115580315Y-103765677D01*
X115563681Y-103786319D01*
X115336319Y-104013681D01*
X115274996Y-104047166D01*
X115248638Y-104050000D01*
X113124000Y-104050000D01*
X113056961Y-104030315D01*
X113011206Y-103977511D01*
X113000000Y-103926000D01*
X113000000Y-101908078D01*
X113019685Y-101841039D01*
X113044617Y-101812819D01*
X113300000Y-101600000D01*
X113300000Y-100451362D01*
X113319685Y-100384323D01*
X113336319Y-100363681D01*
X113513681Y-100186319D01*
X113575004Y-100152834D01*
X113601362Y-100150000D01*
X115298638Y-100150000D01*
X115365677Y-100169685D01*
G37*
G04 #@! TD.AperFunction*
G04 #@! TA.AperFunction,Conductor*
G36*
X109052916Y-96119685D02*
G01*
X109087064Y-96152326D01*
X109900000Y-97300000D01*
X114225174Y-97300000D01*
X114292213Y-97319685D01*
X114312855Y-97336319D01*
X114413271Y-97436735D01*
X114429667Y-97450738D01*
X114461653Y-97478056D01*
X114574694Y-97535653D01*
X114574696Y-97535654D01*
X114676419Y-97551765D01*
X114700000Y-97555500D01*
X114700001Y-97555500D01*
X115949360Y-97555500D01*
X115949365Y-97555500D01*
X115962392Y-97554702D01*
X115998809Y-97552474D01*
X115998811Y-97552473D01*
X115998816Y-97552473D01*
X116028832Y-97548785D01*
X116066262Y-97542395D01*
X116139638Y-97513681D01*
X116184404Y-97496163D01*
X116184404Y-97496162D01*
X116184406Y-97496162D01*
X116244687Y-97460835D01*
X116244694Y-97460828D01*
X116244699Y-97460826D01*
X116334943Y-97388903D01*
X116334946Y-97388901D01*
X116371934Y-97349601D01*
X116381897Y-97339015D01*
X116442177Y-97303688D01*
X116472194Y-97300000D01*
X117325174Y-97300000D01*
X117392213Y-97319685D01*
X117412855Y-97336319D01*
X117513271Y-97436735D01*
X117529667Y-97450738D01*
X117561653Y-97478056D01*
X117674694Y-97535653D01*
X117674696Y-97535654D01*
X117776419Y-97551765D01*
X117800000Y-97555500D01*
X117800001Y-97555500D01*
X119200003Y-97555500D01*
X119251187Y-97547790D01*
X119319437Y-97537511D01*
X119433339Y-97481637D01*
X119524400Y-97393300D01*
X119557174Y-97349600D01*
X119613146Y-97307779D01*
X119656375Y-97300000D01*
X121748638Y-97300000D01*
X121815677Y-97319685D01*
X121836319Y-97336319D01*
X122013681Y-97513681D01*
X122047166Y-97575004D01*
X122050000Y-97601362D01*
X122050000Y-99776000D01*
X122030315Y-99843039D01*
X121977511Y-99888794D01*
X121926000Y-99900000D01*
X119574449Y-99900000D01*
X119507410Y-99880315D01*
X119461655Y-99827511D01*
X119451160Y-99789263D01*
X119450657Y-99784586D01*
X119450342Y-99781655D01*
X119448709Y-99770577D01*
X119445700Y-99750162D01*
X119445699Y-99750158D01*
X119403065Y-99630668D01*
X119386322Y-99600006D01*
X119369583Y-99569350D01*
X119369578Y-99569342D01*
X119300419Y-99476956D01*
X119300410Y-99476946D01*
X119223051Y-99399587D01*
X119223034Y-99399572D01*
X119223014Y-99399553D01*
X119190758Y-99370580D01*
X119190751Y-99370574D01*
X119170122Y-99353951D01*
X119170121Y-99353950D01*
X119170112Y-99353943D01*
X119144561Y-99334958D01*
X119115030Y-99320958D01*
X119029927Y-99280612D01*
X118962885Y-99260926D01*
X118962877Y-99260924D01*
X118848638Y-99244500D01*
X117601362Y-99244500D01*
X117601361Y-99244500D01*
X117558025Y-99246823D01*
X117558016Y-99246823D01*
X117558011Y-99246824D01*
X117558004Y-99246824D01*
X117557977Y-99246827D01*
X117531649Y-99249658D01*
X117500172Y-99254298D01*
X117380681Y-99296928D01*
X117380680Y-99296928D01*
X117336670Y-99320958D01*
X117268397Y-99335807D01*
X117224129Y-99324169D01*
X117132253Y-99280612D01*
X117065211Y-99260926D01*
X117065203Y-99260924D01*
X116950964Y-99244500D01*
X116101362Y-99244500D01*
X116101361Y-99244500D01*
X116058003Y-99246824D01*
X116031648Y-99249658D01*
X116000162Y-99254299D01*
X115926419Y-99280611D01*
X115880668Y-99296935D01*
X115880666Y-99296935D01*
X115880663Y-99296937D01*
X115819350Y-99330416D01*
X115819342Y-99330421D01*
X115726956Y-99399580D01*
X115726946Y-99399589D01*
X115599582Y-99526954D01*
X115599553Y-99526985D01*
X115570580Y-99559241D01*
X115570574Y-99559248D01*
X115553941Y-99579890D01*
X115548076Y-99587782D01*
X115535017Y-99605353D01*
X115535015Y-99605357D01*
X115534968Y-99605434D01*
X115531434Y-99612669D01*
X115514970Y-99637505D01*
X115497911Y-99681314D01*
X115495650Y-99685945D01*
X115475424Y-99708099D01*
X115457107Y-99731852D01*
X115452115Y-99733632D01*
X115448543Y-99737546D01*
X115419556Y-99745247D01*
X115391300Y-99755328D01*
X115382963Y-99754970D01*
X115381016Y-99755488D01*
X115378862Y-99754794D01*
X115366581Y-99754268D01*
X115298639Y-99744500D01*
X115298638Y-99744500D01*
X113601362Y-99744500D01*
X113601361Y-99744500D01*
X113558003Y-99746824D01*
X113531648Y-99749658D01*
X113500162Y-99754299D01*
X113439342Y-99776000D01*
X113380668Y-99796935D01*
X113380666Y-99796935D01*
X113380663Y-99796937D01*
X113319350Y-99830416D01*
X113319342Y-99830421D01*
X113226956Y-99899580D01*
X113226938Y-99899596D01*
X113049601Y-100076934D01*
X113049553Y-100076985D01*
X113020580Y-100109241D01*
X113020574Y-100109248D01*
X113003951Y-100129877D01*
X112984957Y-100155440D01*
X112930612Y-100270072D01*
X112910926Y-100337114D01*
X112910924Y-100337122D01*
X112894500Y-100451361D01*
X112894500Y-101228013D01*
X112874815Y-101295052D01*
X112822011Y-101340807D01*
X112789898Y-101350486D01*
X112749700Y-101356852D01*
X112749699Y-101356852D01*
X112694297Y-101385080D01*
X112636658Y-101414450D01*
X112636657Y-101414451D01*
X112636652Y-101414454D01*
X112546954Y-101504152D01*
X112546951Y-101504157D01*
X112489352Y-101617198D01*
X112474500Y-101710975D01*
X112474500Y-103181339D01*
X112454815Y-103248378D01*
X112402011Y-103294133D01*
X112332853Y-103304077D01*
X112331102Y-103303812D01*
X112256524Y-103292000D01*
X111393482Y-103292000D01*
X111387907Y-103292883D01*
X111387337Y-103292974D01*
X111367942Y-103294500D01*
X111201361Y-103294500D01*
X111158003Y-103296824D01*
X111131648Y-103299658D01*
X111100162Y-103304299D01*
X111013385Y-103335261D01*
X110980668Y-103346935D01*
X110980666Y-103346935D01*
X110980663Y-103346937D01*
X110919350Y-103380416D01*
X110919342Y-103380421D01*
X110826956Y-103449580D01*
X110826946Y-103449589D01*
X110749582Y-103526954D01*
X110749553Y-103526985D01*
X110720580Y-103559241D01*
X110720574Y-103559248D01*
X110703941Y-103579890D01*
X110685017Y-103605352D01*
X110685014Y-103605357D01*
X110681824Y-103612082D01*
X110664970Y-103637505D01*
X110643012Y-103693894D01*
X110641109Y-103697908D01*
X110630641Y-103719976D01*
X110625309Y-103738118D01*
X110625308Y-103738117D01*
X110623816Y-103743197D01*
X110618938Y-103755728D01*
X110615499Y-103771529D01*
X110614251Y-103775783D01*
X110614249Y-103775793D01*
X110610925Y-103787117D01*
X110610921Y-103787134D01*
X110594500Y-103901359D01*
X110594500Y-106198638D01*
X110596824Y-106241996D01*
X110599658Y-106268351D01*
X110604299Y-106299837D01*
X110604301Y-106299842D01*
X110646935Y-106419332D01*
X110646936Y-106419335D01*
X110646937Y-106419336D01*
X110680416Y-106480649D01*
X110680421Y-106480657D01*
X110749580Y-106573043D01*
X110749586Y-106573049D01*
X110749587Y-106573051D01*
X110876949Y-106700413D01*
X110876967Y-106700429D01*
X110876985Y-106700446D01*
X110909241Y-106729419D01*
X110909248Y-106729425D01*
X110924518Y-106741730D01*
X110929888Y-106746057D01*
X110955439Y-106765042D01*
X110974430Y-106774045D01*
X111070072Y-106819387D01*
X111070074Y-106819387D01*
X111070077Y-106819389D01*
X111137116Y-106839074D01*
X111137120Y-106839074D01*
X111137122Y-106839075D01*
X111152912Y-106841345D01*
X111251362Y-106855500D01*
X111251365Y-106855500D01*
X112148639Y-106855500D01*
X112152709Y-106855281D01*
X112191987Y-106853176D01*
X112218345Y-106850342D01*
X112227962Y-106848924D01*
X112249837Y-106845700D01*
X112249838Y-106845699D01*
X112249842Y-106845699D01*
X112369332Y-106803065D01*
X112430655Y-106769580D01*
X112467860Y-106741728D01*
X112533320Y-106717311D01*
X112601593Y-106732161D01*
X112629850Y-106753314D01*
X112726949Y-106850413D01*
X112726969Y-106850431D01*
X112726985Y-106850446D01*
X112759241Y-106879419D01*
X112759246Y-106879423D01*
X112779888Y-106896057D01*
X112805439Y-106915042D01*
X112863358Y-106942500D01*
X112920072Y-106969387D01*
X112920074Y-106969387D01*
X112920077Y-106969389D01*
X112987116Y-106989074D01*
X112987120Y-106989074D01*
X112987122Y-106989075D01*
X112997994Y-106990638D01*
X113101362Y-107005500D01*
X113101365Y-107005500D01*
X114450000Y-107005500D01*
X114450000Y-107900000D01*
X114446998Y-107896998D01*
X114446998Y-107896997D01*
X114444227Y-107894226D01*
X114438226Y-107887415D01*
X114424583Y-107874582D01*
X114418221Y-107868220D01*
X114415842Y-107866359D01*
X114404537Y-107855726D01*
X114404533Y-107855722D01*
X114404524Y-107855714D01*
X114394332Y-107847551D01*
X114354217Y-107815425D01*
X114287157Y-107783968D01*
X114239357Y-107761545D01*
X114216984Y-107755074D01*
X114172241Y-107742133D01*
X114172226Y-107742130D01*
X114057935Y-107726171D01*
X114057928Y-107726171D01*
X109762356Y-107743632D01*
X109695237Y-107724220D01*
X109676056Y-107709160D01*
X109670062Y-107703416D01*
X108941763Y-107005462D01*
X108793704Y-106863572D01*
X108758922Y-106802975D01*
X108755500Y-106774045D01*
X108755500Y-103040034D01*
X108775185Y-102972995D01*
X108797774Y-102946777D01*
X109716516Y-102141686D01*
X109755560Y-102102448D01*
X109777694Y-102076936D01*
X109804567Y-102042353D01*
X109859690Y-101928086D01*
X109879830Y-101861182D01*
X109897033Y-101747052D01*
X109899685Y-101356852D01*
X109904463Y-100653964D01*
X109904462Y-100653957D01*
X109904463Y-100653936D01*
X109902293Y-100609203D01*
X109899462Y-100582002D01*
X109894674Y-100549133D01*
X109852040Y-100429643D01*
X109818555Y-100368320D01*
X109818553Y-100368317D01*
X109749394Y-100275931D01*
X109749378Y-100275913D01*
X109319374Y-99845909D01*
X109285889Y-99784586D01*
X109290873Y-99714894D01*
X109319372Y-99670548D01*
X109402139Y-99587782D01*
X109511632Y-99423914D01*
X109521709Y-99399587D01*
X109570989Y-99280612D01*
X109587051Y-99241835D01*
X109625500Y-99048541D01*
X109625500Y-98851459D01*
X109625500Y-98851456D01*
X109587052Y-98658170D01*
X109587051Y-98658169D01*
X109587051Y-98658165D01*
X109587049Y-98658160D01*
X109511635Y-98476092D01*
X109511628Y-98476079D01*
X109402139Y-98312218D01*
X109402136Y-98312214D01*
X109262785Y-98172863D01*
X109262781Y-98172860D01*
X109098920Y-98063371D01*
X109098907Y-98063364D01*
X108916839Y-97987950D01*
X108916829Y-97987947D01*
X108723543Y-97949500D01*
X108723541Y-97949500D01*
X107976459Y-97949500D01*
X107976457Y-97949500D01*
X107783170Y-97987947D01*
X107783160Y-97987950D01*
X107601092Y-98063364D01*
X107601079Y-98063371D01*
X107437218Y-98172860D01*
X107437214Y-98172863D01*
X107411681Y-98198397D01*
X107350358Y-98231882D01*
X107280666Y-98226898D01*
X107224733Y-98185026D01*
X107200316Y-98119562D01*
X107200000Y-98110716D01*
X107200000Y-96751362D01*
X107219685Y-96684323D01*
X107236319Y-96663681D01*
X107763681Y-96136319D01*
X107825004Y-96102834D01*
X107851362Y-96100000D01*
X108985877Y-96100000D01*
X109052916Y-96119685D01*
G37*
G04 #@! TD.AperFunction*
G04 #@! TA.AperFunction,Conductor*
G36*
X119015677Y-88769685D02*
G01*
X119036319Y-88786319D01*
X119113681Y-88863681D01*
X119147166Y-88925004D01*
X119150000Y-88951362D01*
X119150000Y-89661930D01*
X119146891Y-89689524D01*
X119144500Y-89699998D01*
X119144500Y-91000001D01*
X119148248Y-91022058D01*
X119150000Y-91042828D01*
X119150000Y-91155106D01*
X119130315Y-91222145D01*
X119121266Y-91234480D01*
X118900000Y-91500000D01*
X118900000Y-91500001D01*
X118900000Y-92437660D01*
X118880315Y-92504699D01*
X118860496Y-92528415D01*
X118449121Y-92911420D01*
X118082202Y-93253035D01*
X117826336Y-93491255D01*
X117763857Y-93522530D01*
X117741840Y-93524500D01*
X117605247Y-93524500D01*
X117546770Y-93536131D01*
X117546769Y-93536132D01*
X117480447Y-93580447D01*
X117436132Y-93646769D01*
X117436131Y-93646770D01*
X117424500Y-93705247D01*
X117424500Y-93976000D01*
X117404815Y-94043039D01*
X117352011Y-94088794D01*
X117300500Y-94100000D01*
X116675513Y-94100000D01*
X116668172Y-94097844D01*
X116660626Y-94099103D01*
X116635115Y-94088137D01*
X116608474Y-94080315D01*
X116603464Y-94074533D01*
X116596435Y-94071512D01*
X116580900Y-94048493D01*
X116562719Y-94027511D01*
X116560649Y-94018485D01*
X116557350Y-94013597D01*
X116551544Y-93978784D01*
X116551525Y-93977965D01*
X116551063Y-93957363D01*
X116569238Y-93889902D01*
X116575036Y-93881256D01*
X117291684Y-92904285D01*
X117295354Y-92899117D01*
X117299685Y-92892814D01*
X117327490Y-92834333D01*
X117347175Y-92767294D01*
X117355500Y-92709396D01*
X117355500Y-92642038D01*
X117375185Y-92574999D01*
X117378597Y-92569965D01*
X117473100Y-92437660D01*
X117500000Y-92400000D01*
X117500000Y-91195760D01*
X117501262Y-91178113D01*
X117502341Y-91170607D01*
X117505500Y-91148638D01*
X117505500Y-88991221D01*
X117503941Y-88965960D01*
X117503682Y-88963875D01*
X117504220Y-88960588D01*
X117503056Y-88957466D01*
X117509824Y-88926350D01*
X117514968Y-88894928D01*
X117517409Y-88891482D01*
X117517908Y-88889193D01*
X117539053Y-88860946D01*
X117613683Y-88786316D01*
X117675005Y-88752834D01*
X117701362Y-88750000D01*
X118948638Y-88750000D01*
X119015677Y-88769685D01*
G37*
G04 #@! TD.AperFunction*
G04 #@! TA.AperFunction,Conductor*
G36*
X122465677Y-89519685D02*
G01*
X122486319Y-89536319D01*
X122563681Y-89613681D01*
X122597166Y-89675004D01*
X122600000Y-89701362D01*
X122600000Y-92398638D01*
X122591355Y-92428078D01*
X122584832Y-92458065D01*
X122581077Y-92463080D01*
X122580315Y-92465677D01*
X122563681Y-92486319D01*
X122436319Y-92613681D01*
X122374996Y-92647166D01*
X122348638Y-92650000D01*
X121151362Y-92650000D01*
X121084323Y-92630315D01*
X121063681Y-92613681D01*
X121036319Y-92586319D01*
X121002834Y-92524996D01*
X121000000Y-92498638D01*
X121000000Y-91501362D01*
X121008644Y-91471921D01*
X121015168Y-91441935D01*
X121018922Y-91436919D01*
X121019685Y-91434323D01*
X121036319Y-91413681D01*
X121058181Y-91391819D01*
X121119504Y-91358334D01*
X121145862Y-91355500D01*
X121549995Y-91355500D01*
X121550000Y-91355500D01*
X121617872Y-91343968D01*
X121695310Y-91295310D01*
X121845310Y-91145310D01*
X121885149Y-91089163D01*
X121905500Y-91000000D01*
X121905500Y-90620980D01*
X121904773Y-90603706D01*
X121876999Y-90516569D01*
X121843893Y-90481552D01*
X121812142Y-90419316D01*
X121810000Y-90396366D01*
X121810000Y-89662698D01*
X121812382Y-89638510D01*
X121817679Y-89611877D01*
X121850063Y-89549965D01*
X121851565Y-89548434D01*
X121863685Y-89536315D01*
X121925010Y-89502833D01*
X121951363Y-89500000D01*
X122398638Y-89500000D01*
X122465677Y-89519685D01*
G37*
G04 #@! TD.AperFunction*
G04 #@! TA.AperFunction,Conductor*
G36*
X114115677Y-93769685D02*
G01*
X114136319Y-93786319D01*
X114263681Y-93913681D01*
X114297166Y-93975004D01*
X114300000Y-94001362D01*
X114300000Y-94800000D01*
X114380300Y-94880300D01*
X114409660Y-94927026D01*
X114422207Y-94962882D01*
X114502850Y-95072150D01*
X114594943Y-95140117D01*
X114612118Y-95152793D01*
X114612121Y-95152794D01*
X114647970Y-95165338D01*
X114694699Y-95194699D01*
X114800000Y-95300000D01*
X116625431Y-95300000D01*
X116628979Y-95301041D01*
X116630508Y-95300962D01*
X116630508Y-95300500D01*
X116636598Y-95300499D01*
X116636599Y-95300500D01*
X117300500Y-95300499D01*
X117367539Y-95320183D01*
X117413294Y-95372987D01*
X117424500Y-95424499D01*
X117424500Y-95525500D01*
X117404815Y-95592539D01*
X117352011Y-95638294D01*
X117300500Y-95649500D01*
X116636602Y-95649500D01*
X116559882Y-95664760D01*
X116538417Y-95679103D01*
X116515536Y-95686266D01*
X116494347Y-95697491D01*
X116482797Y-95696517D01*
X116471739Y-95699980D01*
X116469527Y-95700000D01*
X115840398Y-95700000D01*
X115832162Y-95699614D01*
X115832162Y-95699635D01*
X115829277Y-95699500D01*
X115829266Y-95699500D01*
X114770734Y-95699500D01*
X114770723Y-95699500D01*
X114767838Y-95699635D01*
X114767837Y-95699614D01*
X114759602Y-95700000D01*
X113201362Y-95700000D01*
X113134323Y-95680315D01*
X113113681Y-95663681D01*
X112936319Y-95486319D01*
X112902834Y-95424996D01*
X112900000Y-95398638D01*
X112900000Y-94001362D01*
X112908644Y-93971921D01*
X112915168Y-93941935D01*
X112918922Y-93936919D01*
X112919685Y-93934323D01*
X112936319Y-93913681D01*
X113063681Y-93786319D01*
X113125004Y-93752834D01*
X113151362Y-93750000D01*
X114048638Y-93750000D01*
X114115677Y-93769685D01*
G37*
G04 #@! TD.AperFunction*
G04 #@! TA.AperFunction,Conductor*
G36*
X117118003Y-88769685D02*
G01*
X117135773Y-88783537D01*
X117260809Y-88900758D01*
X117296253Y-88960970D01*
X117300000Y-88991221D01*
X117300000Y-91148638D01*
X117291355Y-91178078D01*
X117284832Y-91208065D01*
X117281077Y-91213080D01*
X117280315Y-91215677D01*
X117263681Y-91236319D01*
X117136319Y-91363681D01*
X117074996Y-91397166D01*
X117048638Y-91400000D01*
X116201362Y-91400000D01*
X116134323Y-91380315D01*
X116113681Y-91363681D01*
X115986319Y-91236319D01*
X115952834Y-91174996D01*
X115950000Y-91148638D01*
X115950000Y-89001362D01*
X115958644Y-88971921D01*
X115965168Y-88941935D01*
X115968922Y-88936919D01*
X115969685Y-88934323D01*
X115986319Y-88913681D01*
X116113681Y-88786319D01*
X116175004Y-88752834D01*
X116201362Y-88750000D01*
X117050964Y-88750000D01*
X117118003Y-88769685D01*
G37*
G04 #@! TD.AperFunction*
G04 #@! TA.AperFunction,Conductor*
G36*
X121618389Y-89568389D02*
G01*
X121616132Y-89571769D01*
X121616131Y-89571770D01*
X121604500Y-89630247D01*
X121604500Y-90469752D01*
X121616131Y-90528229D01*
X121616132Y-90528230D01*
X121660447Y-90594552D01*
X121700000Y-90620980D01*
X121700000Y-91000000D01*
X121550000Y-91150000D01*
X119500000Y-91150000D01*
X119350000Y-91000000D01*
X119350000Y-89700000D01*
X119500000Y-89500000D01*
X121550000Y-89500000D01*
X121618389Y-89568389D01*
G37*
G04 #@! TD.AperFunction*
G04 #@! TA.AperFunction,Conductor*
G36*
X119324500Y-96063398D02*
G01*
X119339760Y-96140118D01*
X119339761Y-96140120D01*
X119350000Y-96155443D01*
X119350000Y-96950000D01*
X119200000Y-97150000D01*
X117800000Y-97150000D01*
X117600000Y-96950000D01*
X117600000Y-96155442D01*
X117610240Y-96140117D01*
X117625500Y-96063401D01*
X117625500Y-96050000D01*
X119324500Y-96050000D01*
X119324500Y-96063398D01*
G37*
G04 #@! TD.AperFunction*
G04 #@! TA.AperFunction,Conductor*
G36*
X115465677Y-89269685D02*
G01*
X115486319Y-89286319D01*
X115663681Y-89463681D01*
X115697166Y-89525004D01*
X115700000Y-89551362D01*
X115700000Y-92798638D01*
X115680315Y-92865677D01*
X115663681Y-92886319D01*
X115436319Y-93113681D01*
X115374996Y-93147166D01*
X115348638Y-93150000D01*
X113224000Y-93150000D01*
X113156961Y-93130315D01*
X113111206Y-93077511D01*
X113100000Y-93026000D01*
X113100000Y-91008078D01*
X113119685Y-90941039D01*
X113144617Y-90912819D01*
X113400000Y-90700000D01*
X113400000Y-89551362D01*
X113419685Y-89484323D01*
X113436319Y-89463681D01*
X113613681Y-89286319D01*
X113675004Y-89252834D01*
X113701362Y-89250000D01*
X115398638Y-89250000D01*
X115465677Y-89269685D01*
G37*
G04 #@! TD.AperFunction*
G04 #@! TA.AperFunction,Conductor*
G36*
X117367539Y-95874685D02*
G01*
X117413294Y-95927489D01*
X117424500Y-95979000D01*
X117424500Y-96008323D01*
X117422117Y-96032518D01*
X117418096Y-96052730D01*
X117416748Y-96057351D01*
X117416882Y-96057382D01*
X117414851Y-96066278D01*
X117414851Y-96066279D01*
X117396573Y-96146355D01*
X117394922Y-96153593D01*
X117360813Y-96214571D01*
X117299151Y-96247429D01*
X117274031Y-96250000D01*
X116850000Y-96250000D01*
X116039662Y-97110985D01*
X115979381Y-97146312D01*
X115949365Y-97150000D01*
X114700000Y-97150000D01*
X114550000Y-97000000D01*
X114550000Y-95950000D01*
X114594500Y-95905500D01*
X114759605Y-95905500D01*
X114760249Y-95905484D01*
X114769224Y-95905275D01*
X114771987Y-95905145D01*
X114772191Y-95905136D01*
X114777995Y-95905000D01*
X115822006Y-95905000D01*
X115827810Y-95905136D01*
X115827948Y-95905142D01*
X115830777Y-95905275D01*
X115839750Y-95905484D01*
X115840395Y-95905500D01*
X115840398Y-95905500D01*
X116469523Y-95905500D01*
X116469527Y-95905500D01*
X116470202Y-95905497D01*
X116471392Y-95905492D01*
X116472295Y-95905483D01*
X116473597Y-95905472D01*
X116491815Y-95902601D01*
X116502230Y-95902840D01*
X116519096Y-95898302D01*
X116525618Y-95897275D01*
X116525617Y-95897275D01*
X116533154Y-95896088D01*
X116544212Y-95892625D01*
X116544211Y-95892624D01*
X116565877Y-95885839D01*
X116568268Y-95885076D01*
X116590547Y-95879084D01*
X116595002Y-95876723D01*
X116599812Y-95875218D01*
X116616687Y-95867143D01*
X116670206Y-95855000D01*
X117300500Y-95855000D01*
X117367539Y-95874685D01*
G37*
G04 #@! TD.AperFunction*
G04 #@! TA.AperFunction,Conductor*
G36*
X116965677Y-91969685D02*
G01*
X116986319Y-91986319D01*
X117113681Y-92113681D01*
X117147166Y-92175004D01*
X117150000Y-92201362D01*
X117150000Y-92709396D01*
X117130315Y-92776435D01*
X117125984Y-92782738D01*
X116343106Y-93849999D01*
X116343106Y-93850000D01*
X116360395Y-94621069D01*
X116476475Y-94744404D01*
X116476477Y-94744404D01*
X116485450Y-94748282D01*
X116490982Y-94748046D01*
X116516863Y-94759479D01*
X116523683Y-94761325D01*
X116526924Y-94763217D01*
X116559883Y-94785240D01*
X116636599Y-94800500D01*
X117300500Y-94800499D01*
X117309186Y-94803049D01*
X117318147Y-94801761D01*
X117342183Y-94812738D01*
X117367539Y-94820183D01*
X117373467Y-94827025D01*
X117381703Y-94830786D01*
X117395989Y-94853017D01*
X117413294Y-94872987D01*
X117415581Y-94883502D01*
X117419477Y-94889564D01*
X117424500Y-94924499D01*
X117424500Y-94970999D01*
X117404815Y-95038038D01*
X117352011Y-95083793D01*
X117300500Y-95094999D01*
X116642692Y-95094999D01*
X116642654Y-95094998D01*
X116636858Y-95094999D01*
X116628002Y-95094684D01*
X116625435Y-95094500D01*
X116625431Y-95094500D01*
X116625426Y-95094500D01*
X114936482Y-95094500D01*
X114869443Y-95074815D01*
X114848801Y-95058181D01*
X114840008Y-95049388D01*
X114804033Y-95020698D01*
X114757304Y-94991336D01*
X114716306Y-94971593D01*
X114696477Y-94959645D01*
X114664840Y-94936297D01*
X114638704Y-94910162D01*
X114615348Y-94878515D01*
X114603405Y-94858692D01*
X114600672Y-94853017D01*
X114583662Y-94817693D01*
X114569006Y-94794368D01*
X114550000Y-94728396D01*
X114550000Y-94109597D01*
X114550710Y-94107175D01*
X114550096Y-94104730D01*
X114560501Y-94073832D01*
X114569685Y-94042558D01*
X114571839Y-94040168D01*
X114572396Y-94038515D01*
X114596535Y-94012771D01*
X114766035Y-93877172D01*
X114830681Y-93850664D01*
X114843497Y-93850000D01*
X115100000Y-93850000D01*
X116000000Y-93000000D01*
X116000000Y-92201362D01*
X116008644Y-92171921D01*
X116015168Y-92141935D01*
X116018922Y-92136919D01*
X116019685Y-92134323D01*
X116036319Y-92113681D01*
X116163681Y-91986319D01*
X116225004Y-91952834D01*
X116251362Y-91950000D01*
X116898638Y-91950000D01*
X116965677Y-91969685D01*
G37*
G04 #@! TD.AperFunction*
G04 #@! TA.AperFunction,Conductor*
G36*
X122415677Y-93069685D02*
G01*
X122436319Y-93086319D01*
X122563681Y-93213681D01*
X122597166Y-93275004D01*
X122600000Y-93301362D01*
X122600000Y-94148638D01*
X122591355Y-94178078D01*
X122584832Y-94208065D01*
X122581077Y-94213080D01*
X122580315Y-94215677D01*
X122563681Y-94236319D01*
X122436319Y-94363681D01*
X122374996Y-94397166D01*
X122348638Y-94400000D01*
X121225765Y-94400000D01*
X121158726Y-94380315D01*
X121112971Y-94327511D01*
X121105993Y-94308101D01*
X121081260Y-94215797D01*
X121021950Y-94113070D01*
X120938074Y-94029194D01*
X120835347Y-93969884D01*
X120720770Y-93939183D01*
X120602152Y-93939183D01*
X120487575Y-93969884D01*
X120487573Y-93969884D01*
X120487573Y-93969885D01*
X120384848Y-94029194D01*
X120384845Y-94029196D01*
X120300861Y-94113181D01*
X120239538Y-94146666D01*
X120213180Y-94149500D01*
X119649500Y-94149500D01*
X119640814Y-94146949D01*
X119631853Y-94148238D01*
X119607812Y-94137259D01*
X119582461Y-94129815D01*
X119576533Y-94122974D01*
X119568297Y-94119213D01*
X119554007Y-94096978D01*
X119536706Y-94077011D01*
X119534418Y-94066496D01*
X119530523Y-94060435D01*
X119525500Y-94025500D01*
X119525500Y-93914937D01*
X119545185Y-93847898D01*
X119581542Y-93811218D01*
X120712451Y-93070279D01*
X120779314Y-93050005D01*
X120780406Y-93050000D01*
X122348638Y-93050000D01*
X122415677Y-93069685D01*
G37*
G04 #@! TD.AperFunction*
G04 #@! TA.AperFunction,Conductor*
G36*
X120750000Y-91600000D02*
G01*
X120750000Y-92800000D01*
X118994737Y-93950000D01*
X117635185Y-93950000D01*
X119150000Y-92539656D01*
X119150000Y-91600000D01*
X119300000Y-91400000D01*
X120550000Y-91400000D01*
X120750000Y-91600000D01*
G37*
G04 #@! TD.AperFunction*
G04 #@! TA.AperFunction,Conductor*
G36*
X112365677Y-92819685D02*
G01*
X112386319Y-92836319D01*
X112463681Y-92913681D01*
X112497166Y-92975004D01*
X112500000Y-93001362D01*
X112500000Y-95298638D01*
X112491355Y-95328078D01*
X112484832Y-95358065D01*
X112481077Y-95363080D01*
X112480315Y-95365677D01*
X112463681Y-95386319D01*
X112336319Y-95513681D01*
X112274996Y-95547166D01*
X112248638Y-95550000D01*
X111351362Y-95550000D01*
X111284323Y-95530315D01*
X111263681Y-95513681D01*
X111136319Y-95386319D01*
X111102834Y-95324996D01*
X111100000Y-95298638D01*
X111100000Y-93001362D01*
X111108644Y-92971921D01*
X111115168Y-92941935D01*
X111118922Y-92936919D01*
X111119685Y-92934323D01*
X111136319Y-92913681D01*
X111213681Y-92836319D01*
X111275004Y-92802834D01*
X111301362Y-92800000D01*
X112298638Y-92800000D01*
X112365677Y-92819685D01*
G37*
G04 #@! TD.AperFunction*
G04 #@! TA.AperFunction,Conductor*
G36*
X119015677Y-77794685D02*
G01*
X119036319Y-77811319D01*
X119113681Y-77888681D01*
X119147166Y-77950004D01*
X119150000Y-77976362D01*
X119150000Y-78686930D01*
X119146891Y-78714524D01*
X119144500Y-78724998D01*
X119144500Y-80025001D01*
X119148248Y-80047058D01*
X119150000Y-80067828D01*
X119150000Y-80180106D01*
X119130315Y-80247145D01*
X119121266Y-80259480D01*
X118900000Y-80525000D01*
X118900000Y-80525001D01*
X118900000Y-81462659D01*
X118880315Y-81529698D01*
X118860496Y-81553414D01*
X118643660Y-81755296D01*
X118618352Y-81783663D01*
X118618337Y-81783681D01*
X118598791Y-81810165D01*
X118572657Y-81836299D01*
X118504894Y-81886310D01*
X118486898Y-81901246D01*
X117826334Y-82516255D01*
X117763855Y-82547530D01*
X117741838Y-82549500D01*
X117592747Y-82549500D01*
X117534270Y-82561131D01*
X117534269Y-82561132D01*
X117467947Y-82605447D01*
X117423632Y-82671769D01*
X117423631Y-82671770D01*
X117412000Y-82730247D01*
X117412000Y-83001000D01*
X117392315Y-83068039D01*
X117339511Y-83113794D01*
X117288000Y-83125000D01*
X116675513Y-83125000D01*
X116668172Y-83122844D01*
X116660626Y-83124103D01*
X116635115Y-83113137D01*
X116608474Y-83105315D01*
X116603464Y-83099533D01*
X116596435Y-83096512D01*
X116580900Y-83073493D01*
X116562719Y-83052511D01*
X116560649Y-83043485D01*
X116557350Y-83038597D01*
X116551544Y-83003784D01*
X116551063Y-82982362D01*
X116569238Y-82914900D01*
X116575036Y-82906255D01*
X117195452Y-82060471D01*
X117207743Y-82046147D01*
X117240550Y-82013342D01*
X117259934Y-81975297D01*
X117270432Y-81958256D01*
X117291684Y-81929285D01*
X117295354Y-81924117D01*
X117299685Y-81917814D01*
X117327490Y-81859333D01*
X117337571Y-81825000D01*
X117347172Y-81792305D01*
X117347172Y-81792303D01*
X117347175Y-81792294D01*
X117355500Y-81734396D01*
X117355500Y-81667038D01*
X117375185Y-81599999D01*
X117378597Y-81594965D01*
X117439297Y-81509983D01*
X117500000Y-81425000D01*
X117500000Y-80220760D01*
X117501262Y-80203113D01*
X117502341Y-80195607D01*
X117505500Y-80173638D01*
X117505500Y-78016221D01*
X117503941Y-77990960D01*
X117503682Y-77988875D01*
X117504220Y-77985588D01*
X117503056Y-77982466D01*
X117509824Y-77951350D01*
X117514968Y-77919928D01*
X117517409Y-77916482D01*
X117517908Y-77914193D01*
X117539053Y-77885946D01*
X117613683Y-77811316D01*
X117675005Y-77777834D01*
X117701362Y-77775000D01*
X118948638Y-77775000D01*
X119015677Y-77794685D01*
G37*
G04 #@! TD.AperFunction*
G04 #@! TA.AperFunction,Conductor*
G36*
X122465677Y-78544685D02*
G01*
X122486319Y-78561319D01*
X122563681Y-78638681D01*
X122597166Y-78700004D01*
X122600000Y-78726362D01*
X122600000Y-81423638D01*
X122591355Y-81453078D01*
X122584832Y-81483065D01*
X122581077Y-81488080D01*
X122580315Y-81490677D01*
X122563681Y-81511319D01*
X122436319Y-81638681D01*
X122374996Y-81672166D01*
X122348638Y-81675000D01*
X121151362Y-81675000D01*
X121084323Y-81655315D01*
X121063681Y-81638681D01*
X121036319Y-81611319D01*
X121002834Y-81549996D01*
X121000000Y-81523638D01*
X121000000Y-80526362D01*
X121008644Y-80496921D01*
X121015168Y-80466935D01*
X121018922Y-80461919D01*
X121019685Y-80459323D01*
X121036319Y-80438681D01*
X121058181Y-80416819D01*
X121119504Y-80383334D01*
X121145862Y-80380500D01*
X121549995Y-80380500D01*
X121550000Y-80380500D01*
X121617872Y-80368968D01*
X121695310Y-80320310D01*
X121845310Y-80170310D01*
X121885149Y-80114163D01*
X121905500Y-80025000D01*
X121905500Y-79645980D01*
X121904773Y-79628706D01*
X121876999Y-79541569D01*
X121843893Y-79506552D01*
X121812142Y-79444316D01*
X121810000Y-79421366D01*
X121810000Y-78687698D01*
X121812382Y-78663510D01*
X121817679Y-78636877D01*
X121850063Y-78574965D01*
X121851565Y-78573434D01*
X121863685Y-78561315D01*
X121925010Y-78527833D01*
X121951363Y-78525000D01*
X122398638Y-78525000D01*
X122465677Y-78544685D01*
G37*
G04 #@! TD.AperFunction*
G04 #@! TA.AperFunction,Conductor*
G36*
X114115677Y-82794685D02*
G01*
X114136319Y-82811319D01*
X114263681Y-82938681D01*
X114297166Y-83000004D01*
X114300000Y-83026362D01*
X114300000Y-83825000D01*
X114498477Y-84023477D01*
X114552850Y-84097150D01*
X114626522Y-84151522D01*
X114800000Y-84325000D01*
X116612931Y-84325000D01*
X116616479Y-84326041D01*
X116618008Y-84325962D01*
X116618008Y-84325500D01*
X116624098Y-84325499D01*
X116624099Y-84325500D01*
X117288000Y-84325499D01*
X117355039Y-84345183D01*
X117400794Y-84397987D01*
X117412000Y-84449499D01*
X117412000Y-84550500D01*
X117392315Y-84617539D01*
X117339511Y-84663294D01*
X117288000Y-84674500D01*
X116624102Y-84674500D01*
X116547382Y-84689760D01*
X116525917Y-84704103D01*
X116503036Y-84711266D01*
X116481847Y-84722491D01*
X116470297Y-84721517D01*
X116459239Y-84724980D01*
X116457027Y-84725000D01*
X115890398Y-84725000D01*
X115882162Y-84724614D01*
X115882162Y-84724635D01*
X115879277Y-84724500D01*
X115879266Y-84724500D01*
X114820734Y-84724500D01*
X114820723Y-84724500D01*
X114817838Y-84724635D01*
X114817837Y-84724614D01*
X114809602Y-84725000D01*
X113201362Y-84725000D01*
X113134323Y-84705315D01*
X113113681Y-84688681D01*
X112936319Y-84511319D01*
X112902834Y-84449996D01*
X112900000Y-84423638D01*
X112900000Y-83026362D01*
X112908644Y-82996921D01*
X112915168Y-82966935D01*
X112918922Y-82961919D01*
X112919685Y-82959323D01*
X112936319Y-82938681D01*
X113063681Y-82811319D01*
X113125004Y-82777834D01*
X113151362Y-82775000D01*
X114048638Y-82775000D01*
X114115677Y-82794685D01*
G37*
G04 #@! TD.AperFunction*
G04 #@! TA.AperFunction,Conductor*
G36*
X121915562Y-75444650D02*
G01*
X121936430Y-75461430D01*
X122113681Y-75638681D01*
X122147166Y-75700004D01*
X122150000Y-75726362D01*
X122150000Y-77901000D01*
X122130315Y-77968039D01*
X122077511Y-78013794D01*
X122026000Y-78025000D01*
X119573844Y-78025000D01*
X119506805Y-78005315D01*
X119461050Y-77952511D01*
X119450716Y-77915680D01*
X119450080Y-77910340D01*
X119415297Y-77803593D01*
X119415295Y-77803588D01*
X119381810Y-77742266D01*
X119329710Y-77672670D01*
X119329699Y-77672657D01*
X119252340Y-77595298D01*
X119228008Y-77573442D01*
X119207366Y-77556808D01*
X119207363Y-77556806D01*
X119207325Y-77556775D01*
X119201827Y-77552448D01*
X119201825Y-77552447D01*
X119101747Y-77501560D01*
X119034716Y-77481877D01*
X119034710Y-77481876D01*
X118948638Y-77469500D01*
X117701362Y-77469500D01*
X117701361Y-77469500D01*
X117668716Y-77471250D01*
X117668659Y-77471254D01*
X117642402Y-77474078D01*
X117635348Y-77474919D01*
X117528602Y-77509698D01*
X117467281Y-77543180D01*
X117467269Y-77543189D01*
X117454901Y-77552448D01*
X117453828Y-77553251D01*
X117388362Y-77577664D01*
X117320090Y-77562809D01*
X117307186Y-77554368D01*
X117304151Y-77552447D01*
X117204073Y-77501560D01*
X117137042Y-77481877D01*
X117137036Y-77481876D01*
X117050964Y-77469500D01*
X116201362Y-77469500D01*
X116201361Y-77469500D01*
X116168718Y-77471250D01*
X116168709Y-77471250D01*
X116168703Y-77471251D01*
X116168698Y-77471251D01*
X116168665Y-77471254D01*
X116142374Y-77474081D01*
X116135339Y-77474920D01*
X116135337Y-77474920D01*
X116028598Y-77509700D01*
X116028588Y-77509704D01*
X115967266Y-77543189D01*
X115897670Y-77595289D01*
X115897657Y-77595300D01*
X115770293Y-77722665D01*
X115770288Y-77722670D01*
X115750773Y-77744394D01*
X115750740Y-77744433D01*
X115748442Y-77746992D01*
X115743032Y-77753705D01*
X115742946Y-77753809D01*
X115731822Y-77767616D01*
X115727496Y-77773110D01*
X115724217Y-77778241D01*
X115724056Y-77778138D01*
X115720671Y-77783755D01*
X115710273Y-77798535D01*
X115710272Y-77798537D01*
X115691254Y-77843640D01*
X115691253Y-77843639D01*
X115689520Y-77847747D01*
X115676583Y-77873176D01*
X115675820Y-77875772D01*
X115677496Y-77876264D01*
X115668761Y-77896981D01*
X115668757Y-77896994D01*
X115666651Y-77901988D01*
X115664920Y-77907457D01*
X115662504Y-77906691D01*
X115634188Y-77958507D01*
X115572853Y-77991970D01*
X115511601Y-77989772D01*
X115484716Y-77981877D01*
X115484710Y-77981876D01*
X115398638Y-77969500D01*
X113701362Y-77969500D01*
X113701361Y-77969500D01*
X113668718Y-77971250D01*
X113668709Y-77971250D01*
X113668703Y-77971251D01*
X113668698Y-77971251D01*
X113668665Y-77971254D01*
X113642374Y-77974081D01*
X113635339Y-77974920D01*
X113635337Y-77974920D01*
X113528598Y-78009700D01*
X113528588Y-78009704D01*
X113467266Y-78043189D01*
X113397670Y-78095289D01*
X113397649Y-78095307D01*
X113220312Y-78272645D01*
X113220295Y-78272663D01*
X113198440Y-78296993D01*
X113181775Y-78317674D01*
X113177448Y-78323172D01*
X113177447Y-78323174D01*
X113126560Y-78423252D01*
X113106877Y-78490283D01*
X113094500Y-78576364D01*
X113094500Y-79480500D01*
X113074815Y-79547539D01*
X113022011Y-79593294D01*
X112970504Y-79604500D01*
X112942644Y-79604500D01*
X112942618Y-79604502D01*
X112917511Y-79607414D01*
X112917508Y-79607415D01*
X112814735Y-79652793D01*
X112735294Y-79732234D01*
X112689915Y-79835006D01*
X112689915Y-79835008D01*
X112687000Y-79860131D01*
X112687000Y-81469020D01*
X112667315Y-81536059D01*
X112614511Y-81581814D01*
X112545353Y-81591758D01*
X112506798Y-81579552D01*
X112451747Y-81551560D01*
X112384716Y-81531877D01*
X112384710Y-81531876D01*
X112298638Y-81519500D01*
X111301362Y-81519500D01*
X111301361Y-81519500D01*
X111268718Y-81521250D01*
X111268709Y-81521250D01*
X111268703Y-81521251D01*
X111268698Y-81521251D01*
X111268665Y-81521254D01*
X111242374Y-81524081D01*
X111235339Y-81524920D01*
X111235337Y-81524920D01*
X111128598Y-81559700D01*
X111128588Y-81559704D01*
X111067266Y-81593189D01*
X110997670Y-81645289D01*
X110997657Y-81645300D01*
X110920293Y-81722665D01*
X110920288Y-81722670D01*
X110900773Y-81744394D01*
X110900740Y-81744433D01*
X110898442Y-81746992D01*
X110893032Y-81753705D01*
X110892946Y-81753809D01*
X110881822Y-81767616D01*
X110877496Y-81773110D01*
X110874217Y-81778241D01*
X110874056Y-81778138D01*
X110870671Y-81783755D01*
X110860273Y-81798535D01*
X110860272Y-81798537D01*
X110841254Y-81843640D01*
X110841253Y-81843639D01*
X110839520Y-81847747D01*
X110826583Y-81873176D01*
X110825820Y-81875772D01*
X110827496Y-81876264D01*
X110818761Y-81896981D01*
X110818757Y-81896994D01*
X110816652Y-81901987D01*
X110813389Y-81916986D01*
X110811202Y-81925553D01*
X110806873Y-81940297D01*
X110806871Y-81940305D01*
X110794500Y-82026359D01*
X110794500Y-84323638D01*
X110796250Y-84356281D01*
X110796254Y-84356334D01*
X110799081Y-84382625D01*
X110799920Y-84389660D01*
X110799920Y-84389662D01*
X110834700Y-84496401D01*
X110834704Y-84496411D01*
X110868189Y-84557733D01*
X110920289Y-84627329D01*
X110920295Y-84627336D01*
X110920298Y-84627340D01*
X111047660Y-84754702D01*
X111068429Y-84773357D01*
X111071993Y-84776559D01*
X111092674Y-84793224D01*
X111098172Y-84797551D01*
X111098175Y-84797553D01*
X111198251Y-84848439D01*
X111265290Y-84868124D01*
X111351362Y-84880500D01*
X111351365Y-84880500D01*
X112248639Y-84880500D01*
X112250559Y-84880397D01*
X112281297Y-84878749D01*
X112307655Y-84875915D01*
X112314660Y-84875080D01*
X112421407Y-84840297D01*
X112482730Y-84806812D01*
X112482733Y-84806810D01*
X112552326Y-84754713D01*
X112552328Y-84754710D01*
X112552340Y-84754702D01*
X112562318Y-84744723D01*
X112623636Y-84711239D01*
X112693328Y-84716221D01*
X112737680Y-84744722D01*
X112897660Y-84904702D01*
X112918429Y-84923357D01*
X112921993Y-84926559D01*
X112942674Y-84943224D01*
X112948172Y-84947551D01*
X112948175Y-84947553D01*
X113048251Y-84998439D01*
X113115290Y-85018124D01*
X113201362Y-85030500D01*
X113201365Y-85030500D01*
X114550000Y-85030500D01*
X114550000Y-86025000D01*
X114700000Y-86175000D01*
X115951476Y-86175000D01*
X115949676Y-86175225D01*
X110100000Y-86200000D01*
X110099999Y-86200000D01*
X109249999Y-86999999D01*
X109225237Y-91432501D01*
X109205178Y-91499429D01*
X109198743Y-91508418D01*
X108987233Y-91777611D01*
X108930339Y-91818163D01*
X108889732Y-91825000D01*
X107379773Y-91825000D01*
X107312734Y-91805315D01*
X107292608Y-91789194D01*
X106586835Y-91091657D01*
X106552991Y-91030532D01*
X106550000Y-91003463D01*
X106550000Y-85772663D01*
X106569685Y-85705624D01*
X106596304Y-85676022D01*
X108518234Y-84130941D01*
X108499327Y-78837143D01*
X108518772Y-78770035D01*
X108544212Y-78741218D01*
X108743174Y-78576364D01*
X112487639Y-75473806D01*
X112551818Y-75446192D01*
X112566478Y-75445290D01*
X121848482Y-75425111D01*
X121915562Y-75444650D01*
G37*
G04 #@! TD.AperFunction*
G04 #@! TA.AperFunction,Conductor*
G36*
X117118003Y-77794685D02*
G01*
X117135773Y-77808537D01*
X117260809Y-77925758D01*
X117296253Y-77985970D01*
X117300000Y-78016221D01*
X117300000Y-80173638D01*
X117291355Y-80203078D01*
X117284832Y-80233065D01*
X117281077Y-80238080D01*
X117280315Y-80240677D01*
X117263681Y-80261319D01*
X117136319Y-80388681D01*
X117074996Y-80422166D01*
X117048638Y-80425000D01*
X116201362Y-80425000D01*
X116134323Y-80405315D01*
X116113681Y-80388681D01*
X115986319Y-80261319D01*
X115952834Y-80199996D01*
X115950000Y-80173638D01*
X115950000Y-78026362D01*
X115958644Y-77996921D01*
X115965168Y-77966935D01*
X115968922Y-77961919D01*
X115969685Y-77959323D01*
X115986319Y-77938681D01*
X116113681Y-77811319D01*
X116175004Y-77777834D01*
X116201362Y-77775000D01*
X117050964Y-77775000D01*
X117118003Y-77794685D01*
G37*
G04 #@! TD.AperFunction*
G04 #@! TA.AperFunction,Conductor*
G36*
X121618389Y-78593389D02*
G01*
X121616132Y-78596769D01*
X121616131Y-78596770D01*
X121604500Y-78655247D01*
X121604500Y-79494752D01*
X121616131Y-79553229D01*
X121616132Y-79553230D01*
X121660447Y-79619552D01*
X121700000Y-79645980D01*
X121700000Y-80025000D01*
X121550000Y-80175000D01*
X119500000Y-80175000D01*
X119350000Y-80025000D01*
X119350000Y-78725000D01*
X119500000Y-78525000D01*
X121550000Y-78525000D01*
X121618389Y-78593389D01*
G37*
G04 #@! TD.AperFunction*
G04 #@! TA.AperFunction,Conductor*
G36*
X119312000Y-85088398D02*
G01*
X119327260Y-85165118D01*
X119327261Y-85165120D01*
X119350000Y-85199150D01*
X119350000Y-85975000D01*
X119200000Y-86175000D01*
X117800000Y-86175000D01*
X117600000Y-85975000D01*
X117600000Y-85153755D01*
X117612999Y-85088404D01*
X117613000Y-85088401D01*
X117613000Y-85075000D01*
X119312000Y-85075000D01*
X119312000Y-85088398D01*
G37*
G04 #@! TD.AperFunction*
G04 #@! TA.AperFunction,Conductor*
G36*
X115465677Y-78294685D02*
G01*
X115486319Y-78311319D01*
X115663681Y-78488681D01*
X115697166Y-78550004D01*
X115700000Y-78576362D01*
X115700000Y-81823638D01*
X115680315Y-81890677D01*
X115663681Y-81911319D01*
X115436319Y-82138681D01*
X115374996Y-82172166D01*
X115348638Y-82175000D01*
X113224000Y-82175000D01*
X113156961Y-82155315D01*
X113111206Y-82102511D01*
X113100000Y-82051000D01*
X113100000Y-80033078D01*
X113119685Y-79966039D01*
X113144617Y-79937819D01*
X113400000Y-79725000D01*
X113400000Y-78576362D01*
X113419685Y-78509323D01*
X113436319Y-78488681D01*
X113613681Y-78311319D01*
X113675004Y-78277834D01*
X113701362Y-78275000D01*
X115398638Y-78275000D01*
X115465677Y-78294685D01*
G37*
G04 #@! TD.AperFunction*
G04 #@! TA.AperFunction,Conductor*
G36*
X117355039Y-84899685D02*
G01*
X117400794Y-84952489D01*
X117412000Y-85004000D01*
X117412000Y-85033326D01*
X117410674Y-85046785D01*
X117410651Y-85051566D01*
X117410206Y-85054556D01*
X117398449Y-85113663D01*
X117394500Y-85153755D01*
X117394500Y-85160169D01*
X117393151Y-85169240D01*
X117363819Y-85232655D01*
X117304859Y-85270145D01*
X117270500Y-85275000D01*
X116850000Y-85275000D01*
X116039448Y-86136211D01*
X115979167Y-86171538D01*
X115951476Y-86175000D01*
X114700000Y-86175000D01*
X114550000Y-86025000D01*
X114550000Y-84975000D01*
X114594500Y-84930500D01*
X114809605Y-84930500D01*
X114810249Y-84930484D01*
X114819224Y-84930275D01*
X114821987Y-84930145D01*
X114822191Y-84930136D01*
X114827995Y-84930000D01*
X115872006Y-84930000D01*
X115877810Y-84930136D01*
X115877948Y-84930142D01*
X115880777Y-84930275D01*
X115889750Y-84930484D01*
X115890395Y-84930500D01*
X115890398Y-84930500D01*
X116457023Y-84930500D01*
X116457027Y-84930500D01*
X116457702Y-84930497D01*
X116458892Y-84930492D01*
X116459795Y-84930483D01*
X116461097Y-84930472D01*
X116479315Y-84927601D01*
X116489730Y-84927840D01*
X116506596Y-84923302D01*
X116513118Y-84922275D01*
X116513117Y-84922275D01*
X116520654Y-84921088D01*
X116531712Y-84917625D01*
X116531711Y-84917624D01*
X116553377Y-84910839D01*
X116555768Y-84910076D01*
X116578047Y-84904084D01*
X116582502Y-84901723D01*
X116587312Y-84900218D01*
X116604187Y-84892143D01*
X116657706Y-84880000D01*
X117288000Y-84880000D01*
X117355039Y-84899685D01*
G37*
G04 #@! TD.AperFunction*
G04 #@! TA.AperFunction,Conductor*
G36*
X116965677Y-80994685D02*
G01*
X116986319Y-81011319D01*
X117113681Y-81138681D01*
X117147166Y-81200004D01*
X117150000Y-81226362D01*
X117150000Y-81734396D01*
X117130315Y-81801435D01*
X117125984Y-81807738D01*
X116343106Y-82874999D01*
X116360395Y-83646068D01*
X116360395Y-83646069D01*
X116476475Y-83769404D01*
X116493843Y-83776908D01*
X116507341Y-83783745D01*
X116510500Y-83785595D01*
X116547383Y-83810240D01*
X116555231Y-83811801D01*
X116555233Y-83811802D01*
X116604492Y-83821599D01*
X116624099Y-83825500D01*
X117288000Y-83825499D01*
X117296686Y-83828049D01*
X117305647Y-83826761D01*
X117329683Y-83837738D01*
X117355039Y-83845183D01*
X117360967Y-83852025D01*
X117369203Y-83855786D01*
X117383489Y-83878017D01*
X117400794Y-83897987D01*
X117403081Y-83908502D01*
X117406977Y-83914564D01*
X117412000Y-83949499D01*
X117412000Y-83995999D01*
X117392315Y-84063038D01*
X117339511Y-84108793D01*
X117288000Y-84119999D01*
X116630192Y-84119999D01*
X116630154Y-84119998D01*
X116624358Y-84119999D01*
X116615502Y-84119684D01*
X116612935Y-84119500D01*
X116612931Y-84119500D01*
X116612926Y-84119500D01*
X114936482Y-84119500D01*
X114869443Y-84099815D01*
X114848801Y-84083181D01*
X114771842Y-84006222D01*
X114771832Y-84006212D01*
X114771822Y-84006204D01*
X114771812Y-84006194D01*
X114748562Y-83986186D01*
X114748557Y-83986182D01*
X114748551Y-83986177D01*
X114736543Y-83977314D01*
X114714839Y-83961296D01*
X114695882Y-83944006D01*
X114692088Y-83939747D01*
X114663822Y-83901447D01*
X114643787Y-83878167D01*
X114583789Y-83818169D01*
X114581408Y-83815496D01*
X114567925Y-83787013D01*
X114552834Y-83759375D01*
X114552243Y-83753883D01*
X114551515Y-83752344D01*
X114551822Y-83749971D01*
X114550000Y-83733017D01*
X114550000Y-83134597D01*
X114569685Y-83067558D01*
X114596536Y-83037771D01*
X114766035Y-82902172D01*
X114830681Y-82875664D01*
X114843497Y-82875000D01*
X115100000Y-82875000D01*
X116000000Y-82025000D01*
X116000000Y-81226362D01*
X116008644Y-81196921D01*
X116015168Y-81166935D01*
X116018922Y-81161919D01*
X116019685Y-81159323D01*
X116036319Y-81138681D01*
X116163681Y-81011319D01*
X116225004Y-80977834D01*
X116251362Y-80975000D01*
X116898638Y-80975000D01*
X116965677Y-80994685D01*
G37*
G04 #@! TD.AperFunction*
G04 #@! TA.AperFunction,Conductor*
G36*
X122415677Y-82094685D02*
G01*
X122436319Y-82111319D01*
X122563681Y-82238681D01*
X122597166Y-82300004D01*
X122600000Y-82326362D01*
X122600000Y-83173638D01*
X122591355Y-83203078D01*
X122584832Y-83233065D01*
X122581077Y-83238080D01*
X122580315Y-83240677D01*
X122563681Y-83261319D01*
X122436319Y-83388681D01*
X122374996Y-83422166D01*
X122348638Y-83425000D01*
X121313880Y-83425000D01*
X121246841Y-83405315D01*
X121201086Y-83352511D01*
X121194107Y-83333099D01*
X121170669Y-83245627D01*
X121111359Y-83142900D01*
X121027483Y-83059024D01*
X120924756Y-82999714D01*
X120810179Y-82969013D01*
X120691561Y-82969013D01*
X120576984Y-82999714D01*
X120576982Y-82999714D01*
X120576982Y-82999715D01*
X120474257Y-83059024D01*
X120474254Y-83059026D01*
X120395100Y-83138181D01*
X120333777Y-83171666D01*
X120307419Y-83174500D01*
X119637000Y-83174500D01*
X119628314Y-83171949D01*
X119619353Y-83173238D01*
X119595312Y-83162259D01*
X119569961Y-83154815D01*
X119564033Y-83147974D01*
X119555797Y-83144213D01*
X119541507Y-83121978D01*
X119524206Y-83102011D01*
X119521918Y-83091496D01*
X119518023Y-83085435D01*
X119513000Y-83050500D01*
X119513000Y-82948127D01*
X119532685Y-82881088D01*
X119569042Y-82844408D01*
X120712451Y-82095279D01*
X120779314Y-82075005D01*
X120780406Y-82075000D01*
X122348638Y-82075000D01*
X122415677Y-82094685D01*
G37*
G04 #@! TD.AperFunction*
G04 #@! TA.AperFunction,Conductor*
G36*
X120750000Y-80625000D02*
G01*
X120750000Y-81825000D01*
X118994737Y-82975000D01*
X117635185Y-82975000D01*
X118626933Y-82051648D01*
X118734650Y-81972150D01*
X118783691Y-81905701D01*
X119150000Y-81564656D01*
X119150000Y-80625000D01*
X119300000Y-80425000D01*
X120550000Y-80425000D01*
X120750000Y-80625000D01*
G37*
G04 #@! TD.AperFunction*
G04 #@! TA.AperFunction,Conductor*
G36*
X112365677Y-81844685D02*
G01*
X112386319Y-81861319D01*
X112463681Y-81938681D01*
X112497166Y-82000004D01*
X112500000Y-82026362D01*
X112500000Y-84323638D01*
X112491355Y-84353078D01*
X112484832Y-84383065D01*
X112481077Y-84388080D01*
X112480315Y-84390677D01*
X112463681Y-84411319D01*
X112336319Y-84538681D01*
X112274996Y-84572166D01*
X112248638Y-84575000D01*
X111351362Y-84575000D01*
X111284323Y-84555315D01*
X111263681Y-84538681D01*
X111136319Y-84411319D01*
X111102834Y-84349996D01*
X111100000Y-84323638D01*
X111100000Y-82026362D01*
X111108644Y-81996921D01*
X111115168Y-81966935D01*
X111118922Y-81961919D01*
X111119685Y-81959323D01*
X111136319Y-81938681D01*
X111213681Y-81861319D01*
X111275004Y-81827834D01*
X111301362Y-81825000D01*
X112298638Y-81825000D01*
X112365677Y-81844685D01*
G37*
G04 #@! TD.AperFunction*
G04 #@! TA.AperFunction,Conductor*
G36*
X117467213Y-86419685D02*
G01*
X117487855Y-86436319D01*
X117513271Y-86461735D01*
X117529667Y-86475738D01*
X117561653Y-86503056D01*
X117597632Y-86521388D01*
X117674696Y-86560654D01*
X117772908Y-86576209D01*
X117800000Y-86580500D01*
X117800001Y-86580500D01*
X119200003Y-86580500D01*
X119251187Y-86572790D01*
X119319437Y-86562511D01*
X119433339Y-86506637D01*
X119507189Y-86434995D01*
X119569012Y-86402448D01*
X119593527Y-86400000D01*
X121848638Y-86400000D01*
X121915677Y-86419685D01*
X121936319Y-86436319D01*
X122113681Y-86613681D01*
X122147166Y-86675004D01*
X122150000Y-86701362D01*
X122150000Y-88876000D01*
X122130315Y-88943039D01*
X122077511Y-88988794D01*
X122026000Y-89000000D01*
X119674449Y-89000000D01*
X119607410Y-88980315D01*
X119561655Y-88927511D01*
X119551160Y-88889263D01*
X119550342Y-88881655D01*
X119548854Y-88871560D01*
X119545700Y-88850162D01*
X119545699Y-88850158D01*
X119503065Y-88730668D01*
X119469580Y-88669345D01*
X119469578Y-88669342D01*
X119400419Y-88576956D01*
X119400410Y-88576946D01*
X119323051Y-88499587D01*
X119323034Y-88499572D01*
X119323014Y-88499553D01*
X119290758Y-88470580D01*
X119290751Y-88470574D01*
X119270122Y-88453951D01*
X119270121Y-88453950D01*
X119270112Y-88453943D01*
X119244561Y-88434958D01*
X119215030Y-88420958D01*
X119129927Y-88380612D01*
X119062885Y-88360926D01*
X119062877Y-88360924D01*
X118948638Y-88344500D01*
X117701362Y-88344500D01*
X117701361Y-88344500D01*
X117658025Y-88346823D01*
X117658016Y-88346823D01*
X117658011Y-88346824D01*
X117658004Y-88346824D01*
X117657977Y-88346827D01*
X117631649Y-88349658D01*
X117600172Y-88354298D01*
X117480681Y-88396928D01*
X117480680Y-88396928D01*
X117436670Y-88420958D01*
X117368397Y-88435807D01*
X117324129Y-88424169D01*
X117232253Y-88380612D01*
X117165211Y-88360926D01*
X117165203Y-88360924D01*
X117050964Y-88344500D01*
X116201362Y-88344500D01*
X116201361Y-88344500D01*
X116158003Y-88346824D01*
X116131648Y-88349658D01*
X116100162Y-88354299D01*
X116026419Y-88380611D01*
X115980668Y-88396935D01*
X115980666Y-88396935D01*
X115980663Y-88396937D01*
X115919350Y-88430416D01*
X115919342Y-88430421D01*
X115826956Y-88499580D01*
X115826946Y-88499589D01*
X115699582Y-88626954D01*
X115699553Y-88626985D01*
X115670580Y-88659241D01*
X115670574Y-88659248D01*
X115653941Y-88679890D01*
X115635969Y-88704071D01*
X115635017Y-88705353D01*
X115635015Y-88705357D01*
X115634968Y-88705434D01*
X115631434Y-88712669D01*
X115614970Y-88737505D01*
X115597911Y-88781314D01*
X115595650Y-88785945D01*
X115575424Y-88808099D01*
X115557107Y-88831852D01*
X115552115Y-88833632D01*
X115548543Y-88837546D01*
X115519556Y-88845247D01*
X115491300Y-88855328D01*
X115482963Y-88854970D01*
X115481016Y-88855488D01*
X115478862Y-88854794D01*
X115466581Y-88854268D01*
X115398639Y-88844500D01*
X115398638Y-88844500D01*
X113701362Y-88844500D01*
X113701361Y-88844500D01*
X113658003Y-88846824D01*
X113631648Y-88849658D01*
X113600162Y-88854299D01*
X113539342Y-88876000D01*
X113480668Y-88896935D01*
X113480666Y-88896935D01*
X113480663Y-88896937D01*
X113419350Y-88930416D01*
X113419342Y-88930421D01*
X113326956Y-88999580D01*
X113326938Y-88999596D01*
X113149601Y-89176934D01*
X113149553Y-89176985D01*
X113120580Y-89209241D01*
X113120574Y-89209248D01*
X113103951Y-89229877D01*
X113084957Y-89255440D01*
X113030612Y-89370072D01*
X113010926Y-89437114D01*
X113010924Y-89437122D01*
X112994500Y-89551361D01*
X112994500Y-90332594D01*
X112974815Y-90399633D01*
X112922011Y-90445388D01*
X112889898Y-90455067D01*
X112799699Y-90469352D01*
X112744297Y-90497580D01*
X112686658Y-90526950D01*
X112686657Y-90526951D01*
X112686652Y-90526954D01*
X112596954Y-90616652D01*
X112596951Y-90616657D01*
X112539352Y-90729698D01*
X112524500Y-90823475D01*
X112524500Y-92283870D01*
X112504815Y-92350909D01*
X112452011Y-92396664D01*
X112382854Y-92406608D01*
X112298638Y-92394500D01*
X111301362Y-92394500D01*
X111301361Y-92394500D01*
X111258003Y-92396824D01*
X111231648Y-92399658D01*
X111200162Y-92404299D01*
X111126419Y-92430611D01*
X111080668Y-92446935D01*
X111080666Y-92446935D01*
X111080663Y-92446937D01*
X111019350Y-92480416D01*
X111019342Y-92480421D01*
X110926956Y-92549580D01*
X110926946Y-92549589D01*
X110849582Y-92626954D01*
X110849553Y-92626985D01*
X110820580Y-92659241D01*
X110820574Y-92659248D01*
X110803941Y-92679890D01*
X110785017Y-92705352D01*
X110785014Y-92705357D01*
X110781824Y-92712082D01*
X110764970Y-92737505D01*
X110743012Y-92793894D01*
X110741109Y-92797908D01*
X110730641Y-92819976D01*
X110725309Y-92838118D01*
X110725308Y-92838117D01*
X110723816Y-92843197D01*
X110718938Y-92855728D01*
X110715499Y-92871529D01*
X110714251Y-92875783D01*
X110714249Y-92875793D01*
X110710925Y-92887117D01*
X110710921Y-92887134D01*
X110694500Y-93001359D01*
X110694500Y-95298638D01*
X110696824Y-95341996D01*
X110699658Y-95368351D01*
X110704299Y-95399837D01*
X110704301Y-95399842D01*
X110746935Y-95519332D01*
X110746936Y-95519335D01*
X110746937Y-95519336D01*
X110780416Y-95580649D01*
X110780421Y-95580657D01*
X110849580Y-95673043D01*
X110849586Y-95673049D01*
X110849587Y-95673051D01*
X110976949Y-95800413D01*
X110976967Y-95800429D01*
X110976985Y-95800446D01*
X111009241Y-95829419D01*
X111009248Y-95829425D01*
X111024518Y-95841730D01*
X111029888Y-95846057D01*
X111055439Y-95865042D01*
X111119794Y-95895551D01*
X111170072Y-95919387D01*
X111170074Y-95919387D01*
X111170077Y-95919389D01*
X111237116Y-95939074D01*
X111237120Y-95939074D01*
X111237122Y-95939075D01*
X111252912Y-95941345D01*
X111351362Y-95955500D01*
X111351365Y-95955500D01*
X112248639Y-95955500D01*
X112252709Y-95955281D01*
X112291987Y-95953176D01*
X112318345Y-95950342D01*
X112327962Y-95948924D01*
X112349837Y-95945700D01*
X112349838Y-95945699D01*
X112349842Y-95945699D01*
X112469332Y-95903065D01*
X112530655Y-95869580D01*
X112567860Y-95841728D01*
X112633320Y-95817311D01*
X112701593Y-95832161D01*
X112729850Y-95853314D01*
X112826949Y-95950413D01*
X112826969Y-95950431D01*
X112826985Y-95950446D01*
X112859241Y-95979419D01*
X112859246Y-95979423D01*
X112879888Y-95996057D01*
X112905439Y-96015042D01*
X112969794Y-96045551D01*
X113020072Y-96069387D01*
X113020074Y-96069387D01*
X113020077Y-96069389D01*
X113087116Y-96089074D01*
X113087120Y-96089074D01*
X113087122Y-96089075D01*
X113102912Y-96091345D01*
X113201362Y-96105500D01*
X113201365Y-96105500D01*
X114550000Y-96105500D01*
X114550000Y-97000000D01*
X114599587Y-97049587D01*
X114599568Y-97049570D01*
X114599550Y-97049553D01*
X114567294Y-97020580D01*
X114567287Y-97020574D01*
X114546658Y-97003951D01*
X114546657Y-97003950D01*
X114546648Y-97003943D01*
X114521097Y-96984958D01*
X114521095Y-96984957D01*
X114406463Y-96930612D01*
X114339421Y-96910926D01*
X114339413Y-96910924D01*
X114225174Y-96894500D01*
X110173815Y-96894500D01*
X110106776Y-96874815D01*
X110072628Y-96842174D01*
X109417969Y-95917949D01*
X109417966Y-95917946D01*
X109417962Y-95917940D01*
X109367255Y-95859199D01*
X109367252Y-95859196D01*
X109367246Y-95859189D01*
X109333117Y-95826567D01*
X109333098Y-95826550D01*
X109281803Y-95784960D01*
X109281801Y-95784958D01*
X109281800Y-95784958D01*
X109257555Y-95773464D01*
X109167166Y-95730612D01*
X109100124Y-95710926D01*
X109100116Y-95710924D01*
X108985877Y-95694500D01*
X107851362Y-95694500D01*
X107851361Y-95694500D01*
X107808003Y-95696824D01*
X107781652Y-95699658D01*
X107750164Y-95704299D01*
X107750154Y-95704302D01*
X107698384Y-95722773D01*
X107628628Y-95726761D01*
X107584642Y-95706887D01*
X107251925Y-95469232D01*
X107208816Y-95414249D01*
X107200000Y-95368330D01*
X107200000Y-94521885D01*
X107219685Y-94454846D01*
X107231020Y-94439844D01*
X107537977Y-94091959D01*
X107597092Y-94054714D01*
X107630957Y-94050000D01*
X109150000Y-94050000D01*
X109540029Y-93631551D01*
X109540030Y-93631550D01*
X109540417Y-93378890D01*
X109549853Y-93331637D01*
X109587051Y-93241835D01*
X109599632Y-93178582D01*
X109625500Y-93048543D01*
X109625500Y-92851456D01*
X109587052Y-92658170D01*
X109587051Y-92658169D01*
X109587051Y-92658165D01*
X109551164Y-92571525D01*
X109541727Y-92523893D01*
X109542914Y-91749326D01*
X109555163Y-91695783D01*
X109593608Y-91615845D01*
X109613667Y-91548917D01*
X109630731Y-91434766D01*
X109654224Y-87229284D01*
X109674282Y-87162360D01*
X109693230Y-87139690D01*
X110225945Y-86638313D01*
X110288253Y-86606702D01*
X110310403Y-86604612D01*
X115951393Y-86580721D01*
X115999972Y-86577594D01*
X116001772Y-86577369D01*
X116001774Y-86577368D01*
X116001781Y-86577368D01*
X116010963Y-86576219D01*
X116011052Y-86576209D01*
X116012224Y-86576063D01*
X116012228Y-86576061D01*
X116029472Y-86573906D01*
X116066048Y-86567621D01*
X116125120Y-86544504D01*
X116184190Y-86521389D01*
X116184190Y-86521388D01*
X116184192Y-86521388D01*
X116244473Y-86486061D01*
X116318543Y-86427028D01*
X116383237Y-86400641D01*
X116395826Y-86400000D01*
X117400174Y-86400000D01*
X117467213Y-86419685D01*
G37*
G04 #@! TD.AperFunction*
G04 #@! TA.AperFunction,Conductor*
G36*
X132354753Y-103279923D02*
G01*
X132600000Y-103500000D01*
X132600000Y-105800000D01*
X132300000Y-106100000D01*
X130100000Y-106100000D01*
X129800000Y-105800000D01*
X129800000Y-103558333D01*
X130062647Y-103273801D01*
X132354753Y-103279923D01*
G37*
G04 #@! TD.AperFunction*
G04 #@! TA.AperFunction,Conductor*
G36*
X132304962Y-96901616D02*
G01*
X132550209Y-97121693D01*
X132550209Y-99421693D01*
X132250209Y-99721693D01*
X130050209Y-99721693D01*
X129750209Y-99421693D01*
X129750209Y-97180026D01*
X130012856Y-96900000D01*
X132304962Y-96901616D01*
G37*
G04 #@! TD.AperFunction*
G04 #@! TA.AperFunction,Conductor*
G36*
X131340403Y-109719685D02*
G01*
X131384273Y-109768546D01*
X131785115Y-110570229D01*
X131786909Y-110573818D01*
X131789880Y-110586407D01*
X131794977Y-110594337D01*
X131800000Y-110629272D01*
X131800000Y-110776000D01*
X131780315Y-110843039D01*
X131727511Y-110888794D01*
X131676000Y-110900000D01*
X128824000Y-110900000D01*
X128756961Y-110880315D01*
X128711206Y-110827511D01*
X128700000Y-110776000D01*
X128700000Y-110634889D01*
X128718193Y-110570229D01*
X129213737Y-109759340D01*
X129265491Y-109712401D01*
X129319544Y-109700000D01*
X131273364Y-109700000D01*
X131340403Y-109719685D01*
G37*
G04 #@! TD.AperFunction*
G04 #@! TA.AperFunction,Conductor*
G36*
X124912538Y-111419685D02*
G01*
X124958293Y-111472489D01*
X124960853Y-111478510D01*
X124978137Y-111522339D01*
X124978138Y-111522341D01*
X125069577Y-111642922D01*
X125190156Y-111734360D01*
X125190157Y-111734360D01*
X125190158Y-111734361D01*
X125330936Y-111789877D01*
X125419398Y-111800500D01*
X125419403Y-111800500D01*
X126432769Y-111800500D01*
X126462205Y-111809143D01*
X126492195Y-111815667D01*
X126497212Y-111819422D01*
X126499808Y-111820185D01*
X126520435Y-111836807D01*
X126520451Y-111836818D01*
X126612049Y-111928416D01*
X126671768Y-111988135D01*
X126716585Y-112032952D01*
X126839498Y-112115080D01*
X126839511Y-112115087D01*
X126976082Y-112171656D01*
X126976087Y-112171658D01*
X126976091Y-112171658D01*
X126976092Y-112171659D01*
X127121079Y-112200500D01*
X127121082Y-112200500D01*
X127121083Y-112200500D01*
X127161761Y-112200500D01*
X127184545Y-112202611D01*
X127200000Y-112205500D01*
X128245968Y-112205500D01*
X128313007Y-112225185D01*
X128358762Y-112277989D01*
X128369836Y-112323773D01*
X128370802Y-112344684D01*
X128370804Y-112344692D01*
X128401526Y-112452669D01*
X128401529Y-112452674D01*
X128474954Y-112549905D01*
X128499646Y-112615267D01*
X128500000Y-112624632D01*
X128500000Y-113077375D01*
X128499894Y-113082490D01*
X128499533Y-113091214D01*
X128497983Y-113099652D01*
X128497114Y-113110023D01*
X128495000Y-113160581D01*
X128495000Y-113201039D01*
X128494894Y-113203607D01*
X128494480Y-113204826D01*
X128493343Y-113218695D01*
X128482436Y-113284745D01*
X128452092Y-113347681D01*
X128447776Y-113352222D01*
X128386320Y-113413680D01*
X128324997Y-113447166D01*
X128298637Y-113450000D01*
X127314344Y-113450000D01*
X127247305Y-113430315D01*
X127216140Y-113401709D01*
X127168697Y-113340169D01*
X127136993Y-113304183D01*
X127116326Y-113280724D01*
X127116324Y-113280723D01*
X127116323Y-113280721D01*
X126990704Y-113184784D01*
X126906469Y-113136406D01*
X126906468Y-113136405D01*
X126906455Y-113136398D01*
X126867768Y-113117429D01*
X126835349Y-113101533D01*
X126835342Y-113101530D01*
X126835340Y-113101529D01*
X126682566Y-113060966D01*
X126682563Y-113060965D01*
X126682561Y-113060965D01*
X126586203Y-113048502D01*
X126536074Y-113046975D01*
X126486454Y-113045463D01*
X126486454Y-113045000D01*
X126471229Y-113045000D01*
X126469326Y-113044942D01*
X126469325Y-113044942D01*
X126468584Y-113044919D01*
X126467592Y-113044889D01*
X126467588Y-113044889D01*
X126467586Y-113044889D01*
X126467583Y-113044889D01*
X126464536Y-113044946D01*
X126464535Y-113044905D01*
X126461747Y-113045000D01*
X125633191Y-113045000D01*
X125600174Y-113048251D01*
X125515079Y-113056631D01*
X125515074Y-113056631D01*
X125436672Y-113072225D01*
X125419792Y-113075583D01*
X125419788Y-113075583D01*
X125419778Y-113075586D01*
X125419777Y-113075586D01*
X125343297Y-113096077D01*
X125343291Y-113096080D01*
X125201533Y-113165981D01*
X125120744Y-113219959D01*
X125057907Y-113268173D01*
X124953680Y-113387013D01*
X124929177Y-113423682D01*
X124929046Y-113423877D01*
X124900401Y-113466566D01*
X124900249Y-113466464D01*
X124847388Y-113545573D01*
X124846951Y-113546226D01*
X124846855Y-113546305D01*
X124831664Y-113564816D01*
X124814813Y-113581667D01*
X124796025Y-113597087D01*
X124776205Y-113610331D01*
X124754765Y-113621790D01*
X124732747Y-113630911D01*
X124709487Y-113637966D01*
X124584467Y-113662834D01*
X124582931Y-113663139D01*
X124577978Y-113663999D01*
X124575552Y-113664606D01*
X124572608Y-113665192D01*
X124570917Y-113665767D01*
X124507085Y-113681756D01*
X124459583Y-113695740D01*
X124396058Y-113727067D01*
X124372483Y-113731175D01*
X124350062Y-113739538D01*
X124338690Y-113737064D01*
X124327226Y-113739062D01*
X124305172Y-113729772D01*
X124281789Y-113724686D01*
X124267242Y-113713796D01*
X124262835Y-113711940D01*
X124253535Y-113703535D01*
X124236819Y-113686819D01*
X124203334Y-113625496D01*
X124200500Y-113599138D01*
X124200500Y-111550862D01*
X124220185Y-111483823D01*
X124236819Y-111463181D01*
X124263681Y-111436319D01*
X124325004Y-111402834D01*
X124351362Y-111400000D01*
X124845499Y-111400000D01*
X124912538Y-111419685D01*
G37*
G04 #@! TD.AperFunction*
G04 #@! TA.AperFunction,Conductor*
G36*
X126790677Y-74394685D02*
G01*
X126811319Y-74411319D01*
X127063681Y-74663681D01*
X127097166Y-74725004D01*
X127100000Y-74751362D01*
X127100000Y-77350001D01*
X130482315Y-80287923D01*
X130520019Y-80346746D01*
X130525000Y-80381538D01*
X130525000Y-86915012D01*
X130505315Y-86982051D01*
X130477967Y-87012234D01*
X129958825Y-87423222D01*
X129894045Y-87449400D01*
X129881858Y-87450000D01*
X127754548Y-87450000D01*
X127687509Y-87430315D01*
X127663141Y-87409790D01*
X127182593Y-86885556D01*
X127151803Y-86822836D01*
X127150000Y-86801766D01*
X127150000Y-82450000D01*
X123889100Y-79386730D01*
X123853716Y-79326483D01*
X123850000Y-79296353D01*
X123850000Y-74826362D01*
X123869685Y-74759323D01*
X123886319Y-74738681D01*
X124213681Y-74411319D01*
X124275004Y-74377834D01*
X124301362Y-74375000D01*
X126723638Y-74375000D01*
X126790677Y-74394685D01*
G37*
G04 #@! TD.AperFunction*
G04 #@! TA.AperFunction,Conductor*
G36*
X108467781Y-115870077D02*
G01*
X108553464Y-115915875D01*
X108615098Y-115990977D01*
X108643301Y-116083949D01*
X108644500Y-116108355D01*
X108644500Y-118088006D01*
X108651067Y-118161576D01*
X108654072Y-118195236D01*
X108661851Y-118238465D01*
X108669088Y-118263730D01*
X108695450Y-118355767D01*
X108766997Y-118483433D01*
X108772726Y-118493656D01*
X108814547Y-118549627D01*
X108823307Y-118561065D01*
X108936300Y-118671600D01*
X109442568Y-119051301D01*
X109507425Y-119123636D01*
X109539664Y-119215286D01*
X109534377Y-119312297D01*
X109492367Y-119399900D01*
X109420031Y-119464758D01*
X109328381Y-119496997D01*
X109293167Y-119499500D01*
X103007528Y-119499500D01*
X102992494Y-119499046D01*
X102713749Y-119482185D01*
X102683899Y-119478560D01*
X102416642Y-119429583D01*
X102387448Y-119422387D01*
X102128049Y-119341555D01*
X102099934Y-119330893D01*
X101852160Y-119219379D01*
X101825535Y-119205405D01*
X101593010Y-119064838D01*
X101568265Y-119047758D01*
X101354383Y-118880193D01*
X101331876Y-118860254D01*
X101139745Y-118668123D01*
X101119806Y-118645616D01*
X100952241Y-118431734D01*
X100935161Y-118406989D01*
X100794594Y-118174464D01*
X100780620Y-118147839D01*
X100753691Y-118088006D01*
X100669103Y-117900059D01*
X100658444Y-117871950D01*
X100654061Y-117857885D01*
X100577610Y-117612546D01*
X100570416Y-117583357D01*
X100565936Y-117558909D01*
X100521437Y-117316088D01*
X100517815Y-117286261D01*
X100500954Y-117007504D01*
X100500500Y-116992471D01*
X100500500Y-116527343D01*
X100519454Y-116432055D01*
X100573430Y-116351273D01*
X100654212Y-116297297D01*
X100749500Y-116278343D01*
X100844788Y-116297297D01*
X100925570Y-116351273D01*
X100979545Y-116432053D01*
X101057998Y-116621455D01*
X101060245Y-116626880D01*
X101060250Y-116626891D01*
X101236269Y-116956201D01*
X101443731Y-117266688D01*
X101529306Y-117370962D01*
X101680619Y-117555338D01*
X101944662Y-117819381D01*
X102233315Y-118056271D01*
X102543796Y-118263729D01*
X102873117Y-118439754D01*
X103218106Y-118582653D01*
X103218118Y-118582656D01*
X103218119Y-118582657D01*
X103575437Y-118691049D01*
X103793987Y-118734521D01*
X103941678Y-118763899D01*
X104313293Y-118800500D01*
X104313296Y-118800500D01*
X104686704Y-118800500D01*
X104686707Y-118800500D01*
X105058322Y-118763899D01*
X105278862Y-118720030D01*
X105424562Y-118691049D01*
X105678541Y-118614004D01*
X105781894Y-118582653D01*
X106126883Y-118439754D01*
X106456204Y-118263729D01*
X106766685Y-118056271D01*
X107055338Y-117819381D01*
X107319381Y-117555338D01*
X107556271Y-117266685D01*
X107763729Y-116956204D01*
X107939754Y-116626883D01*
X108082653Y-116281894D01*
X108130931Y-116122742D01*
X108157222Y-116036074D01*
X108203020Y-115950391D01*
X108278122Y-115888757D01*
X108371094Y-115860554D01*
X108467781Y-115870077D01*
G37*
G04 #@! TD.AperFunction*
G04 #@! TA.AperFunction,Conductor*
G36*
X131935216Y-112919284D02*
G01*
X131955655Y-112920624D01*
X131981264Y-112933252D01*
X132008587Y-112941541D01*
X132024420Y-112954534D01*
X132042791Y-112963594D01*
X132061617Y-112985060D01*
X132083690Y-113003175D01*
X132093345Y-113021239D01*
X132106850Y-113036638D01*
X132116027Y-113063673D01*
X132129489Y-113088858D01*
X132131496Y-113109244D01*
X132138080Y-113128637D01*
X132136213Y-113157127D01*
X132139012Y-113185545D01*
X132133066Y-113205145D01*
X132131727Y-113225584D01*
X132110810Y-113278516D01*
X132060251Y-113373106D01*
X132060244Y-113373119D01*
X131917350Y-113718098D01*
X131917342Y-113718119D01*
X131808950Y-114075437D01*
X131736101Y-114441675D01*
X131699500Y-114813292D01*
X131699500Y-115186707D01*
X131736101Y-115558324D01*
X131808950Y-115924562D01*
X131917342Y-116281880D01*
X131917350Y-116281901D01*
X132060244Y-116626880D01*
X132060250Y-116626891D01*
X132236269Y-116956201D01*
X132443731Y-117266688D01*
X132529306Y-117370962D01*
X132680619Y-117555338D01*
X132944662Y-117819381D01*
X133233315Y-118056271D01*
X133543796Y-118263729D01*
X133873117Y-118439754D01*
X134218106Y-118582653D01*
X134218118Y-118582656D01*
X134218119Y-118582657D01*
X134575437Y-118691049D01*
X134793987Y-118734521D01*
X134941678Y-118763899D01*
X135313293Y-118800500D01*
X135313296Y-118800500D01*
X135686704Y-118800500D01*
X135686707Y-118800500D01*
X136058322Y-118763899D01*
X136278862Y-118720030D01*
X136424562Y-118691049D01*
X136678541Y-118614004D01*
X136781894Y-118582653D01*
X137126883Y-118439754D01*
X137456204Y-118263729D01*
X137766685Y-118056271D01*
X138055338Y-117819381D01*
X138319381Y-117555338D01*
X138556271Y-117266685D01*
X138763729Y-116956204D01*
X138939754Y-116626883D01*
X139020454Y-116432053D01*
X139057438Y-116376704D01*
X139074430Y-116351273D01*
X139122854Y-116318916D01*
X139155211Y-116297297D01*
X139250500Y-116278343D01*
X139345788Y-116297297D01*
X139426570Y-116351273D01*
X139443562Y-116376704D01*
X139480546Y-116432054D01*
X139480546Y-116432055D01*
X139499500Y-116527343D01*
X139499500Y-116992471D01*
X139499046Y-117007505D01*
X139482185Y-117286250D01*
X139478560Y-117316100D01*
X139429583Y-117583357D01*
X139422387Y-117612551D01*
X139341555Y-117871950D01*
X139330893Y-117900065D01*
X139219379Y-118147839D01*
X139205405Y-118174464D01*
X139064838Y-118406989D01*
X139047758Y-118431734D01*
X138880193Y-118645616D01*
X138860254Y-118668123D01*
X138668123Y-118860254D01*
X138645616Y-118880193D01*
X138431734Y-119047758D01*
X138406989Y-119064838D01*
X138174464Y-119205405D01*
X138147839Y-119219379D01*
X137900065Y-119330893D01*
X137871950Y-119341555D01*
X137612551Y-119422387D01*
X137583357Y-119429583D01*
X137316100Y-119478560D01*
X137286250Y-119482185D01*
X137007506Y-119499046D01*
X136992472Y-119499500D01*
X116749441Y-119499500D01*
X116654153Y-119480546D01*
X116573371Y-119426570D01*
X116519395Y-119345788D01*
X116500441Y-119250500D01*
X116519395Y-119155212D01*
X116568117Y-119079846D01*
X116987885Y-118633843D01*
X117066994Y-118577446D01*
X117161664Y-118555614D01*
X117169206Y-118555500D01*
X117250500Y-118555500D01*
X117379213Y-118541661D01*
X117430724Y-118530455D01*
X117550000Y-118489172D01*
X117550000Y-118650000D01*
X117750000Y-118850000D01*
X119150000Y-118850000D01*
X119300000Y-118650000D01*
X119300000Y-118357936D01*
X119417113Y-118394430D01*
X119483909Y-118400500D01*
X119802858Y-118400499D01*
X119816042Y-118400499D01*
X119816045Y-118400500D01*
X119969574Y-118400500D01*
X119986601Y-118403887D01*
X120064861Y-118419454D01*
X120145639Y-118473427D01*
X120157838Y-118485626D01*
X120297137Y-118578703D01*
X120451918Y-118642816D01*
X120616233Y-118675500D01*
X120616235Y-118675500D01*
X120783765Y-118675500D01*
X120783767Y-118675500D01*
X120948082Y-118642816D01*
X121102863Y-118578703D01*
X121242162Y-118485626D01*
X121360626Y-118367162D01*
X121453703Y-118227863D01*
X121492306Y-118134665D01*
X121522498Y-118061780D01*
X121524393Y-118062565D01*
X121562359Y-117991537D01*
X121637460Y-117929902D01*
X121730432Y-117901699D01*
X121754839Y-117900500D01*
X123221456Y-117900500D01*
X123221460Y-117900499D01*
X123361616Y-117872620D01*
X123361616Y-117872619D01*
X123361620Y-117872619D01*
X123493653Y-117817929D01*
X123612480Y-117738532D01*
X124338532Y-117012480D01*
X124417929Y-116893654D01*
X124443737Y-116831347D01*
X124472619Y-116761620D01*
X124480578Y-116721611D01*
X124500499Y-116621460D01*
X124500500Y-116621456D01*
X124500500Y-114499155D01*
X124519454Y-114403867D01*
X124573430Y-114323085D01*
X124654212Y-114269109D01*
X124725097Y-114251354D01*
X124733761Y-114250500D01*
X124733767Y-114250500D01*
X124898082Y-114217816D01*
X125052863Y-114153703D01*
X125192162Y-114060626D01*
X125310626Y-113942162D01*
X125403703Y-113802863D01*
X125403706Y-113802854D01*
X125409471Y-113792072D01*
X125410785Y-113792774D01*
X125457126Y-113723425D01*
X125537909Y-113669451D01*
X125633191Y-113650500D01*
X126486450Y-113650500D01*
X126486454Y-113650500D01*
X126486462Y-113650499D01*
X126486472Y-113650499D01*
X126508547Y-113649002D01*
X126604899Y-113661464D01*
X126689148Y-113709850D01*
X126748467Y-113786794D01*
X126773826Y-113880581D01*
X126761364Y-113976933D01*
X126736233Y-114029905D01*
X126700961Y-114086039D01*
X126677285Y-114153703D01*
X126641616Y-114255640D01*
X126639986Y-114260297D01*
X126639984Y-114260305D01*
X126624500Y-114397724D01*
X126624500Y-115002275D01*
X126639984Y-115139694D01*
X126639985Y-115139700D01*
X126639986Y-115139704D01*
X126700961Y-115313959D01*
X126799182Y-115470276D01*
X126929724Y-115600818D01*
X127086041Y-115699039D01*
X127260296Y-115760014D01*
X127260305Y-115760015D01*
X127397724Y-115775499D01*
X127397740Y-115775500D01*
X127927260Y-115775500D01*
X127927275Y-115775499D01*
X128043375Y-115762417D01*
X128064704Y-115760014D01*
X128180764Y-115719402D01*
X128222078Y-115713569D01*
X128263000Y-115705430D01*
X128269947Y-115706811D01*
X128276960Y-115705822D01*
X128317361Y-115716243D01*
X128358288Y-115724384D01*
X128364176Y-115728318D01*
X128371036Y-115730088D01*
X128404371Y-115755175D01*
X128439070Y-115778360D01*
X128443006Y-115784251D01*
X128448664Y-115788509D01*
X128469863Y-115824447D01*
X128493046Y-115859142D01*
X128494427Y-115866087D01*
X128498027Y-115872189D01*
X128512000Y-115954430D01*
X128512000Y-115967499D01*
X128493046Y-116062787D01*
X128464789Y-116110688D01*
X128465123Y-116110898D01*
X128361714Y-116275470D01*
X128361711Y-116275476D01*
X128361711Y-116275478D01*
X128306923Y-116432055D01*
X128302132Y-116445746D01*
X128302130Y-116445754D01*
X128287000Y-116580031D01*
X128287000Y-117219968D01*
X128302130Y-117354245D01*
X128302131Y-117354251D01*
X128302132Y-117354255D01*
X128361711Y-117524522D01*
X128361712Y-117524523D01*
X128361714Y-117524529D01*
X128457680Y-117677257D01*
X128457682Y-117677259D01*
X128457684Y-117677262D01*
X128585238Y-117804816D01*
X128585240Y-117804817D01*
X128585242Y-117804819D01*
X128737970Y-117900785D01*
X128737973Y-117900786D01*
X128737978Y-117900789D01*
X128908245Y-117960368D01*
X128908254Y-117960369D01*
X129042531Y-117975499D01*
X129042546Y-117975500D01*
X129532454Y-117975500D01*
X129532468Y-117975499D01*
X129642579Y-117963091D01*
X129666755Y-117960368D01*
X129837022Y-117900789D01*
X129837027Y-117900785D01*
X129837029Y-117900785D01*
X129989757Y-117804819D01*
X129989756Y-117804819D01*
X129989762Y-117804816D01*
X130117316Y-117677262D01*
X130167013Y-117598170D01*
X130213285Y-117524529D01*
X130213285Y-117524527D01*
X130213289Y-117524522D01*
X130272868Y-117354255D01*
X130278837Y-117301281D01*
X130287999Y-117219968D01*
X130288000Y-117219953D01*
X130288000Y-116580046D01*
X130287999Y-116580031D01*
X130272869Y-116445754D01*
X130272868Y-116445745D01*
X130213289Y-116275478D01*
X130213286Y-116275473D01*
X130213285Y-116275470D01*
X130117319Y-116122742D01*
X130117317Y-116122740D01*
X130117316Y-116122738D01*
X130035927Y-116041349D01*
X129981954Y-115960571D01*
X129963000Y-115865283D01*
X129963000Y-115711233D01*
X129981954Y-115615945D01*
X130035927Y-115535166D01*
X130100818Y-115470276D01*
X130199039Y-115313959D01*
X130260014Y-115139704D01*
X130266182Y-115084962D01*
X130275499Y-115002275D01*
X130275500Y-115002259D01*
X130275500Y-114397740D01*
X130275499Y-114397724D01*
X130260015Y-114260305D01*
X130260014Y-114260296D01*
X130199039Y-114086041D01*
X130100818Y-113929724D01*
X129970276Y-113799182D01*
X129813959Y-113700961D01*
X129639704Y-113639986D01*
X129639700Y-113639985D01*
X129639694Y-113639984D01*
X129502275Y-113624500D01*
X129502260Y-113624500D01*
X129332366Y-113624500D01*
X129237078Y-113605546D01*
X129156296Y-113551570D01*
X129102320Y-113470788D01*
X129083366Y-113375500D01*
X129084235Y-113354710D01*
X129085902Y-113334803D01*
X129097766Y-113287100D01*
X129100500Y-113246784D01*
X129100500Y-113160581D01*
X129101369Y-113150210D01*
X129111970Y-113113334D01*
X129119454Y-113075712D01*
X129125303Y-113066957D01*
X129128213Y-113056837D01*
X129152113Y-113026832D01*
X129173430Y-112994930D01*
X129182187Y-112989078D01*
X129188746Y-112980845D01*
X129222309Y-112962270D01*
X129254212Y-112940954D01*
X129264538Y-112938899D01*
X129273752Y-112933801D01*
X129311876Y-112929483D01*
X129349500Y-112922000D01*
X131800004Y-112922000D01*
X131800004Y-112921999D01*
X131847085Y-112915801D01*
X131858708Y-112914271D01*
X131887198Y-112916137D01*
X131915616Y-112913339D01*
X131935216Y-112919284D01*
G37*
G04 #@! TD.AperFunction*
G04 #@! TA.AperFunction,Conductor*
G36*
X118870000Y-115725500D02*
G01*
X118874500Y-115788434D01*
X118874501Y-115791090D01*
X118874555Y-115791695D01*
X118874556Y-115791696D01*
X118875178Y-115798544D01*
X118875561Y-115803264D01*
X118876163Y-115811679D01*
X118876639Y-115816104D01*
X118876616Y-115816106D01*
X118877316Y-115822079D01*
X118880569Y-115857885D01*
X118883125Y-115866087D01*
X118892833Y-115897242D01*
X118903771Y-115944790D01*
X118915226Y-115969105D01*
X118920352Y-115985555D01*
X118920354Y-115985560D01*
X118928469Y-116011603D01*
X118931202Y-116017676D01*
X118932830Y-116020655D01*
X118939586Y-116034420D01*
X118942062Y-116041573D01*
X118946106Y-116047704D01*
X118953074Y-116061901D01*
X118959163Y-116084798D01*
X118978862Y-116134861D01*
X118977130Y-116232001D01*
X118946911Y-116307891D01*
X118928468Y-116338400D01*
X118928467Y-116338401D01*
X118880570Y-116492112D01*
X118880569Y-116492119D01*
X118874500Y-116558895D01*
X118874500Y-116791094D01*
X118880569Y-116857887D01*
X118883141Y-116870816D01*
X118880563Y-116871328D01*
X118888653Y-116947522D01*
X118882384Y-116979045D01*
X118883140Y-116979196D01*
X118880569Y-116992119D01*
X118874500Y-117058895D01*
X118874500Y-117291094D01*
X118880569Y-117357887D01*
X118883141Y-117370816D01*
X118880563Y-117371328D01*
X118888653Y-117447522D01*
X118882384Y-117479045D01*
X118883140Y-117479196D01*
X118880569Y-117492119D01*
X118874500Y-117558895D01*
X118874500Y-117750000D01*
X117980000Y-117750000D01*
X117980000Y-117679000D01*
X117976926Y-117650411D01*
X117976221Y-117642741D01*
X117975499Y-117633281D01*
X117975499Y-117558910D01*
X117969430Y-117492113D01*
X117963197Y-117472113D01*
X117961048Y-117443950D01*
X117963550Y-117423228D01*
X117961347Y-117402475D01*
X117967616Y-117370962D01*
X117966859Y-117370812D01*
X117969427Y-117357895D01*
X117969430Y-117357887D01*
X117975500Y-117291091D01*
X117975499Y-117276005D01*
X117977628Y-117243505D01*
X117980000Y-117225500D01*
X117980000Y-117124499D01*
X117976864Y-117095330D01*
X117975499Y-117082349D01*
X117975499Y-117058910D01*
X117969430Y-116992113D01*
X117964268Y-116975547D01*
X117961691Y-116951041D01*
X117963922Y-116926739D01*
X117961347Y-116902478D01*
X117967616Y-116870962D01*
X117966859Y-116870812D01*
X117969427Y-116857895D01*
X117969430Y-116857887D01*
X117975500Y-116791091D01*
X117975499Y-116705182D01*
X117980000Y-116670999D01*
X117980000Y-116624499D01*
X117975499Y-116561564D01*
X117975499Y-116558910D01*
X117974823Y-116551468D01*
X117974437Y-116546711D01*
X117973836Y-116538318D01*
X117973361Y-116533895D01*
X117973384Y-116533892D01*
X117972682Y-116527911D01*
X117972630Y-116527343D01*
X117969430Y-116492113D01*
X117969428Y-116492107D01*
X117966860Y-116479192D01*
X117969435Y-116478679D01*
X117961348Y-116402464D01*
X117967615Y-116370957D01*
X117966860Y-116370807D01*
X117969428Y-116357892D01*
X117969430Y-116357887D01*
X117975500Y-116291091D01*
X117975499Y-116058910D01*
X117973424Y-116036074D01*
X117969430Y-115992112D01*
X117966859Y-115979185D01*
X117967602Y-115979037D01*
X117964965Y-115972558D01*
X117965177Y-115937663D01*
X117961491Y-115902966D01*
X117965471Y-115889472D01*
X117965557Y-115875405D01*
X117979106Y-115843250D01*
X117988979Y-115809781D01*
X117997820Y-115798837D01*
X118003283Y-115785874D01*
X118032291Y-115756171D01*
X118050036Y-115734208D01*
X118057948Y-115729900D01*
X118065035Y-115722643D01*
X118167049Y-115650000D01*
X118870000Y-115650000D01*
X118870000Y-115725500D01*
G37*
G04 #@! TD.AperFunction*
G04 #@! TA.AperFunction,Conductor*
G36*
X126132810Y-70519454D02*
G01*
X126213592Y-70573430D01*
X126267568Y-70654212D01*
X126286522Y-70749500D01*
X126267568Y-70844788D01*
X126213592Y-70925570D01*
X126183881Y-70950945D01*
X126007347Y-71079204D01*
X125829204Y-71257347D01*
X125681134Y-71461148D01*
X125681131Y-71461153D01*
X125681130Y-71461155D01*
X125613947Y-71593010D01*
X125566757Y-71685625D01*
X125488909Y-71925217D01*
X125449500Y-72174028D01*
X125449500Y-72425971D01*
X125488909Y-72674782D01*
X125507927Y-72733315D01*
X125566759Y-72914379D01*
X125681130Y-73138845D01*
X125829207Y-73342656D01*
X125830984Y-73344433D01*
X125831914Y-73345826D01*
X125835560Y-73350094D01*
X125835054Y-73350525D01*
X125884958Y-73425212D01*
X125903912Y-73520500D01*
X125884958Y-73615788D01*
X125830982Y-73696570D01*
X125750200Y-73750546D01*
X125654912Y-73769500D01*
X124301362Y-73769500D01*
X124286181Y-73770313D01*
X124236653Y-73772968D01*
X124236636Y-73772969D01*
X124236632Y-73772970D01*
X124228435Y-73773851D01*
X124210278Y-73775803D01*
X124210262Y-73775805D01*
X124132257Y-73789400D01*
X124132245Y-73789403D01*
X123984834Y-73846392D01*
X123984808Y-73846405D01*
X123923555Y-73879851D01*
X123910928Y-73886942D01*
X123785535Y-73983160D01*
X123785516Y-73983176D01*
X123458160Y-74310533D01*
X123414870Y-74358727D01*
X123414829Y-74358775D01*
X123398217Y-74379389D01*
X123398210Y-74379399D01*
X123352662Y-74444175D01*
X123288711Y-74588733D01*
X123269027Y-74655769D01*
X123265132Y-74669644D01*
X123244500Y-74826363D01*
X123244500Y-75598680D01*
X123239125Y-75625700D01*
X123238448Y-75653246D01*
X123229738Y-75672892D01*
X123225546Y-75693968D01*
X123210239Y-75716876D01*
X123199073Y-75742064D01*
X123183510Y-75756879D01*
X123171570Y-75774750D01*
X123148659Y-75790058D01*
X123128706Y-75809054D01*
X123108655Y-75816787D01*
X123090788Y-75828726D01*
X123063767Y-75834100D01*
X123038060Y-75844016D01*
X123016575Y-75843487D01*
X122995500Y-75847680D01*
X122968479Y-75842305D01*
X122940934Y-75841628D01*
X122921287Y-75832918D01*
X122900212Y-75828726D01*
X122877303Y-75813419D01*
X122852116Y-75802253D01*
X122837300Y-75786690D01*
X122819430Y-75774750D01*
X122804121Y-75751839D01*
X122785126Y-75731886D01*
X122778202Y-75713047D01*
X122765454Y-75693968D01*
X122750164Y-75641240D01*
X122749305Y-75636289D01*
X122749196Y-75635274D01*
X122735598Y-75557251D01*
X122735590Y-75557231D01*
X122734744Y-75552352D01*
X122734744Y-75552325D01*
X122733209Y-75542285D01*
X122730044Y-75518239D01*
X122730044Y-75518238D01*
X122669536Y-75372159D01*
X122573282Y-75246718D01*
X122573273Y-75246711D01*
X122569013Y-75242451D01*
X122547543Y-75217968D01*
X122541834Y-75210528D01*
X122364583Y-75033277D01*
X122364573Y-75033268D01*
X122364568Y-75033263D01*
X122315863Y-74989560D01*
X122315860Y-74989558D01*
X122305691Y-74981382D01*
X122294994Y-74972780D01*
X122288922Y-74968525D01*
X122229586Y-74926944D01*
X122229583Y-74926943D01*
X122084896Y-74863309D01*
X122017783Y-74843761D01*
X122003936Y-74839907D01*
X122003926Y-74839904D01*
X121925545Y-74829758D01*
X121847166Y-74819612D01*
X121847165Y-74819612D01*
X121847153Y-74819611D01*
X112565172Y-74839790D01*
X112529284Y-74840932D01*
X112514640Y-74841834D01*
X112464615Y-74847003D01*
X112312509Y-74889989D01*
X112312505Y-74889990D01*
X112312504Y-74889991D01*
X112248325Y-74917605D01*
X112238450Y-74921994D01*
X112235150Y-74923461D01*
X112101321Y-75007556D01*
X112101308Y-75007565D01*
X108157895Y-78274966D01*
X108157890Y-78274970D01*
X108090295Y-78340483D01*
X108090280Y-78340498D01*
X108064849Y-78369305D01*
X108000628Y-78456734D01*
X107937191Y-78601525D01*
X107917751Y-78668617D01*
X107913903Y-78682515D01*
X107893831Y-78839302D01*
X107893830Y-78839323D01*
X107911268Y-83721787D01*
X107892655Y-83817142D01*
X107838967Y-83898116D01*
X107818283Y-83916740D01*
X106216922Y-85204111D01*
X106146068Y-85271153D01*
X106119443Y-85300762D01*
X106052664Y-85390472D01*
X106052661Y-85390477D01*
X105988712Y-85535030D01*
X105969027Y-85602070D01*
X105965132Y-85615945D01*
X105944500Y-85772664D01*
X105944500Y-91003473D01*
X105948161Y-91069941D01*
X105948165Y-91069988D01*
X105951152Y-91097022D01*
X105951154Y-91097032D01*
X105965407Y-91176735D01*
X106022579Y-91322078D01*
X106023270Y-91323833D01*
X106045384Y-91363773D01*
X106057113Y-91384956D01*
X106061541Y-91392734D01*
X106064243Y-91397480D01*
X106161201Y-91522316D01*
X106866976Y-92219854D01*
X106887386Y-92238025D01*
X106945952Y-92315544D01*
X106970395Y-92409574D01*
X106958626Y-92500945D01*
X106904059Y-92668885D01*
X106874501Y-92855507D01*
X106874500Y-92855523D01*
X106874500Y-93044476D01*
X106874501Y-93044492D01*
X106904059Y-93231114D01*
X106904060Y-93231118D01*
X106962453Y-93410832D01*
X107020678Y-93525107D01*
X107047049Y-93618612D01*
X107035630Y-93715093D01*
X106988158Y-93799861D01*
X106985527Y-93802891D01*
X106776986Y-94039238D01*
X106747918Y-94074818D01*
X106736588Y-94089813D01*
X106736577Y-94089828D01*
X106702661Y-94139699D01*
X106702659Y-94139702D01*
X106638713Y-94284249D01*
X106619027Y-94351292D01*
X106615132Y-94365167D01*
X106594500Y-94521886D01*
X106594500Y-95368332D01*
X106605359Y-95482490D01*
X106605360Y-95482496D01*
X106614172Y-95528397D01*
X106614174Y-95528407D01*
X106651856Y-95651790D01*
X106732310Y-95787843D01*
X106732313Y-95787847D01*
X106761050Y-95824500D01*
X106775422Y-95842830D01*
X106784453Y-95854070D01*
X106805643Y-95873856D01*
X106862353Y-95952742D01*
X106884558Y-96047326D01*
X106868877Y-96143207D01*
X106817698Y-96225789D01*
X106811788Y-96231905D01*
X106808164Y-96235528D01*
X106808163Y-96235530D01*
X106764870Y-96283727D01*
X106764829Y-96283775D01*
X106748217Y-96304389D01*
X106748210Y-96304399D01*
X106702662Y-96369175D01*
X106638711Y-96513733D01*
X106619027Y-96580769D01*
X106615132Y-96594644D01*
X106601995Y-96694430D01*
X106596679Y-96734815D01*
X106594500Y-96751363D01*
X106594500Y-98110738D01*
X106594884Y-98132311D01*
X106595201Y-98141162D01*
X106595202Y-98141178D01*
X106597558Y-98177120D01*
X106597558Y-98177123D01*
X106597559Y-98177127D01*
X106632991Y-98331158D01*
X106632994Y-98331168D01*
X106657413Y-98396637D01*
X106668116Y-98423371D01*
X106668118Y-98423375D01*
X106748773Y-98559315D01*
X106748774Y-98559316D01*
X106806179Y-98615373D01*
X106861112Y-98695507D01*
X106880754Y-98778371D01*
X106882411Y-98805563D01*
X106874500Y-98855519D01*
X106874500Y-99044481D01*
X106904060Y-99231118D01*
X106909347Y-99247392D01*
X106911145Y-99276869D01*
X106907473Y-99303809D01*
X106908540Y-99330975D01*
X106900975Y-99351479D01*
X106898024Y-99373134D01*
X106884323Y-99396615D01*
X106874913Y-99422125D01*
X106860077Y-99438173D01*
X106849064Y-99457050D01*
X106827418Y-99473502D01*
X106808963Y-99493467D01*
X106781102Y-99508707D01*
X106771716Y-99515842D01*
X106766833Y-99517126D01*
X106767223Y-99517965D01*
X106759822Y-99521398D01*
X106759818Y-99521400D01*
X106759813Y-99521402D01*
X106759808Y-99521405D01*
X106698555Y-99554851D01*
X106685928Y-99561942D01*
X106560535Y-99658160D01*
X106560524Y-99658169D01*
X105258151Y-100960543D01*
X105214870Y-101008727D01*
X105214829Y-101008775D01*
X105198217Y-101029389D01*
X105198210Y-101029399D01*
X105152662Y-101094175D01*
X105088711Y-101238733D01*
X105069027Y-101305769D01*
X105065132Y-101319644D01*
X105056031Y-101388776D01*
X105044500Y-101476362D01*
X105044500Y-108521220D01*
X105048440Y-108590182D01*
X105048441Y-108590190D01*
X105051655Y-108618238D01*
X105051657Y-108618246D01*
X105066852Y-108700302D01*
X105066853Y-108700304D01*
X105125919Y-108846917D01*
X105125922Y-108846923D01*
X105160267Y-108907768D01*
X105164242Y-108914619D01*
X105167499Y-108920233D01*
X105265476Y-109044261D01*
X105265481Y-109044267D01*
X108491443Y-112180619D01*
X108569073Y-112256092D01*
X108624181Y-112336106D01*
X108644475Y-112431117D01*
X108644500Y-112434624D01*
X108644500Y-113891644D01*
X108625546Y-113986932D01*
X108571570Y-114067714D01*
X108490788Y-114121690D01*
X108395500Y-114140644D01*
X108300212Y-114121690D01*
X108219430Y-114067714D01*
X108165454Y-113986932D01*
X108157222Y-113963925D01*
X108082657Y-113718119D01*
X108082656Y-113718118D01*
X108082653Y-113718106D01*
X107968333Y-113442114D01*
X107939755Y-113373119D01*
X107939749Y-113373108D01*
X107798711Y-113109244D01*
X107763729Y-113043796D01*
X107556271Y-112733315D01*
X107522307Y-112691930D01*
X107420143Y-112567442D01*
X107319381Y-112444662D01*
X107055338Y-112180619D01*
X106945763Y-112090694D01*
X106766688Y-111943731D01*
X106456201Y-111736269D01*
X106126891Y-111560250D01*
X106126880Y-111560244D01*
X105781901Y-111417350D01*
X105781894Y-111417347D01*
X105781889Y-111417345D01*
X105781880Y-111417342D01*
X105424562Y-111308950D01*
X105058324Y-111236101D01*
X104686707Y-111199500D01*
X104313293Y-111199500D01*
X104313292Y-111199500D01*
X103941675Y-111236101D01*
X103575437Y-111308950D01*
X103218119Y-111417342D01*
X103218098Y-111417350D01*
X102873119Y-111560244D01*
X102873108Y-111560250D01*
X102543798Y-111736269D01*
X102233311Y-111943731D01*
X101944665Y-112180616D01*
X101680616Y-112444665D01*
X101443731Y-112733311D01*
X101236269Y-113043798D01*
X101060250Y-113373108D01*
X101060244Y-113373119D01*
X100979546Y-113567944D01*
X100925570Y-113648726D01*
X100844788Y-113702702D01*
X100749500Y-113721656D01*
X100654212Y-113702702D01*
X100573430Y-113648726D01*
X100519454Y-113567944D01*
X100500500Y-113472656D01*
X100500500Y-76527343D01*
X100519454Y-76432055D01*
X100573430Y-76351273D01*
X100654212Y-76297297D01*
X100749500Y-76278343D01*
X100844788Y-76297297D01*
X100925570Y-76351273D01*
X100979545Y-76432053D01*
X101060246Y-76626883D01*
X101236271Y-76956204D01*
X101443729Y-77266685D01*
X101680619Y-77555338D01*
X101944662Y-77819381D01*
X102044116Y-77901000D01*
X102198454Y-78027662D01*
X102233315Y-78056271D01*
X102543796Y-78263729D01*
X102873117Y-78439754D01*
X103218106Y-78582653D01*
X103218118Y-78582656D01*
X103218119Y-78582657D01*
X103575437Y-78691049D01*
X103793987Y-78734521D01*
X103941678Y-78763899D01*
X104313293Y-78800500D01*
X104313296Y-78800500D01*
X104686704Y-78800500D01*
X104686707Y-78800500D01*
X105058322Y-78763899D01*
X105278862Y-78720030D01*
X105424562Y-78691049D01*
X105719701Y-78601519D01*
X105781894Y-78582653D01*
X106126883Y-78439754D01*
X106456204Y-78263729D01*
X106766685Y-78056271D01*
X107055338Y-77819381D01*
X107319381Y-77555338D01*
X107556271Y-77266685D01*
X107763729Y-76956204D01*
X107939754Y-76626883D01*
X108082653Y-76281894D01*
X108114004Y-76178541D01*
X108191049Y-75924562D01*
X108227350Y-75742064D01*
X108263899Y-75558322D01*
X108300500Y-75186707D01*
X108300500Y-74813293D01*
X108263899Y-74441678D01*
X108218600Y-74213945D01*
X108191049Y-74075437D01*
X108082657Y-73718119D01*
X108082656Y-73718118D01*
X108082653Y-73718106D01*
X107939754Y-73373117D01*
X107763729Y-73043796D01*
X107556271Y-72733315D01*
X107508234Y-72674782D01*
X107466346Y-72623740D01*
X107319381Y-72444662D01*
X107055338Y-72180619D01*
X106945763Y-72090694D01*
X106766688Y-71943731D01*
X106456201Y-71736269D01*
X106126891Y-71560250D01*
X106126880Y-71560244D01*
X105781901Y-71417350D01*
X105781894Y-71417347D01*
X105781889Y-71417345D01*
X105781880Y-71417342D01*
X105424562Y-71308950D01*
X105058324Y-71236101D01*
X104686707Y-71199500D01*
X104313293Y-71199500D01*
X104313292Y-71199500D01*
X103941675Y-71236101D01*
X103575437Y-71308950D01*
X103218119Y-71417342D01*
X103218098Y-71417350D01*
X102873119Y-71560244D01*
X102873108Y-71560250D01*
X102543798Y-71736269D01*
X102233311Y-71943731D01*
X101944665Y-72180616D01*
X101680616Y-72444665D01*
X101443731Y-72733311D01*
X101236269Y-73043798D01*
X101060250Y-73373108D01*
X101060244Y-73373119D01*
X100979546Y-73567944D01*
X100925570Y-73648726D01*
X100844788Y-73702702D01*
X100749500Y-73721656D01*
X100654212Y-73702702D01*
X100573430Y-73648726D01*
X100519454Y-73567944D01*
X100500500Y-73472656D01*
X100500500Y-73007528D01*
X100500954Y-72992495D01*
X100516631Y-72733315D01*
X100517815Y-72713736D01*
X100521437Y-72683913D01*
X100570418Y-72416632D01*
X100577609Y-72387457D01*
X100658448Y-72128037D01*
X100669101Y-72099945D01*
X100780626Y-71852147D01*
X100794589Y-71825543D01*
X100935161Y-71593010D01*
X100952241Y-71568265D01*
X101119813Y-71354374D01*
X101139737Y-71331884D01*
X101331884Y-71139737D01*
X101354374Y-71119813D01*
X101568268Y-70952238D01*
X101593010Y-70935161D01*
X101630926Y-70912240D01*
X101825543Y-70794589D01*
X101852147Y-70780626D01*
X102099945Y-70669101D01*
X102128037Y-70658448D01*
X102387457Y-70577609D01*
X102416632Y-70570418D01*
X102683913Y-70521437D01*
X102713736Y-70517815D01*
X102980895Y-70501655D01*
X102992495Y-70500954D01*
X103007528Y-70500500D01*
X103065892Y-70500500D01*
X126037522Y-70500500D01*
X126132810Y-70519454D01*
G37*
G04 #@! TD.AperFunction*
G04 #@! TA.AperFunction,Conductor*
G36*
X137007505Y-70500954D02*
G01*
X137020011Y-70501710D01*
X137286261Y-70517815D01*
X137316088Y-70521437D01*
X137583363Y-70570417D01*
X137612546Y-70577610D01*
X137871956Y-70658446D01*
X137900059Y-70669103D01*
X138147845Y-70780623D01*
X138174464Y-70794594D01*
X138406989Y-70935161D01*
X138431734Y-70952241D01*
X138645616Y-71119806D01*
X138668123Y-71139745D01*
X138860254Y-71331876D01*
X138880193Y-71354383D01*
X139047758Y-71568265D01*
X139064838Y-71593010D01*
X139205405Y-71825535D01*
X139219379Y-71852160D01*
X139330893Y-72099934D01*
X139341555Y-72128049D01*
X139422387Y-72387448D01*
X139429583Y-72416642D01*
X139478560Y-72683899D01*
X139482185Y-72713749D01*
X139499046Y-72992494D01*
X139499500Y-73007528D01*
X139499500Y-113472656D01*
X139480546Y-113567944D01*
X139426570Y-113648726D01*
X139345788Y-113702702D01*
X139250500Y-113721656D01*
X139155212Y-113702702D01*
X139074430Y-113648726D01*
X139020454Y-113567944D01*
X138939755Y-113373119D01*
X138939749Y-113373108D01*
X138798711Y-113109244D01*
X138763729Y-113043796D01*
X138556271Y-112733315D01*
X138522307Y-112691930D01*
X138420143Y-112567442D01*
X138319381Y-112444662D01*
X138055338Y-112180619D01*
X137945763Y-112090694D01*
X137766688Y-111943731D01*
X137456201Y-111736269D01*
X137126891Y-111560250D01*
X137126880Y-111560244D01*
X136781901Y-111417350D01*
X136781894Y-111417347D01*
X136781889Y-111417345D01*
X136781880Y-111417342D01*
X136424562Y-111308950D01*
X136058324Y-111236101D01*
X135686707Y-111199500D01*
X135313293Y-111199500D01*
X135313292Y-111199500D01*
X134941675Y-111236101D01*
X134575437Y-111308950D01*
X134218119Y-111417342D01*
X134218098Y-111417350D01*
X133873119Y-111560244D01*
X133873108Y-111560250D01*
X133543798Y-111736269D01*
X133233311Y-111943731D01*
X132944665Y-112180616D01*
X132944662Y-112180618D01*
X132944662Y-112180619D01*
X132830566Y-112294714D01*
X132749788Y-112348688D01*
X132654500Y-112367642D01*
X132559212Y-112348688D01*
X132478430Y-112294712D01*
X132424454Y-112213930D01*
X132405500Y-112118642D01*
X132405500Y-110583500D01*
X132384868Y-110426787D01*
X132384868Y-110426785D01*
X132324378Y-110280750D01*
X132318697Y-110273346D01*
X132293530Y-110233121D01*
X131925889Y-109497838D01*
X131925849Y-109497758D01*
X131924165Y-109494416D01*
X131834818Y-109364023D01*
X131834816Y-109364020D01*
X131795869Y-109320643D01*
X131790948Y-109315162D01*
X131778627Y-109301846D01*
X131655550Y-109202662D01*
X131510996Y-109138712D01*
X131443956Y-109119027D01*
X131430081Y-109115132D01*
X131325602Y-109101377D01*
X131273364Y-109094500D01*
X129319544Y-109094500D01*
X129319541Y-109094500D01*
X129184148Y-109109832D01*
X129130092Y-109122234D01*
X129130087Y-109122236D01*
X128988657Y-109173891D01*
X128988653Y-109173893D01*
X128858712Y-109263891D01*
X128806939Y-109310846D01*
X128796402Y-109320634D01*
X128796394Y-109320643D01*
X128697085Y-109443588D01*
X128697077Y-109443598D01*
X128418470Y-109899500D01*
X128315222Y-110068451D01*
X128299750Y-110093768D01*
X128281283Y-110120019D01*
X128262558Y-110143290D01*
X128246847Y-110155347D01*
X128150622Y-110280750D01*
X128149204Y-110284173D01*
X128135188Y-110301593D01*
X128112375Y-110320687D01*
X128092759Y-110343053D01*
X128075469Y-110351578D01*
X128060686Y-110363952D01*
X128032302Y-110372862D01*
X128005621Y-110386019D01*
X127979406Y-110389469D01*
X127967992Y-110393053D01*
X127958547Y-110392215D01*
X127941188Y-110394500D01*
X127728271Y-110394500D01*
X127632983Y-110375546D01*
X127552204Y-110321572D01*
X127414655Y-110184023D01*
X127414651Y-110184020D01*
X127414649Y-110184018D01*
X127242603Y-110069062D01*
X127242593Y-110069056D01*
X127051421Y-109989870D01*
X126983768Y-109976413D01*
X126848465Y-109949500D01*
X126848463Y-109949500D01*
X126748219Y-109949500D01*
X126688128Y-109942140D01*
X126627297Y-109927012D01*
X126527993Y-109902316D01*
X126527982Y-109902315D01*
X126486482Y-109899501D01*
X126486457Y-109899500D01*
X126486454Y-109899500D01*
X125388546Y-109899500D01*
X125388542Y-109899500D01*
X125388517Y-109899501D01*
X125347017Y-109902315D01*
X125347006Y-109902316D01*
X125347005Y-109902317D01*
X125311099Y-109911246D01*
X125167475Y-109946963D01*
X125167474Y-109946964D01*
X125001751Y-110029155D01*
X125001750Y-110029155D01*
X124952865Y-110068451D01*
X124921370Y-110093768D01*
X124905502Y-110106523D01*
X124819358Y-110151449D01*
X124722579Y-110159989D01*
X124629899Y-110130844D01*
X124555426Y-110068451D01*
X124510500Y-109982307D01*
X124500500Y-109912449D01*
X124500500Y-108778651D01*
X124519454Y-108683363D01*
X124573428Y-108602583D01*
X125646727Y-107529283D01*
X125727506Y-107475310D01*
X125745727Y-107468790D01*
X125748075Y-107467817D01*
X125748082Y-107467816D01*
X125902863Y-107403703D01*
X126042162Y-107310626D01*
X126160626Y-107192162D01*
X126253703Y-107052863D01*
X126317816Y-106898082D01*
X126317816Y-106898077D01*
X126322497Y-106886779D01*
X126323391Y-106887149D01*
X126325310Y-106877506D01*
X126345633Y-106847089D01*
X126362873Y-106814835D01*
X126379276Y-106796734D01*
X126411142Y-106764868D01*
X126491921Y-106710895D01*
X126587209Y-106691941D01*
X126626158Y-106695006D01*
X126660843Y-106700500D01*
X126660847Y-106700500D01*
X127139153Y-106700500D01*
X127139157Y-106700500D01*
X127173837Y-106695007D01*
X127270913Y-106698820D01*
X127359144Y-106739493D01*
X127388859Y-106764871D01*
X128287520Y-107663532D01*
X128345477Y-107702257D01*
X128382950Y-107727296D01*
X128382949Y-107727296D01*
X128400574Y-107739071D01*
X128406347Y-107742929D01*
X128406349Y-107742929D01*
X128406351Y-107742931D01*
X128424620Y-107750498D01*
X128538380Y-107797619D01*
X128538382Y-107797619D01*
X128538383Y-107797620D01*
X128678539Y-107825499D01*
X128678544Y-107825500D01*
X128678545Y-107825500D01*
X129682823Y-107825500D01*
X129778111Y-107844454D01*
X129813539Y-107862570D01*
X129930666Y-107934814D01*
X129930669Y-107934815D01*
X129930667Y-107934815D01*
X130094310Y-107989040D01*
X130097203Y-107989999D01*
X130199991Y-108000500D01*
X130700008Y-108000499D01*
X130802797Y-107989999D01*
X130969334Y-107934814D01*
X130999133Y-107916433D01*
X131090181Y-107882542D01*
X131187272Y-107886072D01*
X131262326Y-107917526D01*
X131275476Y-107925788D01*
X131275477Y-107925789D01*
X131367124Y-107957857D01*
X131445745Y-107985368D01*
X131445754Y-107985369D01*
X131580031Y-108000499D01*
X131580046Y-108000500D01*
X132219954Y-108000500D01*
X132219968Y-108000499D01*
X132330079Y-107988091D01*
X132354255Y-107985368D01*
X132524522Y-107925789D01*
X132524528Y-107925784D01*
X132537127Y-107919719D01*
X132538341Y-107922241D01*
X132608284Y-107895540D01*
X132705401Y-107898262D01*
X132761929Y-107921677D01*
X132762873Y-107919719D01*
X132775474Y-107925786D01*
X132775478Y-107925789D01*
X132945745Y-107985368D01*
X132945754Y-107985369D01*
X133080031Y-108000499D01*
X133080046Y-108000500D01*
X133719954Y-108000500D01*
X133719968Y-108000499D01*
X133830079Y-107988091D01*
X133854255Y-107985368D01*
X134024522Y-107925789D01*
X134024527Y-107925785D01*
X134024529Y-107925785D01*
X134177257Y-107829819D01*
X134177256Y-107829819D01*
X134177262Y-107829816D01*
X134304816Y-107702262D01*
X134369542Y-107599251D01*
X134400785Y-107549529D01*
X134400785Y-107549527D01*
X134400789Y-107549522D01*
X134438322Y-107442257D01*
X134487683Y-107358579D01*
X134565311Y-107300159D01*
X134659387Y-107275892D01*
X134673348Y-107275500D01*
X136099598Y-107275500D01*
X136194886Y-107294454D01*
X136275664Y-107348427D01*
X136392927Y-107465690D01*
X136545801Y-107576760D01*
X136714168Y-107662547D01*
X136893882Y-107720940D01*
X137080519Y-107750500D01*
X137080523Y-107750500D01*
X137819477Y-107750500D01*
X137819481Y-107750500D01*
X138006118Y-107720940D01*
X138185832Y-107662547D01*
X138354199Y-107576760D01*
X138507073Y-107465690D01*
X138640690Y-107332073D01*
X138751760Y-107179199D01*
X138837547Y-107010832D01*
X138895940Y-106831118D01*
X138925500Y-106644481D01*
X138925500Y-106455519D01*
X138895940Y-106268882D01*
X138837547Y-106089168D01*
X138751760Y-105920801D01*
X138640690Y-105767927D01*
X138598829Y-105726066D01*
X138544856Y-105645288D01*
X138525902Y-105550000D01*
X138544856Y-105454712D01*
X138598829Y-105373933D01*
X138640690Y-105332073D01*
X138751760Y-105179199D01*
X138837547Y-105010832D01*
X138895940Y-104831118D01*
X138925500Y-104644481D01*
X138925500Y-104455519D01*
X138895940Y-104268882D01*
X138837547Y-104089168D01*
X138751760Y-103920801D01*
X138640690Y-103767927D01*
X138598829Y-103726066D01*
X138544856Y-103645288D01*
X138525902Y-103550000D01*
X138544856Y-103454712D01*
X138598829Y-103373933D01*
X138640690Y-103332073D01*
X138751760Y-103179199D01*
X138837547Y-103010832D01*
X138895940Y-102831118D01*
X138925500Y-102644481D01*
X138925500Y-102455519D01*
X138895940Y-102268882D01*
X138837547Y-102089168D01*
X138751760Y-101920801D01*
X138640690Y-101767927D01*
X138598829Y-101726066D01*
X138544856Y-101645288D01*
X138525902Y-101550000D01*
X138544856Y-101454712D01*
X138598829Y-101373933D01*
X138640690Y-101332073D01*
X138751760Y-101179199D01*
X138837547Y-101010832D01*
X138895940Y-100831118D01*
X138925500Y-100644481D01*
X138925500Y-100455519D01*
X138895940Y-100268882D01*
X138837547Y-100089168D01*
X138751760Y-99920801D01*
X138640690Y-99767927D01*
X138598829Y-99726066D01*
X138544856Y-99645288D01*
X138525902Y-99550000D01*
X138544856Y-99454712D01*
X138598829Y-99373933D01*
X138640690Y-99332073D01*
X138751760Y-99179199D01*
X138837547Y-99010832D01*
X138895940Y-98831118D01*
X138925500Y-98644481D01*
X138925500Y-98455519D01*
X138895940Y-98268882D01*
X138837547Y-98089168D01*
X138751760Y-97920801D01*
X138670849Y-97809437D01*
X138630175Y-97721206D01*
X138626361Y-97624126D01*
X138659988Y-97532976D01*
X138678222Y-97507077D01*
X138680052Y-97504801D01*
X138795842Y-97360753D01*
X138878037Y-97195021D01*
X138922683Y-97015495D01*
X138925500Y-96973954D01*
X138925500Y-96126046D01*
X138922683Y-96084505D01*
X138878037Y-95904979D01*
X138878036Y-95904978D01*
X138878036Y-95904975D01*
X138878035Y-95904974D01*
X138795844Y-95739251D01*
X138795843Y-95739250D01*
X138795842Y-95739247D01*
X138679940Y-95595060D01*
X138535753Y-95479158D01*
X138535751Y-95479157D01*
X138535748Y-95479155D01*
X138370025Y-95396964D01*
X138370024Y-95396963D01*
X138254885Y-95368330D01*
X138190495Y-95352317D01*
X138190491Y-95352316D01*
X138190482Y-95352315D01*
X138148982Y-95349501D01*
X138148957Y-95349500D01*
X138148954Y-95349500D01*
X136751046Y-95349500D01*
X136751042Y-95349500D01*
X136751017Y-95349501D01*
X136709517Y-95352315D01*
X136709506Y-95352316D01*
X136709505Y-95352317D01*
X136683054Y-95358895D01*
X136529975Y-95396963D01*
X136529974Y-95396964D01*
X136364251Y-95479155D01*
X136364245Y-95479159D01*
X136220064Y-95595056D01*
X136220060Y-95595060D01*
X136133717Y-95702475D01*
X136110383Y-95731503D01*
X136035910Y-95793896D01*
X135943230Y-95823041D01*
X135916310Y-95824500D01*
X134705445Y-95824500D01*
X134610157Y-95805546D01*
X134529375Y-95751570D01*
X134475399Y-95670788D01*
X134462690Y-95630915D01*
X134460370Y-95620753D01*
X134460368Y-95620748D01*
X134460368Y-95620745D01*
X134400789Y-95450478D01*
X134400786Y-95450473D01*
X134400785Y-95450470D01*
X134304819Y-95297742D01*
X134304817Y-95297740D01*
X134304816Y-95297738D01*
X134177262Y-95170184D01*
X134177259Y-95170182D01*
X134177257Y-95170180D01*
X134024529Y-95074214D01*
X134024524Y-95074212D01*
X134024522Y-95074211D01*
X133854255Y-95014632D01*
X133854251Y-95014631D01*
X133854245Y-95014630D01*
X133719968Y-94999500D01*
X133719954Y-94999500D01*
X133080046Y-94999500D01*
X133080031Y-94999500D01*
X132945754Y-95014630D01*
X132945746Y-95014631D01*
X132945745Y-95014632D01*
X132775478Y-95074211D01*
X132775476Y-95074211D01*
X132775476Y-95074212D01*
X132762874Y-95080281D01*
X132761660Y-95077761D01*
X132691693Y-95104464D01*
X132594577Y-95101733D01*
X132538067Y-95078325D01*
X132537126Y-95080281D01*
X132524525Y-95074213D01*
X132524522Y-95074211D01*
X132354255Y-95014632D01*
X132354251Y-95014631D01*
X132354245Y-95014630D01*
X132219968Y-94999500D01*
X132219954Y-94999500D01*
X131580046Y-94999500D01*
X131580031Y-94999500D01*
X131445754Y-95014630D01*
X131445743Y-95014632D01*
X131275478Y-95074210D01*
X131262323Y-95082476D01*
X131171555Y-95117121D01*
X131074438Y-95114394D01*
X130999134Y-95083566D01*
X130969337Y-95065187D01*
X130969332Y-95065184D01*
X130802802Y-95010002D01*
X130802798Y-95010001D01*
X130802797Y-95010001D01*
X130700009Y-94999500D01*
X130700005Y-94999500D01*
X130199993Y-94999500D01*
X130097199Y-95010001D01*
X129930667Y-95065185D01*
X129813541Y-95137429D01*
X129722489Y-95171320D01*
X129682823Y-95174500D01*
X128778539Y-95174500D01*
X128638383Y-95202379D01*
X128638382Y-95202380D01*
X128506348Y-95257069D01*
X128387520Y-95336467D01*
X128387519Y-95336468D01*
X127497418Y-96226570D01*
X127416636Y-96280546D01*
X127321348Y-96299500D01*
X126578652Y-96299500D01*
X126483364Y-96280546D01*
X126402582Y-96226570D01*
X124923430Y-94747418D01*
X124869454Y-94666636D01*
X124850500Y-94571348D01*
X124850500Y-87753544D01*
X124850499Y-87753539D01*
X124822620Y-87613383D01*
X124822619Y-87613382D01*
X124822619Y-87613380D01*
X124783948Y-87520021D01*
X124767931Y-87481351D01*
X124767928Y-87481346D01*
X124726133Y-87418795D01*
X124688532Y-87362520D01*
X121991471Y-84665459D01*
X121966967Y-84628785D01*
X121941136Y-84593033D01*
X121940066Y-84588525D01*
X121937495Y-84584677D01*
X121928891Y-84541422D01*
X121918708Y-84498502D01*
X121919489Y-84494158D01*
X121918541Y-84489389D01*
X121934162Y-84402584D01*
X121935740Y-84398338D01*
X121997980Y-84248082D01*
X122005280Y-84211378D01*
X122012230Y-84192695D01*
X122027462Y-84167985D01*
X122038574Y-84141161D01*
X122052718Y-84127016D01*
X122063214Y-84109992D01*
X122086746Y-84092990D01*
X122107274Y-84072463D01*
X122125750Y-84064810D01*
X122141965Y-84053095D01*
X122170215Y-84046392D01*
X122197034Y-84035284D01*
X122231231Y-84031915D01*
X122236496Y-84030667D01*
X122239309Y-84031120D01*
X122245609Y-84030500D01*
X122348633Y-84030500D01*
X122348638Y-84030500D01*
X122413368Y-84027030D01*
X122439726Y-84024196D01*
X122517749Y-84010598D01*
X122555511Y-83995999D01*
X122665165Y-83953607D01*
X122665168Y-83953605D01*
X122665182Y-83953600D01*
X122726505Y-83920115D01*
X122739069Y-83913059D01*
X122864472Y-83816834D01*
X122991834Y-83689472D01*
X123035153Y-83641246D01*
X123051787Y-83620604D01*
X123065640Y-83600898D01*
X123065767Y-83600993D01*
X123069522Y-83595978D01*
X123072959Y-83590486D01*
X123097401Y-83555720D01*
X123097407Y-83555705D01*
X123099960Y-83551190D01*
X123113304Y-83526041D01*
X123123024Y-83510516D01*
X123147532Y-83442337D01*
X123161321Y-83411153D01*
X123162083Y-83408556D01*
X123159906Y-83407917D01*
X123165574Y-83392148D01*
X123172224Y-83373649D01*
X123172325Y-83373679D01*
X123172819Y-83371996D01*
X123176496Y-83361768D01*
X123176530Y-83361609D01*
X123180563Y-83345634D01*
X123180699Y-83345159D01*
X123180970Y-83344239D01*
X123181169Y-83343527D01*
X123181381Y-83342794D01*
X123181392Y-83342772D01*
X123181728Y-83341601D01*
X123184736Y-83331349D01*
X123184866Y-83330358D01*
X123184868Y-83330353D01*
X123205500Y-83173638D01*
X123205500Y-82326362D01*
X123202030Y-82261632D01*
X123199196Y-82235274D01*
X123185598Y-82157251D01*
X123185596Y-82157245D01*
X123128607Y-82009834D01*
X123128602Y-82009824D01*
X123128600Y-82009818D01*
X123123080Y-81999709D01*
X123119689Y-81988880D01*
X123113225Y-81979552D01*
X123105273Y-81942843D01*
X123094049Y-81906996D01*
X123095060Y-81895691D01*
X123092658Y-81884599D01*
X123098360Y-81858812D01*
X123102708Y-81810228D01*
X123109993Y-81789003D01*
X123118175Y-81768259D01*
X123123024Y-81760516D01*
X123141431Y-81709308D01*
X123142813Y-81705806D01*
X123152747Y-81690378D01*
X123170726Y-81629125D01*
X123175330Y-81615010D01*
X123176496Y-81611768D01*
X123176530Y-81611609D01*
X123180563Y-81595634D01*
X123180699Y-81595159D01*
X123180970Y-81594239D01*
X123181169Y-81593527D01*
X123181381Y-81592794D01*
X123181392Y-81592772D01*
X123181728Y-81591601D01*
X123184736Y-81581349D01*
X123184866Y-81580358D01*
X123184868Y-81580353D01*
X123205500Y-81423638D01*
X123205500Y-80150866D01*
X123224454Y-80055578D01*
X123278430Y-79974796D01*
X123359212Y-79920820D01*
X123454500Y-79901866D01*
X123549788Y-79920820D01*
X123624982Y-79969381D01*
X126465985Y-82638202D01*
X126522457Y-82717257D01*
X126544379Y-82811907D01*
X126544500Y-82819684D01*
X126544500Y-86801767D01*
X126546705Y-86853388D01*
X126548506Y-86874451D01*
X126548507Y-86874459D01*
X126557725Y-86939890D01*
X126557728Y-86939902D01*
X126608264Y-87089661D01*
X126608266Y-87089665D01*
X126639056Y-87152385D01*
X126645559Y-87165243D01*
X126736246Y-87294707D01*
X126736249Y-87294711D01*
X126736251Y-87294713D01*
X127216789Y-87818936D01*
X127216794Y-87818941D01*
X127273066Y-87872901D01*
X127286750Y-87884427D01*
X127297430Y-87893423D01*
X127372357Y-87947335D01*
X127372361Y-87947337D01*
X127372362Y-87947338D01*
X127516915Y-88011287D01*
X127583954Y-88030972D01*
X127597833Y-88034868D01*
X127754548Y-88055500D01*
X127754549Y-88055500D01*
X129881844Y-88055500D01*
X129881858Y-88055500D01*
X129911632Y-88054768D01*
X129923819Y-88054168D01*
X129967878Y-88050382D01*
X130120908Y-88010794D01*
X130185688Y-87984616D01*
X130198983Y-87979059D01*
X130334661Y-87897961D01*
X130853803Y-87486973D01*
X130926674Y-87418795D01*
X130954022Y-87388612D01*
X131022338Y-87297198D01*
X131023438Y-87294713D01*
X131086286Y-87152647D01*
X131104781Y-87089661D01*
X131105972Y-87085606D01*
X131109868Y-87071727D01*
X131130500Y-86915012D01*
X131130500Y-80381538D01*
X131124389Y-80295726D01*
X131119408Y-80260934D01*
X131096988Y-80163069D01*
X131094901Y-80158626D01*
X131029789Y-80019997D01*
X131023727Y-80010539D01*
X130992085Y-79961174D01*
X130984167Y-79949139D01*
X130984158Y-79949128D01*
X130879384Y-79830795D01*
X130879383Y-79830794D01*
X127791213Y-77148369D01*
X127731704Y-77071573D01*
X127706113Y-76977849D01*
X127705500Y-76960384D01*
X127705500Y-74751366D01*
X127702031Y-74686653D01*
X127702030Y-74686632D01*
X127699196Y-74660274D01*
X127685598Y-74582251D01*
X127685596Y-74582245D01*
X127628607Y-74434834D01*
X127628603Y-74434826D01*
X127628600Y-74434818D01*
X127598337Y-74379396D01*
X127595148Y-74373555D01*
X127595139Y-74373539D01*
X127595115Y-74373495D01*
X127588059Y-74360931D01*
X127586368Y-74358727D01*
X127542135Y-74301081D01*
X127499164Y-74213945D01*
X127492810Y-74116998D01*
X127524040Y-74025000D01*
X127588099Y-73951955D01*
X127675235Y-73908984D01*
X127739680Y-73900500D01*
X129375959Y-73900500D01*
X129375962Y-73900500D01*
X129375965Y-73900499D01*
X129375971Y-73900499D01*
X129506119Y-73879885D01*
X129624785Y-73861090D01*
X129864379Y-73783241D01*
X130088845Y-73668870D01*
X130292656Y-73520793D01*
X130470793Y-73342656D01*
X130618870Y-73138845D01*
X130733241Y-72914379D01*
X130811090Y-72674785D01*
X130831881Y-72543513D01*
X130850499Y-72425971D01*
X130850500Y-72425959D01*
X130850500Y-72174040D01*
X130850499Y-72174028D01*
X130824951Y-72012729D01*
X130811090Y-71925215D01*
X130733241Y-71685621D01*
X130618870Y-71461155D01*
X130470793Y-71257344D01*
X130292656Y-71079207D01*
X130292652Y-71079204D01*
X130116119Y-70950945D01*
X130050170Y-70879602D01*
X130016544Y-70788452D01*
X130020358Y-70691372D01*
X130061033Y-70603141D01*
X130132376Y-70537192D01*
X130223526Y-70503566D01*
X130262478Y-70500500D01*
X136934108Y-70500500D01*
X136992472Y-70500500D01*
X137007505Y-70500954D01*
G37*
G04 #@! TD.AperFunction*
G04 #@! TA.AperFunction,Conductor*
G36*
X120426986Y-112864462D02*
G01*
X120409688Y-112912576D01*
X120406097Y-112921964D01*
X120394172Y-112951346D01*
X120388757Y-112963580D01*
X120387994Y-112966176D01*
X120388137Y-112966218D01*
X120387569Y-112967618D01*
X120379214Y-112996046D01*
X120374643Y-113010052D01*
X120373509Y-113013205D01*
X120373491Y-113013268D01*
X120369108Y-113030432D01*
X120365296Y-113043399D01*
X120357844Y-113100000D01*
X119658075Y-113100000D01*
X119661287Y-113092739D01*
X119680972Y-113025700D01*
X119684868Y-113011821D01*
X119705500Y-112855106D01*
X119705500Y-112850000D01*
X120436037Y-112850000D01*
X120426986Y-112864462D01*
G37*
G04 #@! TD.AperFunction*
G04 #@! TA.AperFunction,Conductor*
G36*
X118832500Y-104913013D02*
G01*
X118836439Y-104968098D01*
X118837000Y-104975934D01*
X118837001Y-104978590D01*
X118837888Y-104988358D01*
X118838056Y-104990704D01*
X118838061Y-104990764D01*
X118838663Y-104999179D01*
X118839139Y-105003604D01*
X118839116Y-105003606D01*
X118839816Y-105009579D01*
X118843069Y-105045385D01*
X118843070Y-105045387D01*
X118855333Y-105084742D01*
X118866271Y-105132290D01*
X118877726Y-105156605D01*
X118882852Y-105173055D01*
X118882854Y-105173060D01*
X118890969Y-105199103D01*
X118893702Y-105205176D01*
X118895330Y-105208155D01*
X118902086Y-105221920D01*
X118904562Y-105229073D01*
X118908606Y-105235204D01*
X118915574Y-105249401D01*
X118921663Y-105272298D01*
X118941362Y-105322361D01*
X118939630Y-105419501D01*
X118909411Y-105495391D01*
X118890968Y-105525900D01*
X118890967Y-105525901D01*
X118843070Y-105679612D01*
X118843069Y-105679619D01*
X118837000Y-105746395D01*
X118837000Y-105978594D01*
X118843069Y-106045387D01*
X118845641Y-106058316D01*
X118843063Y-106058828D01*
X118844856Y-106075710D01*
X118852174Y-106112500D01*
X118850164Y-106125708D01*
X118851153Y-106135022D01*
X118846184Y-106151860D01*
X118843977Y-106166365D01*
X118845640Y-106166696D01*
X118843069Y-106179619D01*
X118837000Y-106246395D01*
X118837000Y-106478594D01*
X118843069Y-106545387D01*
X118845641Y-106558316D01*
X118843063Y-106558828D01*
X118844856Y-106575710D01*
X118852174Y-106612500D01*
X118850164Y-106625708D01*
X118851153Y-106635022D01*
X118846184Y-106651860D01*
X118843977Y-106666365D01*
X118845640Y-106666696D01*
X118843069Y-106679619D01*
X118837000Y-106746395D01*
X118837000Y-106950000D01*
X117939838Y-106950000D01*
X117942500Y-106895825D01*
X117942500Y-106866500D01*
X117937999Y-106824640D01*
X117937999Y-106746410D01*
X117931930Y-106679613D01*
X117931928Y-106679608D01*
X117931928Y-106679603D01*
X117929359Y-106666685D01*
X117931935Y-106666172D01*
X117930143Y-106649286D01*
X117922826Y-106612500D01*
X117925050Y-106601315D01*
X117923847Y-106589975D01*
X117930116Y-106558462D01*
X117929359Y-106558312D01*
X117931927Y-106545395D01*
X117931930Y-106545387D01*
X117938000Y-106478591D01*
X117937999Y-106463505D01*
X117940128Y-106431005D01*
X117942500Y-106413000D01*
X117942500Y-106324000D01*
X117938633Y-106269929D01*
X117937999Y-106252167D01*
X117937999Y-106246415D01*
X117937999Y-106246410D01*
X117931930Y-106179613D01*
X117931928Y-106179608D01*
X117931928Y-106179603D01*
X117929359Y-106166685D01*
X117931935Y-106166172D01*
X117930143Y-106149286D01*
X117922826Y-106112500D01*
X117925050Y-106101315D01*
X117923847Y-106089975D01*
X117930116Y-106058462D01*
X117929359Y-106058312D01*
X117931927Y-106045395D01*
X117931930Y-106045387D01*
X117938000Y-105978591D01*
X117937999Y-105904683D01*
X117942500Y-105870500D01*
X117942500Y-105811999D01*
X117937999Y-105749064D01*
X117937999Y-105746410D01*
X117937323Y-105738968D01*
X117936937Y-105734211D01*
X117936336Y-105725818D01*
X117935861Y-105721395D01*
X117935884Y-105721392D01*
X117935182Y-105715411D01*
X117931930Y-105679619D01*
X117931930Y-105679613D01*
X117931928Y-105679607D01*
X117929360Y-105666692D01*
X117931935Y-105666179D01*
X117923848Y-105589964D01*
X117930115Y-105558457D01*
X117929360Y-105558307D01*
X117931928Y-105545392D01*
X117931930Y-105545387D01*
X117938000Y-105478591D01*
X117937999Y-105246410D01*
X117931930Y-105179613D01*
X117931930Y-105179612D01*
X117929359Y-105166685D01*
X117932139Y-105166131D01*
X117924162Y-105090990D01*
X117951656Y-104997807D01*
X118012718Y-104922238D01*
X118027692Y-104910692D01*
X118112923Y-104850000D01*
X118832500Y-104850000D01*
X118832500Y-104913013D01*
G37*
G04 #@! TD.AperFunction*
G04 #@! TA.AperFunction,Conductor*
G36*
X129800000Y-103558333D02*
G01*
X129800000Y-105800000D01*
X130100000Y-106100000D01*
X131234432Y-106100000D01*
X131122738Y-106170182D01*
X131122735Y-106170185D01*
X131121793Y-106171128D01*
X131120318Y-106172113D01*
X131111807Y-106178901D01*
X131111234Y-106178182D01*
X131041010Y-106225100D01*
X130945720Y-106244050D01*
X130867411Y-106231412D01*
X130802797Y-106210001D01*
X130700009Y-106199500D01*
X130700005Y-106199500D01*
X130199993Y-106199500D01*
X130097199Y-106210001D01*
X129930667Y-106265185D01*
X129871678Y-106301570D01*
X129835323Y-106323994D01*
X129813541Y-106337429D01*
X129722489Y-106371320D01*
X129682823Y-106374500D01*
X129153652Y-106374500D01*
X129058364Y-106355546D01*
X128977582Y-106301570D01*
X128504679Y-105828667D01*
X128450703Y-105747885D01*
X128431749Y-105652597D01*
X128438631Y-105594460D01*
X128439781Y-105589667D01*
X128439784Y-105589660D01*
X128446066Y-105550000D01*
X128473952Y-105373930D01*
X128475500Y-105364157D01*
X128475500Y-105135843D01*
X128439784Y-104910340D01*
X128369231Y-104693201D01*
X128296023Y-104549522D01*
X128265581Y-104489775D01*
X128265580Y-104489774D01*
X128265579Y-104489772D01*
X128131379Y-104305063D01*
X128002382Y-104176066D01*
X127980171Y-104142824D01*
X127955676Y-104111224D01*
X127953337Y-104102663D01*
X127948409Y-104095288D01*
X127940609Y-104056077D01*
X127930071Y-104017504D01*
X127931185Y-104008702D01*
X127929455Y-104000000D01*
X127937255Y-103960782D01*
X127942280Y-103921119D01*
X127946504Y-103914288D01*
X127948409Y-103904712D01*
X127990444Y-103836743D01*
X127996188Y-103830127D01*
X128131379Y-103694937D01*
X128222586Y-103569401D01*
X128229671Y-103561243D01*
X128259692Y-103537971D01*
X128287581Y-103512192D01*
X128297825Y-103508412D01*
X128306458Y-103501721D01*
X128343098Y-103491710D01*
X128378731Y-103478565D01*
X128396263Y-103477185D01*
X128400178Y-103476116D01*
X128403885Y-103476585D01*
X128417682Y-103475500D01*
X129876462Y-103475500D01*
X129800000Y-103558333D01*
G37*
G04 #@! TD.AperFunction*
G04 #@! TA.AperFunction,Conductor*
G36*
X120376986Y-102064462D02*
G01*
X120359688Y-102112576D01*
X120356097Y-102121964D01*
X120344172Y-102151346D01*
X120338757Y-102163580D01*
X120337994Y-102166176D01*
X120338137Y-102166218D01*
X120337569Y-102167618D01*
X120329214Y-102196046D01*
X120324643Y-102210052D01*
X120323509Y-102213205D01*
X120323491Y-102213268D01*
X120319108Y-102230432D01*
X120315296Y-102243399D01*
X120307844Y-102300000D01*
X119608075Y-102300000D01*
X119611287Y-102292739D01*
X119630972Y-102225700D01*
X119634868Y-102211821D01*
X119655500Y-102055106D01*
X119655500Y-102050000D01*
X120386037Y-102050000D01*
X120376986Y-102064462D01*
G37*
G04 #@! TD.AperFunction*
G04 #@! TA.AperFunction,Conductor*
G36*
X131275478Y-99724211D02*
G01*
X131275476Y-99724211D01*
X131275476Y-99724212D01*
X131275470Y-99724214D01*
X131122738Y-99820182D01*
X131122735Y-99820185D01*
X131121793Y-99821128D01*
X131120318Y-99822113D01*
X131111807Y-99828901D01*
X131111234Y-99828182D01*
X131041010Y-99875100D01*
X130945720Y-99894050D01*
X130904764Y-99890657D01*
X130885728Y-99887481D01*
X130802797Y-99860001D01*
X130700009Y-99849500D01*
X130658023Y-99849500D01*
X130637682Y-99846107D01*
X130611165Y-99836076D01*
X130583362Y-99830546D01*
X130566160Y-99819052D01*
X130546811Y-99811733D01*
X130526154Y-99792321D01*
X130502584Y-99776572D01*
X130447705Y-99721693D01*
X131282674Y-99721693D01*
X131275478Y-99724211D01*
G37*
G04 #@! TD.AperFunction*
G04 #@! TA.AperFunction,Conductor*
G36*
X129702470Y-96629408D02*
G01*
X129722489Y-96628680D01*
X129749667Y-96638796D01*
X129778111Y-96644454D01*
X129813539Y-96662570D01*
X129930666Y-96734814D01*
X129930669Y-96734815D01*
X129930667Y-96734815D01*
X130074370Y-96782433D01*
X130097203Y-96789999D01*
X130199991Y-96800500D01*
X130700008Y-96800499D01*
X130802797Y-96789999D01*
X130802799Y-96789998D01*
X130802801Y-96789998D01*
X130835069Y-96779305D01*
X130867408Y-96768588D01*
X130963820Y-96756607D01*
X131057480Y-96782433D01*
X131111522Y-96821456D01*
X131111807Y-96821099D01*
X131119269Y-96827050D01*
X131121798Y-96828876D01*
X131122738Y-96829816D01*
X131122740Y-96829817D01*
X131122742Y-96829819D01*
X131235805Y-96900862D01*
X130012856Y-96900000D01*
X129750209Y-97180026D01*
X129750209Y-99421693D01*
X129853016Y-99524500D01*
X128417682Y-99524500D01*
X128398389Y-99520662D01*
X128378731Y-99521435D01*
X128351185Y-99511273D01*
X128322394Y-99505546D01*
X128306037Y-99494616D01*
X128287581Y-99487808D01*
X128266024Y-99467881D01*
X128241612Y-99451570D01*
X128216237Y-99421859D01*
X128146518Y-99325900D01*
X128105843Y-99237670D01*
X128102028Y-99140590D01*
X128135655Y-99049440D01*
X128191959Y-98985470D01*
X128229940Y-98954940D01*
X128345842Y-98810753D01*
X128428037Y-98645021D01*
X128472683Y-98465495D01*
X128473360Y-98455519D01*
X128474620Y-98436932D01*
X128475500Y-98423954D01*
X128475500Y-97403652D01*
X128494454Y-97308364D01*
X128548430Y-97227582D01*
X129077582Y-96698430D01*
X129158364Y-96644454D01*
X129253652Y-96625500D01*
X129682823Y-96625500D01*
X129702470Y-96629408D01*
G37*
G04 #@! TD.AperFunction*
G04 #@! TA.AperFunction,Conductor*
G36*
X118920000Y-94025513D02*
G01*
X118923939Y-94080598D01*
X118924500Y-94088434D01*
X118924501Y-94091090D01*
X118925388Y-94100858D01*
X118925556Y-94103204D01*
X118925561Y-94103264D01*
X118926163Y-94111679D01*
X118926639Y-94116104D01*
X118926616Y-94116106D01*
X118927316Y-94122079D01*
X118930569Y-94157885D01*
X118930570Y-94157887D01*
X118942833Y-94197242D01*
X118953771Y-94244790D01*
X118965226Y-94269105D01*
X118970352Y-94285555D01*
X118970354Y-94285560D01*
X118978469Y-94311603D01*
X118981202Y-94317676D01*
X118982830Y-94320655D01*
X118989586Y-94334420D01*
X118992062Y-94341573D01*
X118996106Y-94347704D01*
X119003074Y-94361901D01*
X119009163Y-94384798D01*
X119028862Y-94434861D01*
X119027130Y-94532001D01*
X118996911Y-94607891D01*
X118978468Y-94638400D01*
X118978467Y-94638401D01*
X118930570Y-94792112D01*
X118930569Y-94792119D01*
X118924500Y-94858895D01*
X118924500Y-95091094D01*
X118930569Y-95157887D01*
X118933141Y-95170816D01*
X118930563Y-95171328D01*
X118932356Y-95188210D01*
X118939674Y-95225000D01*
X118937664Y-95238208D01*
X118938653Y-95247522D01*
X118933684Y-95264360D01*
X118931477Y-95278865D01*
X118933140Y-95279196D01*
X118930569Y-95292119D01*
X118924500Y-95358895D01*
X118924500Y-95591094D01*
X118930569Y-95657887D01*
X118933141Y-95670816D01*
X118930563Y-95671328D01*
X118932356Y-95688210D01*
X118939674Y-95725000D01*
X118937664Y-95738208D01*
X118938653Y-95747522D01*
X118933684Y-95764360D01*
X118931477Y-95778865D01*
X118933140Y-95779196D01*
X118930569Y-95792119D01*
X118924500Y-95858895D01*
X118924500Y-96050000D01*
X118027952Y-96050000D01*
X118030000Y-96008323D01*
X118030000Y-95979000D01*
X118025499Y-95937140D01*
X118025499Y-95858910D01*
X118019430Y-95792113D01*
X118019428Y-95792108D01*
X118019428Y-95792103D01*
X118016859Y-95779185D01*
X118019435Y-95778672D01*
X118017643Y-95761786D01*
X118010326Y-95725000D01*
X118012550Y-95713815D01*
X118011347Y-95702475D01*
X118017616Y-95670962D01*
X118016859Y-95670812D01*
X118019427Y-95657895D01*
X118019430Y-95657887D01*
X118025500Y-95591091D01*
X118025499Y-95576005D01*
X118027628Y-95543505D01*
X118030000Y-95525500D01*
X118030000Y-95424499D01*
X118026925Y-95395906D01*
X118025499Y-95369289D01*
X118025499Y-95358915D01*
X118025499Y-95358910D01*
X118019430Y-95292113D01*
X118019428Y-95292108D01*
X118019428Y-95292103D01*
X118016859Y-95279184D01*
X118019436Y-95278671D01*
X118017643Y-95261789D01*
X118010326Y-95225000D01*
X118012550Y-95213815D01*
X118011347Y-95202478D01*
X118017616Y-95170962D01*
X118016859Y-95170812D01*
X118019427Y-95157895D01*
X118019430Y-95157887D01*
X118025500Y-95091091D01*
X118025499Y-95005182D01*
X118030000Y-94970999D01*
X118030000Y-94924499D01*
X118025499Y-94861564D01*
X118025499Y-94858910D01*
X118024823Y-94851468D01*
X118024437Y-94846711D01*
X118023836Y-94838318D01*
X118023361Y-94833895D01*
X118023384Y-94833892D01*
X118022682Y-94827911D01*
X118019430Y-94792119D01*
X118019430Y-94792113D01*
X118019428Y-94792107D01*
X118016860Y-94779192D01*
X118019435Y-94778679D01*
X118011348Y-94702464D01*
X118017615Y-94670957D01*
X118016860Y-94670807D01*
X118019428Y-94657892D01*
X118019430Y-94657887D01*
X118025500Y-94591091D01*
X118025499Y-94358910D01*
X118019430Y-94292113D01*
X118019430Y-94292112D01*
X118016859Y-94279185D01*
X118019532Y-94278653D01*
X118011492Y-94202966D01*
X118038982Y-94109781D01*
X118100039Y-94034209D01*
X118115039Y-94022644D01*
X118217052Y-93950000D01*
X118920000Y-93950000D01*
X118920000Y-94025513D01*
G37*
G04 #@! TD.AperFunction*
G04 #@! TA.AperFunction,Conductor*
G36*
X120476986Y-91164462D02*
G01*
X120459688Y-91212576D01*
X120456097Y-91221964D01*
X120444172Y-91251346D01*
X120438757Y-91263580D01*
X120437994Y-91266176D01*
X120438137Y-91266218D01*
X120437569Y-91267618D01*
X120429214Y-91296046D01*
X120424643Y-91310052D01*
X120423509Y-91313205D01*
X120423491Y-91313268D01*
X120419108Y-91330432D01*
X120415296Y-91343399D01*
X120407844Y-91400000D01*
X119708075Y-91400000D01*
X119711287Y-91392739D01*
X119730972Y-91325700D01*
X119734868Y-91311821D01*
X119755500Y-91155106D01*
X119755500Y-91150000D01*
X120486037Y-91150000D01*
X120476986Y-91164462D01*
G37*
G04 #@! TD.AperFunction*
G04 #@! TA.AperFunction,Conductor*
G36*
X118907500Y-83050513D02*
G01*
X118911439Y-83105598D01*
X118912000Y-83113434D01*
X118912001Y-83116090D01*
X118912888Y-83125858D01*
X118913056Y-83128204D01*
X118913061Y-83128264D01*
X118913663Y-83136679D01*
X118914139Y-83141104D01*
X118914116Y-83141106D01*
X118914816Y-83147079D01*
X118918069Y-83182885D01*
X118918070Y-83182887D01*
X118930333Y-83222242D01*
X118941271Y-83269790D01*
X118952726Y-83294105D01*
X118957852Y-83310555D01*
X118957854Y-83310560D01*
X118965969Y-83336603D01*
X118968700Y-83342671D01*
X118970330Y-83345655D01*
X118977086Y-83359420D01*
X118979562Y-83366573D01*
X118983606Y-83372704D01*
X118990574Y-83386901D01*
X118996663Y-83409798D01*
X119016362Y-83459861D01*
X119014630Y-83557001D01*
X118984411Y-83632891D01*
X118965968Y-83663400D01*
X118965967Y-83663401D01*
X118918070Y-83817112D01*
X118918069Y-83817119D01*
X118912000Y-83883895D01*
X118912000Y-84116094D01*
X118918069Y-84182887D01*
X118920641Y-84195816D01*
X118918063Y-84196328D01*
X118919856Y-84213210D01*
X118927174Y-84250000D01*
X118925164Y-84263208D01*
X118926153Y-84272522D01*
X118921184Y-84289360D01*
X118918977Y-84303865D01*
X118920640Y-84304196D01*
X118918069Y-84317119D01*
X118912000Y-84383895D01*
X118912000Y-84616094D01*
X118918069Y-84682887D01*
X118920641Y-84695816D01*
X118918063Y-84696328D01*
X118919856Y-84713210D01*
X118927174Y-84750000D01*
X118925164Y-84763208D01*
X118926153Y-84772522D01*
X118921184Y-84789360D01*
X118918977Y-84803865D01*
X118920640Y-84804196D01*
X118918069Y-84817119D01*
X118912000Y-84883895D01*
X118912000Y-85075000D01*
X118015452Y-85075000D01*
X118017500Y-85033326D01*
X118017500Y-85004000D01*
X118014426Y-84975411D01*
X118012999Y-84948791D01*
X118012999Y-84883915D01*
X118012999Y-84883910D01*
X118006930Y-84817113D01*
X118006928Y-84817108D01*
X118006928Y-84817103D01*
X118004359Y-84804185D01*
X118006935Y-84803672D01*
X118005143Y-84786786D01*
X117997826Y-84750000D01*
X118000050Y-84738815D01*
X117998847Y-84727475D01*
X118005116Y-84695962D01*
X118004359Y-84695812D01*
X118006927Y-84682895D01*
X118006930Y-84682887D01*
X118013000Y-84616091D01*
X118012999Y-84601005D01*
X118015128Y-84568505D01*
X118017500Y-84550500D01*
X118017500Y-84449499D01*
X118014425Y-84420906D01*
X118012999Y-84394289D01*
X118012999Y-84383915D01*
X118012999Y-84383910D01*
X118006930Y-84317113D01*
X118006928Y-84317108D01*
X118006928Y-84317103D01*
X118004359Y-84304184D01*
X118006936Y-84303671D01*
X118005143Y-84286789D01*
X117997826Y-84250000D01*
X118000050Y-84238815D01*
X117998847Y-84227478D01*
X118005116Y-84195962D01*
X118004359Y-84195812D01*
X118006927Y-84182895D01*
X118006930Y-84182887D01*
X118013000Y-84116091D01*
X118012999Y-84030182D01*
X118017500Y-83995999D01*
X118017500Y-83949499D01*
X118012999Y-83886564D01*
X118012999Y-83883910D01*
X118012323Y-83876468D01*
X118011937Y-83871711D01*
X118011336Y-83863318D01*
X118010861Y-83858895D01*
X118010884Y-83858892D01*
X118010182Y-83852911D01*
X118009158Y-83841645D01*
X118006930Y-83817113D01*
X118006928Y-83817107D01*
X118004360Y-83804192D01*
X118006935Y-83803679D01*
X117998848Y-83727464D01*
X118005115Y-83695957D01*
X118004360Y-83695807D01*
X118006928Y-83682892D01*
X118006930Y-83682887D01*
X118013000Y-83616091D01*
X118012999Y-83383910D01*
X118012069Y-83373679D01*
X118006930Y-83317118D01*
X118006930Y-83317113D01*
X118006927Y-83317104D01*
X118004815Y-83306482D01*
X118004816Y-83209327D01*
X118041996Y-83119567D01*
X118104597Y-83055077D01*
X118110171Y-83051107D01*
X118110176Y-83051105D01*
X118217049Y-82975000D01*
X118907500Y-82975000D01*
X118907500Y-83050513D01*
G37*
G04 #@! TD.AperFunction*
G04 #@! TA.AperFunction,Conductor*
G36*
X120476986Y-80189462D02*
G01*
X120459688Y-80237576D01*
X120456097Y-80246964D01*
X120444172Y-80276346D01*
X120438757Y-80288580D01*
X120437994Y-80291176D01*
X120438137Y-80291218D01*
X120437569Y-80292618D01*
X120429214Y-80321046D01*
X120424643Y-80335052D01*
X120423509Y-80338205D01*
X120423491Y-80338268D01*
X120419108Y-80355432D01*
X120415296Y-80368399D01*
X120407844Y-80425000D01*
X119708075Y-80425000D01*
X119711287Y-80417739D01*
X119730972Y-80350700D01*
X119734868Y-80336821D01*
X119755500Y-80180106D01*
X119755500Y-80175000D01*
X120486037Y-80175000D01*
X120476986Y-80189462D01*
G37*
G04 #@! TD.AperFunction*
M02*
