G04 #@! TF.GenerationSoftware,KiCad,Pcbnew,9.0.4*
G04 #@! TF.CreationDate,2025-09-21T20:32:14-07:00*
G04 #@! TF.ProjectId,stepper_juicer_v1,73746570-7065-4725-9f6a-75696365725f,rev?*
G04 #@! TF.SameCoordinates,Original*
G04 #@! TF.FileFunction,Paste,Top*
G04 #@! TF.FilePolarity,Positive*
%FSLAX46Y46*%
G04 Gerber Fmt 4.6, Leading zero omitted, Abs format (unit mm)*
G04 Created by KiCad (PCBNEW 9.0.4) date 2025-09-21 20:32:14*
%MOMM*%
%LPD*%
G01*
G04 APERTURE LIST*
G04 Aperture macros list*
%AMRoundRect*
0 Rectangle with rounded corners*
0 $1 Rounding radius*
0 $2 $3 $4 $5 $6 $7 $8 $9 X,Y pos of 4 corners*
0 Add a 4 corners polygon primitive as box body*
4,1,4,$2,$3,$4,$5,$6,$7,$8,$9,$2,$3,0*
0 Add four circle primitives for the rounded corners*
1,1,$1+$1,$2,$3*
1,1,$1+$1,$4,$5*
1,1,$1+$1,$6,$7*
1,1,$1+$1,$8,$9*
0 Add four rect primitives between the rounded corners*
20,1,$1+$1,$2,$3,$4,$5,0*
20,1,$1+$1,$4,$5,$6,$7,0*
20,1,$1+$1,$6,$7,$8,$9,0*
20,1,$1+$1,$8,$9,$2,$3,0*%
%AMFreePoly0*
4,1,9,3.862500,-0.866500,0.737500,-0.866500,0.737500,-0.450000,-0.737500,-0.450000,-0.737500,0.450000,0.737500,0.450000,0.737500,0.866500,3.862500,0.866500,3.862500,-0.866500,3.862500,-0.866500,$1*%
G04 Aperture macros list end*
%ADD10RoundRect,0.200000X0.275000X-0.200000X0.275000X0.200000X-0.275000X0.200000X-0.275000X-0.200000X0*%
%ADD11RoundRect,0.250000X0.475000X-0.250000X0.475000X0.250000X-0.475000X0.250000X-0.475000X-0.250000X0*%
%ADD12RoundRect,0.150000X0.200000X-0.150000X0.200000X0.150000X-0.200000X0.150000X-0.200000X-0.150000X0*%
%ADD13R,0.340000X0.800000*%
%ADD14R,2.290000X1.677500*%
%ADD15RoundRect,0.150000X-0.200000X0.150000X-0.200000X-0.150000X0.200000X-0.150000X0.200000X0.150000X0*%
%ADD16RoundRect,0.200000X-0.275000X0.200000X-0.275000X-0.200000X0.275000X-0.200000X0.275000X0.200000X0*%
%ADD17RoundRect,0.172500X-0.172500X-0.332500X0.172500X-0.332500X0.172500X0.332500X-0.172500X0.332500X0*%
%ADD18RoundRect,0.062500X-0.350000X-0.062500X0.350000X-0.062500X0.350000X0.062500X-0.350000X0.062500X0*%
%ADD19RoundRect,0.250000X-0.475000X0.250000X-0.475000X-0.250000X0.475000X-0.250000X0.475000X0.250000X0*%
%ADD20RoundRect,0.250000X-0.250000X-0.475000X0.250000X-0.475000X0.250000X0.475000X-0.250000X0.475000X0*%
%ADD21R,1.677500X2.290000*%
%ADD22R,0.800000X0.340000*%
%ADD23RoundRect,0.125000X-0.125000X-0.125000X0.125000X-0.125000X0.125000X0.125000X-0.125000X0.125000X0*%
%ADD24RoundRect,0.218750X0.218750X0.256250X-0.218750X0.256250X-0.218750X-0.256250X0.218750X-0.256250X0*%
%ADD25RoundRect,0.250000X-0.450000X0.262500X-0.450000X-0.262500X0.450000X-0.262500X0.450000X0.262500X0*%
%ADD26RoundRect,0.250000X-0.262500X-0.450000X0.262500X-0.450000X0.262500X0.450000X-0.262500X0.450000X0*%
%ADD27RoundRect,0.200000X0.200000X0.275000X-0.200000X0.275000X-0.200000X-0.275000X0.200000X-0.275000X0*%
%ADD28RoundRect,0.225000X-0.425000X-0.225000X0.425000X-0.225000X0.425000X0.225000X-0.425000X0.225000X0*%
%ADD29FreePoly0,0.000000*%
G04 APERTURE END LIST*
D10*
X116525000Y-101762500D03*
X116525000Y-103412500D03*
D11*
X125937500Y-111000000D03*
X125937500Y-109100000D03*
D12*
X130450000Y-102250000D03*
X130450000Y-103650000D03*
D13*
X121325000Y-79075000D03*
X120675000Y-79075000D03*
X120025000Y-79075000D03*
X121975000Y-79075000D03*
X121975000Y-76075000D03*
X121325000Y-76075000D03*
X120675000Y-76075000D03*
X120025000Y-76075000D03*
D14*
X121000000Y-77186250D03*
D13*
X121325000Y-90050000D03*
X120675000Y-90050000D03*
X120025000Y-90050000D03*
X121975000Y-90050000D03*
X121975000Y-87050000D03*
X121325000Y-87050000D03*
X120675000Y-87050000D03*
X120025000Y-87050000D03*
D14*
X121000000Y-88161250D03*
D12*
X130450000Y-97300000D03*
X130450000Y-95900000D03*
D10*
X133400000Y-105350000D03*
X133400000Y-107000000D03*
X133400000Y-99000000D03*
X133400000Y-100650000D03*
D15*
X130450000Y-99350000D03*
X130450000Y-100750000D03*
D16*
X133400000Y-97650000D03*
X133400000Y-96000000D03*
X133400000Y-104000000D03*
X133400000Y-102350000D03*
D15*
X130450000Y-105700000D03*
X130450000Y-107100000D03*
D16*
X131900000Y-105350000D03*
X131900000Y-107000000D03*
X131900000Y-102350000D03*
X131900000Y-104000000D03*
X131900000Y-99000000D03*
X131900000Y-100650000D03*
X131900000Y-96000000D03*
X131900000Y-97650000D03*
D17*
X117962500Y-105237500D03*
X117962500Y-106487500D03*
X118812500Y-105237500D03*
X118812500Y-106487500D03*
D18*
X116925000Y-104862500D03*
X116925000Y-105362500D03*
X116925000Y-105862500D03*
X116925000Y-106362500D03*
X116925000Y-106862500D03*
X119850000Y-106862500D03*
X119850000Y-106362500D03*
X119850000Y-105862500D03*
X119850000Y-105362500D03*
X119850000Y-104862500D03*
D19*
X115350000Y-83525000D03*
X115350000Y-85425000D03*
D14*
X120950000Y-109861250D03*
D13*
X119975000Y-108750000D03*
X120625000Y-108750000D03*
X121275000Y-108750000D03*
X121925000Y-108750000D03*
X121925000Y-111750000D03*
X119975000Y-111750000D03*
X120625000Y-111750000D03*
X121275000Y-111750000D03*
D20*
X118125000Y-92150000D03*
X120025000Y-92150000D03*
D21*
X113826250Y-81050000D03*
D22*
X114937500Y-80075000D03*
X114937500Y-80725000D03*
X114937500Y-81375000D03*
X114937500Y-82025000D03*
X111937500Y-82025000D03*
X111937500Y-80075000D03*
X111937500Y-80725000D03*
X111937500Y-81375000D03*
D19*
X125937500Y-114450000D03*
X125937500Y-112550000D03*
D23*
X116350000Y-89250000D03*
X118550000Y-89250000D03*
D17*
X118037500Y-83375000D03*
X118037500Y-84625000D03*
X118887500Y-83375000D03*
X118887500Y-84625000D03*
D18*
X117000000Y-83000000D03*
X117000000Y-83500000D03*
X117000000Y-84000000D03*
X117000000Y-84500000D03*
X117000000Y-85000000D03*
X119925000Y-85000000D03*
X119925000Y-84500000D03*
X119925000Y-84000000D03*
X119925000Y-83500000D03*
X119925000Y-83000000D03*
D24*
X127662500Y-114700000D03*
X129237500Y-114700000D03*
D17*
X118000000Y-116050000D03*
X118000000Y-117300000D03*
X118850000Y-116050000D03*
X118850000Y-117300000D03*
D18*
X116962500Y-115675000D03*
X116962500Y-116175000D03*
X116962500Y-116675000D03*
X116962500Y-117175000D03*
X116962500Y-117675000D03*
X119887500Y-117675000D03*
X119887500Y-117175000D03*
X119887500Y-116675000D03*
X119887500Y-116175000D03*
X119887500Y-115675000D03*
D14*
X120900000Y-99073750D03*
D13*
X119925000Y-97962500D03*
X120575000Y-97962500D03*
X121225000Y-97962500D03*
X121875000Y-97962500D03*
X121875000Y-100962500D03*
X119925000Y-100962500D03*
X120575000Y-100962500D03*
X121225000Y-100962500D03*
D25*
X121700000Y-113637500D03*
X121700000Y-115462500D03*
D22*
X111875000Y-92325000D03*
X111875000Y-91675000D03*
X111875000Y-91025000D03*
X111875000Y-92975000D03*
X114875000Y-92975000D03*
X114875000Y-92325000D03*
X114875000Y-91675000D03*
X114875000Y-91025000D03*
D21*
X113763750Y-92000000D03*
D10*
X116637500Y-81575000D03*
X116637500Y-79925000D03*
D25*
X121650000Y-102850000D03*
X121650000Y-104675000D03*
D23*
X116300000Y-100162500D03*
X118500000Y-100162500D03*
D19*
X115300000Y-94500000D03*
X115300000Y-96400000D03*
D26*
X111737500Y-83725000D03*
X113562500Y-83725000D03*
D25*
X121787500Y-80950000D03*
X121787500Y-82775000D03*
D19*
X115250000Y-105412500D03*
X115250000Y-107312500D03*
D22*
X111850000Y-114025000D03*
X111850000Y-113375000D03*
X111850000Y-112725000D03*
X111850000Y-114675000D03*
X114850000Y-114675000D03*
X114850000Y-114025000D03*
X114850000Y-113375000D03*
X114850000Y-112725000D03*
D21*
X113738750Y-113700000D03*
D17*
X118050000Y-94350000D03*
X118050000Y-95600000D03*
X118900000Y-94350000D03*
X118900000Y-95600000D03*
D18*
X117012500Y-93975000D03*
X117012500Y-94475000D03*
X117012500Y-94975000D03*
X117012500Y-95475000D03*
X117012500Y-95975000D03*
X119937500Y-95975000D03*
X119937500Y-95475000D03*
X119937500Y-94975000D03*
X119937500Y-94475000D03*
X119937500Y-93975000D03*
D20*
X118162500Y-81175000D03*
X120062500Y-81175000D03*
D26*
X111687500Y-116400000D03*
X113512500Y-116400000D03*
D10*
X116600000Y-92500000D03*
X116600000Y-90850000D03*
D23*
X116350000Y-110950000D03*
X118550000Y-110950000D03*
D10*
X116550000Y-114200000D03*
X116550000Y-112550000D03*
D26*
X111625000Y-105612500D03*
X113450000Y-105612500D03*
D25*
X121725000Y-91950000D03*
X121725000Y-93775000D03*
D23*
X116412500Y-78275000D03*
X118612500Y-78275000D03*
D27*
X127637500Y-116900000D03*
X129287500Y-116900000D03*
D21*
X113713750Y-102887500D03*
D22*
X114825000Y-101912500D03*
X114825000Y-102562500D03*
X114825000Y-103212500D03*
X114825000Y-103862500D03*
X111825000Y-103862500D03*
X111825000Y-101912500D03*
X111825000Y-102562500D03*
X111825000Y-103212500D03*
D20*
X118100000Y-113850000D03*
X120000000Y-113850000D03*
D19*
X115300000Y-116200000D03*
X115300000Y-118100000D03*
D26*
X111712500Y-94700000D03*
X113537500Y-94700000D03*
D20*
X118025000Y-103062500D03*
X119925000Y-103062500D03*
D28*
X127850000Y-112950000D03*
D29*
X127937500Y-111450000D03*
D28*
X127850000Y-109950000D03*
M02*
