G04 #@! TF.GenerationSoftware,KiCad,Pcbnew,9.0.4*
G04 #@! TF.CreationDate,2025-09-21T20:32:14-07:00*
G04 #@! TF.ProjectId,stepper_juicer_v1,73746570-7065-4725-9f6a-75696365725f,rev?*
G04 #@! TF.SameCoordinates,Original*
G04 #@! TF.FileFunction,Legend,Top*
G04 #@! TF.FilePolarity,Positive*
%FSLAX46Y46*%
G04 Gerber Fmt 4.6, Leading zero omitted, Abs format (unit mm)*
G04 Created by KiCad (PCBNEW 9.0.4) date 2025-09-21 20:32:14*
%MOMM*%
%LPD*%
G01*
G04 APERTURE LIST*
G04 Aperture macros list*
%AMRoundRect*
0 Rectangle with rounded corners*
0 $1 Rounding radius*
0 $2 $3 $4 $5 $6 $7 $8 $9 X,Y pos of 4 corners*
0 Add a 4 corners polygon primitive as box body*
4,1,4,$2,$3,$4,$5,$6,$7,$8,$9,$2,$3,0*
0 Add four circle primitives for the rounded corners*
1,1,$1+$1,$2,$3*
1,1,$1+$1,$4,$5*
1,1,$1+$1,$6,$7*
1,1,$1+$1,$8,$9*
0 Add four rect primitives between the rounded corners*
20,1,$1+$1,$2,$3,$4,$5,0*
20,1,$1+$1,$4,$5,$6,$7,0*
20,1,$1+$1,$6,$7,$8,$9,0*
20,1,$1+$1,$8,$9,$2,$3,0*%
%AMFreePoly0*
4,1,9,3.862500,-0.866500,0.737500,-0.866500,0.737500,-0.450000,-0.737500,-0.450000,-0.737500,0.450000,0.737500,0.450000,0.737500,0.866500,3.862500,0.866500,3.862500,-0.866500,3.862500,-0.866500,$1*%
G04 Aperture macros list end*
%ADD10C,0.200000*%
%ADD11C,0.150000*%
%ADD12C,0.120000*%
%ADD13C,0.000000*%
%ADD14RoundRect,0.200000X0.275000X-0.200000X0.275000X0.200000X-0.275000X0.200000X-0.275000X-0.200000X0*%
%ADD15RoundRect,0.250000X0.475000X-0.250000X0.475000X0.250000X-0.475000X0.250000X-0.475000X-0.250000X0*%
%ADD16RoundRect,0.150000X0.200000X-0.150000X0.200000X0.150000X-0.200000X0.150000X-0.200000X-0.150000X0*%
%ADD17C,6.400000*%
%ADD18R,2.000000X4.600000*%
%ADD19O,2.000000X4.200000*%
%ADD20O,4.200000X2.000000*%
%ADD21O,1.750000X1.200000*%
%ADD22RoundRect,0.250000X-0.625000X0.350000X-0.625000X-0.350000X0.625000X-0.350000X0.625000X0.350000X0*%
%ADD23R,0.340000X0.800000*%
%ADD24R,2.290000X1.677500*%
%ADD25C,2.000000*%
%ADD26RoundRect,0.250000X-0.750000X0.750000X-0.750000X-0.750000X0.750000X-0.750000X0.750000X0.750000X0*%
%ADD27RoundRect,0.150000X-0.200000X0.150000X-0.200000X-0.150000X0.200000X-0.150000X0.200000X0.150000X0*%
%ADD28RoundRect,0.200000X-0.275000X0.200000X-0.275000X-0.200000X0.275000X-0.200000X0.275000X0.200000X0*%
%ADD29RoundRect,0.062500X-0.350000X-0.062500X0.350000X-0.062500X0.350000X0.062500X-0.350000X0.062500X0*%
%ADD30R,1.700000X2.500000*%
%ADD31RoundRect,0.250000X-0.475000X0.250000X-0.475000X-0.250000X0.475000X-0.250000X0.475000X0.250000X0*%
%ADD32RoundRect,0.250000X-0.250000X-0.475000X0.250000X-0.475000X0.250000X0.475000X-0.250000X0.475000X0*%
%ADD33R,1.677500X2.290000*%
%ADD34R,0.800000X0.340000*%
%ADD35RoundRect,0.250000X-0.725000X0.600000X-0.725000X-0.600000X0.725000X-0.600000X0.725000X0.600000X0*%
%ADD36O,1.950000X1.700000*%
%ADD37RoundRect,0.125000X-0.125000X-0.125000X0.125000X-0.125000X0.125000X0.125000X-0.125000X0.125000X0*%
%ADD38RoundRect,0.218750X0.218750X0.256250X-0.218750X0.256250X-0.218750X-0.256250X0.218750X-0.256250X0*%
%ADD39RoundRect,0.250000X-0.450000X0.262500X-0.450000X-0.262500X0.450000X-0.262500X0.450000X0.262500X0*%
%ADD40RoundRect,0.250000X-0.262500X-0.450000X0.262500X-0.450000X0.262500X0.450000X-0.262500X0.450000X0*%
%ADD41RoundRect,0.200000X0.200000X0.275000X-0.200000X0.275000X-0.200000X-0.275000X0.200000X-0.275000X0*%
%ADD42RoundRect,0.225000X-0.425000X-0.225000X0.425000X-0.225000X0.425000X0.225000X-0.425000X0.225000X0*%
%ADD43FreePoly0,0.000000*%
G04 APERTURE END LIST*
D10*
X109581504Y-78327945D02*
X109581504Y-77851755D01*
X109867219Y-78423183D02*
X108867219Y-78089850D01*
X108867219Y-78089850D02*
X109867219Y-77756517D01*
X109771980Y-77423183D02*
X109819600Y-77375564D01*
X109819600Y-77375564D02*
X109867219Y-77423183D01*
X109867219Y-77423183D02*
X109819600Y-77470802D01*
X109819600Y-77470802D02*
X109771980Y-77423183D01*
X109771980Y-77423183D02*
X109867219Y-77423183D01*
X109867219Y-76470803D02*
X109867219Y-76946993D01*
X109867219Y-76946993D02*
X108867219Y-76946993D01*
X109771980Y-76137469D02*
X109819600Y-76089850D01*
X109819600Y-76089850D02*
X109867219Y-76137469D01*
X109867219Y-76137469D02*
X109819600Y-76185088D01*
X109819600Y-76185088D02*
X109771980Y-76137469D01*
X109771980Y-76137469D02*
X109867219Y-76137469D01*
G36*
X101686554Y-102398227D02*
G01*
X101711223Y-102422895D01*
X101741028Y-102482505D01*
X101741028Y-102739850D01*
X101417219Y-102739850D01*
X101417219Y-102482505D01*
X101447024Y-102422895D01*
X101471692Y-102398226D01*
X101531302Y-102368422D01*
X101626945Y-102368422D01*
X101686554Y-102398227D01*
G37*
G36*
X101931504Y-100701107D02*
G01*
X101633446Y-100601755D01*
X101931504Y-100502402D01*
X101931504Y-100701107D01*
G37*
G36*
X101686554Y-94255369D02*
G01*
X101711223Y-94280037D01*
X101741028Y-94339647D01*
X101741028Y-94596992D01*
X101417219Y-94596992D01*
X101417219Y-94339647D01*
X101447024Y-94280037D01*
X101471692Y-94255368D01*
X101531302Y-94225564D01*
X101626945Y-94225564D01*
X101686554Y-94255369D01*
G37*
G36*
X101686554Y-93255369D02*
G01*
X101711223Y-93280037D01*
X101741028Y-93339647D01*
X101741028Y-93596992D01*
X101417219Y-93596992D01*
X101417219Y-93339647D01*
X101447024Y-93280037D01*
X101471692Y-93255368D01*
X101531302Y-93225564D01*
X101626945Y-93225564D01*
X101686554Y-93255369D01*
G37*
G36*
X101686554Y-91350607D02*
G01*
X101711223Y-91375275D01*
X101741028Y-91434885D01*
X101741028Y-91692230D01*
X101417219Y-91692230D01*
X101417219Y-91434885D01*
X101447024Y-91375275D01*
X101471692Y-91350606D01*
X101531302Y-91320802D01*
X101626945Y-91320802D01*
X101686554Y-91350607D01*
G37*
G36*
X102044218Y-89600867D02*
G01*
X102115127Y-89636321D01*
X102182197Y-89703391D01*
X102217219Y-89808456D01*
X102217219Y-89930325D01*
X101417219Y-89930325D01*
X101417219Y-89808457D01*
X101452240Y-89703392D01*
X101519313Y-89636320D01*
X101590218Y-89600867D01*
X101758099Y-89558897D01*
X101876337Y-89558897D01*
X102044218Y-89600867D01*
G37*
G36*
X101686554Y-88588702D02*
G01*
X101711223Y-88613370D01*
X101741028Y-88672980D01*
X101741028Y-88930325D01*
X101417219Y-88930325D01*
X101417219Y-88672980D01*
X101447024Y-88613370D01*
X101471692Y-88588701D01*
X101531302Y-88558897D01*
X101626945Y-88558897D01*
X101686554Y-88588702D01*
G37*
G36*
X101686554Y-85350607D02*
G01*
X101711223Y-85375275D01*
X101741028Y-85434885D01*
X101741028Y-85692230D01*
X101417219Y-85692230D01*
X101417219Y-85434885D01*
X101447024Y-85375275D01*
X101471692Y-85350606D01*
X101531302Y-85320802D01*
X101626945Y-85320802D01*
X101686554Y-85350607D01*
G37*
G36*
X102528330Y-105334754D02*
G01*
X101106108Y-105334754D01*
X101106108Y-104696993D01*
X101217219Y-104696993D01*
X101217219Y-104935088D01*
X101219140Y-104954597D01*
X101220515Y-104957917D01*
X101220770Y-104961501D01*
X101227776Y-104979809D01*
X101275395Y-105075047D01*
X101280680Y-105083443D01*
X101281691Y-105085883D01*
X101283944Y-105088629D01*
X101285838Y-105091637D01*
X101287832Y-105093366D01*
X101294127Y-105101037D01*
X101341746Y-105148655D01*
X101356899Y-105161092D01*
X101392948Y-105176023D01*
X101431966Y-105176023D01*
X101468014Y-105161092D01*
X101495604Y-105133502D01*
X101510535Y-105097454D01*
X101510535Y-105058436D01*
X101495604Y-105022387D01*
X101483167Y-105007234D01*
X101447024Y-104971090D01*
X101417219Y-104911480D01*
X101417219Y-104720600D01*
X101447024Y-104660990D01*
X101471692Y-104636321D01*
X101531302Y-104606517D01*
X101586706Y-104606517D01*
X101691770Y-104641538D01*
X102246508Y-105196275D01*
X102261662Y-105208711D01*
X102297710Y-105223643D01*
X102336728Y-105223643D01*
X102372776Y-105208711D01*
X102400366Y-105181121D01*
X102415298Y-105145073D01*
X102417219Y-105125564D01*
X102417219Y-104506517D01*
X102415298Y-104487008D01*
X102400366Y-104450960D01*
X102372776Y-104423370D01*
X102336728Y-104408438D01*
X102297710Y-104408438D01*
X102261662Y-104423370D01*
X102234072Y-104450960D01*
X102219140Y-104487008D01*
X102217219Y-104506517D01*
X102217219Y-104884142D01*
X101816501Y-104483425D01*
X101801347Y-104470989D01*
X101798028Y-104469614D01*
X101795313Y-104467259D01*
X101777412Y-104459268D01*
X101634556Y-104411649D01*
X101624884Y-104409449D01*
X101622442Y-104408438D01*
X101618903Y-104408089D01*
X101615440Y-104407302D01*
X101612806Y-104407489D01*
X101602933Y-104406517D01*
X101507695Y-104406517D01*
X101488186Y-104408438D01*
X101484865Y-104409813D01*
X101481282Y-104410068D01*
X101462973Y-104417074D01*
X101367736Y-104464693D01*
X101359339Y-104469978D01*
X101356899Y-104470989D01*
X101354153Y-104473242D01*
X101351145Y-104475136D01*
X101349412Y-104477133D01*
X101341746Y-104483426D01*
X101294127Y-104531044D01*
X101287832Y-104538714D01*
X101285838Y-104540444D01*
X101283944Y-104543451D01*
X101281691Y-104546198D01*
X101280680Y-104548637D01*
X101275395Y-104557034D01*
X101227776Y-104652272D01*
X101220770Y-104670580D01*
X101220515Y-104674163D01*
X101219140Y-104677484D01*
X101217219Y-104696993D01*
X101106108Y-104696993D01*
X101106108Y-103316041D01*
X101836266Y-103316041D01*
X101836266Y-104077945D01*
X101838187Y-104097454D01*
X101853119Y-104133502D01*
X101880709Y-104161092D01*
X101916757Y-104176024D01*
X101955775Y-104176024D01*
X101991823Y-104161092D01*
X102019413Y-104133502D01*
X102034345Y-104097454D01*
X102036266Y-104077945D01*
X102036266Y-103316041D01*
X102034345Y-103296532D01*
X102019413Y-103260484D01*
X101991823Y-103232894D01*
X101955775Y-103217962D01*
X101916757Y-103217962D01*
X101880709Y-103232894D01*
X101853119Y-103260484D01*
X101838187Y-103296532D01*
X101836266Y-103316041D01*
X101106108Y-103316041D01*
X101106108Y-102458898D01*
X101217219Y-102458898D01*
X101217219Y-102839850D01*
X101219140Y-102859359D01*
X101234072Y-102895407D01*
X101261662Y-102922997D01*
X101297710Y-102937929D01*
X101317219Y-102939850D01*
X102317219Y-102939850D01*
X102336728Y-102937929D01*
X102372776Y-102922997D01*
X102400366Y-102895407D01*
X102415298Y-102859359D01*
X102415298Y-102820341D01*
X102400366Y-102784293D01*
X102372776Y-102756703D01*
X102336728Y-102741771D01*
X102317219Y-102739850D01*
X101941028Y-102739850D01*
X101941028Y-102458898D01*
X101939107Y-102439389D01*
X101937731Y-102436068D01*
X101937477Y-102432485D01*
X101930471Y-102414176D01*
X101882852Y-102318939D01*
X101877566Y-102310542D01*
X101876556Y-102308102D01*
X101874302Y-102305356D01*
X101872409Y-102302348D01*
X101870411Y-102300615D01*
X101864119Y-102292949D01*
X101816501Y-102245330D01*
X101808830Y-102239035D01*
X101807101Y-102237041D01*
X101804093Y-102235147D01*
X101801347Y-102232894D01*
X101798907Y-102231883D01*
X101790511Y-102226598D01*
X101695273Y-102178979D01*
X101676965Y-102171973D01*
X101673381Y-102171718D01*
X101670061Y-102170343D01*
X101650552Y-102168422D01*
X101507695Y-102168422D01*
X101488186Y-102170343D01*
X101484865Y-102171718D01*
X101481282Y-102171973D01*
X101462973Y-102178979D01*
X101367736Y-102226598D01*
X101359339Y-102231883D01*
X101356899Y-102232894D01*
X101354153Y-102235147D01*
X101351145Y-102237041D01*
X101349412Y-102239038D01*
X101341746Y-102245331D01*
X101294127Y-102292949D01*
X101287832Y-102300619D01*
X101285838Y-102302349D01*
X101283944Y-102305356D01*
X101281691Y-102308103D01*
X101280680Y-102310542D01*
X101275395Y-102318939D01*
X101227776Y-102414177D01*
X101220770Y-102432485D01*
X101220515Y-102436068D01*
X101219140Y-102439389D01*
X101217219Y-102458898D01*
X101106108Y-102458898D01*
X101106108Y-101248913D01*
X101219140Y-101248913D01*
X101219140Y-101287931D01*
X101234072Y-101323979D01*
X101261662Y-101351569D01*
X101297710Y-101366501D01*
X101317219Y-101368422D01*
X101693409Y-101368422D01*
X101693409Y-101739850D01*
X101317219Y-101739850D01*
X101297710Y-101741771D01*
X101261662Y-101756703D01*
X101234072Y-101784293D01*
X101219140Y-101820341D01*
X101219140Y-101859359D01*
X101234072Y-101895407D01*
X101261662Y-101922997D01*
X101297710Y-101937929D01*
X101317219Y-101939850D01*
X102317219Y-101939850D01*
X102336728Y-101937929D01*
X102372776Y-101922997D01*
X102400366Y-101895407D01*
X102415298Y-101859359D01*
X102415298Y-101820341D01*
X102400366Y-101784293D01*
X102372776Y-101756703D01*
X102336728Y-101741771D01*
X102317219Y-101739850D01*
X101893409Y-101739850D01*
X101893409Y-101368422D01*
X102317219Y-101368422D01*
X102336728Y-101366501D01*
X102372776Y-101351569D01*
X102400366Y-101323979D01*
X102415298Y-101287931D01*
X102415298Y-101248913D01*
X102400366Y-101212865D01*
X102372776Y-101185275D01*
X102336728Y-101170343D01*
X102317219Y-101168422D01*
X101317219Y-101168422D01*
X101297710Y-101170343D01*
X101261662Y-101185275D01*
X101234072Y-101212865D01*
X101219140Y-101248913D01*
X101106108Y-101248913D01*
X101106108Y-100589248D01*
X101218004Y-100589248D01*
X101218892Y-100601755D01*
X101218004Y-100614262D01*
X101220263Y-100621040D01*
X101220770Y-100628168D01*
X101226376Y-100639380D01*
X101230342Y-100651278D01*
X101235025Y-100656677D01*
X101238220Y-100663067D01*
X101247691Y-100671282D01*
X101255907Y-100680754D01*
X101262296Y-100683948D01*
X101267696Y-100688632D01*
X101285596Y-100696623D01*
X102285596Y-101029956D01*
X102304711Y-101034303D01*
X102343631Y-101031537D01*
X102378530Y-101014087D01*
X102404095Y-100984611D01*
X102416434Y-100947595D01*
X102413667Y-100908675D01*
X102396218Y-100873776D01*
X102366742Y-100848211D01*
X102348841Y-100840220D01*
X102131504Y-100767774D01*
X102131504Y-100435735D01*
X102348841Y-100363290D01*
X102366742Y-100355299D01*
X102396218Y-100329734D01*
X102413667Y-100294835D01*
X102416434Y-100255915D01*
X102404095Y-100218899D01*
X102378530Y-100189423D01*
X102343631Y-100171973D01*
X102304711Y-100169207D01*
X102285596Y-100173554D01*
X101285596Y-100506887D01*
X101267696Y-100514878D01*
X101262296Y-100519561D01*
X101255907Y-100522756D01*
X101247691Y-100532227D01*
X101238220Y-100540443D01*
X101235025Y-100546832D01*
X101230342Y-100552232D01*
X101226376Y-100564129D01*
X101220770Y-100575342D01*
X101220263Y-100582469D01*
X101218004Y-100589248D01*
X101106108Y-100589248D01*
X101106108Y-99554136D01*
X101217219Y-99554136D01*
X101217219Y-99792231D01*
X101219140Y-99811740D01*
X101220515Y-99815060D01*
X101220770Y-99818644D01*
X101227776Y-99836952D01*
X101275395Y-99932190D01*
X101280680Y-99940586D01*
X101281691Y-99943026D01*
X101283944Y-99945772D01*
X101285838Y-99948780D01*
X101287832Y-99950509D01*
X101294127Y-99958180D01*
X101341746Y-100005798D01*
X101349412Y-100012090D01*
X101351145Y-100014088D01*
X101354153Y-100015981D01*
X101356899Y-100018235D01*
X101359339Y-100019245D01*
X101367736Y-100024531D01*
X101462973Y-100072150D01*
X101481282Y-100079156D01*
X101484865Y-100079410D01*
X101488186Y-100080786D01*
X101507695Y-100082707D01*
X101602933Y-100082707D01*
X101622442Y-100080786D01*
X101625762Y-100079410D01*
X101629346Y-100079156D01*
X101647654Y-100072150D01*
X101742892Y-100024531D01*
X101751288Y-100019245D01*
X101753728Y-100018235D01*
X101756474Y-100015981D01*
X101759482Y-100014088D01*
X101761211Y-100012093D01*
X101768882Y-100005799D01*
X101816500Y-99958180D01*
X101822792Y-99950513D01*
X101824790Y-99948781D01*
X101826683Y-99945772D01*
X101828937Y-99943027D01*
X101829947Y-99940586D01*
X101835233Y-99932190D01*
X101882852Y-99836953D01*
X101883398Y-99835524D01*
X101883828Y-99834945D01*
X101886749Y-99826768D01*
X101889858Y-99818644D01*
X101889909Y-99817923D01*
X101890423Y-99816485D01*
X101935379Y-99636659D01*
X101970833Y-99565752D01*
X101995501Y-99541083D01*
X102055111Y-99511279D01*
X102103135Y-99511279D01*
X102162746Y-99541085D01*
X102187414Y-99565752D01*
X102217219Y-99625362D01*
X102217219Y-99823623D01*
X102174732Y-99951084D01*
X102170385Y-99970200D01*
X102173151Y-100009120D01*
X102190601Y-100044019D01*
X102220077Y-100069584D01*
X102257093Y-100081922D01*
X102296013Y-100079156D01*
X102330912Y-100061706D01*
X102356477Y-100032230D01*
X102364468Y-100014330D01*
X102412087Y-99871473D01*
X102414286Y-99861800D01*
X102415298Y-99859359D01*
X102415646Y-99855821D01*
X102416434Y-99852358D01*
X102416246Y-99849723D01*
X102417219Y-99839850D01*
X102417219Y-99601755D01*
X102415298Y-99582246D01*
X102413922Y-99578925D01*
X102413668Y-99575342D01*
X102406662Y-99557033D01*
X102359043Y-99461796D01*
X102353757Y-99453399D01*
X102352747Y-99450959D01*
X102350493Y-99448213D01*
X102348600Y-99445205D01*
X102346603Y-99443473D01*
X102340310Y-99435805D01*
X102292690Y-99388187D01*
X102285020Y-99381892D01*
X102283291Y-99379898D01*
X102280286Y-99378006D01*
X102277537Y-99375750D01*
X102275093Y-99374738D01*
X102266701Y-99369455D01*
X102171463Y-99321836D01*
X102153155Y-99314830D01*
X102149571Y-99314575D01*
X102146251Y-99313200D01*
X102126742Y-99311279D01*
X102031504Y-99311279D01*
X102011995Y-99313200D01*
X102008674Y-99314575D01*
X102005091Y-99314830D01*
X101986782Y-99321836D01*
X101891545Y-99369455D01*
X101883148Y-99374740D01*
X101880708Y-99375751D01*
X101877962Y-99378004D01*
X101874954Y-99379898D01*
X101873221Y-99381895D01*
X101865555Y-99388188D01*
X101817936Y-99435806D01*
X101811641Y-99443476D01*
X101809647Y-99445206D01*
X101807753Y-99448213D01*
X101805500Y-99450960D01*
X101804489Y-99453399D01*
X101799204Y-99461796D01*
X101751585Y-99557034D01*
X101751039Y-99558460D01*
X101750609Y-99559041D01*
X101747687Y-99567217D01*
X101744579Y-99575342D01*
X101744527Y-99576064D01*
X101744014Y-99577502D01*
X101699057Y-99757326D01*
X101663604Y-99828233D01*
X101638935Y-99852901D01*
X101579326Y-99882707D01*
X101531302Y-99882707D01*
X101471692Y-99852902D01*
X101447024Y-99828233D01*
X101417219Y-99768623D01*
X101417219Y-99570363D01*
X101459706Y-99442902D01*
X101464053Y-99423787D01*
X101461287Y-99384867D01*
X101443837Y-99349968D01*
X101414361Y-99324403D01*
X101377345Y-99312064D01*
X101338425Y-99314831D01*
X101303526Y-99332280D01*
X101277961Y-99361756D01*
X101269970Y-99379657D01*
X101222351Y-99522513D01*
X101220151Y-99532184D01*
X101219140Y-99534627D01*
X101218791Y-99538165D01*
X101218004Y-99541629D01*
X101218191Y-99544262D01*
X101217219Y-99554136D01*
X101106108Y-99554136D01*
X101106108Y-98506517D01*
X101217219Y-98506517D01*
X101217219Y-98982707D01*
X101219140Y-99002216D01*
X101234072Y-99038264D01*
X101261662Y-99065854D01*
X101297710Y-99080786D01*
X101317219Y-99082707D01*
X102317219Y-99082707D01*
X102336728Y-99080786D01*
X102372776Y-99065854D01*
X102400366Y-99038264D01*
X102415298Y-99002216D01*
X102417219Y-98982707D01*
X102417219Y-98506517D01*
X102415298Y-98487008D01*
X102400366Y-98450960D01*
X102372776Y-98423370D01*
X102336728Y-98408438D01*
X102297710Y-98408438D01*
X102261662Y-98423370D01*
X102234072Y-98450960D01*
X102219140Y-98487008D01*
X102217219Y-98506517D01*
X102217219Y-98882707D01*
X101893409Y-98882707D01*
X101893409Y-98649374D01*
X101891488Y-98629865D01*
X101876556Y-98593817D01*
X101848966Y-98566227D01*
X101812918Y-98551295D01*
X101773900Y-98551295D01*
X101737852Y-98566227D01*
X101710262Y-98593817D01*
X101695330Y-98629865D01*
X101693409Y-98649374D01*
X101693409Y-98882707D01*
X101417219Y-98882707D01*
X101417219Y-98506517D01*
X101415298Y-98487008D01*
X101400366Y-98450960D01*
X101372776Y-98423370D01*
X101336728Y-98408438D01*
X101297710Y-98408438D01*
X101261662Y-98423370D01*
X101234072Y-98450960D01*
X101219140Y-98487008D01*
X101217219Y-98506517D01*
X101106108Y-98506517D01*
X101106108Y-96935088D01*
X101217219Y-96935088D01*
X101217219Y-97173183D01*
X101219140Y-97192692D01*
X101220515Y-97196012D01*
X101220770Y-97199596D01*
X101227776Y-97217904D01*
X101275395Y-97313142D01*
X101280680Y-97321538D01*
X101281691Y-97323978D01*
X101283944Y-97326724D01*
X101285838Y-97329732D01*
X101287832Y-97331461D01*
X101294127Y-97339132D01*
X101341746Y-97386750D01*
X101349412Y-97393042D01*
X101351145Y-97395040D01*
X101354153Y-97396933D01*
X101356899Y-97399187D01*
X101359339Y-97400197D01*
X101367736Y-97405483D01*
X101462973Y-97453102D01*
X101481282Y-97460108D01*
X101484865Y-97460362D01*
X101488186Y-97461738D01*
X101507695Y-97463659D01*
X101602933Y-97463659D01*
X101622442Y-97461738D01*
X101625762Y-97460362D01*
X101629346Y-97460108D01*
X101647654Y-97453102D01*
X101742892Y-97405483D01*
X101751288Y-97400197D01*
X101753728Y-97399187D01*
X101756474Y-97396933D01*
X101759482Y-97395040D01*
X101761211Y-97393045D01*
X101768882Y-97386751D01*
X101816500Y-97339132D01*
X101822792Y-97331465D01*
X101824790Y-97329733D01*
X101826683Y-97326724D01*
X101828937Y-97323979D01*
X101829947Y-97321538D01*
X101835233Y-97313142D01*
X101882852Y-97217905D01*
X101883398Y-97216476D01*
X101883828Y-97215897D01*
X101886749Y-97207720D01*
X101889858Y-97199596D01*
X101889909Y-97198875D01*
X101890423Y-97197437D01*
X101935379Y-97017611D01*
X101970833Y-96946704D01*
X101995501Y-96922035D01*
X102055111Y-96892231D01*
X102103135Y-96892231D01*
X102162746Y-96922037D01*
X102187414Y-96946704D01*
X102217219Y-97006314D01*
X102217219Y-97204575D01*
X102174732Y-97332036D01*
X102170385Y-97351152D01*
X102173151Y-97390072D01*
X102190601Y-97424971D01*
X102220077Y-97450536D01*
X102257093Y-97462874D01*
X102296013Y-97460108D01*
X102330912Y-97442658D01*
X102356477Y-97413182D01*
X102364468Y-97395282D01*
X102412087Y-97252425D01*
X102414286Y-97242752D01*
X102415298Y-97240311D01*
X102415646Y-97236773D01*
X102416434Y-97233310D01*
X102416246Y-97230675D01*
X102417219Y-97220802D01*
X102417219Y-96982707D01*
X102415298Y-96963198D01*
X102413922Y-96959877D01*
X102413668Y-96956294D01*
X102406662Y-96937985D01*
X102359043Y-96842748D01*
X102353757Y-96834351D01*
X102352747Y-96831911D01*
X102350493Y-96829165D01*
X102348600Y-96826157D01*
X102346603Y-96824425D01*
X102340310Y-96816757D01*
X102292690Y-96769139D01*
X102285020Y-96762844D01*
X102283291Y-96760850D01*
X102280286Y-96758958D01*
X102277537Y-96756702D01*
X102275093Y-96755690D01*
X102266701Y-96750407D01*
X102171463Y-96702788D01*
X102153155Y-96695782D01*
X102149571Y-96695527D01*
X102146251Y-96694152D01*
X102126742Y-96692231D01*
X102031504Y-96692231D01*
X102011995Y-96694152D01*
X102008674Y-96695527D01*
X102005091Y-96695782D01*
X101986782Y-96702788D01*
X101891545Y-96750407D01*
X101883148Y-96755692D01*
X101880708Y-96756703D01*
X101877962Y-96758956D01*
X101874954Y-96760850D01*
X101873221Y-96762847D01*
X101865555Y-96769140D01*
X101817936Y-96816758D01*
X101811641Y-96824428D01*
X101809647Y-96826158D01*
X101807753Y-96829165D01*
X101805500Y-96831912D01*
X101804489Y-96834351D01*
X101799204Y-96842748D01*
X101751585Y-96937986D01*
X101751039Y-96939412D01*
X101750609Y-96939993D01*
X101747687Y-96948169D01*
X101744579Y-96956294D01*
X101744527Y-96957016D01*
X101744014Y-96958454D01*
X101699057Y-97138278D01*
X101663604Y-97209185D01*
X101638935Y-97233853D01*
X101579326Y-97263659D01*
X101531302Y-97263659D01*
X101471692Y-97233854D01*
X101447024Y-97209185D01*
X101417219Y-97149575D01*
X101417219Y-96951315D01*
X101459706Y-96823854D01*
X101464053Y-96804739D01*
X101461287Y-96765819D01*
X101443837Y-96730920D01*
X101414361Y-96705355D01*
X101377345Y-96693016D01*
X101338425Y-96695783D01*
X101303526Y-96713232D01*
X101277961Y-96742708D01*
X101269970Y-96760609D01*
X101222351Y-96903465D01*
X101220151Y-96913136D01*
X101219140Y-96915579D01*
X101218791Y-96919117D01*
X101218004Y-96922581D01*
X101218191Y-96925214D01*
X101217219Y-96935088D01*
X101106108Y-96935088D01*
X101106108Y-95935088D01*
X101217219Y-95935088D01*
X101217219Y-96506516D01*
X101219140Y-96526025D01*
X101234072Y-96562073D01*
X101261662Y-96589663D01*
X101297710Y-96604595D01*
X101336728Y-96604595D01*
X101372776Y-96589663D01*
X101400366Y-96562073D01*
X101415298Y-96526025D01*
X101417219Y-96506516D01*
X101417219Y-96320802D01*
X102317219Y-96320802D01*
X102336728Y-96318881D01*
X102372776Y-96303949D01*
X102400366Y-96276359D01*
X102415298Y-96240311D01*
X102415298Y-96201293D01*
X102400366Y-96165245D01*
X102372776Y-96137655D01*
X102336728Y-96122723D01*
X102317219Y-96120802D01*
X101417219Y-96120802D01*
X101417219Y-95935088D01*
X101415298Y-95915579D01*
X101400366Y-95879531D01*
X101372776Y-95851941D01*
X101336728Y-95837009D01*
X101297710Y-95837009D01*
X101261662Y-95851941D01*
X101234072Y-95879531D01*
X101219140Y-95915579D01*
X101217219Y-95935088D01*
X101106108Y-95935088D01*
X101106108Y-95125564D01*
X101217219Y-95125564D01*
X101217219Y-95601754D01*
X101219140Y-95621263D01*
X101234072Y-95657311D01*
X101261662Y-95684901D01*
X101297710Y-95699833D01*
X101317219Y-95701754D01*
X102317219Y-95701754D01*
X102336728Y-95699833D01*
X102372776Y-95684901D01*
X102400366Y-95657311D01*
X102415298Y-95621263D01*
X102417219Y-95601754D01*
X102417219Y-95125564D01*
X102415298Y-95106055D01*
X102400366Y-95070007D01*
X102372776Y-95042417D01*
X102336728Y-95027485D01*
X102297710Y-95027485D01*
X102261662Y-95042417D01*
X102234072Y-95070007D01*
X102219140Y-95106055D01*
X102217219Y-95125564D01*
X102217219Y-95501754D01*
X101893409Y-95501754D01*
X101893409Y-95268421D01*
X101891488Y-95248912D01*
X101876556Y-95212864D01*
X101848966Y-95185274D01*
X101812918Y-95170342D01*
X101773900Y-95170342D01*
X101737852Y-95185274D01*
X101710262Y-95212864D01*
X101695330Y-95248912D01*
X101693409Y-95268421D01*
X101693409Y-95501754D01*
X101417219Y-95501754D01*
X101417219Y-95125564D01*
X101415298Y-95106055D01*
X101400366Y-95070007D01*
X101372776Y-95042417D01*
X101336728Y-95027485D01*
X101297710Y-95027485D01*
X101261662Y-95042417D01*
X101234072Y-95070007D01*
X101219140Y-95106055D01*
X101217219Y-95125564D01*
X101106108Y-95125564D01*
X101106108Y-94316040D01*
X101217219Y-94316040D01*
X101217219Y-94696992D01*
X101219140Y-94716501D01*
X101234072Y-94752549D01*
X101261662Y-94780139D01*
X101297710Y-94795071D01*
X101317219Y-94796992D01*
X102317219Y-94796992D01*
X102336728Y-94795071D01*
X102372776Y-94780139D01*
X102400366Y-94752549D01*
X102415298Y-94716501D01*
X102415298Y-94677483D01*
X102400366Y-94641435D01*
X102372776Y-94613845D01*
X102336728Y-94598913D01*
X102317219Y-94596992D01*
X101941028Y-94596992D01*
X101941028Y-94316040D01*
X101939107Y-94296531D01*
X101937731Y-94293210D01*
X101937477Y-94289627D01*
X101930471Y-94271318D01*
X101882852Y-94176081D01*
X101877566Y-94167684D01*
X101876556Y-94165244D01*
X101874302Y-94162498D01*
X101872409Y-94159490D01*
X101870411Y-94157757D01*
X101864119Y-94150091D01*
X101816501Y-94102472D01*
X101808830Y-94096177D01*
X101807101Y-94094183D01*
X101804093Y-94092289D01*
X101801347Y-94090036D01*
X101798907Y-94089025D01*
X101790511Y-94083740D01*
X101695273Y-94036121D01*
X101676965Y-94029115D01*
X101673381Y-94028860D01*
X101670061Y-94027485D01*
X101650552Y-94025564D01*
X101507695Y-94025564D01*
X101488186Y-94027485D01*
X101484865Y-94028860D01*
X101481282Y-94029115D01*
X101462973Y-94036121D01*
X101367736Y-94083740D01*
X101359339Y-94089025D01*
X101356899Y-94090036D01*
X101354153Y-94092289D01*
X101351145Y-94094183D01*
X101349412Y-94096180D01*
X101341746Y-94102473D01*
X101294127Y-94150091D01*
X101287832Y-94157761D01*
X101285838Y-94159491D01*
X101283944Y-94162498D01*
X101281691Y-94165245D01*
X101280680Y-94167684D01*
X101275395Y-94176081D01*
X101227776Y-94271319D01*
X101220770Y-94289627D01*
X101220515Y-94293210D01*
X101219140Y-94296531D01*
X101217219Y-94316040D01*
X101106108Y-94316040D01*
X101106108Y-93316040D01*
X101217219Y-93316040D01*
X101217219Y-93696992D01*
X101219140Y-93716501D01*
X101234072Y-93752549D01*
X101261662Y-93780139D01*
X101297710Y-93795071D01*
X101317219Y-93796992D01*
X102317219Y-93796992D01*
X102336728Y-93795071D01*
X102372776Y-93780139D01*
X102400366Y-93752549D01*
X102415298Y-93716501D01*
X102415298Y-93677483D01*
X102400366Y-93641435D01*
X102372776Y-93613845D01*
X102336728Y-93598913D01*
X102317219Y-93596992D01*
X101941028Y-93596992D01*
X101941028Y-93316040D01*
X101939107Y-93296531D01*
X101937731Y-93293210D01*
X101937477Y-93289627D01*
X101930471Y-93271318D01*
X101882852Y-93176081D01*
X101877566Y-93167684D01*
X101876556Y-93165244D01*
X101874302Y-93162498D01*
X101872409Y-93159490D01*
X101870411Y-93157757D01*
X101864119Y-93150091D01*
X101816501Y-93102472D01*
X101808830Y-93096177D01*
X101807101Y-93094183D01*
X101804093Y-93092289D01*
X101801347Y-93090036D01*
X101798907Y-93089025D01*
X101790511Y-93083740D01*
X101695273Y-93036121D01*
X101676965Y-93029115D01*
X101673381Y-93028860D01*
X101670061Y-93027485D01*
X101650552Y-93025564D01*
X101507695Y-93025564D01*
X101488186Y-93027485D01*
X101484865Y-93028860D01*
X101481282Y-93029115D01*
X101462973Y-93036121D01*
X101367736Y-93083740D01*
X101359339Y-93089025D01*
X101356899Y-93090036D01*
X101354153Y-93092289D01*
X101351145Y-93094183D01*
X101349412Y-93096180D01*
X101341746Y-93102473D01*
X101294127Y-93150091D01*
X101287832Y-93157761D01*
X101285838Y-93159491D01*
X101283944Y-93162498D01*
X101281691Y-93165245D01*
X101280680Y-93167684D01*
X101275395Y-93176081D01*
X101227776Y-93271319D01*
X101220770Y-93289627D01*
X101220515Y-93293210D01*
X101219140Y-93296531D01*
X101217219Y-93316040D01*
X101106108Y-93316040D01*
X101106108Y-92220802D01*
X101217219Y-92220802D01*
X101217219Y-92696992D01*
X101219140Y-92716501D01*
X101234072Y-92752549D01*
X101261662Y-92780139D01*
X101297710Y-92795071D01*
X101317219Y-92796992D01*
X102317219Y-92796992D01*
X102336728Y-92795071D01*
X102372776Y-92780139D01*
X102400366Y-92752549D01*
X102415298Y-92716501D01*
X102417219Y-92696992D01*
X102417219Y-92220802D01*
X102415298Y-92201293D01*
X102400366Y-92165245D01*
X102372776Y-92137655D01*
X102336728Y-92122723D01*
X102297710Y-92122723D01*
X102261662Y-92137655D01*
X102234072Y-92165245D01*
X102219140Y-92201293D01*
X102217219Y-92220802D01*
X102217219Y-92596992D01*
X101893409Y-92596992D01*
X101893409Y-92363659D01*
X101891488Y-92344150D01*
X101876556Y-92308102D01*
X101848966Y-92280512D01*
X101812918Y-92265580D01*
X101773900Y-92265580D01*
X101737852Y-92280512D01*
X101710262Y-92308102D01*
X101695330Y-92344150D01*
X101693409Y-92363659D01*
X101693409Y-92596992D01*
X101417219Y-92596992D01*
X101417219Y-92220802D01*
X101415298Y-92201293D01*
X101400366Y-92165245D01*
X101372776Y-92137655D01*
X101336728Y-92122723D01*
X101297710Y-92122723D01*
X101261662Y-92137655D01*
X101234072Y-92165245D01*
X101219140Y-92201293D01*
X101217219Y-92220802D01*
X101106108Y-92220802D01*
X101106108Y-91411278D01*
X101217219Y-91411278D01*
X101217219Y-91792230D01*
X101219140Y-91811739D01*
X101234072Y-91847787D01*
X101261662Y-91875377D01*
X101297710Y-91890309D01*
X101317219Y-91892230D01*
X102317219Y-91892230D01*
X102336728Y-91890309D01*
X102372776Y-91875377D01*
X102400366Y-91847787D01*
X102415298Y-91811739D01*
X102415298Y-91772721D01*
X102400366Y-91736673D01*
X102372776Y-91709083D01*
X102336728Y-91694151D01*
X102317219Y-91692230D01*
X101941028Y-91692230D01*
X101941028Y-91606200D01*
X102374565Y-91302725D01*
X102389446Y-91289964D01*
X102410415Y-91257059D01*
X102417196Y-91218634D01*
X102408756Y-91180540D01*
X102386381Y-91148575D01*
X102353476Y-91127606D01*
X102315052Y-91120825D01*
X102276957Y-91129265D01*
X102259873Y-91138879D01*
X101931347Y-91368846D01*
X101930471Y-91366556D01*
X101882852Y-91271319D01*
X101877566Y-91262922D01*
X101876556Y-91260482D01*
X101874302Y-91257736D01*
X101872409Y-91254728D01*
X101870411Y-91252995D01*
X101864119Y-91245329D01*
X101816501Y-91197710D01*
X101808830Y-91191415D01*
X101807101Y-91189421D01*
X101804093Y-91187527D01*
X101801347Y-91185274D01*
X101798907Y-91184263D01*
X101790511Y-91178978D01*
X101695273Y-91131359D01*
X101676965Y-91124353D01*
X101673381Y-91124098D01*
X101670061Y-91122723D01*
X101650552Y-91120802D01*
X101507695Y-91120802D01*
X101488186Y-91122723D01*
X101484865Y-91124098D01*
X101481282Y-91124353D01*
X101462973Y-91131359D01*
X101367736Y-91178978D01*
X101359339Y-91184263D01*
X101356899Y-91185274D01*
X101354153Y-91187527D01*
X101351145Y-91189421D01*
X101349412Y-91191418D01*
X101341746Y-91197711D01*
X101294127Y-91245329D01*
X101287832Y-91252999D01*
X101285838Y-91254729D01*
X101283944Y-91257736D01*
X101281691Y-91260483D01*
X101280680Y-91262922D01*
X101275395Y-91271319D01*
X101227776Y-91366557D01*
X101220770Y-91384865D01*
X101220515Y-91388448D01*
X101219140Y-91391769D01*
X101217219Y-91411278D01*
X101106108Y-91411278D01*
X101106108Y-89792230D01*
X101217219Y-89792230D01*
X101217219Y-90030325D01*
X101219140Y-90049834D01*
X101234072Y-90085882D01*
X101261662Y-90113472D01*
X101297710Y-90128404D01*
X101317219Y-90130325D01*
X102317219Y-90130325D01*
X102336728Y-90128404D01*
X102372776Y-90113472D01*
X102400366Y-90085882D01*
X102415298Y-90049834D01*
X102417219Y-90030325D01*
X102417219Y-89792230D01*
X102416246Y-89782356D01*
X102416434Y-89779722D01*
X102415646Y-89776258D01*
X102415298Y-89772721D01*
X102414286Y-89770279D01*
X102412087Y-89760607D01*
X102364468Y-89617750D01*
X102356477Y-89599850D01*
X102354122Y-89597134D01*
X102352747Y-89593815D01*
X102340311Y-89578662D01*
X102245071Y-89483424D01*
X102237401Y-89477129D01*
X102235672Y-89475135D01*
X102232667Y-89473243D01*
X102229918Y-89470987D01*
X102227474Y-89469974D01*
X102219082Y-89464692D01*
X102123844Y-89417073D01*
X102122417Y-89416527D01*
X102121837Y-89416097D01*
X102113660Y-89413175D01*
X102105536Y-89410067D01*
X102104813Y-89410015D01*
X102103376Y-89409502D01*
X101912901Y-89361883D01*
X101909519Y-89361382D01*
X101908156Y-89360818D01*
X101900805Y-89360094D01*
X101893508Y-89359015D01*
X101892049Y-89359232D01*
X101888647Y-89358897D01*
X101745790Y-89358897D01*
X101742387Y-89359232D01*
X101740929Y-89359015D01*
X101733631Y-89360094D01*
X101726281Y-89360818D01*
X101724917Y-89361382D01*
X101721536Y-89361883D01*
X101531060Y-89409502D01*
X101529621Y-89410015D01*
X101528901Y-89410067D01*
X101520776Y-89413175D01*
X101512600Y-89416097D01*
X101512020Y-89416526D01*
X101510592Y-89417073D01*
X101415355Y-89464692D01*
X101406956Y-89469978D01*
X101404519Y-89470988D01*
X101401775Y-89473239D01*
X101398764Y-89475135D01*
X101397031Y-89477132D01*
X101389365Y-89483424D01*
X101294127Y-89578662D01*
X101281691Y-89593816D01*
X101280316Y-89597134D01*
X101277961Y-89599850D01*
X101269970Y-89617751D01*
X101222351Y-89760607D01*
X101220151Y-89770278D01*
X101219140Y-89772721D01*
X101218791Y-89776259D01*
X101218004Y-89779723D01*
X101218191Y-89782356D01*
X101217219Y-89792230D01*
X101106108Y-89792230D01*
X101106108Y-88649373D01*
X101217219Y-88649373D01*
X101217219Y-89030325D01*
X101219140Y-89049834D01*
X101234072Y-89085882D01*
X101261662Y-89113472D01*
X101297710Y-89128404D01*
X101317219Y-89130325D01*
X102317219Y-89130325D01*
X102336728Y-89128404D01*
X102372776Y-89113472D01*
X102400366Y-89085882D01*
X102415298Y-89049834D01*
X102415298Y-89010816D01*
X102400366Y-88974768D01*
X102372776Y-88947178D01*
X102336728Y-88932246D01*
X102317219Y-88930325D01*
X101941028Y-88930325D01*
X101941028Y-88844295D01*
X102374565Y-88540820D01*
X102389446Y-88528059D01*
X102410415Y-88495154D01*
X102417196Y-88456729D01*
X102408756Y-88418635D01*
X102386381Y-88386670D01*
X102353476Y-88365701D01*
X102315052Y-88358920D01*
X102276957Y-88367360D01*
X102259873Y-88376974D01*
X101931347Y-88606941D01*
X101930471Y-88604651D01*
X101882852Y-88509414D01*
X101877566Y-88501017D01*
X101876556Y-88498577D01*
X101874302Y-88495831D01*
X101872409Y-88492823D01*
X101870411Y-88491090D01*
X101864119Y-88483424D01*
X101816501Y-88435805D01*
X101808830Y-88429510D01*
X101807101Y-88427516D01*
X101804093Y-88425622D01*
X101801347Y-88423369D01*
X101798907Y-88422358D01*
X101790511Y-88417073D01*
X101695273Y-88369454D01*
X101676965Y-88362448D01*
X101673381Y-88362193D01*
X101670061Y-88360818D01*
X101650552Y-88358897D01*
X101507695Y-88358897D01*
X101488186Y-88360818D01*
X101484865Y-88362193D01*
X101481282Y-88362448D01*
X101462973Y-88369454D01*
X101367736Y-88417073D01*
X101359339Y-88422358D01*
X101356899Y-88423369D01*
X101354153Y-88425622D01*
X101351145Y-88427516D01*
X101349412Y-88429513D01*
X101341746Y-88435806D01*
X101294127Y-88483424D01*
X101287832Y-88491094D01*
X101285838Y-88492824D01*
X101283944Y-88495831D01*
X101281691Y-88498578D01*
X101280680Y-88501017D01*
X101275395Y-88509414D01*
X101227776Y-88604652D01*
X101220770Y-88622960D01*
X101220515Y-88626543D01*
X101219140Y-88629864D01*
X101217219Y-88649373D01*
X101106108Y-88649373D01*
X101106108Y-88010816D01*
X101219140Y-88010816D01*
X101219140Y-88049834D01*
X101234072Y-88085882D01*
X101261662Y-88113472D01*
X101297710Y-88128404D01*
X101317219Y-88130325D01*
X102317219Y-88130325D01*
X102336728Y-88128404D01*
X102372776Y-88113472D01*
X102400366Y-88085882D01*
X102415298Y-88049834D01*
X102415298Y-88010816D01*
X102400366Y-87974768D01*
X102372776Y-87947178D01*
X102336728Y-87932246D01*
X102317219Y-87930325D01*
X101317219Y-87930325D01*
X101297710Y-87932246D01*
X101261662Y-87947178D01*
X101234072Y-87974768D01*
X101219140Y-88010816D01*
X101106108Y-88010816D01*
X101106108Y-87017819D01*
X101218004Y-87017819D01*
X101220770Y-87056739D01*
X101238220Y-87091638D01*
X101267696Y-87117203D01*
X101285596Y-87125194D01*
X102000991Y-87363659D01*
X101285596Y-87602124D01*
X101267696Y-87610115D01*
X101238220Y-87635680D01*
X101220770Y-87670579D01*
X101218004Y-87709499D01*
X101230342Y-87746515D01*
X101255907Y-87775991D01*
X101290806Y-87793441D01*
X101329726Y-87796207D01*
X101348842Y-87791860D01*
X102348841Y-87458527D01*
X102366742Y-87450536D01*
X102372143Y-87445851D01*
X102378530Y-87442658D01*
X102386742Y-87433189D01*
X102396218Y-87424971D01*
X102399413Y-87418579D01*
X102404095Y-87413182D01*
X102408061Y-87401284D01*
X102413667Y-87390072D01*
X102414173Y-87382947D01*
X102416434Y-87376166D01*
X102415544Y-87363659D01*
X102416434Y-87351152D01*
X102414173Y-87344370D01*
X102413667Y-87337246D01*
X102408061Y-87326033D01*
X102404095Y-87314136D01*
X102399413Y-87308738D01*
X102396218Y-87302347D01*
X102386742Y-87294128D01*
X102378530Y-87284660D01*
X102372143Y-87281466D01*
X102366742Y-87276782D01*
X102348841Y-87268791D01*
X101348842Y-86935458D01*
X101329726Y-86931111D01*
X101290806Y-86933877D01*
X101255907Y-86951327D01*
X101230342Y-86980803D01*
X101218004Y-87017819D01*
X101106108Y-87017819D01*
X101106108Y-86220802D01*
X101217219Y-86220802D01*
X101217219Y-86696992D01*
X101219140Y-86716501D01*
X101234072Y-86752549D01*
X101261662Y-86780139D01*
X101297710Y-86795071D01*
X101317219Y-86796992D01*
X102317219Y-86796992D01*
X102336728Y-86795071D01*
X102372776Y-86780139D01*
X102400366Y-86752549D01*
X102415298Y-86716501D01*
X102417219Y-86696992D01*
X102417219Y-86220802D01*
X102415298Y-86201293D01*
X102400366Y-86165245D01*
X102372776Y-86137655D01*
X102336728Y-86122723D01*
X102297710Y-86122723D01*
X102261662Y-86137655D01*
X102234072Y-86165245D01*
X102219140Y-86201293D01*
X102217219Y-86220802D01*
X102217219Y-86596992D01*
X101893409Y-86596992D01*
X101893409Y-86363659D01*
X101891488Y-86344150D01*
X101876556Y-86308102D01*
X101848966Y-86280512D01*
X101812918Y-86265580D01*
X101773900Y-86265580D01*
X101737852Y-86280512D01*
X101710262Y-86308102D01*
X101695330Y-86344150D01*
X101693409Y-86363659D01*
X101693409Y-86596992D01*
X101417219Y-86596992D01*
X101417219Y-86220802D01*
X101415298Y-86201293D01*
X101400366Y-86165245D01*
X101372776Y-86137655D01*
X101336728Y-86122723D01*
X101297710Y-86122723D01*
X101261662Y-86137655D01*
X101234072Y-86165245D01*
X101219140Y-86201293D01*
X101217219Y-86220802D01*
X101106108Y-86220802D01*
X101106108Y-85411278D01*
X101217219Y-85411278D01*
X101217219Y-85792230D01*
X101219140Y-85811739D01*
X101234072Y-85847787D01*
X101261662Y-85875377D01*
X101297710Y-85890309D01*
X101317219Y-85892230D01*
X102317219Y-85892230D01*
X102336728Y-85890309D01*
X102372776Y-85875377D01*
X102400366Y-85847787D01*
X102415298Y-85811739D01*
X102415298Y-85772721D01*
X102400366Y-85736673D01*
X102372776Y-85709083D01*
X102336728Y-85694151D01*
X102317219Y-85692230D01*
X101941028Y-85692230D01*
X101941028Y-85606200D01*
X102374565Y-85302725D01*
X102389446Y-85289964D01*
X102410415Y-85257059D01*
X102417196Y-85218634D01*
X102408756Y-85180540D01*
X102386381Y-85148575D01*
X102353476Y-85127606D01*
X102315052Y-85120825D01*
X102276957Y-85129265D01*
X102259873Y-85138879D01*
X101931347Y-85368846D01*
X101930471Y-85366556D01*
X101882852Y-85271319D01*
X101877566Y-85262922D01*
X101876556Y-85260482D01*
X101874302Y-85257736D01*
X101872409Y-85254728D01*
X101870411Y-85252995D01*
X101864119Y-85245329D01*
X101816501Y-85197710D01*
X101808830Y-85191415D01*
X101807101Y-85189421D01*
X101804093Y-85187527D01*
X101801347Y-85185274D01*
X101798907Y-85184263D01*
X101790511Y-85178978D01*
X101695273Y-85131359D01*
X101676965Y-85124353D01*
X101673381Y-85124098D01*
X101670061Y-85122723D01*
X101650552Y-85120802D01*
X101507695Y-85120802D01*
X101488186Y-85122723D01*
X101484865Y-85124098D01*
X101481282Y-85124353D01*
X101462973Y-85131359D01*
X101367736Y-85178978D01*
X101359339Y-85184263D01*
X101356899Y-85185274D01*
X101354153Y-85187527D01*
X101351145Y-85189421D01*
X101349412Y-85191418D01*
X101341746Y-85197711D01*
X101294127Y-85245329D01*
X101287832Y-85252999D01*
X101285838Y-85254729D01*
X101283944Y-85257736D01*
X101281691Y-85260483D01*
X101280680Y-85262922D01*
X101275395Y-85271319D01*
X101227776Y-85366557D01*
X101220770Y-85384865D01*
X101220515Y-85388448D01*
X101219140Y-85391769D01*
X101217219Y-85411278D01*
X101106108Y-85411278D01*
X101106108Y-85009691D01*
X102528330Y-85009691D01*
X102528330Y-105334754D01*
G37*
G36*
X104338935Y-101236322D02*
G01*
X104363604Y-101260990D01*
X104393409Y-101320600D01*
X104393409Y-101530326D01*
X104117219Y-101530326D01*
X104117219Y-101320600D01*
X104147024Y-101260990D01*
X104171692Y-101236321D01*
X104231302Y-101206517D01*
X104279326Y-101206517D01*
X104338935Y-101236322D01*
G37*
G36*
X104862746Y-101188704D02*
G01*
X104887414Y-101213371D01*
X104917219Y-101272981D01*
X104917219Y-101530326D01*
X104593409Y-101530326D01*
X104593409Y-101313220D01*
X104628430Y-101208154D01*
X104647882Y-101188702D01*
X104707492Y-101158898D01*
X104803135Y-101158898D01*
X104862746Y-101188704D01*
G37*
G36*
X104338935Y-97474417D02*
G01*
X104363604Y-97499085D01*
X104393409Y-97558695D01*
X104393409Y-97768421D01*
X104117219Y-97768421D01*
X104117219Y-97558695D01*
X104147024Y-97499085D01*
X104171692Y-97474416D01*
X104231302Y-97444612D01*
X104279326Y-97444612D01*
X104338935Y-97474417D01*
G37*
G36*
X104862746Y-97426799D02*
G01*
X104887414Y-97451466D01*
X104917219Y-97511076D01*
X104917219Y-97768421D01*
X104593409Y-97768421D01*
X104593409Y-97551315D01*
X104628430Y-97446249D01*
X104647882Y-97426797D01*
X104707492Y-97396993D01*
X104803135Y-97396993D01*
X104862746Y-97426799D01*
G37*
G36*
X104631504Y-94777297D02*
G01*
X104333446Y-94677945D01*
X104631504Y-94578592D01*
X104631504Y-94777297D01*
G37*
G36*
X104631504Y-91158249D02*
G01*
X104333446Y-91058897D01*
X104631504Y-90959544D01*
X104631504Y-91158249D01*
G37*
G36*
X105228330Y-101841437D02*
G01*
X103806108Y-101841437D01*
X103806108Y-101296993D01*
X103917219Y-101296993D01*
X103917219Y-101630326D01*
X103919140Y-101649835D01*
X103934072Y-101685883D01*
X103961662Y-101713473D01*
X103997710Y-101728405D01*
X104017219Y-101730326D01*
X105017219Y-101730326D01*
X105036728Y-101728405D01*
X105072776Y-101713473D01*
X105100366Y-101685883D01*
X105115298Y-101649835D01*
X105117219Y-101630326D01*
X105117219Y-101249374D01*
X105115298Y-101229865D01*
X105113922Y-101226544D01*
X105113668Y-101222961D01*
X105106662Y-101204652D01*
X105059043Y-101109415D01*
X105053757Y-101101018D01*
X105052747Y-101098578D01*
X105050493Y-101095832D01*
X105048600Y-101092824D01*
X105046603Y-101091092D01*
X105040310Y-101083424D01*
X104992690Y-101035806D01*
X104985020Y-101029511D01*
X104983291Y-101027517D01*
X104980286Y-101025625D01*
X104977537Y-101023369D01*
X104975093Y-101022357D01*
X104966701Y-101017074D01*
X104871463Y-100969455D01*
X104853155Y-100962449D01*
X104849571Y-100962194D01*
X104846251Y-100960819D01*
X104826742Y-100958898D01*
X104683885Y-100958898D01*
X104664376Y-100960819D01*
X104661055Y-100962194D01*
X104657472Y-100962449D01*
X104639163Y-100969455D01*
X104543926Y-101017074D01*
X104535529Y-101022359D01*
X104533089Y-101023370D01*
X104530343Y-101025623D01*
X104527335Y-101027517D01*
X104525602Y-101029514D01*
X104517936Y-101035807D01*
X104470317Y-101083425D01*
X104469670Y-101084213D01*
X104468882Y-101083425D01*
X104461211Y-101077130D01*
X104459482Y-101075136D01*
X104456474Y-101073242D01*
X104453728Y-101070989D01*
X104451288Y-101069978D01*
X104442892Y-101064693D01*
X104347654Y-101017074D01*
X104329346Y-101010068D01*
X104325762Y-101009813D01*
X104322442Y-101008438D01*
X104302933Y-101006517D01*
X104207695Y-101006517D01*
X104188186Y-101008438D01*
X104184865Y-101009813D01*
X104181282Y-101010068D01*
X104162973Y-101017074D01*
X104067736Y-101064693D01*
X104059339Y-101069978D01*
X104056899Y-101070989D01*
X104054153Y-101073242D01*
X104051145Y-101075136D01*
X104049412Y-101077133D01*
X104041746Y-101083426D01*
X103994127Y-101131044D01*
X103987832Y-101138714D01*
X103985838Y-101140444D01*
X103983944Y-101143451D01*
X103981691Y-101146198D01*
X103980680Y-101148637D01*
X103975395Y-101157034D01*
X103927776Y-101252272D01*
X103920770Y-101270580D01*
X103920515Y-101274163D01*
X103919140Y-101277484D01*
X103917219Y-101296993D01*
X103806108Y-101296993D01*
X103806108Y-99868422D01*
X104536266Y-99868422D01*
X104536266Y-100630326D01*
X104538187Y-100649835D01*
X104553119Y-100685883D01*
X104580709Y-100713473D01*
X104616757Y-100728405D01*
X104655775Y-100728405D01*
X104691823Y-100713473D01*
X104719413Y-100685883D01*
X104734345Y-100649835D01*
X104736266Y-100630326D01*
X104736266Y-99868422D01*
X104734345Y-99848913D01*
X104719413Y-99812865D01*
X104691823Y-99785275D01*
X104655775Y-99770343D01*
X104616757Y-99770343D01*
X104580709Y-99785275D01*
X104553119Y-99812865D01*
X104538187Y-99848913D01*
X104536266Y-99868422D01*
X103806108Y-99868422D01*
X103806108Y-97535088D01*
X103917219Y-97535088D01*
X103917219Y-97868421D01*
X103919140Y-97887930D01*
X103934072Y-97923978D01*
X103961662Y-97951568D01*
X103997710Y-97966500D01*
X104017219Y-97968421D01*
X105017219Y-97968421D01*
X105036728Y-97966500D01*
X105072776Y-97951568D01*
X105100366Y-97923978D01*
X105115298Y-97887930D01*
X105117219Y-97868421D01*
X105117219Y-97487469D01*
X105115298Y-97467960D01*
X105113922Y-97464639D01*
X105113668Y-97461056D01*
X105106662Y-97442747D01*
X105059043Y-97347510D01*
X105053757Y-97339113D01*
X105052747Y-97336673D01*
X105050493Y-97333927D01*
X105048600Y-97330919D01*
X105046603Y-97329187D01*
X105040310Y-97321519D01*
X104992690Y-97273901D01*
X104985020Y-97267606D01*
X104983291Y-97265612D01*
X104980286Y-97263720D01*
X104977537Y-97261464D01*
X104975093Y-97260452D01*
X104966701Y-97255169D01*
X104871463Y-97207550D01*
X104853155Y-97200544D01*
X104849571Y-97200289D01*
X104846251Y-97198914D01*
X104826742Y-97196993D01*
X104683885Y-97196993D01*
X104664376Y-97198914D01*
X104661055Y-97200289D01*
X104657472Y-97200544D01*
X104639163Y-97207550D01*
X104543926Y-97255169D01*
X104535529Y-97260454D01*
X104533089Y-97261465D01*
X104530343Y-97263718D01*
X104527335Y-97265612D01*
X104525602Y-97267609D01*
X104517936Y-97273902D01*
X104470317Y-97321520D01*
X104469670Y-97322308D01*
X104468882Y-97321520D01*
X104461211Y-97315225D01*
X104459482Y-97313231D01*
X104456474Y-97311337D01*
X104453728Y-97309084D01*
X104451288Y-97308073D01*
X104442892Y-97302788D01*
X104347654Y-97255169D01*
X104329346Y-97248163D01*
X104325762Y-97247908D01*
X104322442Y-97246533D01*
X104302933Y-97244612D01*
X104207695Y-97244612D01*
X104188186Y-97246533D01*
X104184865Y-97247908D01*
X104181282Y-97248163D01*
X104162973Y-97255169D01*
X104067736Y-97302788D01*
X104059339Y-97308073D01*
X104056899Y-97309084D01*
X104054153Y-97311337D01*
X104051145Y-97313231D01*
X104049412Y-97315228D01*
X104041746Y-97321521D01*
X103994127Y-97369139D01*
X103987832Y-97376809D01*
X103985838Y-97378539D01*
X103983944Y-97381546D01*
X103981691Y-97384293D01*
X103980680Y-97386732D01*
X103975395Y-97395129D01*
X103927776Y-97490367D01*
X103920770Y-97508675D01*
X103920515Y-97512258D01*
X103919140Y-97515579D01*
X103917219Y-97535088D01*
X103806108Y-97535088D01*
X103806108Y-96467960D01*
X104157235Y-96467960D01*
X104157235Y-96506978D01*
X104172167Y-96543026D01*
X104199757Y-96570616D01*
X104235805Y-96585548D01*
X104255314Y-96587469D01*
X104536266Y-96587469D01*
X104536266Y-96868421D01*
X104538187Y-96887930D01*
X104553119Y-96923978D01*
X104580709Y-96951568D01*
X104616757Y-96966500D01*
X104655775Y-96966500D01*
X104691823Y-96951568D01*
X104719413Y-96923978D01*
X104734345Y-96887930D01*
X104736266Y-96868421D01*
X104736266Y-96587469D01*
X105017219Y-96587469D01*
X105036728Y-96585548D01*
X105072776Y-96570616D01*
X105100366Y-96543026D01*
X105115298Y-96506978D01*
X105115298Y-96467960D01*
X105100366Y-96431912D01*
X105072776Y-96404322D01*
X105036728Y-96389390D01*
X105017219Y-96387469D01*
X104736266Y-96387469D01*
X104736266Y-96106517D01*
X104734345Y-96087008D01*
X104719413Y-96050960D01*
X104691823Y-96023370D01*
X104655775Y-96008438D01*
X104616757Y-96008438D01*
X104580709Y-96023370D01*
X104553119Y-96050960D01*
X104538187Y-96087008D01*
X104536266Y-96106517D01*
X104536266Y-96387469D01*
X104255314Y-96387469D01*
X104235805Y-96389390D01*
X104199757Y-96404322D01*
X104172167Y-96431912D01*
X104157235Y-96467960D01*
X103806108Y-96467960D01*
X103806108Y-94665438D01*
X103918004Y-94665438D01*
X103918892Y-94677945D01*
X103918004Y-94690452D01*
X103920263Y-94697230D01*
X103920770Y-94704358D01*
X103926376Y-94715570D01*
X103930342Y-94727468D01*
X103935025Y-94732867D01*
X103938220Y-94739257D01*
X103947691Y-94747472D01*
X103955907Y-94756944D01*
X103962296Y-94760138D01*
X103967696Y-94764822D01*
X103985596Y-94772813D01*
X104985596Y-95106146D01*
X105004711Y-95110493D01*
X105043631Y-95107727D01*
X105078530Y-95090277D01*
X105104095Y-95060801D01*
X105116434Y-95023785D01*
X105113667Y-94984865D01*
X105096218Y-94949966D01*
X105066742Y-94924401D01*
X105048841Y-94916410D01*
X104831504Y-94843964D01*
X104831504Y-94511925D01*
X105048841Y-94439480D01*
X105066742Y-94431489D01*
X105096218Y-94405924D01*
X105113667Y-94371025D01*
X105116434Y-94332105D01*
X105104095Y-94295089D01*
X105078530Y-94265613D01*
X105043631Y-94248163D01*
X105004711Y-94245397D01*
X104985596Y-94249744D01*
X103985596Y-94583077D01*
X103967696Y-94591068D01*
X103962296Y-94595751D01*
X103955907Y-94598946D01*
X103947691Y-94608417D01*
X103938220Y-94616633D01*
X103935025Y-94623022D01*
X103930342Y-94628422D01*
X103926376Y-94640319D01*
X103920770Y-94651532D01*
X103920263Y-94658659D01*
X103918004Y-94665438D01*
X103806108Y-94665438D01*
X103806108Y-93249374D01*
X104536266Y-93249374D01*
X104536266Y-94011278D01*
X104538187Y-94030787D01*
X104553119Y-94066835D01*
X104580709Y-94094425D01*
X104616757Y-94109357D01*
X104655775Y-94109357D01*
X104691823Y-94094425D01*
X104719413Y-94066835D01*
X104734345Y-94030787D01*
X104736266Y-94011278D01*
X104736266Y-93249374D01*
X104734345Y-93229865D01*
X104719413Y-93193817D01*
X104691823Y-93166227D01*
X104655775Y-93151295D01*
X104616757Y-93151295D01*
X104580709Y-93166227D01*
X104553119Y-93193817D01*
X104538187Y-93229865D01*
X104536266Y-93249374D01*
X103806108Y-93249374D01*
X103806108Y-91046390D01*
X103918004Y-91046390D01*
X103918892Y-91058897D01*
X103918004Y-91071404D01*
X103920263Y-91078182D01*
X103920770Y-91085310D01*
X103926376Y-91096522D01*
X103930342Y-91108420D01*
X103935025Y-91113819D01*
X103938220Y-91120209D01*
X103947691Y-91128424D01*
X103955907Y-91137896D01*
X103962296Y-91141090D01*
X103967696Y-91145774D01*
X103985596Y-91153765D01*
X104985596Y-91487098D01*
X105004711Y-91491445D01*
X105043631Y-91488679D01*
X105078530Y-91471229D01*
X105104095Y-91441753D01*
X105116434Y-91404737D01*
X105113667Y-91365817D01*
X105096218Y-91330918D01*
X105066742Y-91305353D01*
X105048841Y-91297362D01*
X104831504Y-91224916D01*
X104831504Y-90892877D01*
X105048841Y-90820432D01*
X105066742Y-90812441D01*
X105096218Y-90786876D01*
X105113667Y-90751977D01*
X105116434Y-90713057D01*
X105104095Y-90676041D01*
X105078530Y-90646565D01*
X105043631Y-90629115D01*
X105004711Y-90626349D01*
X104985596Y-90630696D01*
X103985596Y-90964029D01*
X103967696Y-90972020D01*
X103962296Y-90976703D01*
X103955907Y-90979898D01*
X103947691Y-90989369D01*
X103938220Y-90997585D01*
X103935025Y-91003974D01*
X103930342Y-91009374D01*
X103926376Y-91021271D01*
X103920770Y-91032484D01*
X103920263Y-91039611D01*
X103918004Y-91046390D01*
X103806108Y-91046390D01*
X103806108Y-89991769D01*
X104157235Y-89991769D01*
X104157235Y-90030787D01*
X104172167Y-90066835D01*
X104199757Y-90094425D01*
X104235805Y-90109357D01*
X104255314Y-90111278D01*
X104536266Y-90111278D01*
X104536266Y-90392230D01*
X104538187Y-90411739D01*
X104553119Y-90447787D01*
X104580709Y-90475377D01*
X104616757Y-90490309D01*
X104655775Y-90490309D01*
X104691823Y-90475377D01*
X104719413Y-90447787D01*
X104734345Y-90411739D01*
X104736266Y-90392230D01*
X104736266Y-90111278D01*
X105017219Y-90111278D01*
X105036728Y-90109357D01*
X105072776Y-90094425D01*
X105100366Y-90066835D01*
X105115298Y-90030787D01*
X105115298Y-89991769D01*
X105100366Y-89955721D01*
X105072776Y-89928131D01*
X105036728Y-89913199D01*
X105017219Y-89911278D01*
X104736266Y-89911278D01*
X104736266Y-89630326D01*
X104734345Y-89610817D01*
X104719413Y-89574769D01*
X104691823Y-89547179D01*
X104655775Y-89532247D01*
X104616757Y-89532247D01*
X104580709Y-89547179D01*
X104553119Y-89574769D01*
X104538187Y-89610817D01*
X104536266Y-89630326D01*
X104536266Y-89911278D01*
X104255314Y-89911278D01*
X104235805Y-89913199D01*
X104199757Y-89928131D01*
X104172167Y-89955721D01*
X104157235Y-89991769D01*
X103806108Y-89991769D01*
X103806108Y-89421136D01*
X105228330Y-89421136D01*
X105228330Y-101841437D01*
G37*
G36*
X133041389Y-71327976D02*
G01*
X133066058Y-71352644D01*
X133095863Y-71412254D01*
X133095863Y-71603135D01*
X133066058Y-71662743D01*
X133041389Y-71687413D01*
X132981780Y-71717219D01*
X132838518Y-71717219D01*
X132778908Y-71687414D01*
X132754241Y-71662746D01*
X132724435Y-71603134D01*
X132724435Y-71412254D01*
X132754240Y-71352644D01*
X132778908Y-71327975D01*
X132838518Y-71298171D01*
X132981780Y-71298171D01*
X133041389Y-71327976D01*
G37*
G36*
X136184246Y-71375595D02*
G01*
X136208915Y-71400263D01*
X136238720Y-71459873D01*
X136238720Y-71603135D01*
X136208915Y-71662743D01*
X136184246Y-71687413D01*
X136124637Y-71717219D01*
X135981375Y-71717219D01*
X135921765Y-71687414D01*
X135897098Y-71662746D01*
X135867292Y-71603134D01*
X135867292Y-71459873D01*
X135897097Y-71400263D01*
X135921765Y-71375594D01*
X135981375Y-71345790D01*
X136124637Y-71345790D01*
X136184246Y-71375595D01*
G37*
G36*
X136184246Y-70947024D02*
G01*
X136208915Y-70971692D01*
X136238720Y-71031302D01*
X136238720Y-71031707D01*
X136208915Y-71091316D01*
X136184246Y-71115984D01*
X136124637Y-71145790D01*
X135981375Y-71145790D01*
X135921765Y-71115985D01*
X135897097Y-71091316D01*
X135867292Y-71031706D01*
X135867292Y-71031302D01*
X135897097Y-70971692D01*
X135921765Y-70947023D01*
X135981375Y-70917219D01*
X136124637Y-70917219D01*
X136184246Y-70947024D01*
G37*
G36*
X137501427Y-72028330D02*
G01*
X131415245Y-72028330D01*
X131415245Y-70797710D01*
X131526356Y-70797710D01*
X131526356Y-70836728D01*
X131541288Y-70872776D01*
X131568878Y-70900366D01*
X131604926Y-70915298D01*
X131624435Y-70917219D01*
X132023105Y-70917219D01*
X131834891Y-71132321D01*
X131828861Y-71140754D01*
X131827002Y-71142614D01*
X131826271Y-71144377D01*
X131823490Y-71148268D01*
X131818285Y-71163656D01*
X131812070Y-71178662D01*
X131812070Y-71182035D01*
X131810990Y-71185229D01*
X131812070Y-71201431D01*
X131812070Y-71217680D01*
X131813360Y-71220795D01*
X131813585Y-71224161D01*
X131820785Y-71238721D01*
X131827002Y-71253728D01*
X131829386Y-71256112D01*
X131830882Y-71259136D01*
X131843107Y-71269833D01*
X131854592Y-71281318D01*
X131857706Y-71282608D01*
X131860246Y-71284830D01*
X131875634Y-71290034D01*
X131890640Y-71296250D01*
X131895399Y-71296718D01*
X131897207Y-71297330D01*
X131899831Y-71297155D01*
X131910149Y-71298171D01*
X132029399Y-71298171D01*
X132089008Y-71327976D01*
X132113677Y-71352644D01*
X132143482Y-71412254D01*
X132143482Y-71603135D01*
X132113677Y-71662743D01*
X132089008Y-71687413D01*
X132029399Y-71717219D01*
X131790899Y-71717219D01*
X131731289Y-71687414D01*
X131695146Y-71651270D01*
X131679993Y-71638833D01*
X131643945Y-71623902D01*
X131604927Y-71623901D01*
X131568878Y-71638832D01*
X131541288Y-71666422D01*
X131526357Y-71702470D01*
X131526356Y-71741488D01*
X131541287Y-71777537D01*
X131553724Y-71792690D01*
X131601342Y-71840310D01*
X131609010Y-71846603D01*
X131610742Y-71848600D01*
X131613750Y-71850493D01*
X131616496Y-71852747D01*
X131618936Y-71853757D01*
X131627333Y-71859043D01*
X131722570Y-71906662D01*
X131740879Y-71913668D01*
X131744462Y-71913922D01*
X131747783Y-71915298D01*
X131767292Y-71917219D01*
X132053006Y-71917219D01*
X132072515Y-71915298D01*
X132075835Y-71913922D01*
X132079419Y-71913668D01*
X132097727Y-71906662D01*
X132192965Y-71859043D01*
X132201360Y-71853758D01*
X132203802Y-71852747D01*
X132206549Y-71850491D01*
X132209555Y-71848600D01*
X132211285Y-71846605D01*
X132218955Y-71840310D01*
X132266574Y-71792690D01*
X132272866Y-71785023D01*
X132274863Y-71783292D01*
X132276756Y-71780284D01*
X132279011Y-71777537D01*
X132280022Y-71775095D01*
X132285306Y-71766701D01*
X132332925Y-71671464D01*
X132339931Y-71653155D01*
X132340185Y-71649571D01*
X132341561Y-71646251D01*
X132343482Y-71626742D01*
X132343482Y-71388647D01*
X132341561Y-71369138D01*
X132340185Y-71365817D01*
X132339931Y-71362234D01*
X132332925Y-71343925D01*
X132285306Y-71248688D01*
X132283482Y-71245790D01*
X132524435Y-71245790D01*
X132524435Y-71626742D01*
X132526356Y-71646251D01*
X132527731Y-71649571D01*
X132527986Y-71653155D01*
X132534992Y-71671463D01*
X132582611Y-71766701D01*
X132587894Y-71775093D01*
X132588906Y-71777537D01*
X132591162Y-71780286D01*
X132593054Y-71783291D01*
X132595048Y-71785020D01*
X132601343Y-71792690D01*
X132648961Y-71840310D01*
X132656629Y-71846603D01*
X132658361Y-71848600D01*
X132661369Y-71850493D01*
X132664115Y-71852747D01*
X132666555Y-71853757D01*
X132674952Y-71859043D01*
X132770189Y-71906662D01*
X132788498Y-71913668D01*
X132792081Y-71913922D01*
X132795402Y-71915298D01*
X132814911Y-71917219D01*
X133005387Y-71917219D01*
X133024896Y-71915298D01*
X133028216Y-71913922D01*
X133031800Y-71913668D01*
X133050108Y-71906662D01*
X133145346Y-71859043D01*
X133153741Y-71853758D01*
X133156183Y-71852747D01*
X133158930Y-71850491D01*
X133161936Y-71848600D01*
X133163666Y-71846605D01*
X133171336Y-71840310D01*
X133218955Y-71792690D01*
X133225247Y-71785023D01*
X133227244Y-71783292D01*
X133229137Y-71780284D01*
X133231392Y-71777537D01*
X133232403Y-71775095D01*
X133237687Y-71766701D01*
X133285306Y-71671464D01*
X133292312Y-71653155D01*
X133292566Y-71649571D01*
X133293942Y-71646251D01*
X133295863Y-71626742D01*
X133295863Y-71416757D01*
X133526356Y-71416757D01*
X133526356Y-71455775D01*
X133541288Y-71491823D01*
X133568878Y-71519413D01*
X133604926Y-71534345D01*
X133624435Y-71536266D01*
X134386340Y-71536266D01*
X134405849Y-71534345D01*
X134441897Y-71519413D01*
X134469487Y-71491823D01*
X134477956Y-71471378D01*
X134715696Y-71471378D01*
X134716832Y-71487362D01*
X134716832Y-71503394D01*
X134718207Y-71506714D01*
X134718462Y-71510298D01*
X134725629Y-71524633D01*
X134731764Y-71539442D01*
X134734304Y-71541982D01*
X134735912Y-71545197D01*
X134748023Y-71555701D01*
X134759354Y-71567032D01*
X134762672Y-71568406D01*
X134765388Y-71570762D01*
X134780597Y-71575831D01*
X134795402Y-71581964D01*
X134800502Y-71582466D01*
X134802404Y-71583100D01*
X134805037Y-71582912D01*
X134814911Y-71583885D01*
X135191101Y-71583885D01*
X135191101Y-71817219D01*
X135193022Y-71836728D01*
X135207954Y-71872776D01*
X135235544Y-71900366D01*
X135271592Y-71915298D01*
X135310610Y-71915298D01*
X135346658Y-71900366D01*
X135374248Y-71872776D01*
X135389180Y-71836728D01*
X135391101Y-71817219D01*
X135391101Y-71583885D01*
X135433958Y-71583885D01*
X135453467Y-71581964D01*
X135489515Y-71567032D01*
X135517105Y-71539442D01*
X135532037Y-71503394D01*
X135532037Y-71464376D01*
X135517105Y-71428328D01*
X135489515Y-71400738D01*
X135453467Y-71385806D01*
X135433958Y-71383885D01*
X135391101Y-71383885D01*
X135391101Y-71150552D01*
X135389180Y-71131043D01*
X135374248Y-71094995D01*
X135346658Y-71067405D01*
X135310610Y-71052473D01*
X135271592Y-71052473D01*
X135235544Y-71067405D01*
X135207954Y-71094995D01*
X135193022Y-71131043D01*
X135191101Y-71150552D01*
X135191101Y-71383885D01*
X134953653Y-71383885D01*
X135079050Y-71007695D01*
X135667292Y-71007695D01*
X135667292Y-71055314D01*
X135669213Y-71074823D01*
X135670588Y-71078143D01*
X135670843Y-71081727D01*
X135677849Y-71100035D01*
X135725468Y-71195273D01*
X135730753Y-71203669D01*
X135731764Y-71206109D01*
X135734017Y-71208855D01*
X135735911Y-71211863D01*
X135737905Y-71213592D01*
X135744200Y-71221263D01*
X135768727Y-71245790D01*
X135744200Y-71270317D01*
X135737905Y-71277987D01*
X135735911Y-71279717D01*
X135734017Y-71282724D01*
X135731764Y-71285471D01*
X135730753Y-71287910D01*
X135725468Y-71296307D01*
X135677849Y-71391545D01*
X135670843Y-71409853D01*
X135670588Y-71413436D01*
X135669213Y-71416757D01*
X135667292Y-71436266D01*
X135667292Y-71626742D01*
X135669213Y-71646251D01*
X135670588Y-71649571D01*
X135670843Y-71653155D01*
X135677849Y-71671463D01*
X135725468Y-71766701D01*
X135730751Y-71775093D01*
X135731763Y-71777537D01*
X135734019Y-71780286D01*
X135735911Y-71783291D01*
X135737905Y-71785020D01*
X135744200Y-71792690D01*
X135791818Y-71840310D01*
X135799486Y-71846603D01*
X135801218Y-71848600D01*
X135804226Y-71850493D01*
X135806972Y-71852747D01*
X135809412Y-71853757D01*
X135817809Y-71859043D01*
X135913046Y-71906662D01*
X135931355Y-71913668D01*
X135934938Y-71913922D01*
X135938259Y-71915298D01*
X135957768Y-71917219D01*
X136148244Y-71917219D01*
X136167753Y-71915298D01*
X136171073Y-71913922D01*
X136174657Y-71913668D01*
X136192965Y-71906662D01*
X136288203Y-71859043D01*
X136296598Y-71853758D01*
X136299040Y-71852747D01*
X136301787Y-71850491D01*
X136304793Y-71848600D01*
X136306523Y-71846605D01*
X136314193Y-71840310D01*
X136361812Y-71792690D01*
X136368104Y-71785023D01*
X136370101Y-71783292D01*
X136371994Y-71780284D01*
X136374249Y-71777537D01*
X136375260Y-71775095D01*
X136380544Y-71766701D01*
X136428163Y-71671464D01*
X136435169Y-71653155D01*
X136435423Y-71649571D01*
X136436799Y-71646251D01*
X136438720Y-71626742D01*
X136438720Y-71436266D01*
X136436799Y-71416757D01*
X136435423Y-71413436D01*
X136435169Y-71409853D01*
X136428163Y-71391544D01*
X136380544Y-71296307D01*
X136375258Y-71287910D01*
X136374248Y-71285470D01*
X136371994Y-71282724D01*
X136370101Y-71279716D01*
X136368103Y-71277983D01*
X136361811Y-71270317D01*
X136337284Y-71245790D01*
X136361811Y-71221263D01*
X136368103Y-71213596D01*
X136370101Y-71211864D01*
X136371994Y-71208855D01*
X136374248Y-71206110D01*
X136375258Y-71203669D01*
X136380544Y-71195273D01*
X136428163Y-71100036D01*
X136435169Y-71081727D01*
X136435423Y-71078143D01*
X136436799Y-71074823D01*
X136438720Y-71055314D01*
X136438720Y-71007695D01*
X136436799Y-70988186D01*
X136435423Y-70984865D01*
X136435169Y-70981282D01*
X136428163Y-70962973D01*
X136380544Y-70867736D01*
X136375258Y-70859339D01*
X136374248Y-70856899D01*
X136371994Y-70854153D01*
X136370101Y-70851145D01*
X136368103Y-70849412D01*
X136361811Y-70841746D01*
X136349791Y-70829726D01*
X136525220Y-70829726D01*
X136529567Y-70848842D01*
X136862900Y-71848841D01*
X136870891Y-71866742D01*
X136875574Y-71872141D01*
X136878769Y-71878531D01*
X136888240Y-71886746D01*
X136896456Y-71896218D01*
X136902844Y-71899412D01*
X136908245Y-71904096D01*
X136920146Y-71908063D01*
X136931355Y-71913667D01*
X136938479Y-71914173D01*
X136945261Y-71916434D01*
X136957770Y-71915544D01*
X136970275Y-71916434D01*
X136977053Y-71914174D01*
X136984181Y-71913668D01*
X136995397Y-71908059D01*
X137007291Y-71904095D01*
X137012688Y-71899414D01*
X137019080Y-71896218D01*
X137027298Y-71886742D01*
X137036767Y-71878530D01*
X137039960Y-71872143D01*
X137044645Y-71866742D01*
X137052636Y-71848842D01*
X137385969Y-70848842D01*
X137390316Y-70829727D01*
X137387550Y-70790807D01*
X137370100Y-70755908D01*
X137340624Y-70730343D01*
X137303608Y-70718004D01*
X137264688Y-70720771D01*
X137229789Y-70738220D01*
X137204224Y-70767696D01*
X137196233Y-70785597D01*
X136957768Y-71500991D01*
X136719303Y-70785596D01*
X136711312Y-70767696D01*
X136685747Y-70738220D01*
X136650848Y-70720770D01*
X136611928Y-70718004D01*
X136574912Y-70730342D01*
X136545436Y-70755907D01*
X136527986Y-70790806D01*
X136525220Y-70829726D01*
X136349791Y-70829726D01*
X136314193Y-70794127D01*
X136306522Y-70787832D01*
X136304793Y-70785838D01*
X136301785Y-70783944D01*
X136299039Y-70781691D01*
X136296599Y-70780680D01*
X136288203Y-70775395D01*
X136192965Y-70727776D01*
X136174657Y-70720770D01*
X136171073Y-70720515D01*
X136167753Y-70719140D01*
X136148244Y-70717219D01*
X135957768Y-70717219D01*
X135938259Y-70719140D01*
X135934938Y-70720515D01*
X135931355Y-70720770D01*
X135913046Y-70727776D01*
X135817809Y-70775395D01*
X135809412Y-70780680D01*
X135806972Y-70781691D01*
X135804226Y-70783944D01*
X135801218Y-70785838D01*
X135799485Y-70787835D01*
X135791819Y-70794128D01*
X135744200Y-70841746D01*
X135737905Y-70849416D01*
X135735911Y-70851146D01*
X135734017Y-70854153D01*
X135731764Y-70856900D01*
X135730753Y-70859339D01*
X135725468Y-70867736D01*
X135677849Y-70962974D01*
X135670843Y-70981282D01*
X135670588Y-70984865D01*
X135669213Y-70988186D01*
X135667292Y-71007695D01*
X135079050Y-71007695D01*
X135147874Y-70801223D01*
X135152221Y-70782108D01*
X135149455Y-70743188D01*
X135132005Y-70708289D01*
X135102529Y-70682724D01*
X135065513Y-70670385D01*
X135026593Y-70673152D01*
X134991694Y-70690601D01*
X134966129Y-70720077D01*
X134958138Y-70737978D01*
X134720043Y-71452262D01*
X134717843Y-71461933D01*
X134716832Y-71464376D01*
X134716832Y-71466382D01*
X134715696Y-71471378D01*
X134477956Y-71471378D01*
X134484419Y-71455775D01*
X134484419Y-71416757D01*
X134469487Y-71380709D01*
X134441897Y-71353119D01*
X134405849Y-71338187D01*
X134386340Y-71336266D01*
X133624435Y-71336266D01*
X133604926Y-71338187D01*
X133568878Y-71353119D01*
X133541288Y-71380709D01*
X133526356Y-71416757D01*
X133295863Y-71416757D01*
X133295863Y-71388647D01*
X133293942Y-71369138D01*
X133292566Y-71365817D01*
X133292312Y-71362234D01*
X133285306Y-71343925D01*
X133237687Y-71248688D01*
X133232401Y-71240291D01*
X133231391Y-71237851D01*
X133229137Y-71235105D01*
X133227244Y-71232097D01*
X133225246Y-71230364D01*
X133218954Y-71222698D01*
X133171336Y-71175079D01*
X133163665Y-71168784D01*
X133161936Y-71166790D01*
X133158928Y-71164896D01*
X133156182Y-71162643D01*
X133153742Y-71161632D01*
X133145346Y-71156347D01*
X133050108Y-71108728D01*
X133031800Y-71101722D01*
X133028216Y-71101467D01*
X133024896Y-71100092D01*
X133005387Y-71098171D01*
X132814911Y-71098171D01*
X132795402Y-71100092D01*
X132792081Y-71101467D01*
X132788498Y-71101722D01*
X132770189Y-71108728D01*
X132760576Y-71113534D01*
X132764867Y-71096372D01*
X132845003Y-70976167D01*
X132874146Y-70947023D01*
X132933756Y-70917219D01*
X133100625Y-70917219D01*
X133120134Y-70915298D01*
X133156182Y-70900366D01*
X133183772Y-70872776D01*
X133198704Y-70836728D01*
X133198704Y-70797710D01*
X133183772Y-70761662D01*
X133156182Y-70734072D01*
X133120134Y-70719140D01*
X133100625Y-70717219D01*
X132910149Y-70717219D01*
X132890640Y-70719140D01*
X132887319Y-70720515D01*
X132883736Y-70720770D01*
X132865427Y-70727776D01*
X132770190Y-70775395D01*
X132761793Y-70780680D01*
X132759353Y-70781691D01*
X132756607Y-70783944D01*
X132753599Y-70785838D01*
X132751866Y-70787835D01*
X132744200Y-70794128D01*
X132696581Y-70841746D01*
X132696536Y-70841800D01*
X132696507Y-70841820D01*
X132690325Y-70849368D01*
X132684145Y-70856900D01*
X132684131Y-70856932D01*
X132684087Y-70856987D01*
X132588849Y-70999844D01*
X132583106Y-71010613D01*
X132581635Y-71012600D01*
X132580797Y-71014945D01*
X132579626Y-71017142D01*
X132579146Y-71019565D01*
X132575040Y-71031061D01*
X132527421Y-71221536D01*
X132526920Y-71224917D01*
X132526356Y-71226281D01*
X132525632Y-71233631D01*
X132524553Y-71240929D01*
X132524770Y-71242387D01*
X132524435Y-71245790D01*
X132283482Y-71245790D01*
X132280020Y-71240291D01*
X132279010Y-71237851D01*
X132276756Y-71235105D01*
X132274863Y-71232097D01*
X132272865Y-71230364D01*
X132266573Y-71222698D01*
X132218955Y-71175079D01*
X132211284Y-71168784D01*
X132209555Y-71166790D01*
X132206547Y-71164896D01*
X132203801Y-71162643D01*
X132201361Y-71161632D01*
X132192965Y-71156347D01*
X132114117Y-71116923D01*
X132318740Y-70883069D01*
X132324769Y-70874635D01*
X132326629Y-70872776D01*
X132327359Y-70871012D01*
X132330141Y-70867122D01*
X132335345Y-70851733D01*
X132341561Y-70836728D01*
X132341561Y-70833354D01*
X132342641Y-70830161D01*
X132341561Y-70813958D01*
X132341561Y-70797710D01*
X132340270Y-70794594D01*
X132340046Y-70791229D01*
X132332843Y-70776663D01*
X132326629Y-70761662D01*
X132324245Y-70759278D01*
X132322750Y-70756254D01*
X132310516Y-70745549D01*
X132299039Y-70734072D01*
X132295925Y-70732782D01*
X132293386Y-70730560D01*
X132277994Y-70725354D01*
X132262991Y-70719140D01*
X132258231Y-70718671D01*
X132256424Y-70718060D01*
X132253799Y-70718234D01*
X132243482Y-70717219D01*
X131624435Y-70717219D01*
X131604926Y-70719140D01*
X131568878Y-70734072D01*
X131541288Y-70761662D01*
X131526356Y-70797710D01*
X131415245Y-70797710D01*
X131415245Y-70559274D01*
X137501427Y-70559274D01*
X137501427Y-72028330D01*
G37*
D11*
X124617080Y-110216666D02*
X124664700Y-110264285D01*
X124664700Y-110264285D02*
X124712319Y-110407142D01*
X124712319Y-110407142D02*
X124712319Y-110502380D01*
X124712319Y-110502380D02*
X124664700Y-110645237D01*
X124664700Y-110645237D02*
X124569461Y-110740475D01*
X124569461Y-110740475D02*
X124474223Y-110788094D01*
X124474223Y-110788094D02*
X124283747Y-110835713D01*
X124283747Y-110835713D02*
X124140890Y-110835713D01*
X124140890Y-110835713D02*
X123950414Y-110788094D01*
X123950414Y-110788094D02*
X123855176Y-110740475D01*
X123855176Y-110740475D02*
X123759938Y-110645237D01*
X123759938Y-110645237D02*
X123712319Y-110502380D01*
X123712319Y-110502380D02*
X123712319Y-110407142D01*
X123712319Y-110407142D02*
X123759938Y-110264285D01*
X123759938Y-110264285D02*
X123807557Y-110216666D01*
X123712319Y-109311904D02*
X123712319Y-109788094D01*
X123712319Y-109788094D02*
X124188509Y-109835713D01*
X124188509Y-109835713D02*
X124140890Y-109788094D01*
X124140890Y-109788094D02*
X124093271Y-109692856D01*
X124093271Y-109692856D02*
X124093271Y-109454761D01*
X124093271Y-109454761D02*
X124140890Y-109359523D01*
X124140890Y-109359523D02*
X124188509Y-109311904D01*
X124188509Y-109311904D02*
X124283747Y-109264285D01*
X124283747Y-109264285D02*
X124521842Y-109264285D01*
X124521842Y-109264285D02*
X124617080Y-109311904D01*
X124617080Y-109311904D02*
X124664700Y-109359523D01*
X124664700Y-109359523D02*
X124712319Y-109454761D01*
X124712319Y-109454761D02*
X124712319Y-109692856D01*
X124712319Y-109692856D02*
X124664700Y-109788094D01*
X124664700Y-109788094D02*
X124617080Y-109835713D01*
X136254819Y-77583333D02*
X136969104Y-77583333D01*
X136969104Y-77583333D02*
X137111961Y-77630952D01*
X137111961Y-77630952D02*
X137207200Y-77726190D01*
X137207200Y-77726190D02*
X137254819Y-77869047D01*
X137254819Y-77869047D02*
X137254819Y-77964285D01*
X136350057Y-77154761D02*
X136302438Y-77107142D01*
X136302438Y-77107142D02*
X136254819Y-77011904D01*
X136254819Y-77011904D02*
X136254819Y-76773809D01*
X136254819Y-76773809D02*
X136302438Y-76678571D01*
X136302438Y-76678571D02*
X136350057Y-76630952D01*
X136350057Y-76630952D02*
X136445295Y-76583333D01*
X136445295Y-76583333D02*
X136540533Y-76583333D01*
X136540533Y-76583333D02*
X136683390Y-76630952D01*
X136683390Y-76630952D02*
X137254819Y-77202380D01*
X137254819Y-77202380D02*
X137254819Y-76583333D01*
X105404819Y-104333333D02*
X106119104Y-104333333D01*
X106119104Y-104333333D02*
X106261961Y-104380952D01*
X106261961Y-104380952D02*
X106357200Y-104476190D01*
X106357200Y-104476190D02*
X106404819Y-104619047D01*
X106404819Y-104619047D02*
X106404819Y-104714285D01*
X105738152Y-103428571D02*
X106404819Y-103428571D01*
X105357200Y-103666666D02*
X106071485Y-103904761D01*
X106071485Y-103904761D02*
X106071485Y-103285714D01*
X119300057Y-76345238D02*
X119252438Y-76440476D01*
X119252438Y-76440476D02*
X119157200Y-76535714D01*
X119157200Y-76535714D02*
X119014342Y-76678571D01*
X119014342Y-76678571D02*
X118966723Y-76773809D01*
X118966723Y-76773809D02*
X118966723Y-76869047D01*
X119204819Y-76821428D02*
X119157200Y-76916666D01*
X119157200Y-76916666D02*
X119061961Y-77011904D01*
X119061961Y-77011904D02*
X118871485Y-77059523D01*
X118871485Y-77059523D02*
X118538152Y-77059523D01*
X118538152Y-77059523D02*
X118347676Y-77011904D01*
X118347676Y-77011904D02*
X118252438Y-76916666D01*
X118252438Y-76916666D02*
X118204819Y-76821428D01*
X118204819Y-76821428D02*
X118204819Y-76630952D01*
X118204819Y-76630952D02*
X118252438Y-76535714D01*
X118252438Y-76535714D02*
X118347676Y-76440476D01*
X118347676Y-76440476D02*
X118538152Y-76392857D01*
X118538152Y-76392857D02*
X118871485Y-76392857D01*
X118871485Y-76392857D02*
X119061961Y-76440476D01*
X119061961Y-76440476D02*
X119157200Y-76535714D01*
X119157200Y-76535714D02*
X119204819Y-76630952D01*
X119204819Y-76630952D02*
X119204819Y-76821428D01*
X118204819Y-75535714D02*
X118204819Y-75726190D01*
X118204819Y-75726190D02*
X118252438Y-75821428D01*
X118252438Y-75821428D02*
X118300057Y-75869047D01*
X118300057Y-75869047D02*
X118442914Y-75964285D01*
X118442914Y-75964285D02*
X118633390Y-76011904D01*
X118633390Y-76011904D02*
X119014342Y-76011904D01*
X119014342Y-76011904D02*
X119109580Y-75964285D01*
X119109580Y-75964285D02*
X119157200Y-75916666D01*
X119157200Y-75916666D02*
X119204819Y-75821428D01*
X119204819Y-75821428D02*
X119204819Y-75630952D01*
X119204819Y-75630952D02*
X119157200Y-75535714D01*
X119157200Y-75535714D02*
X119109580Y-75488095D01*
X119109580Y-75488095D02*
X119014342Y-75440476D01*
X119014342Y-75440476D02*
X118776247Y-75440476D01*
X118776247Y-75440476D02*
X118681009Y-75488095D01*
X118681009Y-75488095D02*
X118633390Y-75535714D01*
X118633390Y-75535714D02*
X118585771Y-75630952D01*
X118585771Y-75630952D02*
X118585771Y-75821428D01*
X118585771Y-75821428D02*
X118633390Y-75916666D01*
X118633390Y-75916666D02*
X118681009Y-75964285D01*
X118681009Y-75964285D02*
X118776247Y-76011904D01*
X119250057Y-87395238D02*
X119202438Y-87490476D01*
X119202438Y-87490476D02*
X119107200Y-87585714D01*
X119107200Y-87585714D02*
X118964342Y-87728571D01*
X118964342Y-87728571D02*
X118916723Y-87823809D01*
X118916723Y-87823809D02*
X118916723Y-87919047D01*
X119154819Y-87871428D02*
X119107200Y-87966666D01*
X119107200Y-87966666D02*
X119011961Y-88061904D01*
X119011961Y-88061904D02*
X118821485Y-88109523D01*
X118821485Y-88109523D02*
X118488152Y-88109523D01*
X118488152Y-88109523D02*
X118297676Y-88061904D01*
X118297676Y-88061904D02*
X118202438Y-87966666D01*
X118202438Y-87966666D02*
X118154819Y-87871428D01*
X118154819Y-87871428D02*
X118154819Y-87680952D01*
X118154819Y-87680952D02*
X118202438Y-87585714D01*
X118202438Y-87585714D02*
X118297676Y-87490476D01*
X118297676Y-87490476D02*
X118488152Y-87442857D01*
X118488152Y-87442857D02*
X118821485Y-87442857D01*
X118821485Y-87442857D02*
X119011961Y-87490476D01*
X119011961Y-87490476D02*
X119107200Y-87585714D01*
X119107200Y-87585714D02*
X119154819Y-87680952D01*
X119154819Y-87680952D02*
X119154819Y-87871428D01*
X118250057Y-87061904D02*
X118202438Y-87014285D01*
X118202438Y-87014285D02*
X118154819Y-86919047D01*
X118154819Y-86919047D02*
X118154819Y-86680952D01*
X118154819Y-86680952D02*
X118202438Y-86585714D01*
X118202438Y-86585714D02*
X118250057Y-86538095D01*
X118250057Y-86538095D02*
X118345295Y-86490476D01*
X118345295Y-86490476D02*
X118440533Y-86490476D01*
X118440533Y-86490476D02*
X118583390Y-86538095D01*
X118583390Y-86538095D02*
X119154819Y-87109523D01*
X119154819Y-87109523D02*
X119154819Y-86490476D01*
X135559580Y-88216666D02*
X135607200Y-88264285D01*
X135607200Y-88264285D02*
X135654819Y-88407142D01*
X135654819Y-88407142D02*
X135654819Y-88502380D01*
X135654819Y-88502380D02*
X135607200Y-88645237D01*
X135607200Y-88645237D02*
X135511961Y-88740475D01*
X135511961Y-88740475D02*
X135416723Y-88788094D01*
X135416723Y-88788094D02*
X135226247Y-88835713D01*
X135226247Y-88835713D02*
X135083390Y-88835713D01*
X135083390Y-88835713D02*
X134892914Y-88788094D01*
X134892914Y-88788094D02*
X134797676Y-88740475D01*
X134797676Y-88740475D02*
X134702438Y-88645237D01*
X134702438Y-88645237D02*
X134654819Y-88502380D01*
X134654819Y-88502380D02*
X134654819Y-88407142D01*
X134654819Y-88407142D02*
X134702438Y-88264285D01*
X134702438Y-88264285D02*
X134750057Y-88216666D01*
X134750057Y-87835713D02*
X134702438Y-87788094D01*
X134702438Y-87788094D02*
X134654819Y-87692856D01*
X134654819Y-87692856D02*
X134654819Y-87454761D01*
X134654819Y-87454761D02*
X134702438Y-87359523D01*
X134702438Y-87359523D02*
X134750057Y-87311904D01*
X134750057Y-87311904D02*
X134845295Y-87264285D01*
X134845295Y-87264285D02*
X134940533Y-87264285D01*
X134940533Y-87264285D02*
X135083390Y-87311904D01*
X135083390Y-87311904D02*
X135654819Y-87883332D01*
X135654819Y-87883332D02*
X135654819Y-87264285D01*
X131004819Y-94938094D02*
X130004819Y-94938094D01*
X130004819Y-94938094D02*
X130004819Y-94699999D01*
X130004819Y-94699999D02*
X130052438Y-94557142D01*
X130052438Y-94557142D02*
X130147676Y-94461904D01*
X130147676Y-94461904D02*
X130242914Y-94414285D01*
X130242914Y-94414285D02*
X130433390Y-94366666D01*
X130433390Y-94366666D02*
X130576247Y-94366666D01*
X130576247Y-94366666D02*
X130766723Y-94414285D01*
X130766723Y-94414285D02*
X130861961Y-94461904D01*
X130861961Y-94461904D02*
X130957200Y-94557142D01*
X130957200Y-94557142D02*
X131004819Y-94699999D01*
X131004819Y-94699999D02*
X131004819Y-94938094D01*
X131004819Y-93414285D02*
X131004819Y-93985713D01*
X131004819Y-93699999D02*
X130004819Y-93699999D01*
X130004819Y-93699999D02*
X130147676Y-93795237D01*
X130147676Y-93795237D02*
X130242914Y-93890475D01*
X130242914Y-93890475D02*
X130290533Y-93985713D01*
X134404819Y-110716666D02*
X133928628Y-111049999D01*
X134404819Y-111288094D02*
X133404819Y-111288094D01*
X133404819Y-111288094D02*
X133404819Y-110907142D01*
X133404819Y-110907142D02*
X133452438Y-110811904D01*
X133452438Y-110811904D02*
X133500057Y-110764285D01*
X133500057Y-110764285D02*
X133595295Y-110716666D01*
X133595295Y-110716666D02*
X133738152Y-110716666D01*
X133738152Y-110716666D02*
X133833390Y-110764285D01*
X133833390Y-110764285D02*
X133881009Y-110811904D01*
X133881009Y-110811904D02*
X133928628Y-110907142D01*
X133928628Y-110907142D02*
X133928628Y-111288094D01*
X133833390Y-110145237D02*
X133785771Y-110240475D01*
X133785771Y-110240475D02*
X133738152Y-110288094D01*
X133738152Y-110288094D02*
X133642914Y-110335713D01*
X133642914Y-110335713D02*
X133595295Y-110335713D01*
X133595295Y-110335713D02*
X133500057Y-110288094D01*
X133500057Y-110288094D02*
X133452438Y-110240475D01*
X133452438Y-110240475D02*
X133404819Y-110145237D01*
X133404819Y-110145237D02*
X133404819Y-109954761D01*
X133404819Y-109954761D02*
X133452438Y-109859523D01*
X133452438Y-109859523D02*
X133500057Y-109811904D01*
X133500057Y-109811904D02*
X133595295Y-109764285D01*
X133595295Y-109764285D02*
X133642914Y-109764285D01*
X133642914Y-109764285D02*
X133738152Y-109811904D01*
X133738152Y-109811904D02*
X133785771Y-109859523D01*
X133785771Y-109859523D02*
X133833390Y-109954761D01*
X133833390Y-109954761D02*
X133833390Y-110145237D01*
X133833390Y-110145237D02*
X133881009Y-110240475D01*
X133881009Y-110240475D02*
X133928628Y-110288094D01*
X133928628Y-110288094D02*
X134023866Y-110335713D01*
X134023866Y-110335713D02*
X134214342Y-110335713D01*
X134214342Y-110335713D02*
X134309580Y-110288094D01*
X134309580Y-110288094D02*
X134357200Y-110240475D01*
X134357200Y-110240475D02*
X134404819Y-110145237D01*
X134404819Y-110145237D02*
X134404819Y-109954761D01*
X134404819Y-109954761D02*
X134357200Y-109859523D01*
X134357200Y-109859523D02*
X134309580Y-109811904D01*
X134309580Y-109811904D02*
X134214342Y-109764285D01*
X134214342Y-109764285D02*
X134023866Y-109764285D01*
X134023866Y-109764285D02*
X133928628Y-109811904D01*
X133928628Y-109811904D02*
X133881009Y-109859523D01*
X133881009Y-109859523D02*
X133833390Y-109954761D01*
X136354819Y-109833333D02*
X137069104Y-109833333D01*
X137069104Y-109833333D02*
X137211961Y-109880952D01*
X137211961Y-109880952D02*
X137307200Y-109976190D01*
X137307200Y-109976190D02*
X137354819Y-110119047D01*
X137354819Y-110119047D02*
X137354819Y-110214285D01*
X137354819Y-108833333D02*
X137354819Y-109404761D01*
X137354819Y-109119047D02*
X136354819Y-109119047D01*
X136354819Y-109119047D02*
X136497676Y-109214285D01*
X136497676Y-109214285D02*
X136592914Y-109309523D01*
X136592914Y-109309523D02*
X136640533Y-109404761D01*
X133904819Y-94466666D02*
X133428628Y-94799999D01*
X133904819Y-95038094D02*
X132904819Y-95038094D01*
X132904819Y-95038094D02*
X132904819Y-94657142D01*
X132904819Y-94657142D02*
X132952438Y-94561904D01*
X132952438Y-94561904D02*
X133000057Y-94514285D01*
X133000057Y-94514285D02*
X133095295Y-94466666D01*
X133095295Y-94466666D02*
X133238152Y-94466666D01*
X133238152Y-94466666D02*
X133333390Y-94514285D01*
X133333390Y-94514285D02*
X133381009Y-94561904D01*
X133381009Y-94561904D02*
X133428628Y-94657142D01*
X133428628Y-94657142D02*
X133428628Y-95038094D01*
X133000057Y-94085713D02*
X132952438Y-94038094D01*
X132952438Y-94038094D02*
X132904819Y-93942856D01*
X132904819Y-93942856D02*
X132904819Y-93704761D01*
X132904819Y-93704761D02*
X132952438Y-93609523D01*
X132952438Y-93609523D02*
X133000057Y-93561904D01*
X133000057Y-93561904D02*
X133095295Y-93514285D01*
X133095295Y-93514285D02*
X133190533Y-93514285D01*
X133190533Y-93514285D02*
X133333390Y-93561904D01*
X133333390Y-93561904D02*
X133904819Y-94133332D01*
X133904819Y-94133332D02*
X133904819Y-93514285D01*
X133904819Y-92316666D02*
X133428628Y-92649999D01*
X133904819Y-92888094D02*
X132904819Y-92888094D01*
X132904819Y-92888094D02*
X132904819Y-92507142D01*
X132904819Y-92507142D02*
X132952438Y-92411904D01*
X132952438Y-92411904D02*
X133000057Y-92364285D01*
X133000057Y-92364285D02*
X133095295Y-92316666D01*
X133095295Y-92316666D02*
X133238152Y-92316666D01*
X133238152Y-92316666D02*
X133333390Y-92364285D01*
X133333390Y-92364285D02*
X133381009Y-92411904D01*
X133381009Y-92411904D02*
X133428628Y-92507142D01*
X133428628Y-92507142D02*
X133428628Y-92888094D01*
X133904819Y-91364285D02*
X133904819Y-91935713D01*
X133904819Y-91649999D02*
X132904819Y-91649999D01*
X132904819Y-91649999D02*
X133047676Y-91745237D01*
X133047676Y-91745237D02*
X133142914Y-91840475D01*
X133142914Y-91840475D02*
X133190533Y-91935713D01*
X134304819Y-108816666D02*
X133828628Y-109149999D01*
X134304819Y-109388094D02*
X133304819Y-109388094D01*
X133304819Y-109388094D02*
X133304819Y-109007142D01*
X133304819Y-109007142D02*
X133352438Y-108911904D01*
X133352438Y-108911904D02*
X133400057Y-108864285D01*
X133400057Y-108864285D02*
X133495295Y-108816666D01*
X133495295Y-108816666D02*
X133638152Y-108816666D01*
X133638152Y-108816666D02*
X133733390Y-108864285D01*
X133733390Y-108864285D02*
X133781009Y-108911904D01*
X133781009Y-108911904D02*
X133828628Y-109007142D01*
X133828628Y-109007142D02*
X133828628Y-109388094D01*
X133304819Y-108483332D02*
X133304819Y-107864285D01*
X133304819Y-107864285D02*
X133685771Y-108197618D01*
X133685771Y-108197618D02*
X133685771Y-108054761D01*
X133685771Y-108054761D02*
X133733390Y-107959523D01*
X133733390Y-107959523D02*
X133781009Y-107911904D01*
X133781009Y-107911904D02*
X133876247Y-107864285D01*
X133876247Y-107864285D02*
X134114342Y-107864285D01*
X134114342Y-107864285D02*
X134209580Y-107911904D01*
X134209580Y-107911904D02*
X134257200Y-107959523D01*
X134257200Y-107959523D02*
X134304819Y-108054761D01*
X134304819Y-108054761D02*
X134304819Y-108340475D01*
X134304819Y-108340475D02*
X134257200Y-108435713D01*
X134257200Y-108435713D02*
X134209580Y-108483332D01*
X133104819Y-111066666D02*
X132628628Y-111399999D01*
X133104819Y-111638094D02*
X132104819Y-111638094D01*
X132104819Y-111638094D02*
X132104819Y-111257142D01*
X132104819Y-111257142D02*
X132152438Y-111161904D01*
X132152438Y-111161904D02*
X132200057Y-111114285D01*
X132200057Y-111114285D02*
X132295295Y-111066666D01*
X132295295Y-111066666D02*
X132438152Y-111066666D01*
X132438152Y-111066666D02*
X132533390Y-111114285D01*
X132533390Y-111114285D02*
X132581009Y-111161904D01*
X132581009Y-111161904D02*
X132628628Y-111257142D01*
X132628628Y-111257142D02*
X132628628Y-111638094D01*
X132104819Y-110733332D02*
X132104819Y-110066666D01*
X132104819Y-110066666D02*
X133104819Y-110495237D01*
X132404819Y-108916666D02*
X131928628Y-109249999D01*
X132404819Y-109488094D02*
X131404819Y-109488094D01*
X131404819Y-109488094D02*
X131404819Y-109107142D01*
X131404819Y-109107142D02*
X131452438Y-109011904D01*
X131452438Y-109011904D02*
X131500057Y-108964285D01*
X131500057Y-108964285D02*
X131595295Y-108916666D01*
X131595295Y-108916666D02*
X131738152Y-108916666D01*
X131738152Y-108916666D02*
X131833390Y-108964285D01*
X131833390Y-108964285D02*
X131881009Y-109011904D01*
X131881009Y-109011904D02*
X131928628Y-109107142D01*
X131928628Y-109107142D02*
X131928628Y-109488094D01*
X131404819Y-108059523D02*
X131404819Y-108249999D01*
X131404819Y-108249999D02*
X131452438Y-108345237D01*
X131452438Y-108345237D02*
X131500057Y-108392856D01*
X131500057Y-108392856D02*
X131642914Y-108488094D01*
X131642914Y-108488094D02*
X131833390Y-108535713D01*
X131833390Y-108535713D02*
X132214342Y-108535713D01*
X132214342Y-108535713D02*
X132309580Y-108488094D01*
X132309580Y-108488094D02*
X132357200Y-108440475D01*
X132357200Y-108440475D02*
X132404819Y-108345237D01*
X132404819Y-108345237D02*
X132404819Y-108154761D01*
X132404819Y-108154761D02*
X132357200Y-108059523D01*
X132357200Y-108059523D02*
X132309580Y-108011904D01*
X132309580Y-108011904D02*
X132214342Y-107964285D01*
X132214342Y-107964285D02*
X131976247Y-107964285D01*
X131976247Y-107964285D02*
X131881009Y-108011904D01*
X131881009Y-108011904D02*
X131833390Y-108059523D01*
X131833390Y-108059523D02*
X131785771Y-108154761D01*
X131785771Y-108154761D02*
X131785771Y-108345237D01*
X131785771Y-108345237D02*
X131833390Y-108440475D01*
X131833390Y-108440475D02*
X131881009Y-108488094D01*
X131881009Y-108488094D02*
X131976247Y-108535713D01*
X132404819Y-94466666D02*
X131928628Y-94799999D01*
X132404819Y-95038094D02*
X131404819Y-95038094D01*
X131404819Y-95038094D02*
X131404819Y-94657142D01*
X131404819Y-94657142D02*
X131452438Y-94561904D01*
X131452438Y-94561904D02*
X131500057Y-94514285D01*
X131500057Y-94514285D02*
X131595295Y-94466666D01*
X131595295Y-94466666D02*
X131738152Y-94466666D01*
X131738152Y-94466666D02*
X131833390Y-94514285D01*
X131833390Y-94514285D02*
X131881009Y-94561904D01*
X131881009Y-94561904D02*
X131928628Y-94657142D01*
X131928628Y-94657142D02*
X131928628Y-95038094D01*
X131738152Y-93609523D02*
X132404819Y-93609523D01*
X131357200Y-93847618D02*
X132071485Y-94085713D01*
X132071485Y-94085713D02*
X132071485Y-93466666D01*
X121038095Y-106354819D02*
X121038095Y-107164342D01*
X121038095Y-107164342D02*
X121085714Y-107259580D01*
X121085714Y-107259580D02*
X121133333Y-107307200D01*
X121133333Y-107307200D02*
X121228571Y-107354819D01*
X121228571Y-107354819D02*
X121419047Y-107354819D01*
X121419047Y-107354819D02*
X121514285Y-107307200D01*
X121514285Y-107307200D02*
X121561904Y-107259580D01*
X121561904Y-107259580D02*
X121609523Y-107164342D01*
X121609523Y-107164342D02*
X121609523Y-106354819D01*
X122038095Y-106450057D02*
X122085714Y-106402438D01*
X122085714Y-106402438D02*
X122180952Y-106354819D01*
X122180952Y-106354819D02*
X122419047Y-106354819D01*
X122419047Y-106354819D02*
X122514285Y-106402438D01*
X122514285Y-106402438D02*
X122561904Y-106450057D01*
X122561904Y-106450057D02*
X122609523Y-106545295D01*
X122609523Y-106545295D02*
X122609523Y-106640533D01*
X122609523Y-106640533D02*
X122561904Y-106783390D01*
X122561904Y-106783390D02*
X121990476Y-107354819D01*
X121990476Y-107354819D02*
X122609523Y-107354819D01*
X114159580Y-87642857D02*
X114207200Y-87690476D01*
X114207200Y-87690476D02*
X114254819Y-87833333D01*
X114254819Y-87833333D02*
X114254819Y-87928571D01*
X114254819Y-87928571D02*
X114207200Y-88071428D01*
X114207200Y-88071428D02*
X114111961Y-88166666D01*
X114111961Y-88166666D02*
X114016723Y-88214285D01*
X114016723Y-88214285D02*
X113826247Y-88261904D01*
X113826247Y-88261904D02*
X113683390Y-88261904D01*
X113683390Y-88261904D02*
X113492914Y-88214285D01*
X113492914Y-88214285D02*
X113397676Y-88166666D01*
X113397676Y-88166666D02*
X113302438Y-88071428D01*
X113302438Y-88071428D02*
X113254819Y-87928571D01*
X113254819Y-87928571D02*
X113254819Y-87833333D01*
X113254819Y-87833333D02*
X113302438Y-87690476D01*
X113302438Y-87690476D02*
X113350057Y-87642857D01*
X114254819Y-86690476D02*
X114254819Y-87261904D01*
X114254819Y-86976190D02*
X113254819Y-86976190D01*
X113254819Y-86976190D02*
X113397676Y-87071428D01*
X113397676Y-87071428D02*
X113492914Y-87166666D01*
X113492914Y-87166666D02*
X113540533Y-87261904D01*
X113350057Y-86309523D02*
X113302438Y-86261904D01*
X113302438Y-86261904D02*
X113254819Y-86166666D01*
X113254819Y-86166666D02*
X113254819Y-85928571D01*
X113254819Y-85928571D02*
X113302438Y-85833333D01*
X113302438Y-85833333D02*
X113350057Y-85785714D01*
X113350057Y-85785714D02*
X113445295Y-85738095D01*
X113445295Y-85738095D02*
X113540533Y-85738095D01*
X113540533Y-85738095D02*
X113683390Y-85785714D01*
X113683390Y-85785714D02*
X114254819Y-86357142D01*
X114254819Y-86357142D02*
X114254819Y-85738095D01*
X119350057Y-109245238D02*
X119302438Y-109340476D01*
X119302438Y-109340476D02*
X119207200Y-109435714D01*
X119207200Y-109435714D02*
X119064342Y-109578571D01*
X119064342Y-109578571D02*
X119016723Y-109673809D01*
X119016723Y-109673809D02*
X119016723Y-109769047D01*
X119254819Y-109721428D02*
X119207200Y-109816666D01*
X119207200Y-109816666D02*
X119111961Y-109911904D01*
X119111961Y-109911904D02*
X118921485Y-109959523D01*
X118921485Y-109959523D02*
X118588152Y-109959523D01*
X118588152Y-109959523D02*
X118397676Y-109911904D01*
X118397676Y-109911904D02*
X118302438Y-109816666D01*
X118302438Y-109816666D02*
X118254819Y-109721428D01*
X118254819Y-109721428D02*
X118254819Y-109530952D01*
X118254819Y-109530952D02*
X118302438Y-109435714D01*
X118302438Y-109435714D02*
X118397676Y-109340476D01*
X118397676Y-109340476D02*
X118588152Y-109292857D01*
X118588152Y-109292857D02*
X118921485Y-109292857D01*
X118921485Y-109292857D02*
X119111961Y-109340476D01*
X119111961Y-109340476D02*
X119207200Y-109435714D01*
X119207200Y-109435714D02*
X119254819Y-109530952D01*
X119254819Y-109530952D02*
X119254819Y-109721428D01*
X118683390Y-108721428D02*
X118635771Y-108816666D01*
X118635771Y-108816666D02*
X118588152Y-108864285D01*
X118588152Y-108864285D02*
X118492914Y-108911904D01*
X118492914Y-108911904D02*
X118445295Y-108911904D01*
X118445295Y-108911904D02*
X118350057Y-108864285D01*
X118350057Y-108864285D02*
X118302438Y-108816666D01*
X118302438Y-108816666D02*
X118254819Y-108721428D01*
X118254819Y-108721428D02*
X118254819Y-108530952D01*
X118254819Y-108530952D02*
X118302438Y-108435714D01*
X118302438Y-108435714D02*
X118350057Y-108388095D01*
X118350057Y-108388095D02*
X118445295Y-108340476D01*
X118445295Y-108340476D02*
X118492914Y-108340476D01*
X118492914Y-108340476D02*
X118588152Y-108388095D01*
X118588152Y-108388095D02*
X118635771Y-108435714D01*
X118635771Y-108435714D02*
X118683390Y-108530952D01*
X118683390Y-108530952D02*
X118683390Y-108721428D01*
X118683390Y-108721428D02*
X118731009Y-108816666D01*
X118731009Y-108816666D02*
X118778628Y-108864285D01*
X118778628Y-108864285D02*
X118873866Y-108911904D01*
X118873866Y-108911904D02*
X119064342Y-108911904D01*
X119064342Y-108911904D02*
X119159580Y-108864285D01*
X119159580Y-108864285D02*
X119207200Y-108816666D01*
X119207200Y-108816666D02*
X119254819Y-108721428D01*
X119254819Y-108721428D02*
X119254819Y-108530952D01*
X119254819Y-108530952D02*
X119207200Y-108435714D01*
X119207200Y-108435714D02*
X119159580Y-108388095D01*
X119159580Y-108388095D02*
X119064342Y-108340476D01*
X119064342Y-108340476D02*
X118873866Y-108340476D01*
X118873866Y-108340476D02*
X118778628Y-108388095D01*
X118778628Y-108388095D02*
X118731009Y-108435714D01*
X118731009Y-108435714D02*
X118683390Y-108530952D01*
X112104761Y-79450057D02*
X112009523Y-79402438D01*
X112009523Y-79402438D02*
X111914285Y-79307200D01*
X111914285Y-79307200D02*
X111771428Y-79164342D01*
X111771428Y-79164342D02*
X111676190Y-79116723D01*
X111676190Y-79116723D02*
X111580952Y-79116723D01*
X111628571Y-79354819D02*
X111533333Y-79307200D01*
X111533333Y-79307200D02*
X111438095Y-79211961D01*
X111438095Y-79211961D02*
X111390476Y-79021485D01*
X111390476Y-79021485D02*
X111390476Y-78688152D01*
X111390476Y-78688152D02*
X111438095Y-78497676D01*
X111438095Y-78497676D02*
X111533333Y-78402438D01*
X111533333Y-78402438D02*
X111628571Y-78354819D01*
X111628571Y-78354819D02*
X111819047Y-78354819D01*
X111819047Y-78354819D02*
X111914285Y-78402438D01*
X111914285Y-78402438D02*
X112009523Y-78497676D01*
X112009523Y-78497676D02*
X112057142Y-78688152D01*
X112057142Y-78688152D02*
X112057142Y-79021485D01*
X112057142Y-79021485D02*
X112009523Y-79211961D01*
X112009523Y-79211961D02*
X111914285Y-79307200D01*
X111914285Y-79307200D02*
X111819047Y-79354819D01*
X111819047Y-79354819D02*
X111628571Y-79354819D01*
X112961904Y-78354819D02*
X112485714Y-78354819D01*
X112485714Y-78354819D02*
X112438095Y-78831009D01*
X112438095Y-78831009D02*
X112485714Y-78783390D01*
X112485714Y-78783390D02*
X112580952Y-78735771D01*
X112580952Y-78735771D02*
X112819047Y-78735771D01*
X112819047Y-78735771D02*
X112914285Y-78783390D01*
X112914285Y-78783390D02*
X112961904Y-78831009D01*
X112961904Y-78831009D02*
X113009523Y-78926247D01*
X113009523Y-78926247D02*
X113009523Y-79164342D01*
X113009523Y-79164342D02*
X112961904Y-79259580D01*
X112961904Y-79259580D02*
X112914285Y-79307200D01*
X112914285Y-79307200D02*
X112819047Y-79354819D01*
X112819047Y-79354819D02*
X112580952Y-79354819D01*
X112580952Y-79354819D02*
X112485714Y-79307200D01*
X112485714Y-79307200D02*
X112438095Y-79259580D01*
X126209580Y-116366666D02*
X126257200Y-116414285D01*
X126257200Y-116414285D02*
X126304819Y-116557142D01*
X126304819Y-116557142D02*
X126304819Y-116652380D01*
X126304819Y-116652380D02*
X126257200Y-116795237D01*
X126257200Y-116795237D02*
X126161961Y-116890475D01*
X126161961Y-116890475D02*
X126066723Y-116938094D01*
X126066723Y-116938094D02*
X125876247Y-116985713D01*
X125876247Y-116985713D02*
X125733390Y-116985713D01*
X125733390Y-116985713D02*
X125542914Y-116938094D01*
X125542914Y-116938094D02*
X125447676Y-116890475D01*
X125447676Y-116890475D02*
X125352438Y-116795237D01*
X125352438Y-116795237D02*
X125304819Y-116652380D01*
X125304819Y-116652380D02*
X125304819Y-116557142D01*
X125304819Y-116557142D02*
X125352438Y-116414285D01*
X125352438Y-116414285D02*
X125400057Y-116366666D01*
X125638152Y-115509523D02*
X126304819Y-115509523D01*
X125257200Y-115747618D02*
X125971485Y-115985713D01*
X125971485Y-115985713D02*
X125971485Y-115366666D01*
X124404819Y-101633333D02*
X125119104Y-101633333D01*
X125119104Y-101633333D02*
X125261961Y-101680952D01*
X125261961Y-101680952D02*
X125357200Y-101776190D01*
X125357200Y-101776190D02*
X125404819Y-101919047D01*
X125404819Y-101919047D02*
X125404819Y-102014285D01*
X124404819Y-101252380D02*
X124404819Y-100633333D01*
X124404819Y-100633333D02*
X124785771Y-100966666D01*
X124785771Y-100966666D02*
X124785771Y-100823809D01*
X124785771Y-100823809D02*
X124833390Y-100728571D01*
X124833390Y-100728571D02*
X124881009Y-100680952D01*
X124881009Y-100680952D02*
X124976247Y-100633333D01*
X124976247Y-100633333D02*
X125214342Y-100633333D01*
X125214342Y-100633333D02*
X125309580Y-100680952D01*
X125309580Y-100680952D02*
X125357200Y-100728571D01*
X125357200Y-100728571D02*
X125404819Y-100823809D01*
X125404819Y-100823809D02*
X125404819Y-101109523D01*
X125404819Y-101109523D02*
X125357200Y-101204761D01*
X125357200Y-101204761D02*
X125309580Y-101252380D01*
X115711905Y-88154819D02*
X115711905Y-87154819D01*
X115711905Y-87154819D02*
X115950000Y-87154819D01*
X115950000Y-87154819D02*
X116092857Y-87202438D01*
X116092857Y-87202438D02*
X116188095Y-87297676D01*
X116188095Y-87297676D02*
X116235714Y-87392914D01*
X116235714Y-87392914D02*
X116283333Y-87583390D01*
X116283333Y-87583390D02*
X116283333Y-87726247D01*
X116283333Y-87726247D02*
X116235714Y-87916723D01*
X116235714Y-87916723D02*
X116188095Y-88011961D01*
X116188095Y-88011961D02*
X116092857Y-88107200D01*
X116092857Y-88107200D02*
X115950000Y-88154819D01*
X115950000Y-88154819D02*
X115711905Y-88154819D01*
X117188095Y-87154819D02*
X116711905Y-87154819D01*
X116711905Y-87154819D02*
X116664286Y-87631009D01*
X116664286Y-87631009D02*
X116711905Y-87583390D01*
X116711905Y-87583390D02*
X116807143Y-87535771D01*
X116807143Y-87535771D02*
X117045238Y-87535771D01*
X117045238Y-87535771D02*
X117140476Y-87583390D01*
X117140476Y-87583390D02*
X117188095Y-87631009D01*
X117188095Y-87631009D02*
X117235714Y-87726247D01*
X117235714Y-87726247D02*
X117235714Y-87964342D01*
X117235714Y-87964342D02*
X117188095Y-88059580D01*
X117188095Y-88059580D02*
X117140476Y-88107200D01*
X117140476Y-88107200D02*
X117045238Y-88154819D01*
X117045238Y-88154819D02*
X116807143Y-88154819D01*
X116807143Y-88154819D02*
X116711905Y-88107200D01*
X116711905Y-88107200D02*
X116664286Y-88059580D01*
X121238095Y-84454819D02*
X121238095Y-85264342D01*
X121238095Y-85264342D02*
X121285714Y-85359580D01*
X121285714Y-85359580D02*
X121333333Y-85407200D01*
X121333333Y-85407200D02*
X121428571Y-85454819D01*
X121428571Y-85454819D02*
X121619047Y-85454819D01*
X121619047Y-85454819D02*
X121714285Y-85407200D01*
X121714285Y-85407200D02*
X121761904Y-85359580D01*
X121761904Y-85359580D02*
X121809523Y-85264342D01*
X121809523Y-85264342D02*
X121809523Y-84454819D01*
X122714285Y-84788152D02*
X122714285Y-85454819D01*
X122476190Y-84407200D02*
X122238095Y-85121485D01*
X122238095Y-85121485D02*
X122857142Y-85121485D01*
X130161905Y-115254819D02*
X130161905Y-114254819D01*
X130161905Y-114254819D02*
X130400000Y-114254819D01*
X130400000Y-114254819D02*
X130542857Y-114302438D01*
X130542857Y-114302438D02*
X130638095Y-114397676D01*
X130638095Y-114397676D02*
X130685714Y-114492914D01*
X130685714Y-114492914D02*
X130733333Y-114683390D01*
X130733333Y-114683390D02*
X130733333Y-114826247D01*
X130733333Y-114826247D02*
X130685714Y-115016723D01*
X130685714Y-115016723D02*
X130638095Y-115111961D01*
X130638095Y-115111961D02*
X130542857Y-115207200D01*
X130542857Y-115207200D02*
X130400000Y-115254819D01*
X130400000Y-115254819D02*
X130161905Y-115254819D01*
X131209524Y-115254819D02*
X131400000Y-115254819D01*
X131400000Y-115254819D02*
X131495238Y-115207200D01*
X131495238Y-115207200D02*
X131542857Y-115159580D01*
X131542857Y-115159580D02*
X131638095Y-115016723D01*
X131638095Y-115016723D02*
X131685714Y-114826247D01*
X131685714Y-114826247D02*
X131685714Y-114445295D01*
X131685714Y-114445295D02*
X131638095Y-114350057D01*
X131638095Y-114350057D02*
X131590476Y-114302438D01*
X131590476Y-114302438D02*
X131495238Y-114254819D01*
X131495238Y-114254819D02*
X131304762Y-114254819D01*
X131304762Y-114254819D02*
X131209524Y-114302438D01*
X131209524Y-114302438D02*
X131161905Y-114350057D01*
X131161905Y-114350057D02*
X131114286Y-114445295D01*
X131114286Y-114445295D02*
X131114286Y-114683390D01*
X131114286Y-114683390D02*
X131161905Y-114778628D01*
X131161905Y-114778628D02*
X131209524Y-114826247D01*
X131209524Y-114826247D02*
X131304762Y-114873866D01*
X131304762Y-114873866D02*
X131495238Y-114873866D01*
X131495238Y-114873866D02*
X131590476Y-114826247D01*
X131590476Y-114826247D02*
X131638095Y-114778628D01*
X131638095Y-114778628D02*
X131685714Y-114683390D01*
X117738095Y-118604819D02*
X117738095Y-119414342D01*
X117738095Y-119414342D02*
X117785714Y-119509580D01*
X117785714Y-119509580D02*
X117833333Y-119557200D01*
X117833333Y-119557200D02*
X117928571Y-119604819D01*
X117928571Y-119604819D02*
X118119047Y-119604819D01*
X118119047Y-119604819D02*
X118214285Y-119557200D01*
X118214285Y-119557200D02*
X118261904Y-119509580D01*
X118261904Y-119509580D02*
X118309523Y-119414342D01*
X118309523Y-119414342D02*
X118309523Y-118604819D01*
X119261904Y-118604819D02*
X118785714Y-118604819D01*
X118785714Y-118604819D02*
X118738095Y-119081009D01*
X118738095Y-119081009D02*
X118785714Y-119033390D01*
X118785714Y-119033390D02*
X118880952Y-118985771D01*
X118880952Y-118985771D02*
X119119047Y-118985771D01*
X119119047Y-118985771D02*
X119214285Y-119033390D01*
X119214285Y-119033390D02*
X119261904Y-119081009D01*
X119261904Y-119081009D02*
X119309523Y-119176247D01*
X119309523Y-119176247D02*
X119309523Y-119414342D01*
X119309523Y-119414342D02*
X119261904Y-119509580D01*
X119261904Y-119509580D02*
X119214285Y-119557200D01*
X119214285Y-119557200D02*
X119119047Y-119604819D01*
X119119047Y-119604819D02*
X118880952Y-119604819D01*
X118880952Y-119604819D02*
X118785714Y-119557200D01*
X118785714Y-119557200D02*
X118738095Y-119509580D01*
X119100057Y-98195238D02*
X119052438Y-98290476D01*
X119052438Y-98290476D02*
X118957200Y-98385714D01*
X118957200Y-98385714D02*
X118814342Y-98528571D01*
X118814342Y-98528571D02*
X118766723Y-98623809D01*
X118766723Y-98623809D02*
X118766723Y-98719047D01*
X119004819Y-98671428D02*
X118957200Y-98766666D01*
X118957200Y-98766666D02*
X118861961Y-98861904D01*
X118861961Y-98861904D02*
X118671485Y-98909523D01*
X118671485Y-98909523D02*
X118338152Y-98909523D01*
X118338152Y-98909523D02*
X118147676Y-98861904D01*
X118147676Y-98861904D02*
X118052438Y-98766666D01*
X118052438Y-98766666D02*
X118004819Y-98671428D01*
X118004819Y-98671428D02*
X118004819Y-98480952D01*
X118004819Y-98480952D02*
X118052438Y-98385714D01*
X118052438Y-98385714D02*
X118147676Y-98290476D01*
X118147676Y-98290476D02*
X118338152Y-98242857D01*
X118338152Y-98242857D02*
X118671485Y-98242857D01*
X118671485Y-98242857D02*
X118861961Y-98290476D01*
X118861961Y-98290476D02*
X118957200Y-98385714D01*
X118957200Y-98385714D02*
X119004819Y-98480952D01*
X119004819Y-98480952D02*
X119004819Y-98671428D01*
X118338152Y-97385714D02*
X119004819Y-97385714D01*
X117957200Y-97623809D02*
X118671485Y-97861904D01*
X118671485Y-97861904D02*
X118671485Y-97242857D01*
X123804819Y-115192857D02*
X123328628Y-115526190D01*
X123804819Y-115764285D02*
X122804819Y-115764285D01*
X122804819Y-115764285D02*
X122804819Y-115383333D01*
X122804819Y-115383333D02*
X122852438Y-115288095D01*
X122852438Y-115288095D02*
X122900057Y-115240476D01*
X122900057Y-115240476D02*
X122995295Y-115192857D01*
X122995295Y-115192857D02*
X123138152Y-115192857D01*
X123138152Y-115192857D02*
X123233390Y-115240476D01*
X123233390Y-115240476D02*
X123281009Y-115288095D01*
X123281009Y-115288095D02*
X123328628Y-115383333D01*
X123328628Y-115383333D02*
X123328628Y-115764285D01*
X122900057Y-114811904D02*
X122852438Y-114764285D01*
X122852438Y-114764285D02*
X122804819Y-114669047D01*
X122804819Y-114669047D02*
X122804819Y-114430952D01*
X122804819Y-114430952D02*
X122852438Y-114335714D01*
X122852438Y-114335714D02*
X122900057Y-114288095D01*
X122900057Y-114288095D02*
X122995295Y-114240476D01*
X122995295Y-114240476D02*
X123090533Y-114240476D01*
X123090533Y-114240476D02*
X123233390Y-114288095D01*
X123233390Y-114288095D02*
X123804819Y-114859523D01*
X123804819Y-114859523D02*
X123804819Y-114240476D01*
X122804819Y-113621428D02*
X122804819Y-113526190D01*
X122804819Y-113526190D02*
X122852438Y-113430952D01*
X122852438Y-113430952D02*
X122900057Y-113383333D01*
X122900057Y-113383333D02*
X122995295Y-113335714D01*
X122995295Y-113335714D02*
X123185771Y-113288095D01*
X123185771Y-113288095D02*
X123423866Y-113288095D01*
X123423866Y-113288095D02*
X123614342Y-113335714D01*
X123614342Y-113335714D02*
X123709580Y-113383333D01*
X123709580Y-113383333D02*
X123757200Y-113430952D01*
X123757200Y-113430952D02*
X123804819Y-113526190D01*
X123804819Y-113526190D02*
X123804819Y-113621428D01*
X123804819Y-113621428D02*
X123757200Y-113716666D01*
X123757200Y-113716666D02*
X123709580Y-113764285D01*
X123709580Y-113764285D02*
X123614342Y-113811904D01*
X123614342Y-113811904D02*
X123423866Y-113859523D01*
X123423866Y-113859523D02*
X123185771Y-113859523D01*
X123185771Y-113859523D02*
X122995295Y-113811904D01*
X122995295Y-113811904D02*
X122900057Y-113764285D01*
X122900057Y-113764285D02*
X122852438Y-113716666D01*
X122852438Y-113716666D02*
X122804819Y-113621428D01*
X111854761Y-90350057D02*
X111759523Y-90302438D01*
X111759523Y-90302438D02*
X111664285Y-90207200D01*
X111664285Y-90207200D02*
X111521428Y-90064342D01*
X111521428Y-90064342D02*
X111426190Y-90016723D01*
X111426190Y-90016723D02*
X111330952Y-90016723D01*
X111378571Y-90254819D02*
X111283333Y-90207200D01*
X111283333Y-90207200D02*
X111188095Y-90111961D01*
X111188095Y-90111961D02*
X111140476Y-89921485D01*
X111140476Y-89921485D02*
X111140476Y-89588152D01*
X111140476Y-89588152D02*
X111188095Y-89397676D01*
X111188095Y-89397676D02*
X111283333Y-89302438D01*
X111283333Y-89302438D02*
X111378571Y-89254819D01*
X111378571Y-89254819D02*
X111569047Y-89254819D01*
X111569047Y-89254819D02*
X111664285Y-89302438D01*
X111664285Y-89302438D02*
X111759523Y-89397676D01*
X111759523Y-89397676D02*
X111807142Y-89588152D01*
X111807142Y-89588152D02*
X111807142Y-89921485D01*
X111807142Y-89921485D02*
X111759523Y-90111961D01*
X111759523Y-90111961D02*
X111664285Y-90207200D01*
X111664285Y-90207200D02*
X111569047Y-90254819D01*
X111569047Y-90254819D02*
X111378571Y-90254819D01*
X112759523Y-90254819D02*
X112188095Y-90254819D01*
X112473809Y-90254819D02*
X112473809Y-89254819D01*
X112473809Y-89254819D02*
X112378571Y-89397676D01*
X112378571Y-89397676D02*
X112283333Y-89492914D01*
X112283333Y-89492914D02*
X112188095Y-89540533D01*
X115861905Y-99054819D02*
X115861905Y-98054819D01*
X115861905Y-98054819D02*
X116100000Y-98054819D01*
X116100000Y-98054819D02*
X116242857Y-98102438D01*
X116242857Y-98102438D02*
X116338095Y-98197676D01*
X116338095Y-98197676D02*
X116385714Y-98292914D01*
X116385714Y-98292914D02*
X116433333Y-98483390D01*
X116433333Y-98483390D02*
X116433333Y-98626247D01*
X116433333Y-98626247D02*
X116385714Y-98816723D01*
X116385714Y-98816723D02*
X116338095Y-98911961D01*
X116338095Y-98911961D02*
X116242857Y-99007200D01*
X116242857Y-99007200D02*
X116100000Y-99054819D01*
X116100000Y-99054819D02*
X115861905Y-99054819D01*
X117290476Y-98054819D02*
X117100000Y-98054819D01*
X117100000Y-98054819D02*
X117004762Y-98102438D01*
X117004762Y-98102438D02*
X116957143Y-98150057D01*
X116957143Y-98150057D02*
X116861905Y-98292914D01*
X116861905Y-98292914D02*
X116814286Y-98483390D01*
X116814286Y-98483390D02*
X116814286Y-98864342D01*
X116814286Y-98864342D02*
X116861905Y-98959580D01*
X116861905Y-98959580D02*
X116909524Y-99007200D01*
X116909524Y-99007200D02*
X117004762Y-99054819D01*
X117004762Y-99054819D02*
X117195238Y-99054819D01*
X117195238Y-99054819D02*
X117290476Y-99007200D01*
X117290476Y-99007200D02*
X117338095Y-98959580D01*
X117338095Y-98959580D02*
X117385714Y-98864342D01*
X117385714Y-98864342D02*
X117385714Y-98626247D01*
X117385714Y-98626247D02*
X117338095Y-98531009D01*
X117338095Y-98531009D02*
X117290476Y-98483390D01*
X117290476Y-98483390D02*
X117195238Y-98435771D01*
X117195238Y-98435771D02*
X117004762Y-98435771D01*
X117004762Y-98435771D02*
X116909524Y-98483390D01*
X116909524Y-98483390D02*
X116861905Y-98531009D01*
X116861905Y-98531009D02*
X116814286Y-98626247D01*
X114809580Y-98316666D02*
X114857200Y-98364285D01*
X114857200Y-98364285D02*
X114904819Y-98507142D01*
X114904819Y-98507142D02*
X114904819Y-98602380D01*
X114904819Y-98602380D02*
X114857200Y-98745237D01*
X114857200Y-98745237D02*
X114761961Y-98840475D01*
X114761961Y-98840475D02*
X114666723Y-98888094D01*
X114666723Y-98888094D02*
X114476247Y-98935713D01*
X114476247Y-98935713D02*
X114333390Y-98935713D01*
X114333390Y-98935713D02*
X114142914Y-98888094D01*
X114142914Y-98888094D02*
X114047676Y-98840475D01*
X114047676Y-98840475D02*
X113952438Y-98745237D01*
X113952438Y-98745237D02*
X113904819Y-98602380D01*
X113904819Y-98602380D02*
X113904819Y-98507142D01*
X113904819Y-98507142D02*
X113952438Y-98364285D01*
X113952438Y-98364285D02*
X114000057Y-98316666D01*
X113904819Y-97459523D02*
X113904819Y-97649999D01*
X113904819Y-97649999D02*
X113952438Y-97745237D01*
X113952438Y-97745237D02*
X114000057Y-97792856D01*
X114000057Y-97792856D02*
X114142914Y-97888094D01*
X114142914Y-97888094D02*
X114333390Y-97935713D01*
X114333390Y-97935713D02*
X114714342Y-97935713D01*
X114714342Y-97935713D02*
X114809580Y-97888094D01*
X114809580Y-97888094D02*
X114857200Y-97840475D01*
X114857200Y-97840475D02*
X114904819Y-97745237D01*
X114904819Y-97745237D02*
X114904819Y-97554761D01*
X114904819Y-97554761D02*
X114857200Y-97459523D01*
X114857200Y-97459523D02*
X114809580Y-97411904D01*
X114809580Y-97411904D02*
X114714342Y-97364285D01*
X114714342Y-97364285D02*
X114476247Y-97364285D01*
X114476247Y-97364285D02*
X114381009Y-97411904D01*
X114381009Y-97411904D02*
X114333390Y-97459523D01*
X114333390Y-97459523D02*
X114285771Y-97554761D01*
X114285771Y-97554761D02*
X114285771Y-97745237D01*
X114285771Y-97745237D02*
X114333390Y-97840475D01*
X114333390Y-97840475D02*
X114381009Y-97888094D01*
X114381009Y-97888094D02*
X114476247Y-97935713D01*
X110607142Y-85804819D02*
X110273809Y-85328628D01*
X110035714Y-85804819D02*
X110035714Y-84804819D01*
X110035714Y-84804819D02*
X110416666Y-84804819D01*
X110416666Y-84804819D02*
X110511904Y-84852438D01*
X110511904Y-84852438D02*
X110559523Y-84900057D01*
X110559523Y-84900057D02*
X110607142Y-84995295D01*
X110607142Y-84995295D02*
X110607142Y-85138152D01*
X110607142Y-85138152D02*
X110559523Y-85233390D01*
X110559523Y-85233390D02*
X110511904Y-85281009D01*
X110511904Y-85281009D02*
X110416666Y-85328628D01*
X110416666Y-85328628D02*
X110035714Y-85328628D01*
X111559523Y-85804819D02*
X110988095Y-85804819D01*
X111273809Y-85804819D02*
X111273809Y-84804819D01*
X111273809Y-84804819D02*
X111178571Y-84947676D01*
X111178571Y-84947676D02*
X111083333Y-85042914D01*
X111083333Y-85042914D02*
X110988095Y-85090533D01*
X112416666Y-84804819D02*
X112226190Y-84804819D01*
X112226190Y-84804819D02*
X112130952Y-84852438D01*
X112130952Y-84852438D02*
X112083333Y-84900057D01*
X112083333Y-84900057D02*
X111988095Y-85042914D01*
X111988095Y-85042914D02*
X111940476Y-85233390D01*
X111940476Y-85233390D02*
X111940476Y-85614342D01*
X111940476Y-85614342D02*
X111988095Y-85709580D01*
X111988095Y-85709580D02*
X112035714Y-85757200D01*
X112035714Y-85757200D02*
X112130952Y-85804819D01*
X112130952Y-85804819D02*
X112321428Y-85804819D01*
X112321428Y-85804819D02*
X112416666Y-85757200D01*
X112416666Y-85757200D02*
X112464285Y-85709580D01*
X112464285Y-85709580D02*
X112511904Y-85614342D01*
X112511904Y-85614342D02*
X112511904Y-85376247D01*
X112511904Y-85376247D02*
X112464285Y-85281009D01*
X112464285Y-85281009D02*
X112416666Y-85233390D01*
X112416666Y-85233390D02*
X112321428Y-85185771D01*
X112321428Y-85185771D02*
X112130952Y-85185771D01*
X112130952Y-85185771D02*
X112035714Y-85233390D01*
X112035714Y-85233390D02*
X111988095Y-85281009D01*
X111988095Y-85281009D02*
X111940476Y-85376247D01*
X123892319Y-82992857D02*
X123416128Y-83326190D01*
X123892319Y-83564285D02*
X122892319Y-83564285D01*
X122892319Y-83564285D02*
X122892319Y-83183333D01*
X122892319Y-83183333D02*
X122939938Y-83088095D01*
X122939938Y-83088095D02*
X122987557Y-83040476D01*
X122987557Y-83040476D02*
X123082795Y-82992857D01*
X123082795Y-82992857D02*
X123225652Y-82992857D01*
X123225652Y-82992857D02*
X123320890Y-83040476D01*
X123320890Y-83040476D02*
X123368509Y-83088095D01*
X123368509Y-83088095D02*
X123416128Y-83183333D01*
X123416128Y-83183333D02*
X123416128Y-83564285D01*
X123892319Y-82040476D02*
X123892319Y-82611904D01*
X123892319Y-82326190D02*
X122892319Y-82326190D01*
X122892319Y-82326190D02*
X123035176Y-82421428D01*
X123035176Y-82421428D02*
X123130414Y-82516666D01*
X123130414Y-82516666D02*
X123178033Y-82611904D01*
X122892319Y-81707142D02*
X122892319Y-81040476D01*
X122892319Y-81040476D02*
X123892319Y-81469047D01*
X113859580Y-108016666D02*
X113907200Y-108064285D01*
X113907200Y-108064285D02*
X113954819Y-108207142D01*
X113954819Y-108207142D02*
X113954819Y-108302380D01*
X113954819Y-108302380D02*
X113907200Y-108445237D01*
X113907200Y-108445237D02*
X113811961Y-108540475D01*
X113811961Y-108540475D02*
X113716723Y-108588094D01*
X113716723Y-108588094D02*
X113526247Y-108635713D01*
X113526247Y-108635713D02*
X113383390Y-108635713D01*
X113383390Y-108635713D02*
X113192914Y-108588094D01*
X113192914Y-108588094D02*
X113097676Y-108540475D01*
X113097676Y-108540475D02*
X113002438Y-108445237D01*
X113002438Y-108445237D02*
X112954819Y-108302380D01*
X112954819Y-108302380D02*
X112954819Y-108207142D01*
X112954819Y-108207142D02*
X113002438Y-108064285D01*
X113002438Y-108064285D02*
X113050057Y-108016666D01*
X113954819Y-107540475D02*
X113954819Y-107349999D01*
X113954819Y-107349999D02*
X113907200Y-107254761D01*
X113907200Y-107254761D02*
X113859580Y-107207142D01*
X113859580Y-107207142D02*
X113716723Y-107111904D01*
X113716723Y-107111904D02*
X113526247Y-107064285D01*
X113526247Y-107064285D02*
X113145295Y-107064285D01*
X113145295Y-107064285D02*
X113050057Y-107111904D01*
X113050057Y-107111904D02*
X113002438Y-107159523D01*
X113002438Y-107159523D02*
X112954819Y-107254761D01*
X112954819Y-107254761D02*
X112954819Y-107445237D01*
X112954819Y-107445237D02*
X113002438Y-107540475D01*
X113002438Y-107540475D02*
X113050057Y-107588094D01*
X113050057Y-107588094D02*
X113145295Y-107635713D01*
X113145295Y-107635713D02*
X113383390Y-107635713D01*
X113383390Y-107635713D02*
X113478628Y-107588094D01*
X113478628Y-107588094D02*
X113526247Y-107540475D01*
X113526247Y-107540475D02*
X113573866Y-107445237D01*
X113573866Y-107445237D02*
X113573866Y-107254761D01*
X113573866Y-107254761D02*
X113526247Y-107159523D01*
X113526247Y-107159523D02*
X113478628Y-107111904D01*
X113478628Y-107111904D02*
X113383390Y-107064285D01*
X112154761Y-111950057D02*
X112059523Y-111902438D01*
X112059523Y-111902438D02*
X111964285Y-111807200D01*
X111964285Y-111807200D02*
X111821428Y-111664342D01*
X111821428Y-111664342D02*
X111726190Y-111616723D01*
X111726190Y-111616723D02*
X111630952Y-111616723D01*
X111678571Y-111854819D02*
X111583333Y-111807200D01*
X111583333Y-111807200D02*
X111488095Y-111711961D01*
X111488095Y-111711961D02*
X111440476Y-111521485D01*
X111440476Y-111521485D02*
X111440476Y-111188152D01*
X111440476Y-111188152D02*
X111488095Y-110997676D01*
X111488095Y-110997676D02*
X111583333Y-110902438D01*
X111583333Y-110902438D02*
X111678571Y-110854819D01*
X111678571Y-110854819D02*
X111869047Y-110854819D01*
X111869047Y-110854819D02*
X111964285Y-110902438D01*
X111964285Y-110902438D02*
X112059523Y-110997676D01*
X112059523Y-110997676D02*
X112107142Y-111188152D01*
X112107142Y-111188152D02*
X112107142Y-111521485D01*
X112107142Y-111521485D02*
X112059523Y-111711961D01*
X112059523Y-111711961D02*
X111964285Y-111807200D01*
X111964285Y-111807200D02*
X111869047Y-111854819D01*
X111869047Y-111854819D02*
X111678571Y-111854819D01*
X112440476Y-110854819D02*
X113107142Y-110854819D01*
X113107142Y-110854819D02*
X112678571Y-111854819D01*
X120988095Y-94704819D02*
X120988095Y-95514342D01*
X120988095Y-95514342D02*
X121035714Y-95609580D01*
X121035714Y-95609580D02*
X121083333Y-95657200D01*
X121083333Y-95657200D02*
X121178571Y-95704819D01*
X121178571Y-95704819D02*
X121369047Y-95704819D01*
X121369047Y-95704819D02*
X121464285Y-95657200D01*
X121464285Y-95657200D02*
X121511904Y-95609580D01*
X121511904Y-95609580D02*
X121559523Y-95514342D01*
X121559523Y-95514342D02*
X121559523Y-94704819D01*
X122559523Y-95704819D02*
X121988095Y-95704819D01*
X122273809Y-95704819D02*
X122273809Y-94704819D01*
X122273809Y-94704819D02*
X122178571Y-94847676D01*
X122178571Y-94847676D02*
X122083333Y-94942914D01*
X122083333Y-94942914D02*
X121988095Y-94990533D01*
X108857142Y-116854819D02*
X108523809Y-116378628D01*
X108285714Y-116854819D02*
X108285714Y-115854819D01*
X108285714Y-115854819D02*
X108666666Y-115854819D01*
X108666666Y-115854819D02*
X108761904Y-115902438D01*
X108761904Y-115902438D02*
X108809523Y-115950057D01*
X108809523Y-115950057D02*
X108857142Y-116045295D01*
X108857142Y-116045295D02*
X108857142Y-116188152D01*
X108857142Y-116188152D02*
X108809523Y-116283390D01*
X108809523Y-116283390D02*
X108761904Y-116331009D01*
X108761904Y-116331009D02*
X108666666Y-116378628D01*
X108666666Y-116378628D02*
X108285714Y-116378628D01*
X109809523Y-116854819D02*
X109238095Y-116854819D01*
X109523809Y-116854819D02*
X109523809Y-115854819D01*
X109523809Y-115854819D02*
X109428571Y-115997676D01*
X109428571Y-115997676D02*
X109333333Y-116092914D01*
X109333333Y-116092914D02*
X109238095Y-116140533D01*
X110285714Y-116854819D02*
X110476190Y-116854819D01*
X110476190Y-116854819D02*
X110571428Y-116807200D01*
X110571428Y-116807200D02*
X110619047Y-116759580D01*
X110619047Y-116759580D02*
X110714285Y-116616723D01*
X110714285Y-116616723D02*
X110761904Y-116426247D01*
X110761904Y-116426247D02*
X110761904Y-116045295D01*
X110761904Y-116045295D02*
X110714285Y-115950057D01*
X110714285Y-115950057D02*
X110666666Y-115902438D01*
X110666666Y-115902438D02*
X110571428Y-115854819D01*
X110571428Y-115854819D02*
X110380952Y-115854819D01*
X110380952Y-115854819D02*
X110285714Y-115902438D01*
X110285714Y-115902438D02*
X110238095Y-115950057D01*
X110238095Y-115950057D02*
X110190476Y-116045295D01*
X110190476Y-116045295D02*
X110190476Y-116283390D01*
X110190476Y-116283390D02*
X110238095Y-116378628D01*
X110238095Y-116378628D02*
X110285714Y-116426247D01*
X110285714Y-116426247D02*
X110380952Y-116473866D01*
X110380952Y-116473866D02*
X110571428Y-116473866D01*
X110571428Y-116473866D02*
X110666666Y-116426247D01*
X110666666Y-116426247D02*
X110714285Y-116378628D01*
X110714285Y-116378628D02*
X110761904Y-116283390D01*
X116111905Y-109854819D02*
X116111905Y-108854819D01*
X116111905Y-108854819D02*
X116350000Y-108854819D01*
X116350000Y-108854819D02*
X116492857Y-108902438D01*
X116492857Y-108902438D02*
X116588095Y-108997676D01*
X116588095Y-108997676D02*
X116635714Y-109092914D01*
X116635714Y-109092914D02*
X116683333Y-109283390D01*
X116683333Y-109283390D02*
X116683333Y-109426247D01*
X116683333Y-109426247D02*
X116635714Y-109616723D01*
X116635714Y-109616723D02*
X116588095Y-109711961D01*
X116588095Y-109711961D02*
X116492857Y-109807200D01*
X116492857Y-109807200D02*
X116350000Y-109854819D01*
X116350000Y-109854819D02*
X116111905Y-109854819D01*
X117254762Y-109283390D02*
X117159524Y-109235771D01*
X117159524Y-109235771D02*
X117111905Y-109188152D01*
X117111905Y-109188152D02*
X117064286Y-109092914D01*
X117064286Y-109092914D02*
X117064286Y-109045295D01*
X117064286Y-109045295D02*
X117111905Y-108950057D01*
X117111905Y-108950057D02*
X117159524Y-108902438D01*
X117159524Y-108902438D02*
X117254762Y-108854819D01*
X117254762Y-108854819D02*
X117445238Y-108854819D01*
X117445238Y-108854819D02*
X117540476Y-108902438D01*
X117540476Y-108902438D02*
X117588095Y-108950057D01*
X117588095Y-108950057D02*
X117635714Y-109045295D01*
X117635714Y-109045295D02*
X117635714Y-109092914D01*
X117635714Y-109092914D02*
X117588095Y-109188152D01*
X117588095Y-109188152D02*
X117540476Y-109235771D01*
X117540476Y-109235771D02*
X117445238Y-109283390D01*
X117445238Y-109283390D02*
X117254762Y-109283390D01*
X117254762Y-109283390D02*
X117159524Y-109331009D01*
X117159524Y-109331009D02*
X117111905Y-109378628D01*
X117111905Y-109378628D02*
X117064286Y-109473866D01*
X117064286Y-109473866D02*
X117064286Y-109664342D01*
X117064286Y-109664342D02*
X117111905Y-109759580D01*
X117111905Y-109759580D02*
X117159524Y-109807200D01*
X117159524Y-109807200D02*
X117254762Y-109854819D01*
X117254762Y-109854819D02*
X117445238Y-109854819D01*
X117445238Y-109854819D02*
X117540476Y-109807200D01*
X117540476Y-109807200D02*
X117588095Y-109759580D01*
X117588095Y-109759580D02*
X117635714Y-109664342D01*
X117635714Y-109664342D02*
X117635714Y-109473866D01*
X117635714Y-109473866D02*
X117588095Y-109378628D01*
X117588095Y-109378628D02*
X117540476Y-109331009D01*
X117540476Y-109331009D02*
X117445238Y-109283390D01*
X108807142Y-106004819D02*
X108473809Y-105528628D01*
X108235714Y-106004819D02*
X108235714Y-105004819D01*
X108235714Y-105004819D02*
X108616666Y-105004819D01*
X108616666Y-105004819D02*
X108711904Y-105052438D01*
X108711904Y-105052438D02*
X108759523Y-105100057D01*
X108759523Y-105100057D02*
X108807142Y-105195295D01*
X108807142Y-105195295D02*
X108807142Y-105338152D01*
X108807142Y-105338152D02*
X108759523Y-105433390D01*
X108759523Y-105433390D02*
X108711904Y-105481009D01*
X108711904Y-105481009D02*
X108616666Y-105528628D01*
X108616666Y-105528628D02*
X108235714Y-105528628D01*
X109759523Y-106004819D02*
X109188095Y-106004819D01*
X109473809Y-106004819D02*
X109473809Y-105004819D01*
X109473809Y-105004819D02*
X109378571Y-105147676D01*
X109378571Y-105147676D02*
X109283333Y-105242914D01*
X109283333Y-105242914D02*
X109188095Y-105290533D01*
X110092857Y-105004819D02*
X110711904Y-105004819D01*
X110711904Y-105004819D02*
X110378571Y-105385771D01*
X110378571Y-105385771D02*
X110521428Y-105385771D01*
X110521428Y-105385771D02*
X110616666Y-105433390D01*
X110616666Y-105433390D02*
X110664285Y-105481009D01*
X110664285Y-105481009D02*
X110711904Y-105576247D01*
X110711904Y-105576247D02*
X110711904Y-105814342D01*
X110711904Y-105814342D02*
X110664285Y-105909580D01*
X110664285Y-105909580D02*
X110616666Y-105957200D01*
X110616666Y-105957200D02*
X110521428Y-106004819D01*
X110521428Y-106004819D02*
X110235714Y-106004819D01*
X110235714Y-106004819D02*
X110140476Y-105957200D01*
X110140476Y-105957200D02*
X110092857Y-105909580D01*
X123829819Y-93505357D02*
X123353628Y-93838690D01*
X123829819Y-94076785D02*
X122829819Y-94076785D01*
X122829819Y-94076785D02*
X122829819Y-93695833D01*
X122829819Y-93695833D02*
X122877438Y-93600595D01*
X122877438Y-93600595D02*
X122925057Y-93552976D01*
X122925057Y-93552976D02*
X123020295Y-93505357D01*
X123020295Y-93505357D02*
X123163152Y-93505357D01*
X123163152Y-93505357D02*
X123258390Y-93552976D01*
X123258390Y-93552976D02*
X123306009Y-93600595D01*
X123306009Y-93600595D02*
X123353628Y-93695833D01*
X123353628Y-93695833D02*
X123353628Y-94076785D01*
X123829819Y-92552976D02*
X123829819Y-93124404D01*
X123829819Y-92838690D02*
X122829819Y-92838690D01*
X122829819Y-92838690D02*
X122972676Y-92933928D01*
X122972676Y-92933928D02*
X123067914Y-93029166D01*
X123067914Y-93029166D02*
X123115533Y-93124404D01*
X122829819Y-91933928D02*
X122829819Y-91838690D01*
X122829819Y-91838690D02*
X122877438Y-91743452D01*
X122877438Y-91743452D02*
X122925057Y-91695833D01*
X122925057Y-91695833D02*
X123020295Y-91648214D01*
X123020295Y-91648214D02*
X123210771Y-91600595D01*
X123210771Y-91600595D02*
X123448866Y-91600595D01*
X123448866Y-91600595D02*
X123639342Y-91648214D01*
X123639342Y-91648214D02*
X123734580Y-91695833D01*
X123734580Y-91695833D02*
X123782200Y-91743452D01*
X123782200Y-91743452D02*
X123829819Y-91838690D01*
X123829819Y-91838690D02*
X123829819Y-91933928D01*
X123829819Y-91933928D02*
X123782200Y-92029166D01*
X123782200Y-92029166D02*
X123734580Y-92076785D01*
X123734580Y-92076785D02*
X123639342Y-92124404D01*
X123639342Y-92124404D02*
X123448866Y-92172023D01*
X123448866Y-92172023D02*
X123210771Y-92172023D01*
X123210771Y-92172023D02*
X123020295Y-92124404D01*
X123020295Y-92124404D02*
X122925057Y-92076785D01*
X122925057Y-92076785D02*
X122877438Y-92029166D01*
X122877438Y-92029166D02*
X122829819Y-91933928D01*
X115961905Y-77104819D02*
X115961905Y-76104819D01*
X115961905Y-76104819D02*
X116200000Y-76104819D01*
X116200000Y-76104819D02*
X116342857Y-76152438D01*
X116342857Y-76152438D02*
X116438095Y-76247676D01*
X116438095Y-76247676D02*
X116485714Y-76342914D01*
X116485714Y-76342914D02*
X116533333Y-76533390D01*
X116533333Y-76533390D02*
X116533333Y-76676247D01*
X116533333Y-76676247D02*
X116485714Y-76866723D01*
X116485714Y-76866723D02*
X116438095Y-76961961D01*
X116438095Y-76961961D02*
X116342857Y-77057200D01*
X116342857Y-77057200D02*
X116200000Y-77104819D01*
X116200000Y-77104819D02*
X115961905Y-77104819D01*
X116866667Y-76104819D02*
X117533333Y-76104819D01*
X117533333Y-76104819D02*
X117104762Y-77104819D01*
X127907142Y-118904819D02*
X127573809Y-118428628D01*
X127335714Y-118904819D02*
X127335714Y-117904819D01*
X127335714Y-117904819D02*
X127716666Y-117904819D01*
X127716666Y-117904819D02*
X127811904Y-117952438D01*
X127811904Y-117952438D02*
X127859523Y-118000057D01*
X127859523Y-118000057D02*
X127907142Y-118095295D01*
X127907142Y-118095295D02*
X127907142Y-118238152D01*
X127907142Y-118238152D02*
X127859523Y-118333390D01*
X127859523Y-118333390D02*
X127811904Y-118381009D01*
X127811904Y-118381009D02*
X127716666Y-118428628D01*
X127716666Y-118428628D02*
X127335714Y-118428628D01*
X128288095Y-118000057D02*
X128335714Y-117952438D01*
X128335714Y-117952438D02*
X128430952Y-117904819D01*
X128430952Y-117904819D02*
X128669047Y-117904819D01*
X128669047Y-117904819D02*
X128764285Y-117952438D01*
X128764285Y-117952438D02*
X128811904Y-118000057D01*
X128811904Y-118000057D02*
X128859523Y-118095295D01*
X128859523Y-118095295D02*
X128859523Y-118190533D01*
X128859523Y-118190533D02*
X128811904Y-118333390D01*
X128811904Y-118333390D02*
X128240476Y-118904819D01*
X128240476Y-118904819D02*
X128859523Y-118904819D01*
X129811904Y-118904819D02*
X129240476Y-118904819D01*
X129526190Y-118904819D02*
X129526190Y-117904819D01*
X129526190Y-117904819D02*
X129430952Y-118047676D01*
X129430952Y-118047676D02*
X129335714Y-118142914D01*
X129335714Y-118142914D02*
X129240476Y-118190533D01*
X112204761Y-101250057D02*
X112109523Y-101202438D01*
X112109523Y-101202438D02*
X112014285Y-101107200D01*
X112014285Y-101107200D02*
X111871428Y-100964342D01*
X111871428Y-100964342D02*
X111776190Y-100916723D01*
X111776190Y-100916723D02*
X111680952Y-100916723D01*
X111728571Y-101154819D02*
X111633333Y-101107200D01*
X111633333Y-101107200D02*
X111538095Y-101011961D01*
X111538095Y-101011961D02*
X111490476Y-100821485D01*
X111490476Y-100821485D02*
X111490476Y-100488152D01*
X111490476Y-100488152D02*
X111538095Y-100297676D01*
X111538095Y-100297676D02*
X111633333Y-100202438D01*
X111633333Y-100202438D02*
X111728571Y-100154819D01*
X111728571Y-100154819D02*
X111919047Y-100154819D01*
X111919047Y-100154819D02*
X112014285Y-100202438D01*
X112014285Y-100202438D02*
X112109523Y-100297676D01*
X112109523Y-100297676D02*
X112157142Y-100488152D01*
X112157142Y-100488152D02*
X112157142Y-100821485D01*
X112157142Y-100821485D02*
X112109523Y-101011961D01*
X112109523Y-101011961D02*
X112014285Y-101107200D01*
X112014285Y-101107200D02*
X111919047Y-101154819D01*
X111919047Y-101154819D02*
X111728571Y-101154819D01*
X112490476Y-100154819D02*
X113109523Y-100154819D01*
X113109523Y-100154819D02*
X112776190Y-100535771D01*
X112776190Y-100535771D02*
X112919047Y-100535771D01*
X112919047Y-100535771D02*
X113014285Y-100583390D01*
X113014285Y-100583390D02*
X113061904Y-100631009D01*
X113061904Y-100631009D02*
X113109523Y-100726247D01*
X113109523Y-100726247D02*
X113109523Y-100964342D01*
X113109523Y-100964342D02*
X113061904Y-101059580D01*
X113061904Y-101059580D02*
X113014285Y-101107200D01*
X113014285Y-101107200D02*
X112919047Y-101154819D01*
X112919047Y-101154819D02*
X112633333Y-101154819D01*
X112633333Y-101154819D02*
X112538095Y-101107200D01*
X112538095Y-101107200D02*
X112490476Y-101059580D01*
X112407142Y-119259580D02*
X112359523Y-119307200D01*
X112359523Y-119307200D02*
X112216666Y-119354819D01*
X112216666Y-119354819D02*
X112121428Y-119354819D01*
X112121428Y-119354819D02*
X111978571Y-119307200D01*
X111978571Y-119307200D02*
X111883333Y-119211961D01*
X111883333Y-119211961D02*
X111835714Y-119116723D01*
X111835714Y-119116723D02*
X111788095Y-118926247D01*
X111788095Y-118926247D02*
X111788095Y-118783390D01*
X111788095Y-118783390D02*
X111835714Y-118592914D01*
X111835714Y-118592914D02*
X111883333Y-118497676D01*
X111883333Y-118497676D02*
X111978571Y-118402438D01*
X111978571Y-118402438D02*
X112121428Y-118354819D01*
X112121428Y-118354819D02*
X112216666Y-118354819D01*
X112216666Y-118354819D02*
X112359523Y-118402438D01*
X112359523Y-118402438D02*
X112407142Y-118450057D01*
X113359523Y-119354819D02*
X112788095Y-119354819D01*
X113073809Y-119354819D02*
X113073809Y-118354819D01*
X113073809Y-118354819D02*
X112978571Y-118497676D01*
X112978571Y-118497676D02*
X112883333Y-118592914D01*
X112883333Y-118592914D02*
X112788095Y-118640533D01*
X114264285Y-118354819D02*
X113788095Y-118354819D01*
X113788095Y-118354819D02*
X113740476Y-118831009D01*
X113740476Y-118831009D02*
X113788095Y-118783390D01*
X113788095Y-118783390D02*
X113883333Y-118735771D01*
X113883333Y-118735771D02*
X114121428Y-118735771D01*
X114121428Y-118735771D02*
X114216666Y-118783390D01*
X114216666Y-118783390D02*
X114264285Y-118831009D01*
X114264285Y-118831009D02*
X114311904Y-118926247D01*
X114311904Y-118926247D02*
X114311904Y-119164342D01*
X114311904Y-119164342D02*
X114264285Y-119259580D01*
X114264285Y-119259580D02*
X114216666Y-119307200D01*
X114216666Y-119307200D02*
X114121428Y-119354819D01*
X114121428Y-119354819D02*
X113883333Y-119354819D01*
X113883333Y-119354819D02*
X113788095Y-119307200D01*
X113788095Y-119307200D02*
X113740476Y-119259580D01*
X111457142Y-96904819D02*
X111123809Y-96428628D01*
X110885714Y-96904819D02*
X110885714Y-95904819D01*
X110885714Y-95904819D02*
X111266666Y-95904819D01*
X111266666Y-95904819D02*
X111361904Y-95952438D01*
X111361904Y-95952438D02*
X111409523Y-96000057D01*
X111409523Y-96000057D02*
X111457142Y-96095295D01*
X111457142Y-96095295D02*
X111457142Y-96238152D01*
X111457142Y-96238152D02*
X111409523Y-96333390D01*
X111409523Y-96333390D02*
X111361904Y-96381009D01*
X111361904Y-96381009D02*
X111266666Y-96428628D01*
X111266666Y-96428628D02*
X110885714Y-96428628D01*
X112409523Y-96904819D02*
X111838095Y-96904819D01*
X112123809Y-96904819D02*
X112123809Y-95904819D01*
X112123809Y-95904819D02*
X112028571Y-96047676D01*
X112028571Y-96047676D02*
X111933333Y-96142914D01*
X111933333Y-96142914D02*
X111838095Y-96190533D01*
X113361904Y-96904819D02*
X112790476Y-96904819D01*
X113076190Y-96904819D02*
X113076190Y-95904819D01*
X113076190Y-95904819D02*
X112980952Y-96047676D01*
X112980952Y-96047676D02*
X112885714Y-96142914D01*
X112885714Y-96142914D02*
X112790476Y-96190533D01*
X129038095Y-112554819D02*
X129038095Y-113364342D01*
X129038095Y-113364342D02*
X129085714Y-113459580D01*
X129085714Y-113459580D02*
X129133333Y-113507200D01*
X129133333Y-113507200D02*
X129228571Y-113554819D01*
X129228571Y-113554819D02*
X129419047Y-113554819D01*
X129419047Y-113554819D02*
X129514285Y-113507200D01*
X129514285Y-113507200D02*
X129561904Y-113459580D01*
X129561904Y-113459580D02*
X129609523Y-113364342D01*
X129609523Y-113364342D02*
X129609523Y-112554819D01*
X129990476Y-112554819D02*
X130609523Y-112554819D01*
X130609523Y-112554819D02*
X130276190Y-112935771D01*
X130276190Y-112935771D02*
X130419047Y-112935771D01*
X130419047Y-112935771D02*
X130514285Y-112983390D01*
X130514285Y-112983390D02*
X130561904Y-113031009D01*
X130561904Y-113031009D02*
X130609523Y-113126247D01*
X130609523Y-113126247D02*
X130609523Y-113364342D01*
X130609523Y-113364342D02*
X130561904Y-113459580D01*
X130561904Y-113459580D02*
X130514285Y-113507200D01*
X130514285Y-113507200D02*
X130419047Y-113554819D01*
X130419047Y-113554819D02*
X130133333Y-113554819D01*
X130133333Y-113554819D02*
X130038095Y-113507200D01*
X130038095Y-113507200D02*
X129990476Y-113459580D01*
D12*
X117047500Y-102824758D02*
X117047500Y-102350242D01*
X116002500Y-102824758D02*
X116002500Y-102350242D01*
X125202500Y-110311252D02*
X125202500Y-109788748D01*
X126672500Y-110311252D02*
X126672500Y-109788748D01*
X131050000Y-101690000D02*
X129850000Y-101690000D01*
X131050000Y-103650000D02*
X131050000Y-101690000D01*
X129850000Y-103650000D02*
X129850000Y-101690000D01*
X124250000Y-80300000D02*
X124250000Y-82000000D01*
X124250000Y-82000000D02*
X125550000Y-82000000D01*
X124550000Y-72500000D02*
X125850000Y-72500000D01*
X124550000Y-74500000D02*
X124550000Y-72500000D01*
X124550000Y-81700000D02*
X124550000Y-79700000D01*
X130450000Y-72500000D02*
X139050000Y-72500000D01*
X139050000Y-72500000D02*
X139050000Y-81700000D01*
X139050000Y-81700000D02*
X124550000Y-81700000D01*
X110460000Y-89840000D02*
X110460000Y-88590000D01*
X110460000Y-88590000D02*
X109210000Y-88590000D01*
X110360000Y-90650000D02*
X110360000Y-90350000D01*
X110360000Y-90350000D02*
X110160000Y-90350000D01*
X110260000Y-90650000D02*
X110260000Y-90350000D01*
X110160000Y-103010000D02*
X110160000Y-88890000D01*
X110160000Y-91450000D02*
X109550000Y-91450000D01*
X110160000Y-90650000D02*
X110360000Y-90650000D01*
X110160000Y-88890000D02*
X105440000Y-88890000D01*
X109550000Y-102400000D02*
X109550000Y-100450000D01*
X109550000Y-100450000D02*
X110160000Y-100450000D01*
X109550000Y-91450000D02*
X109550000Y-89500000D01*
X109550000Y-89500000D02*
X106050000Y-89500000D01*
X108850000Y-103010000D02*
X108850000Y-102400000D01*
X108850000Y-88890000D02*
X108850000Y-89500000D01*
X107550000Y-103010000D02*
X107550000Y-102400000D01*
X107550000Y-88890000D02*
X107550000Y-89500000D01*
X106550000Y-100050000D02*
X106050000Y-100050000D01*
X106550000Y-99850000D02*
X106550000Y-100050000D01*
X106550000Y-98050000D02*
X106050000Y-98050000D01*
X106550000Y-97850000D02*
X106550000Y-98050000D01*
X106550000Y-96050000D02*
X106050000Y-96050000D01*
X106550000Y-95850000D02*
X106550000Y-96050000D01*
X106550000Y-94050000D02*
X106050000Y-94050000D01*
X106550000Y-93850000D02*
X106550000Y-94050000D01*
X106550000Y-92050000D02*
X106050000Y-92050000D01*
X106550000Y-91850000D02*
X106550000Y-92050000D01*
X106050000Y-102400000D02*
X109550000Y-102400000D01*
X106050000Y-99950000D02*
X106550000Y-99950000D01*
X106050000Y-99850000D02*
X106550000Y-99850000D01*
X106050000Y-97950000D02*
X106550000Y-97950000D01*
X106050000Y-97850000D02*
X106550000Y-97850000D01*
X106050000Y-95950000D02*
X106550000Y-95950000D01*
X106050000Y-95850000D02*
X106550000Y-95850000D01*
X106050000Y-93950000D02*
X106550000Y-93950000D01*
X106050000Y-93850000D02*
X106550000Y-93850000D01*
X106050000Y-91950000D02*
X106550000Y-91950000D01*
X106050000Y-91850000D02*
X106550000Y-91850000D01*
X106050000Y-89500000D02*
X106050000Y-102400000D01*
X105440000Y-103010000D02*
X110160000Y-103010000D01*
X105440000Y-88890000D02*
X105440000Y-103010000D01*
X122625000Y-79625000D02*
X122295000Y-79625000D01*
X122295000Y-79625000D02*
X122295000Y-75525000D01*
X122295000Y-75525000D02*
X122625000Y-75525000D01*
X119705000Y-78870000D02*
X119705000Y-75525000D01*
X119705000Y-75525000D02*
X119375000Y-75525000D01*
X122625000Y-90600000D02*
X122295000Y-90600000D01*
X122295000Y-90600000D02*
X122295000Y-86500000D01*
X122295000Y-86500000D02*
X122625000Y-86500000D01*
X119705000Y-89845000D02*
X119705000Y-86500000D01*
X119705000Y-86500000D02*
X119375000Y-86500000D01*
X134070000Y-88050000D02*
G75*
G02*
X123830000Y-88050000I-5120000J0D01*
G01*
X123830000Y-88050000D02*
G75*
G02*
X134070000Y-88050000I5120000J0D01*
G01*
X134030000Y-88090000D02*
X123870000Y-88090000D01*
X134030000Y-88050000D02*
X123870000Y-88050000D01*
X134029000Y-88170000D02*
X123871000Y-88170000D01*
X134029000Y-88130000D02*
X123871000Y-88130000D01*
X134027000Y-88210000D02*
X123873000Y-88210000D01*
X134026000Y-88250000D02*
X123874000Y-88250000D01*
X134024000Y-88290000D02*
X123876000Y-88290000D01*
X134022000Y-88330000D02*
X123878000Y-88330000D01*
X134020000Y-88370000D02*
X123880000Y-88370000D01*
X134017000Y-88410000D02*
X123883000Y-88410000D01*
X134014000Y-88450000D02*
X123886000Y-88450000D01*
X134011000Y-88490000D02*
X123889000Y-88490000D01*
X134007000Y-88530000D02*
X123893000Y-88530000D01*
X134004000Y-88570000D02*
X123896000Y-88570000D01*
X133999000Y-88610000D02*
X123901000Y-88610000D01*
X133995000Y-88650000D02*
X123905000Y-88650000D01*
X133990000Y-88690000D02*
X123910000Y-88690000D01*
X133985000Y-88730000D02*
X123915000Y-88730000D01*
X133979000Y-88770000D02*
X123921000Y-88770000D01*
X133973000Y-88810000D02*
X123927000Y-88810000D01*
X133967000Y-88850000D02*
X123933000Y-88850000D01*
X133961000Y-88890000D02*
X123939000Y-88890000D01*
X133954000Y-88930000D02*
X123946000Y-88930000D01*
X133947000Y-88970000D02*
X123953000Y-88970000D01*
X133939000Y-89010000D02*
X123961000Y-89010000D01*
X133931000Y-89050000D02*
X123969000Y-89050000D01*
X133923000Y-89090000D02*
X123977000Y-89090000D01*
X133915000Y-89130000D02*
X123985000Y-89130000D01*
X133906000Y-89170000D02*
X123994000Y-89170000D01*
X133897000Y-89210000D02*
X124003000Y-89210000D01*
X133887000Y-89250000D02*
X124013000Y-89250000D01*
X133878000Y-89290000D02*
X124022000Y-89290000D01*
X133867000Y-89330000D02*
X130190000Y-89330000D01*
X133857000Y-89370000D02*
X130190000Y-89370000D01*
X133846000Y-89410000D02*
X130190000Y-89410000D01*
X133835000Y-89450000D02*
X130190000Y-89450000D01*
X133823000Y-89490000D02*
X130190000Y-89490000D01*
X133811000Y-89530000D02*
X130190000Y-89530000D01*
X133799000Y-89570000D02*
X130190000Y-89570000D01*
X133787000Y-89610000D02*
X130190000Y-89610000D01*
X133774000Y-89650000D02*
X130190000Y-89650000D01*
X133760000Y-89690000D02*
X130190000Y-89690000D01*
X133747000Y-89730000D02*
X130190000Y-89730000D01*
X133732000Y-89770000D02*
X130190000Y-89770000D01*
X133718000Y-89810000D02*
X130190000Y-89810000D01*
X133703000Y-89850000D02*
X130190000Y-89850000D01*
X133688000Y-89890000D02*
X130190000Y-89890000D01*
X133672000Y-89930000D02*
X130190000Y-89930000D01*
X133656000Y-89970000D02*
X130190000Y-89970000D01*
X133640000Y-90010000D02*
X130190000Y-90010000D01*
X133623000Y-90050000D02*
X130190000Y-90050000D01*
X133606000Y-90090000D02*
X130190000Y-90090000D01*
X133588000Y-90130000D02*
X130190000Y-90130000D01*
X133570000Y-90170000D02*
X130190000Y-90170000D01*
X133552000Y-90210000D02*
X130190000Y-90210000D01*
X133533000Y-90250000D02*
X130190000Y-90250000D01*
X133514000Y-90290000D02*
X130190000Y-90290000D01*
X133494000Y-90330000D02*
X130190000Y-90330000D01*
X133474000Y-90370000D02*
X130190000Y-90370000D01*
X133454000Y-90410000D02*
X130190000Y-90410000D01*
X133433000Y-90450000D02*
X130190000Y-90450000D01*
X133411000Y-90490000D02*
X130190000Y-90490000D01*
X133389000Y-90530000D02*
X130190000Y-90530000D01*
X133367000Y-90570000D02*
X130190000Y-90570000D01*
X133344000Y-90610000D02*
X130190000Y-90610000D01*
X133321000Y-90650000D02*
X130190000Y-90650000D01*
X133297000Y-90690000D02*
X130190000Y-90690000D01*
X133273000Y-90730000D02*
X130190000Y-90730000D01*
X133248000Y-90770000D02*
X130190000Y-90770000D01*
X133222000Y-90810000D02*
X130190000Y-90810000D01*
X133197000Y-90850000D02*
X130190000Y-90850000D01*
X133170000Y-90890000D02*
X130190000Y-90890000D01*
X133143000Y-90930000D02*
X130190000Y-90930000D01*
X133116000Y-90970000D02*
X130190000Y-90970000D01*
X133088000Y-91010000D02*
X130190000Y-91010000D01*
X133059000Y-91050000D02*
X130190000Y-91050000D01*
X133030000Y-91090000D02*
X130190000Y-91090000D01*
X133000000Y-91130000D02*
X130190000Y-91130000D01*
X132970000Y-91170000D02*
X130190000Y-91170000D01*
X132938000Y-91210000D02*
X130190000Y-91210000D01*
X132907000Y-91250000D02*
X130190000Y-91250000D01*
X132874000Y-91290000D02*
X130190000Y-91290000D01*
X132841000Y-91330000D02*
X130190000Y-91330000D01*
X132808000Y-91370000D02*
X130190000Y-91370000D01*
X132773000Y-91410000D02*
X130190000Y-91410000D01*
X132738000Y-91450000D02*
X130190000Y-91450000D01*
X132702000Y-91490000D02*
X130190000Y-91490000D01*
X132666000Y-91530000D02*
X130190000Y-91530000D01*
X132628000Y-91570000D02*
X130190000Y-91570000D01*
X132590000Y-91610000D02*
X130190000Y-91610000D01*
X132551000Y-91650000D02*
X130190000Y-91650000D01*
X132511000Y-91690000D02*
X130190000Y-91690000D01*
X132470000Y-91730000D02*
X130190000Y-91730000D01*
X132428000Y-91770000D02*
X130190000Y-91770000D01*
X132385000Y-91810000D02*
X125515000Y-91810000D01*
X132341000Y-91850000D02*
X125559000Y-91850000D01*
X132325000Y-83070354D02*
X131325000Y-83070354D01*
X132297000Y-91890000D02*
X125603000Y-91890000D01*
X132251000Y-91930000D02*
X125649000Y-91930000D01*
X132204000Y-91970000D02*
X125696000Y-91970000D01*
X132155000Y-92010000D02*
X125745000Y-92010000D01*
X132106000Y-92050000D02*
X125794000Y-92050000D01*
X132055000Y-92090000D02*
X125845000Y-92090000D01*
X132003000Y-92130000D02*
X125897000Y-92130000D01*
X131950000Y-92170000D02*
X125950000Y-92170000D01*
X131895000Y-92210000D02*
X126005000Y-92210000D01*
X131838000Y-92250000D02*
X126062000Y-92250000D01*
X131825000Y-82570354D02*
X131825000Y-83570354D01*
X131780000Y-92290000D02*
X126120000Y-92290000D01*
X131720000Y-92330000D02*
X126180000Y-92330000D01*
X131658000Y-92370000D02*
X126242000Y-92370000D01*
X131594000Y-92410000D02*
X126306000Y-92410000D01*
X131528000Y-92450000D02*
X126372000Y-92450000D01*
X131460000Y-92490000D02*
X126440000Y-92490000D01*
X131389000Y-92530000D02*
X126511000Y-92530000D01*
X131315000Y-92570000D02*
X126585000Y-92570000D01*
X131238000Y-92610000D02*
X126662000Y-92610000D01*
X131158000Y-92650000D02*
X126742000Y-92650000D01*
X131074000Y-92690000D02*
X126826000Y-92690000D01*
X130987000Y-92730000D02*
X126913000Y-92730000D01*
X130894000Y-92770000D02*
X127006000Y-92770000D01*
X130796000Y-92810000D02*
X127104000Y-92810000D01*
X130692000Y-92850000D02*
X127208000Y-92850000D01*
X130580000Y-92890000D02*
X127320000Y-92890000D01*
X130459000Y-92930000D02*
X127441000Y-92930000D01*
X130327000Y-92970000D02*
X127573000Y-92970000D01*
X130180000Y-93010000D02*
X127720000Y-93010000D01*
X130012000Y-93050000D02*
X127888000Y-93050000D01*
X129812000Y-93090000D02*
X128088000Y-93090000D01*
X129549000Y-93130000D02*
X128351000Y-93130000D01*
X127710000Y-91770000D02*
X125472000Y-91770000D01*
X127710000Y-91730000D02*
X125430000Y-91730000D01*
X127710000Y-91690000D02*
X125389000Y-91690000D01*
X127710000Y-91650000D02*
X125349000Y-91650000D01*
X127710000Y-91610000D02*
X125310000Y-91610000D01*
X127710000Y-91570000D02*
X125272000Y-91570000D01*
X127710000Y-91530000D02*
X125234000Y-91530000D01*
X127710000Y-91490000D02*
X125198000Y-91490000D01*
X127710000Y-91450000D02*
X125162000Y-91450000D01*
X127710000Y-91410000D02*
X125127000Y-91410000D01*
X127710000Y-91370000D02*
X125092000Y-91370000D01*
X127710000Y-91330000D02*
X125059000Y-91330000D01*
X127710000Y-91290000D02*
X125026000Y-91290000D01*
X127710000Y-91250000D02*
X124993000Y-91250000D01*
X127710000Y-91210000D02*
X124962000Y-91210000D01*
X127710000Y-91170000D02*
X124930000Y-91170000D01*
X127710000Y-91130000D02*
X124900000Y-91130000D01*
X127710000Y-91090000D02*
X124870000Y-91090000D01*
X127710000Y-91050000D02*
X124841000Y-91050000D01*
X127710000Y-91010000D02*
X124812000Y-91010000D01*
X127710000Y-90970000D02*
X124784000Y-90970000D01*
X127710000Y-90930000D02*
X124757000Y-90930000D01*
X127710000Y-90890000D02*
X124730000Y-90890000D01*
X127710000Y-90850000D02*
X124703000Y-90850000D01*
X127710000Y-90810000D02*
X124678000Y-90810000D01*
X127710000Y-90770000D02*
X124652000Y-90770000D01*
X127710000Y-90730000D02*
X124627000Y-90730000D01*
X127710000Y-90690000D02*
X124603000Y-90690000D01*
X127710000Y-90650000D02*
X124579000Y-90650000D01*
X127710000Y-90610000D02*
X124556000Y-90610000D01*
X127710000Y-90570000D02*
X124533000Y-90570000D01*
X127710000Y-90530000D02*
X124511000Y-90530000D01*
X127710000Y-90490000D02*
X124489000Y-90490000D01*
X127710000Y-90450000D02*
X124467000Y-90450000D01*
X127710000Y-90410000D02*
X124446000Y-90410000D01*
X127710000Y-90370000D02*
X124426000Y-90370000D01*
X127710000Y-90330000D02*
X124406000Y-90330000D01*
X127710000Y-90290000D02*
X124386000Y-90290000D01*
X127710000Y-90250000D02*
X124367000Y-90250000D01*
X127710000Y-90210000D02*
X124348000Y-90210000D01*
X127710000Y-90170000D02*
X124330000Y-90170000D01*
X127710000Y-90130000D02*
X124312000Y-90130000D01*
X127710000Y-90090000D02*
X124294000Y-90090000D01*
X127710000Y-90050000D02*
X124277000Y-90050000D01*
X127710000Y-90010000D02*
X124260000Y-90010000D01*
X127710000Y-89970000D02*
X124244000Y-89970000D01*
X127710000Y-89930000D02*
X124228000Y-89930000D01*
X127710000Y-89890000D02*
X124212000Y-89890000D01*
X127710000Y-89850000D02*
X124197000Y-89850000D01*
X127710000Y-89810000D02*
X124182000Y-89810000D01*
X127710000Y-89770000D02*
X124168000Y-89770000D01*
X127710000Y-89730000D02*
X124153000Y-89730000D01*
X127710000Y-89690000D02*
X124140000Y-89690000D01*
X127710000Y-89650000D02*
X124126000Y-89650000D01*
X127710000Y-89610000D02*
X124113000Y-89610000D01*
X127710000Y-89570000D02*
X124101000Y-89570000D01*
X127710000Y-89530000D02*
X124089000Y-89530000D01*
X127710000Y-89490000D02*
X124077000Y-89490000D01*
X127710000Y-89450000D02*
X124065000Y-89450000D01*
X127710000Y-89410000D02*
X124054000Y-89410000D01*
X127710000Y-89370000D02*
X124043000Y-89370000D01*
X127710000Y-89330000D02*
X124033000Y-89330000D01*
X131050000Y-97300000D02*
X131050000Y-95340000D01*
X131050000Y-95340000D02*
X129850000Y-95340000D01*
X129850000Y-97300000D02*
X129850000Y-95340000D01*
X133922500Y-106412258D02*
X133922500Y-105937742D01*
X132877500Y-106412258D02*
X132877500Y-105937742D01*
X139560000Y-95440000D02*
X139560000Y-94190000D01*
X139560000Y-94190000D02*
X138310000Y-94190000D01*
X139460000Y-96250000D02*
X139460000Y-95950000D01*
X139460000Y-95950000D02*
X139260000Y-95950000D01*
X139360000Y-96250000D02*
X139360000Y-95950000D01*
X139260000Y-108610000D02*
X139260000Y-94490000D01*
X139260000Y-97050000D02*
X138650000Y-97050000D01*
X139260000Y-96250000D02*
X139460000Y-96250000D01*
X139260000Y-94490000D02*
X134540000Y-94490000D01*
X138650000Y-108000000D02*
X138650000Y-106050000D01*
X138650000Y-106050000D02*
X139260000Y-106050000D01*
X138650000Y-97050000D02*
X138650000Y-95100000D01*
X138650000Y-95100000D02*
X135150000Y-95100000D01*
X137950000Y-108610000D02*
X137950000Y-108000000D01*
X137950000Y-94490000D02*
X137950000Y-95100000D01*
X136650000Y-108610000D02*
X136650000Y-108000000D01*
X136650000Y-94490000D02*
X136650000Y-95100000D01*
X135650000Y-105650000D02*
X135150000Y-105650000D01*
X135650000Y-105450000D02*
X135650000Y-105650000D01*
X135650000Y-103650000D02*
X135150000Y-103650000D01*
X135650000Y-103450000D02*
X135650000Y-103650000D01*
X135650000Y-101650000D02*
X135150000Y-101650000D01*
X135650000Y-101450000D02*
X135650000Y-101650000D01*
X135650000Y-99650000D02*
X135150000Y-99650000D01*
X135650000Y-99450000D02*
X135650000Y-99650000D01*
X135650000Y-97650000D02*
X135150000Y-97650000D01*
X135650000Y-97450000D02*
X135650000Y-97650000D01*
X135150000Y-108000000D02*
X138650000Y-108000000D01*
X135150000Y-105550000D02*
X135650000Y-105550000D01*
X135150000Y-105450000D02*
X135650000Y-105450000D01*
X135150000Y-103550000D02*
X135650000Y-103550000D01*
X135150000Y-103450000D02*
X135650000Y-103450000D01*
X135150000Y-101550000D02*
X135650000Y-101550000D01*
X135150000Y-101450000D02*
X135650000Y-101450000D01*
X135150000Y-99550000D02*
X135650000Y-99550000D01*
X135150000Y-99450000D02*
X135650000Y-99450000D01*
X135150000Y-97550000D02*
X135650000Y-97550000D01*
X135150000Y-97450000D02*
X135650000Y-97450000D01*
X135150000Y-95100000D02*
X135150000Y-108000000D01*
X134540000Y-108610000D02*
X139260000Y-108610000D01*
X134540000Y-94490000D02*
X134540000Y-108610000D01*
X133922500Y-100062258D02*
X133922500Y-99587742D01*
X132877500Y-100062258D02*
X132877500Y-99587742D01*
X131050000Y-99350000D02*
X131050000Y-101310000D01*
X129850000Y-101310000D02*
X131050000Y-101310000D01*
X129850000Y-99350000D02*
X129850000Y-101310000D01*
X133922500Y-96587742D02*
X133922500Y-97062258D01*
X132877500Y-96587742D02*
X132877500Y-97062258D01*
X133922500Y-102937742D02*
X133922500Y-103412258D01*
X132877500Y-102937742D02*
X132877500Y-103412258D01*
X131050000Y-105700000D02*
X131050000Y-107660000D01*
X129850000Y-107660000D02*
X131050000Y-107660000D01*
X129850000Y-105700000D02*
X129850000Y-107660000D01*
X131377500Y-105937742D02*
X131377500Y-106412258D01*
X132422500Y-105937742D02*
X132422500Y-106412258D01*
X131377500Y-102937742D02*
X131377500Y-103412258D01*
X132422500Y-102937742D02*
X132422500Y-103412258D01*
X131377500Y-99587742D02*
X131377500Y-100062258D01*
X132422500Y-99587742D02*
X132422500Y-100062258D01*
X131377500Y-96587742D02*
X131377500Y-97062258D01*
X132422500Y-96587742D02*
X132422500Y-97062258D01*
D13*
G36*
X104232334Y-83026977D02*
G01*
X104297729Y-83057004D01*
X104348649Y-83102852D01*
X104365209Y-83127838D01*
X104391285Y-83195611D01*
X104401658Y-83268872D01*
X104395623Y-83338142D01*
X104383571Y-83374411D01*
X104342817Y-83433279D01*
X104285107Y-83475020D01*
X104214322Y-83498142D01*
X104134343Y-83501154D01*
X104078815Y-83491507D01*
X104003630Y-83463196D01*
X103950084Y-83421306D01*
X103916709Y-83363923D01*
X103902036Y-83289133D01*
X103901046Y-83259918D01*
X103913174Y-83193936D01*
X103946550Y-83132291D01*
X103996376Y-83079523D01*
X104057850Y-83040169D01*
X104126172Y-83018770D01*
X104158812Y-83016206D01*
X104232334Y-83026977D01*
G37*
G36*
X104099358Y-81083387D02*
G01*
X104160485Y-81104276D01*
X104212687Y-81141454D01*
X104252072Y-81193831D01*
X104274750Y-81260317D01*
X104278717Y-81306409D01*
X104274417Y-81355577D01*
X104258202Y-81396618D01*
X104238833Y-81426125D01*
X104197023Y-81471740D01*
X104145983Y-81502052D01*
X104078991Y-81520574D01*
X104049698Y-81525030D01*
X103976503Y-81522190D01*
X103904817Y-81497491D01*
X103843308Y-81454125D01*
X103835494Y-81446207D01*
X103817769Y-81423641D01*
X103807987Y-81398105D01*
X103803938Y-81361126D01*
X103803331Y-81322936D01*
X103804638Y-81272787D01*
X103810374Y-81238887D01*
X103823364Y-81211481D01*
X103843424Y-81184514D01*
X103901338Y-81129350D01*
X103965893Y-81094834D01*
X104033197Y-81079876D01*
X104099358Y-81083387D01*
G37*
G36*
X104352678Y-81739854D02*
G01*
X104379368Y-81750905D01*
X104433083Y-81787210D01*
X104482471Y-81840408D01*
X104530203Y-81913809D01*
X104564873Y-81980667D01*
X104617374Y-82110099D01*
X104648055Y-82233754D01*
X104656643Y-82349565D01*
X104642864Y-82455467D01*
X104632507Y-82490385D01*
X104593278Y-82581338D01*
X104541705Y-82667398D01*
X104482040Y-82742989D01*
X104418535Y-82802535D01*
X104370953Y-82833308D01*
X104321907Y-82854064D01*
X104284406Y-82857640D01*
X104250391Y-82844013D01*
X104234884Y-82832901D01*
X104206327Y-82796494D01*
X104202049Y-82752451D01*
X104222010Y-82702467D01*
X104238729Y-82678690D01*
X104275559Y-82625027D01*
X104311785Y-82560021D01*
X104343602Y-82491795D01*
X104367208Y-82428476D01*
X104378606Y-82379905D01*
X104376575Y-82302062D01*
X104354005Y-82208857D01*
X104311059Y-82100746D01*
X104247898Y-81978184D01*
X104217613Y-81926220D01*
X104191563Y-81879944D01*
X104171940Y-81839624D01*
X104162058Y-81812253D01*
X104161487Y-81807751D01*
X104173036Y-81773752D01*
X104203782Y-81748436D01*
X104247872Y-81733329D01*
X104299455Y-81729960D01*
X104352678Y-81739854D01*
G37*
G36*
X107618427Y-80175548D02*
G01*
X107633843Y-80182833D01*
X107711958Y-80232103D01*
X107795293Y-80303726D01*
X107881502Y-80395126D01*
X107968237Y-80503726D01*
X108053152Y-80626951D01*
X108085078Y-80678103D01*
X108117684Y-80730770D01*
X108141085Y-80764712D01*
X108158982Y-80783833D01*
X108175074Y-80792039D01*
X108193062Y-80793234D01*
X108194117Y-80793177D01*
X108266004Y-80790308D01*
X108352366Y-80788803D01*
X108448134Y-80788561D01*
X108548238Y-80789480D01*
X108647610Y-80791460D01*
X108741179Y-80794400D01*
X108823875Y-80798200D01*
X108890630Y-80802758D01*
X108936134Y-80807935D01*
X109080965Y-80838067D01*
X109201984Y-80877412D01*
X109299860Y-80926272D01*
X109375262Y-80984951D01*
X109407030Y-81021039D01*
X109438290Y-81074894D01*
X109451783Y-81127595D01*
X109447211Y-81173825D01*
X109424273Y-81208265D01*
X109417829Y-81213027D01*
X109375716Y-81232217D01*
X109322521Y-81240170D01*
X109254187Y-81237003D01*
X109166656Y-81222837D01*
X109156289Y-81220738D01*
X109083791Y-81206787D01*
X109004269Y-81192986D01*
X108931666Y-81181715D01*
X108911776Y-81178980D01*
X108868455Y-81174683D01*
X108809633Y-81170802D01*
X108739852Y-81167433D01*
X108663656Y-81164671D01*
X108585588Y-81162611D01*
X108510189Y-81161348D01*
X108442005Y-81160978D01*
X108385577Y-81161596D01*
X108345449Y-81163298D01*
X108326164Y-81166178D01*
X108325388Y-81166679D01*
X108326315Y-81180980D01*
X108333846Y-81215030D01*
X108346726Y-81263743D01*
X108363698Y-81322031D01*
X108363799Y-81322362D01*
X108392348Y-81425345D01*
X108421367Y-81545730D01*
X108449071Y-81674967D01*
X108473677Y-81804503D01*
X108493401Y-81925789D01*
X108500464Y-81977411D01*
X108508374Y-82035913D01*
X108515257Y-82073184D01*
X108522704Y-82093910D01*
X108532306Y-82102780D01*
X108543610Y-82104499D01*
X108565154Y-82102533D01*
X108607472Y-82097037D01*
X108665630Y-82088711D01*
X108734695Y-82078252D01*
X108786323Y-82070127D01*
X108865755Y-82057576D01*
X108923954Y-82049049D01*
X108965396Y-82044350D01*
X108994558Y-82043283D01*
X109015913Y-82045655D01*
X109033938Y-82051269D01*
X109050349Y-82058619D01*
X109104491Y-82096773D01*
X109139899Y-82147490D01*
X109156137Y-82205359D01*
X109152769Y-82264967D01*
X109129358Y-82320901D01*
X109085468Y-82367750D01*
X109075813Y-82374503D01*
X109048776Y-82385685D01*
X109000040Y-82397623D01*
X108928320Y-82410569D01*
X108832333Y-82424777D01*
X108792687Y-82430104D01*
X108544615Y-82462737D01*
X108534172Y-82618984D01*
X108523558Y-82733244D01*
X108507962Y-82839387D01*
X108488244Y-82934218D01*
X108465262Y-83014545D01*
X108439876Y-83077172D01*
X108412943Y-83118906D01*
X108395993Y-83132809D01*
X108376306Y-83139418D01*
X108360658Y-83130415D01*
X108343199Y-83105046D01*
X108320054Y-83053101D01*
X108298802Y-82977454D01*
X108279979Y-82880420D01*
X108264118Y-82764311D01*
X108263781Y-82761334D01*
X108256359Y-82696107D01*
X108248883Y-82631464D01*
X108242557Y-82577780D01*
X108240449Y-82560308D01*
X108231698Y-82488667D01*
X108153695Y-82489737D01*
X108113337Y-82490297D01*
X108053567Y-82491136D01*
X107981023Y-82492159D01*
X107902341Y-82493274D01*
X107860769Y-82493864D01*
X107787063Y-82494368D01*
X107721331Y-82493797D01*
X107668505Y-82492273D01*
X107633518Y-82489919D01*
X107622569Y-82487960D01*
X107595359Y-82465714D01*
X107575062Y-82428795D01*
X107566927Y-82388527D01*
X107568750Y-82371859D01*
X107594113Y-82323315D01*
X107644544Y-82280164D01*
X107720144Y-82242359D01*
X107821017Y-82209855D01*
X107947267Y-82182605D01*
X108019378Y-82171018D01*
X108179897Y-82147667D01*
X108178325Y-82083706D01*
X108174034Y-82034489D01*
X108163748Y-81965615D01*
X108148581Y-81882491D01*
X108129647Y-81790524D01*
X108108060Y-81695119D01*
X108084931Y-81601683D01*
X108061375Y-81515622D01*
X108061252Y-81515200D01*
X108037012Y-81435175D01*
X108012586Y-81360557D01*
X107989407Y-81295180D01*
X107968906Y-81242879D01*
X107952516Y-81207491D01*
X107941670Y-81192849D01*
X107940794Y-81192668D01*
X107916085Y-81195218D01*
X107871641Y-81202004D01*
X107813237Y-81211972D01*
X107746646Y-81224070D01*
X107677641Y-81237244D01*
X107611998Y-81250442D01*
X107555490Y-81262609D01*
X107548061Y-81264303D01*
X107457846Y-81287176D01*
X107351215Y-81317652D01*
X107235824Y-81353373D01*
X107119326Y-81391976D01*
X107020859Y-81426867D01*
X106954341Y-81448099D01*
X106888651Y-81463529D01*
X106830959Y-81471855D01*
X106788436Y-81471774D01*
X106781337Y-81470372D01*
X106754795Y-81452662D01*
X106743635Y-81416461D01*
X106747378Y-81360183D01*
X106747647Y-81358571D01*
X106756718Y-81325677D01*
X106774783Y-81293749D01*
X106806126Y-81256364D01*
X106836622Y-81225127D01*
X106918234Y-81158022D01*
X107024351Y-81093633D01*
X107153508Y-81032614D01*
X107304241Y-80975617D01*
X107475084Y-80923296D01*
X107567692Y-80899068D01*
X107635239Y-80882127D01*
X107693307Y-80867209D01*
X107737442Y-80855486D01*
X107763189Y-80848130D01*
X107767904Y-80846365D01*
X107763756Y-80833931D01*
X107746354Y-80806000D01*
X107719078Y-80767127D01*
X107685305Y-80721865D01*
X107648413Y-80674769D01*
X107611780Y-80630394D01*
X107585911Y-80600986D01*
X107544541Y-80559495D01*
X107500891Y-80521629D01*
X107464606Y-80495711D01*
X107395579Y-80446500D01*
X107352067Y-80394913D01*
X107334203Y-80341319D01*
X107342121Y-80286085D01*
X107369994Y-80237106D01*
X107422542Y-80184190D01*
X107480823Y-80156423D01*
X107545797Y-80153609D01*
X107618427Y-80175548D01*
G37*
G36*
X108482881Y-79390234D02*
G01*
X108681077Y-79412387D01*
X108862676Y-79448792D01*
X109013538Y-79494856D01*
X109060642Y-79511521D01*
X109099751Y-79524307D01*
X109123074Y-79530680D01*
X109124256Y-79530869D01*
X109146412Y-79536960D01*
X109182871Y-79551701D01*
X109236009Y-79576165D01*
X109308201Y-79611427D01*
X109361381Y-79638077D01*
X109549133Y-79747288D01*
X109725464Y-79879449D01*
X109888934Y-80033445D01*
X109929282Y-80077069D01*
X109964061Y-80116286D01*
X109993543Y-80151252D01*
X110021651Y-80187175D01*
X110052309Y-80229262D01*
X110089442Y-80282723D01*
X110136768Y-80352462D01*
X110169111Y-80405347D01*
X110208017Y-80476733D01*
X110250727Y-80560795D01*
X110294481Y-80651709D01*
X110336515Y-80743652D01*
X110374071Y-80830798D01*
X110404387Y-80907323D01*
X110417857Y-80945428D01*
X110475916Y-81142880D01*
X110524451Y-81352972D01*
X110562682Y-81569723D01*
X110589829Y-81787150D01*
X110605112Y-81999272D01*
X110607749Y-82200106D01*
X110600500Y-82345385D01*
X110584494Y-82519646D01*
X110566531Y-82673361D01*
X110545547Y-82812017D01*
X110520481Y-82941105D01*
X110490270Y-83066113D01*
X110453850Y-83192530D01*
X110411375Y-83322308D01*
X110321199Y-83550975D01*
X110212426Y-83767348D01*
X110086590Y-83969358D01*
X109945224Y-84154934D01*
X109789860Y-84322006D01*
X109622031Y-84468504D01*
X109495487Y-84559326D01*
X109402674Y-84617802D01*
X109311742Y-84670502D01*
X109226756Y-84715360D01*
X109151784Y-84750310D01*
X109090890Y-84773284D01*
X109059128Y-84781086D01*
X109044016Y-84787513D01*
X109023307Y-84798382D01*
X109001705Y-84807620D01*
X108993999Y-84806192D01*
X108984744Y-84806356D01*
X108962381Y-84818443D01*
X108961435Y-84819059D01*
X108938686Y-84832206D01*
X108928880Y-84834383D01*
X108928871Y-84834248D01*
X108918338Y-84834729D01*
X108892155Y-84843558D01*
X108883282Y-84847148D01*
X108854239Y-84857634D01*
X108838576Y-84860081D01*
X108837692Y-84859050D01*
X108828226Y-84858443D01*
X108813656Y-84864768D01*
X108796487Y-84872819D01*
X108774736Y-84879801D01*
X108741445Y-84887572D01*
X108689654Y-84897989D01*
X108687897Y-84898332D01*
X108650223Y-84906745D01*
X108622769Y-84914249D01*
X108610694Y-84918050D01*
X108599006Y-84921211D01*
X108583005Y-84924600D01*
X108557990Y-84929082D01*
X108519261Y-84935523D01*
X108462117Y-84944788D01*
X108420871Y-84951445D01*
X108355828Y-84961404D01*
X108292685Y-84970148D01*
X108240637Y-84976445D01*
X108218974Y-84978505D01*
X108178152Y-84981879D01*
X108120310Y-84986976D01*
X108054359Y-84993000D01*
X108010564Y-84997113D01*
X107949554Y-85001264D01*
X107870056Y-85004252D01*
X107779611Y-85005925D01*
X107778372Y-85005928D01*
X107685763Y-85006130D01*
X107613282Y-85005134D01*
X107513037Y-85002645D01*
X107432069Y-84999833D01*
X107363603Y-84996268D01*
X107300866Y-84991520D01*
X107237082Y-84985157D01*
X107165477Y-84976749D01*
X107163897Y-84976554D01*
X107128111Y-84972190D01*
X107080259Y-84966412D01*
X107053179Y-84963162D01*
X107015083Y-84957635D01*
X106958416Y-84948243D01*
X106890146Y-84936265D01*
X106817240Y-84922979D01*
X106746668Y-84909661D01*
X106685396Y-84897590D01*
X106640393Y-84888042D01*
X106629846Y-84885550D01*
X106593727Y-84876765D01*
X106577743Y-84872965D01*
X106549898Y-84866239D01*
X106506585Y-84855594D01*
X106456811Y-84843265D01*
X106409583Y-84831487D01*
X106373909Y-84822495D01*
X106362820Y-84819638D01*
X106302344Y-84803435D01*
X106249474Y-84788447D01*
X106192350Y-84771231D01*
X106141384Y-84755353D01*
X106087357Y-84738965D01*
X106039369Y-84725436D01*
X106005363Y-84716970D01*
X105998102Y-84715590D01*
X105960797Y-84709940D01*
X105907865Y-84702012D01*
X105846044Y-84692806D01*
X105782068Y-84683320D01*
X105722674Y-84674552D01*
X105674598Y-84667502D01*
X105644576Y-84663167D01*
X105642128Y-84662824D01*
X105611803Y-84657050D01*
X105595191Y-84651470D01*
X105577811Y-84647056D01*
X105542480Y-84641724D01*
X105501780Y-84637138D01*
X105450588Y-84631868D01*
X105384724Y-84624677D01*
X105315378Y-84616799D01*
X105287528Y-84613536D01*
X105226117Y-84607792D01*
X105169785Y-84605230D01*
X105126667Y-84606103D01*
X105111681Y-84608105D01*
X105064721Y-84617434D01*
X105021179Y-84624574D01*
X104978969Y-84630484D01*
X104941780Y-84635677D01*
X104910808Y-84642393D01*
X104894077Y-84648974D01*
X104872387Y-84654533D01*
X104828558Y-84659639D01*
X104766502Y-84664215D01*
X104690129Y-84668180D01*
X104603348Y-84671458D01*
X104510071Y-84673968D01*
X104414208Y-84675633D01*
X104319669Y-84676373D01*
X104230365Y-84676110D01*
X104150205Y-84674765D01*
X104083101Y-84672260D01*
X104032963Y-84668515D01*
X104018205Y-84666601D01*
X103975074Y-84660117D01*
X103925294Y-84653014D01*
X103913999Y-84651460D01*
X103770590Y-84620585D01*
X103621356Y-84567416D01*
X103469373Y-84494144D01*
X103317720Y-84402958D01*
X103169472Y-84296047D01*
X103027707Y-84175602D01*
X102895502Y-84043813D01*
X102775932Y-83902868D01*
X102686990Y-83778206D01*
X102622758Y-83670993D01*
X102562534Y-83553897D01*
X102509669Y-83434442D01*
X102467512Y-83320150D01*
X102441044Y-83225931D01*
X102431340Y-83195411D01*
X102414374Y-83165430D01*
X102386313Y-83130759D01*
X102343323Y-83086165D01*
X102326483Y-83069623D01*
X102229107Y-82959925D01*
X102137559Y-82827214D01*
X102053089Y-82674120D01*
X101976943Y-82503275D01*
X101910370Y-82317311D01*
X101854617Y-82118860D01*
X101834803Y-82032770D01*
X101809681Y-81900878D01*
X101795700Y-81784148D01*
X101795128Y-81757900D01*
X102199529Y-81757900D01*
X102200150Y-81764328D01*
X102212685Y-81826254D01*
X102236937Y-81905554D01*
X102270866Y-81997482D01*
X102312430Y-82097291D01*
X102359587Y-82200233D01*
X102410296Y-82301561D01*
X102462515Y-82396529D01*
X102495773Y-82451758D01*
X102562043Y-82557598D01*
X102615912Y-82644274D01*
X102659005Y-82714575D01*
X102692946Y-82771290D01*
X102719361Y-82817208D01*
X102739875Y-82855117D01*
X102756112Y-82887807D01*
X102769699Y-82918066D01*
X102775342Y-82931539D01*
X102798246Y-82983447D01*
X102822300Y-83032011D01*
X102842311Y-83066747D01*
X102842372Y-83066839D01*
X102865945Y-83109843D01*
X102883875Y-83155615D01*
X102885010Y-83159620D01*
X102938613Y-83309318D01*
X103017870Y-83455441D01*
X103122853Y-83598111D01*
X103208908Y-83693147D01*
X103265597Y-83748662D01*
X103327872Y-83805386D01*
X103391062Y-83859464D01*
X103450496Y-83907038D01*
X103501502Y-83944250D01*
X103539410Y-83967243D01*
X103542769Y-83968824D01*
X103568180Y-83981958D01*
X103605897Y-84003302D01*
X103633948Y-84019932D01*
X103686229Y-84049783D01*
X103743936Y-84079921D01*
X103801280Y-84107642D01*
X103852474Y-84130247D01*
X103891729Y-84145033D01*
X103911449Y-84149436D01*
X103938285Y-84155047D01*
X103947215Y-84160309D01*
X103965748Y-84170881D01*
X103999753Y-84186130D01*
X104024717Y-84196130D01*
X104078476Y-84209455D01*
X104152839Y-84217532D01*
X104242939Y-84220589D01*
X104343912Y-84218851D01*
X104450891Y-84212548D01*
X104559011Y-84201905D01*
X104663406Y-84187150D01*
X104759211Y-84168511D01*
X104793179Y-84160242D01*
X104848226Y-84146371D01*
X104889316Y-84137347D01*
X104927520Y-84130784D01*
X104935179Y-84129646D01*
X104975850Y-84121280D01*
X105014681Y-84110354D01*
X105043944Y-84101288D01*
X105071739Y-84094691D01*
X105102912Y-84090164D01*
X105142309Y-84087312D01*
X105194776Y-84085736D01*
X105265159Y-84085039D01*
X105325604Y-84084865D01*
X105423325Y-84085065D01*
X105498142Y-84086126D01*
X105553192Y-84088225D01*
X105591614Y-84091534D01*
X105616544Y-84096227D01*
X105630029Y-84101773D01*
X105650920Y-84108761D01*
X105684342Y-84115032D01*
X105686936Y-84115378D01*
X105718929Y-84122207D01*
X105767080Y-84135629D01*
X105823093Y-84153256D01*
X105848307Y-84161804D01*
X105907741Y-84182299D01*
X105965319Y-84201909D01*
X106011499Y-84217392D01*
X106024153Y-84221545D01*
X106056501Y-84231432D01*
X106107588Y-84246338D01*
X106171964Y-84264742D01*
X106244178Y-84285121D01*
X106318778Y-84305954D01*
X106390315Y-84325718D01*
X106453335Y-84342892D01*
X106502389Y-84355953D01*
X106532025Y-84363379D01*
X106532566Y-84363501D01*
X106560657Y-84370322D01*
X106604900Y-84381633D01*
X106656300Y-84395130D01*
X106662410Y-84396757D01*
X106716584Y-84410366D01*
X106767206Y-84421653D01*
X106803888Y-84428314D01*
X106805692Y-84428551D01*
X106843913Y-84434991D01*
X106894116Y-84445510D01*
X106929435Y-84453882D01*
X107037953Y-84476216D01*
X107166863Y-84494632D01*
X107310763Y-84508863D01*
X107464249Y-84518640D01*
X107621919Y-84523695D01*
X107778372Y-84523759D01*
X107928203Y-84518565D01*
X108049641Y-84509495D01*
X108135908Y-84500958D01*
X108201739Y-84493984D01*
X108252647Y-84487838D01*
X108294143Y-84481785D01*
X108331742Y-84475090D01*
X108370957Y-84467018D01*
X108375282Y-84466085D01*
X108403086Y-84460193D01*
X108428066Y-84455393D01*
X108460921Y-84449711D01*
X108492512Y-84444454D01*
X108529653Y-84436251D01*
X108575402Y-84423533D01*
X108590205Y-84418884D01*
X108635349Y-84404743D01*
X108677299Y-84392500D01*
X108687897Y-84389645D01*
X108872301Y-84330077D01*
X109048854Y-84249990D01*
X109195949Y-84162427D01*
X109365679Y-84033083D01*
X109518058Y-83885645D01*
X109653403Y-83719624D01*
X109772032Y-83534535D01*
X109874262Y-83329890D01*
X109960411Y-83105204D01*
X110021444Y-82897275D01*
X110033473Y-82844395D01*
X110047610Y-82772815D01*
X110062645Y-82689674D01*
X110077366Y-82602110D01*
X110090560Y-82517262D01*
X110101017Y-82442268D01*
X110106263Y-82397488D01*
X110109044Y-82349146D01*
X110110084Y-82280404D01*
X110109568Y-82196842D01*
X110107680Y-82104039D01*
X110104606Y-82007575D01*
X110100530Y-81913030D01*
X110095636Y-81825984D01*
X110090109Y-81752017D01*
X110084134Y-81696708D01*
X110082777Y-81687590D01*
X110050895Y-81506719D01*
X110015938Y-81346335D01*
X109976204Y-81200909D01*
X109929990Y-81064915D01*
X109875595Y-80932823D01*
X109811316Y-80799105D01*
X109806031Y-80788821D01*
X109736547Y-80663903D01*
X109662768Y-80552209D01*
X109580665Y-80449098D01*
X109486212Y-80349929D01*
X109375380Y-80250063D01*
X109252991Y-80151659D01*
X109225526Y-80133869D01*
X109182845Y-80110008D01*
X109130661Y-80082854D01*
X109074689Y-80055187D01*
X109020643Y-80029785D01*
X108974235Y-80009428D01*
X108941180Y-79996894D01*
X108929375Y-79994257D01*
X108902130Y-79986290D01*
X108894102Y-79980329D01*
X108869764Y-79965214D01*
X108862189Y-79962984D01*
X108839381Y-79957403D01*
X108802822Y-79947308D01*
X108785589Y-79942310D01*
X108746136Y-79931284D01*
X108715197Y-79923661D01*
X108707435Y-79922176D01*
X108681755Y-79917709D01*
X108645560Y-79910710D01*
X108642307Y-79910053D01*
X108568415Y-79896200D01*
X108500028Y-79886248D01*
X108485999Y-79884529D01*
X108451418Y-79881981D01*
X108399148Y-79880031D01*
X108335167Y-79878701D01*
X108265451Y-79878011D01*
X108195978Y-79877985D01*
X108132724Y-79878643D01*
X108081667Y-79880008D01*
X108048783Y-79882100D01*
X108043128Y-79882917D01*
X108009516Y-79888361D01*
X107965448Y-79894189D01*
X107951948Y-79895748D01*
X107905549Y-79902942D01*
X107849547Y-79914426D01*
X107815179Y-79922779D01*
X107764356Y-79936102D01*
X107716246Y-79948657D01*
X107691280Y-79955133D01*
X107654539Y-79965837D01*
X107614351Y-79980371D01*
X107566478Y-80000586D01*
X107506684Y-80028334D01*
X107430732Y-80065465D01*
X107375564Y-80093058D01*
X107316490Y-80122407D01*
X107266679Y-80146462D01*
X107230235Y-80163295D01*
X107211263Y-80170977D01*
X107209487Y-80171065D01*
X107198423Y-80172075D01*
X107167398Y-80183366D01*
X107119663Y-80203393D01*
X107058470Y-80230610D01*
X106987070Y-80263471D01*
X106908713Y-80300431D01*
X106826652Y-80339944D01*
X106744136Y-80380464D01*
X106664417Y-80420445D01*
X106590747Y-80458343D01*
X106526375Y-80492610D01*
X106486564Y-80514765D01*
X106428938Y-80547059D01*
X106376787Y-80575136D01*
X106335706Y-80596061D01*
X106311287Y-80606895D01*
X106310717Y-80607083D01*
X106279993Y-80617652D01*
X106236874Y-80633301D01*
X106209407Y-80643573D01*
X106170151Y-80658078D01*
X106141179Y-80668115D01*
X106131253Y-80670974D01*
X106113690Y-80674966D01*
X106081486Y-80683234D01*
X106070542Y-80686154D01*
X106036603Y-80692148D01*
X105982915Y-80698018D01*
X105915778Y-80703346D01*
X105841491Y-80707710D01*
X105766356Y-80710691D01*
X105696672Y-80711866D01*
X105685487Y-80711855D01*
X105574155Y-80710364D01*
X105461806Y-80706999D01*
X105353593Y-80702051D01*
X105254670Y-80695809D01*
X105170191Y-80688564D01*
X105105309Y-80680604D01*
X105092672Y-80678522D01*
X105057532Y-80673386D01*
X105009356Y-80667645D01*
X104976611Y-80664287D01*
X104921353Y-80657611D01*
X104865541Y-80648659D01*
X104839989Y-80643528D01*
X104804877Y-80638742D01*
X104749441Y-80634812D01*
X104679397Y-80631804D01*
X104600462Y-80629787D01*
X104518351Y-80628825D01*
X104438780Y-80628986D01*
X104367464Y-80630336D01*
X104310120Y-80632942D01*
X104272464Y-80636870D01*
X104272205Y-80636916D01*
X104226755Y-80645279D01*
X104191209Y-80652430D01*
X104149796Y-80661569D01*
X104141948Y-80663344D01*
X104105319Y-80671440D01*
X104058167Y-80681613D01*
X104037743Y-80685952D01*
X103969355Y-80705341D01*
X103883283Y-80737769D01*
X103783334Y-80781552D01*
X103673315Y-80835003D01*
X103557033Y-80896438D01*
X103536256Y-80907922D01*
X103453572Y-80961124D01*
X103360159Y-81034145D01*
X103258885Y-81124583D01*
X103154958Y-81227600D01*
X103113446Y-81275273D01*
X103072754Y-81329882D01*
X103036555Y-81385567D01*
X103008521Y-81436470D01*
X102992324Y-81476732D01*
X102989811Y-81491065D01*
X102979366Y-81524570D01*
X102953795Y-81566175D01*
X102918956Y-81608546D01*
X102880708Y-81644350D01*
X102852560Y-81662859D01*
X102812593Y-81679228D01*
X102774798Y-81684284D01*
X102729189Y-81678449D01*
X102692766Y-81669588D01*
X102669454Y-81663878D01*
X102662475Y-81662536D01*
X102651842Y-81651946D01*
X102632274Y-81625632D01*
X102614753Y-81599581D01*
X102586059Y-81562452D01*
X102547348Y-81526664D01*
X102493191Y-81487578D01*
X102455026Y-81463102D01*
X102404240Y-81432203D01*
X102360302Y-81406851D01*
X102328669Y-81390113D01*
X102316165Y-81385034D01*
X102298458Y-81394127D01*
X102278572Y-81423984D01*
X102258044Y-81469581D01*
X102238409Y-81525896D01*
X102221204Y-81587908D01*
X102207965Y-81650594D01*
X102200228Y-81708932D01*
X102199529Y-81757900D01*
X101795128Y-81757900D01*
X101793344Y-81676044D01*
X101803097Y-81570029D01*
X101825445Y-81459566D01*
X101860871Y-81338119D01*
X101893222Y-81244422D01*
X101930036Y-81155553D01*
X101970497Y-81087461D01*
X102019165Y-81034891D01*
X102080603Y-80992584D01*
X102135131Y-80965604D01*
X102191444Y-80944806D01*
X102246845Y-80934605D01*
X102309443Y-80934388D01*
X102387345Y-80943543D01*
X102400140Y-80945571D01*
X102448220Y-80956446D01*
X102501831Y-80973268D01*
X102554013Y-80993263D01*
X102597806Y-81013659D01*
X102626248Y-81031681D01*
X102631988Y-81037949D01*
X102651459Y-81049304D01*
X102676509Y-81044589D01*
X102694797Y-81026645D01*
X102696133Y-81023185D01*
X102710806Y-80994197D01*
X102739315Y-80951194D01*
X102777728Y-80899211D01*
X102822109Y-80843281D01*
X102868527Y-80788440D01*
X102913046Y-80739721D01*
X102934396Y-80718231D01*
X102983305Y-80672351D01*
X103030268Y-80632166D01*
X103078621Y-80595782D01*
X103131700Y-80561302D01*
X103192841Y-80526832D01*
X103265380Y-80490476D01*
X103352653Y-80450339D01*
X103457997Y-80404525D01*
X103568820Y-80357789D01*
X103683428Y-80310493D01*
X103778386Y-80272895D01*
X103857690Y-80243756D01*
X103925333Y-80221835D01*
X103985311Y-80205894D01*
X104041617Y-80194692D01*
X104098247Y-80186990D01*
X104128923Y-80183977D01*
X104176412Y-80178252D01*
X104219811Y-80170543D01*
X104233128Y-80167302D01*
X104264522Y-80162789D01*
X104317079Y-80159928D01*
X104385968Y-80158610D01*
X104466358Y-80158724D01*
X104553422Y-80160159D01*
X104642328Y-80162805D01*
X104728246Y-80166552D01*
X104806349Y-80171289D01*
X104871804Y-80176906D01*
X104917809Y-80182946D01*
X105166752Y-80220225D01*
X105399702Y-80243386D01*
X105615055Y-80252343D01*
X105811212Y-80247005D01*
X105911369Y-80237823D01*
X105975502Y-80226634D01*
X106042665Y-80208991D01*
X106103789Y-80187720D01*
X106149804Y-80165647D01*
X106156170Y-80161541D01*
X106189776Y-80141221D01*
X106232690Y-80118748D01*
X106247349Y-80111785D01*
X106285193Y-80092128D01*
X106335220Y-80063104D01*
X106388170Y-80030142D01*
X106401897Y-80021186D01*
X106472770Y-79975327D01*
X106549063Y-79927559D01*
X106627519Y-79879753D01*
X106704883Y-79833782D01*
X106777900Y-79791518D01*
X106843315Y-79754836D01*
X106897871Y-79725605D01*
X106938314Y-79705701D01*
X106961387Y-79696994D01*
X106965180Y-79697178D01*
X106977575Y-79693600D01*
X107003518Y-79681139D01*
X107007589Y-79678975D01*
X107064520Y-79651799D01*
X107142612Y-79620286D01*
X107243556Y-79583772D01*
X107300666Y-79564260D01*
X107357798Y-79544396D01*
X107409232Y-79525368D01*
X107447488Y-79509995D01*
X107460230Y-79504106D01*
X107484920Y-79493367D01*
X107496005Y-79492547D01*
X107496051Y-79492894D01*
X107505703Y-79493098D01*
X107525358Y-79484400D01*
X107558938Y-79470653D01*
X107580717Y-79465586D01*
X107604934Y-79461265D01*
X107646785Y-79452377D01*
X107698606Y-79440574D01*
X107717487Y-79436106D01*
X107789564Y-79419305D01*
X107850891Y-79406445D01*
X107906888Y-79397002D01*
X107962979Y-79390456D01*
X108024584Y-79386283D01*
X108097125Y-79383962D01*
X108186024Y-79382970D01*
X108271076Y-79382783D01*
X108482881Y-79390234D01*
G37*
D12*
X116887500Y-104252500D02*
X119887500Y-104252500D01*
X116887500Y-107472500D02*
X119887500Y-107472500D01*
X116337500Y-104562500D02*
X115857500Y-104562500D01*
X116337500Y-104082500D01*
X116337500Y-104562500D01*
G36*
X116337500Y-104562500D02*
G01*
X115857500Y-104562500D01*
X116337500Y-104082500D01*
X116337500Y-104562500D01*
G37*
X114615000Y-84213748D02*
X114615000Y-84736252D01*
X116085000Y-84213748D02*
X116085000Y-84736252D01*
X119655000Y-108200000D02*
X119325000Y-108200000D01*
X119655000Y-111545000D02*
X119655000Y-108200000D01*
X122245000Y-108200000D02*
X122575000Y-108200000D01*
X122245000Y-112300000D02*
X122245000Y-108200000D01*
X122575000Y-112300000D02*
X122245000Y-112300000D01*
X118813748Y-92885000D02*
X119336252Y-92885000D01*
X118813748Y-91415000D02*
X119336252Y-91415000D01*
X111387500Y-82345000D02*
X115487500Y-82345000D01*
X111387500Y-82675000D02*
X111387500Y-82345000D01*
X112142500Y-79755000D02*
X115487500Y-79755000D01*
X115487500Y-79755000D02*
X115487500Y-79425000D01*
X115487500Y-82345000D02*
X115487500Y-82675000D01*
X126672500Y-113238748D02*
X126672500Y-113761252D01*
X125202500Y-113238748D02*
X125202500Y-113761252D01*
X123390000Y-95190000D02*
X123390000Y-107810000D01*
X123390000Y-107810000D02*
X129360000Y-107810000D01*
X124150000Y-95950000D02*
X124150000Y-101500000D01*
X124150000Y-107050000D02*
X124150000Y-101500000D01*
X127100000Y-95200000D02*
X127100000Y-95950000D01*
X127100000Y-95950000D02*
X124150000Y-95950000D01*
X127100000Y-107050000D02*
X124150000Y-107050000D01*
X127100000Y-107800000D02*
X127100000Y-107050000D01*
X128600000Y-95200000D02*
X128600000Y-97000000D01*
X128600000Y-97000000D02*
X129350000Y-97000000D01*
X128600000Y-98500000D02*
X128600000Y-104500000D01*
X128600000Y-104500000D02*
X129350000Y-104500000D01*
X128600000Y-106000000D02*
X128600000Y-107800000D01*
X128600000Y-107800000D02*
X129350000Y-107800000D01*
X129350000Y-95200000D02*
X128600000Y-95200000D01*
X129350000Y-97000000D02*
X129350000Y-95200000D01*
X129350000Y-98500000D02*
X128600000Y-98500000D01*
X129350000Y-104500000D02*
X129350000Y-98500000D01*
X129350000Y-106000000D02*
X128600000Y-106000000D01*
X129350000Y-107800000D02*
X129350000Y-106000000D01*
X129360000Y-95190000D02*
X123390000Y-95190000D01*
X129360000Y-107810000D02*
X129360000Y-95190000D01*
X129650000Y-94900000D02*
X128400000Y-94900000D01*
X129650000Y-96150000D02*
X129650000Y-94900000D01*
X115840000Y-88400000D02*
X115840000Y-90100000D01*
X115840000Y-88400000D02*
X118500000Y-88400000D01*
X115840000Y-90100000D02*
X118500000Y-90100000D01*
X116962500Y-82390000D02*
X119962500Y-82390000D01*
X116962500Y-85610000D02*
X119962500Y-85610000D01*
X116412500Y-82700000D02*
X115932500Y-82700000D01*
X116412500Y-82220000D01*
X116412500Y-82700000D01*
G36*
X116412500Y-82700000D02*
G01*
X115932500Y-82700000D01*
X116412500Y-82220000D01*
X116412500Y-82700000D01*
G37*
X129935000Y-115435000D02*
X129935000Y-113965000D01*
X129935000Y-113965000D02*
X127650000Y-113965000D01*
X127650000Y-115435000D02*
X129935000Y-115435000D01*
X116925000Y-115065000D02*
X119925000Y-115065000D01*
X116925000Y-118285000D02*
X119925000Y-118285000D01*
X116375000Y-115375000D02*
X115895000Y-115375000D01*
X116375000Y-114895000D01*
X116375000Y-115375000D01*
G36*
X116375000Y-115375000D02*
G01*
X115895000Y-115375000D01*
X116375000Y-114895000D01*
X116375000Y-115375000D01*
G37*
X119605000Y-97412500D02*
X119275000Y-97412500D01*
X119605000Y-100757500D02*
X119605000Y-97412500D01*
X122195000Y-97412500D02*
X122525000Y-97412500D01*
X122195000Y-101512500D02*
X122195000Y-97412500D01*
X122525000Y-101512500D02*
X122195000Y-101512500D01*
X120965000Y-114322936D02*
X120965000Y-114777064D01*
X122435000Y-114322936D02*
X122435000Y-114777064D01*
X115425000Y-93295000D02*
X115425000Y-93625000D01*
X115425000Y-90705000D02*
X115425000Y-90375000D01*
X112080000Y-90705000D02*
X115425000Y-90705000D01*
X111325000Y-93625000D02*
X111325000Y-93295000D01*
X111325000Y-93295000D02*
X115425000Y-93295000D01*
X116115000Y-80987258D02*
X116115000Y-80512742D01*
X117160000Y-80987258D02*
X117160000Y-80512742D01*
X122385000Y-103535436D02*
X122385000Y-103989564D01*
X120915000Y-103535436D02*
X120915000Y-103989564D01*
X115790000Y-99312500D02*
X115790000Y-101012500D01*
X115790000Y-99312500D02*
X118450000Y-99312500D01*
X115790000Y-101012500D02*
X118450000Y-101012500D01*
X114565000Y-95188748D02*
X114565000Y-95711252D01*
X116035000Y-95188748D02*
X116035000Y-95711252D01*
X112422936Y-82990000D02*
X112877064Y-82990000D01*
X112422936Y-84460000D02*
X112877064Y-84460000D01*
X121052500Y-81635436D02*
X121052500Y-82089564D01*
X122522500Y-81635436D02*
X122522500Y-82089564D01*
X114515000Y-106101248D02*
X114515000Y-106623752D01*
X115985000Y-106101248D02*
X115985000Y-106623752D01*
X115400000Y-114995000D02*
X115400000Y-115325000D01*
X115400000Y-112405000D02*
X115400000Y-112075000D01*
X112055000Y-112405000D02*
X115400000Y-112405000D01*
X111300000Y-115325000D02*
X111300000Y-114995000D01*
X111300000Y-114995000D02*
X115400000Y-114995000D01*
X116975000Y-93365000D02*
X119975000Y-93365000D01*
X116975000Y-96585000D02*
X119975000Y-96585000D01*
X116425000Y-93675000D02*
X115945000Y-93675000D01*
X116425000Y-93195000D01*
X116425000Y-93675000D01*
G36*
X116425000Y-93675000D02*
G01*
X115945000Y-93675000D01*
X116425000Y-93195000D01*
X116425000Y-93675000D01*
G37*
X118851248Y-80440000D02*
X119373752Y-80440000D01*
X118851248Y-81910000D02*
X119373752Y-81910000D01*
X112372936Y-115665000D02*
X112827064Y-115665000D01*
X112372936Y-117135000D02*
X112827064Y-117135000D01*
X117122500Y-91912258D02*
X117122500Y-91437742D01*
X116077500Y-91912258D02*
X116077500Y-91437742D01*
X115840000Y-110100000D02*
X115840000Y-111800000D01*
X115840000Y-110100000D02*
X118500000Y-110100000D01*
X115840000Y-111800000D02*
X118500000Y-111800000D01*
X116027500Y-113612258D02*
X116027500Y-113137742D01*
X117072500Y-113612258D02*
X117072500Y-113137742D01*
X112310436Y-104877500D02*
X112764564Y-104877500D01*
X112310436Y-106347500D02*
X112764564Y-106347500D01*
X120990000Y-92635436D02*
X120990000Y-93089564D01*
X122460000Y-92635436D02*
X122460000Y-93089564D01*
X115902500Y-77425000D02*
X115902500Y-79125000D01*
X115902500Y-77425000D02*
X118562500Y-77425000D01*
X115902500Y-79125000D02*
X118562500Y-79125000D01*
X128699758Y-117422500D02*
X128225242Y-117422500D01*
X128699758Y-116377500D02*
X128225242Y-116377500D01*
X111275000Y-104182500D02*
X115375000Y-104182500D01*
X111275000Y-104512500D02*
X111275000Y-104182500D01*
X112030000Y-101592500D02*
X115375000Y-101592500D01*
X115375000Y-101592500D02*
X115375000Y-101262500D01*
X115375000Y-104182500D02*
X115375000Y-104512500D01*
X118788748Y-113115000D02*
X119311252Y-113115000D01*
X118788748Y-114585000D02*
X119311252Y-114585000D01*
X114565000Y-116888748D02*
X114565000Y-117411252D01*
X116035000Y-116888748D02*
X116035000Y-117411252D01*
X112397936Y-93965000D02*
X112852064Y-93965000D01*
X112397936Y-95435000D02*
X112852064Y-95435000D01*
X118713748Y-102327500D02*
X119236252Y-102327500D01*
X118713748Y-103797500D02*
X119236252Y-103797500D01*
X128030000Y-109240000D02*
X127790000Y-108910000D01*
X128270000Y-108910000D01*
X128030000Y-109240000D01*
G36*
X128030000Y-109240000D02*
G01*
X127790000Y-108910000D01*
X128270000Y-108910000D01*
X128030000Y-109240000D01*
G37*
X131160000Y-113810000D02*
X128440000Y-113810000D01*
X131160000Y-112830000D02*
X131160000Y-113810000D01*
X131160000Y-110070000D02*
X131160000Y-109090000D01*
X128580000Y-109090000D02*
X131160000Y-109090000D01*
%LPC*%
D14*
X116525000Y-101762500D03*
X116525000Y-103412500D03*
D15*
X125937500Y-111000000D03*
X125937500Y-109100000D03*
D16*
X130450000Y-102250000D03*
X130450000Y-103650000D03*
D17*
X135500000Y-115000000D03*
D18*
X125250000Y-77100000D03*
D19*
X131550000Y-77100000D03*
D20*
X128150000Y-72300000D03*
D17*
X104500000Y-115000000D03*
D21*
X108350000Y-100950000D03*
X108350000Y-98950000D03*
X108350000Y-96950000D03*
X108350000Y-94950000D03*
X108350000Y-92950000D03*
D22*
X108350000Y-90950000D03*
D17*
X104500000Y-75000000D03*
D23*
X121325000Y-79075000D03*
X120675000Y-79075000D03*
X120025000Y-79075000D03*
X121975000Y-79075000D03*
X121975000Y-76075000D03*
X121325000Y-76075000D03*
X120675000Y-76075000D03*
X120025000Y-76075000D03*
D24*
X121000000Y-77186250D03*
D23*
X121325000Y-90050000D03*
X120675000Y-90050000D03*
X120025000Y-90050000D03*
X121975000Y-90050000D03*
X121975000Y-87050000D03*
X121325000Y-87050000D03*
X120675000Y-87050000D03*
X120025000Y-87050000D03*
D24*
X121000000Y-88161250D03*
D25*
X128950000Y-90550000D03*
D26*
X128950000Y-85550000D03*
D16*
X130450000Y-97300000D03*
X130450000Y-95900000D03*
D14*
X133400000Y-105350000D03*
X133400000Y-107000000D03*
D21*
X137450000Y-106550000D03*
X137450000Y-104550000D03*
X137450000Y-102550000D03*
X137450000Y-100550000D03*
X137450000Y-98550000D03*
D22*
X137450000Y-96550000D03*
D14*
X133400000Y-99000000D03*
X133400000Y-100650000D03*
D27*
X130450000Y-99350000D03*
X130450000Y-100750000D03*
D28*
X133400000Y-97650000D03*
X133400000Y-96000000D03*
X133400000Y-104000000D03*
X133400000Y-102350000D03*
D27*
X130450000Y-105700000D03*
X130450000Y-107100000D03*
D28*
X131900000Y-105350000D03*
X131900000Y-107000000D03*
X131900000Y-102350000D03*
X131900000Y-104000000D03*
X131900000Y-99000000D03*
X131900000Y-100650000D03*
X131900000Y-96000000D03*
X131900000Y-97650000D03*
D29*
X116925000Y-104862500D03*
X116925000Y-105362500D03*
X116925000Y-105862500D03*
X116925000Y-106362500D03*
X116925000Y-106862500D03*
X119850000Y-106862500D03*
X119850000Y-106362500D03*
X119850000Y-105862500D03*
X119850000Y-105362500D03*
X119850000Y-104862500D03*
D30*
X118387500Y-105862500D03*
D31*
X115350000Y-83525000D03*
X115350000Y-85425000D03*
D24*
X120950000Y-109861250D03*
D23*
X119975000Y-108750000D03*
X120625000Y-108750000D03*
X121275000Y-108750000D03*
X121925000Y-108750000D03*
X121925000Y-111750000D03*
X119975000Y-111750000D03*
X120625000Y-111750000D03*
X121275000Y-111750000D03*
D32*
X118125000Y-92150000D03*
X120025000Y-92150000D03*
D33*
X113826250Y-81050000D03*
D34*
X114937500Y-80075000D03*
X114937500Y-80725000D03*
X114937500Y-81375000D03*
X114937500Y-82025000D03*
X111937500Y-82025000D03*
X111937500Y-80075000D03*
X111937500Y-80725000D03*
X111937500Y-81375000D03*
D31*
X125937500Y-114450000D03*
X125937500Y-112550000D03*
D35*
X126900000Y-97750000D03*
D36*
X126900000Y-100250000D03*
X126900000Y-102750000D03*
X126900000Y-105250000D03*
D37*
X116350000Y-89250000D03*
X118550000Y-89250000D03*
D29*
X117000000Y-83000000D03*
X117000000Y-83500000D03*
X117000000Y-84000000D03*
X117000000Y-84500000D03*
X117000000Y-85000000D03*
X119925000Y-85000000D03*
X119925000Y-84500000D03*
X119925000Y-84000000D03*
X119925000Y-83500000D03*
X119925000Y-83000000D03*
D30*
X118462500Y-84000000D03*
D38*
X127662500Y-114700000D03*
X129237500Y-114700000D03*
D29*
X116962500Y-115675000D03*
X116962500Y-116175000D03*
X116962500Y-116675000D03*
X116962500Y-117175000D03*
X116962500Y-117675000D03*
X119887500Y-117675000D03*
X119887500Y-117175000D03*
X119887500Y-116675000D03*
X119887500Y-116175000D03*
X119887500Y-115675000D03*
D30*
X118425000Y-116675000D03*
D24*
X120900000Y-99073750D03*
D23*
X119925000Y-97962500D03*
X120575000Y-97962500D03*
X121225000Y-97962500D03*
X121875000Y-97962500D03*
X121875000Y-100962500D03*
X119925000Y-100962500D03*
X120575000Y-100962500D03*
X121225000Y-100962500D03*
D39*
X121700000Y-113637500D03*
X121700000Y-115462500D03*
D34*
X111875000Y-92325000D03*
X111875000Y-91675000D03*
X111875000Y-91025000D03*
X111875000Y-92975000D03*
X114875000Y-92975000D03*
X114875000Y-92325000D03*
X114875000Y-91675000D03*
X114875000Y-91025000D03*
D33*
X113763750Y-92000000D03*
D14*
X116637500Y-81575000D03*
X116637500Y-79925000D03*
D39*
X121650000Y-102850000D03*
X121650000Y-104675000D03*
D37*
X116300000Y-100162500D03*
X118500000Y-100162500D03*
D31*
X115300000Y-94500000D03*
X115300000Y-96400000D03*
D40*
X111737500Y-83725000D03*
X113562500Y-83725000D03*
D39*
X121787500Y-80950000D03*
X121787500Y-82775000D03*
D31*
X115250000Y-105412500D03*
X115250000Y-107312500D03*
D34*
X111850000Y-114025000D03*
X111850000Y-113375000D03*
X111850000Y-112725000D03*
X111850000Y-114675000D03*
X114850000Y-114675000D03*
X114850000Y-114025000D03*
X114850000Y-113375000D03*
X114850000Y-112725000D03*
D33*
X113738750Y-113700000D03*
D29*
X117012500Y-93975000D03*
X117012500Y-94475000D03*
X117012500Y-94975000D03*
X117012500Y-95475000D03*
X117012500Y-95975000D03*
X119937500Y-95975000D03*
X119937500Y-95475000D03*
X119937500Y-94975000D03*
X119937500Y-94475000D03*
X119937500Y-93975000D03*
D30*
X118475000Y-94975000D03*
D32*
X118162500Y-81175000D03*
X120062500Y-81175000D03*
D40*
X111687500Y-116400000D03*
X113512500Y-116400000D03*
D14*
X116600000Y-92500000D03*
X116600000Y-90850000D03*
D37*
X116350000Y-110950000D03*
X118550000Y-110950000D03*
D14*
X116550000Y-114200000D03*
X116550000Y-112550000D03*
D40*
X111625000Y-105612500D03*
X113450000Y-105612500D03*
D39*
X121725000Y-91950000D03*
X121725000Y-93775000D03*
D37*
X116412500Y-78275000D03*
X118612500Y-78275000D03*
D41*
X127637500Y-116900000D03*
X129287500Y-116900000D03*
D33*
X113713750Y-102887500D03*
D34*
X114825000Y-101912500D03*
X114825000Y-102562500D03*
X114825000Y-103212500D03*
X114825000Y-103862500D03*
X111825000Y-103862500D03*
X111825000Y-101912500D03*
X111825000Y-102562500D03*
X111825000Y-103212500D03*
D32*
X118100000Y-113850000D03*
X120000000Y-113850000D03*
D31*
X115300000Y-116200000D03*
X115300000Y-118100000D03*
D40*
X111712500Y-94700000D03*
X113537500Y-94700000D03*
D32*
X118025000Y-103062500D03*
X119925000Y-103062500D03*
D42*
X127850000Y-112950000D03*
D43*
X127937500Y-111450000D03*
D42*
X127850000Y-109950000D03*
%LPD*%
M02*
