G04 #@! TF.GenerationSoftware,KiCad,Pcbnew,9.0.4*
G04 #@! TF.CreationDate,2025-09-21T20:32:14-07:00*
G04 #@! TF.ProjectId,stepper_juicer_v1,73746570-7065-4725-9f6a-75696365725f,rev?*
G04 #@! TF.SameCoordinates,Original*
G04 #@! TF.FileFunction,Copper,L3,Inr*
G04 #@! TF.FilePolarity,Positive*
%FSLAX46Y46*%
G04 Gerber Fmt 4.6, Leading zero omitted, Abs format (unit mm)*
G04 Created by KiCad (PCBNEW 9.0.4) date 2025-09-21 20:32:14*
%MOMM*%
%LPD*%
G01*
G04 APERTURE LIST*
G04 Aperture macros list*
%AMRoundRect*
0 Rectangle with rounded corners*
0 $1 Rounding radius*
0 $2 $3 $4 $5 $6 $7 $8 $9 X,Y pos of 4 corners*
0 Add a 4 corners polygon primitive as box body*
4,1,4,$2,$3,$4,$5,$6,$7,$8,$9,$2,$3,0*
0 Add four circle primitives for the rounded corners*
1,1,$1+$1,$2,$3*
1,1,$1+$1,$4,$5*
1,1,$1+$1,$6,$7*
1,1,$1+$1,$8,$9*
0 Add four rect primitives between the rounded corners*
20,1,$1+$1,$2,$3,$4,$5,0*
20,1,$1+$1,$4,$5,$6,$7,0*
20,1,$1+$1,$6,$7,$8,$9,0*
20,1,$1+$1,$8,$9,$2,$3,0*%
G04 Aperture macros list end*
G04 #@! TA.AperFunction,ComponentPad*
%ADD10C,6.400000*%
G04 #@! TD*
G04 #@! TA.AperFunction,ComponentPad*
%ADD11R,2.000000X4.600000*%
G04 #@! TD*
G04 #@! TA.AperFunction,ComponentPad*
%ADD12O,2.000000X4.200000*%
G04 #@! TD*
G04 #@! TA.AperFunction,ComponentPad*
%ADD13O,4.200000X2.000000*%
G04 #@! TD*
G04 #@! TA.AperFunction,ComponentPad*
%ADD14O,1.750000X1.200000*%
G04 #@! TD*
G04 #@! TA.AperFunction,ComponentPad*
%ADD15RoundRect,0.250000X-0.625000X0.350000X-0.625000X-0.350000X0.625000X-0.350000X0.625000X0.350000X0*%
G04 #@! TD*
G04 #@! TA.AperFunction,ComponentPad*
%ADD16C,2.000000*%
G04 #@! TD*
G04 #@! TA.AperFunction,ComponentPad*
%ADD17RoundRect,0.250000X-0.750000X0.750000X-0.750000X-0.750000X0.750000X-0.750000X0.750000X0.750000X0*%
G04 #@! TD*
G04 #@! TA.AperFunction,ComponentPad*
%ADD18RoundRect,0.250000X-0.725000X0.600000X-0.725000X-0.600000X0.725000X-0.600000X0.725000X0.600000X0*%
G04 #@! TD*
G04 #@! TA.AperFunction,ComponentPad*
%ADD19O,1.950000X1.700000*%
G04 #@! TD*
G04 #@! TA.AperFunction,ViaPad*
%ADD20C,0.500000*%
G04 #@! TD*
G04 APERTURE END LIST*
D10*
X135500000Y-115000000D03*
D11*
X125250000Y-77100000D03*
D12*
X131550000Y-77100000D03*
D13*
X128150000Y-72300000D03*
D10*
X104500000Y-115000000D03*
D14*
X108350000Y-100950000D03*
X108350000Y-98950000D03*
X108350000Y-96950000D03*
X108350000Y-94950000D03*
X108350000Y-92950000D03*
D15*
X108350000Y-90950000D03*
D10*
X104500000Y-75000000D03*
D16*
X128950000Y-90550000D03*
D17*
X128950000Y-85550000D03*
D14*
X137450000Y-106550000D03*
X137450000Y-104550000D03*
X137450000Y-102550000D03*
X137450000Y-100550000D03*
X137450000Y-98550000D03*
D15*
X137450000Y-96550000D03*
D18*
X126900000Y-97750000D03*
D19*
X126900000Y-100250000D03*
X126900000Y-102750000D03*
X126900000Y-105250000D03*
D20*
X123500000Y-72500000D03*
X118500000Y-72500000D03*
X113500000Y-72500000D03*
X108500000Y-72500000D03*
X103499999Y-79980215D03*
X103500000Y-85000000D03*
X103500000Y-90000000D03*
X103500000Y-95000000D03*
X103500000Y-100000000D03*
X103500000Y-105000000D03*
X103500000Y-110000000D03*
X108500000Y-112500000D03*
X108500000Y-117500000D03*
X131000000Y-117500000D03*
X133500000Y-110000000D03*
X138500000Y-110000000D03*
X133500000Y-72500000D03*
X133500000Y-82500000D03*
X133500000Y-87500000D03*
X133500000Y-92500000D03*
X138500000Y-92500000D03*
X138500000Y-87500000D03*
X138500000Y-82500000D03*
X138500000Y-77500000D03*
X138500000Y-72500000D03*
X124650000Y-111750000D03*
X124650000Y-113400000D03*
X124650000Y-112550000D03*
X126400000Y-116650000D03*
X126400000Y-115600000D03*
X125400000Y-115600000D03*
X128400000Y-108900000D03*
X127350000Y-108000000D03*
X127400000Y-108900000D03*
X130300000Y-110000000D03*
X129500000Y-110000000D03*
X131050000Y-110000000D03*
X130500000Y-91500000D03*
X130500000Y-90500000D03*
X131500000Y-89500000D03*
X130500000Y-89500000D03*
X131500000Y-91500000D03*
X131500000Y-90500000D03*
X134000000Y-78500000D03*
X133000000Y-76500000D03*
X135000000Y-75496510D03*
X134042718Y-76486844D03*
X134000000Y-75500000D03*
X133000000Y-78500000D03*
X135000000Y-77500000D03*
X135000000Y-78500000D03*
X135000000Y-76500000D03*
X134000000Y-77500000D03*
X133000000Y-77500000D03*
X133000000Y-75500000D03*
X130800000Y-98300000D03*
X130850000Y-104600000D03*
X121180164Y-84000000D03*
X123400000Y-96750000D03*
X121087500Y-105787500D03*
X125500000Y-106650000D03*
X118750000Y-79025000D03*
X120725000Y-79875000D03*
X113725000Y-79275000D03*
X118050000Y-79925000D03*
X120025000Y-79875000D03*
X115275000Y-78625000D03*
X115275000Y-79275000D03*
X118050000Y-79025000D03*
X114525000Y-78625000D03*
X114525000Y-79275000D03*
X118750000Y-79925000D03*
X113725000Y-78624997D03*
X120750870Y-83419513D03*
X118075000Y-85775000D03*
X118950000Y-85775000D03*
X121375000Y-79875000D03*
X120650000Y-85250000D03*
X118675000Y-82350000D03*
X119375000Y-82331233D03*
X118750000Y-90000000D03*
X120725000Y-90850000D03*
X113725000Y-90250000D03*
X118050000Y-90900000D03*
X120025000Y-90850000D03*
X115275000Y-89600000D03*
X115275000Y-90250000D03*
X118050000Y-90000000D03*
X114525000Y-89600000D03*
X114525000Y-90250000D03*
X118750000Y-90900000D03*
X113725000Y-89599997D03*
X120661461Y-94389683D03*
X118075000Y-96750000D03*
X118950000Y-96750000D03*
X121375000Y-90850000D03*
X120750000Y-96200000D03*
X118675000Y-93325000D03*
X119375000Y-93306233D03*
X113625000Y-101150000D03*
X113625000Y-100499997D03*
X115175000Y-101150000D03*
X114425000Y-100500000D03*
X115175000Y-100500000D03*
X114425000Y-101150000D03*
X117950000Y-101800000D03*
X117950000Y-100900000D03*
X118650000Y-101800000D03*
X118650000Y-100900000D03*
X119925000Y-101750000D03*
X120625000Y-101750000D03*
X120580636Y-105269874D03*
X117975000Y-107650000D03*
X118850000Y-107650000D03*
X121275000Y-101750000D03*
X120600000Y-107100000D03*
X118575000Y-104225000D03*
X119275000Y-104206233D03*
X115250000Y-111300000D03*
X115250000Y-111950000D03*
X114500000Y-111950000D03*
X113700000Y-111950000D03*
X113700000Y-111299997D03*
X114500000Y-111300000D03*
X120700000Y-112550000D03*
X118925000Y-118450000D03*
X119350000Y-115006233D03*
X121350000Y-112550000D03*
X118650000Y-115025000D03*
X120634290Y-116063247D03*
X120000000Y-112550000D03*
X118050000Y-118450000D03*
X120700000Y-117825000D03*
X118725000Y-111700000D03*
X118025000Y-112600000D03*
X118025000Y-111700000D03*
X118725000Y-112600000D03*
G04 #@! TA.AperFunction,Conductor*
G36*
X126132810Y-70519454D02*
G01*
X126213592Y-70573430D01*
X126267568Y-70654212D01*
X126286522Y-70749500D01*
X126267568Y-70844788D01*
X126213592Y-70925570D01*
X126183881Y-70950945D01*
X126007347Y-71079204D01*
X125829204Y-71257347D01*
X125681134Y-71461148D01*
X125681131Y-71461153D01*
X125681130Y-71461155D01*
X125613947Y-71593010D01*
X125566757Y-71685625D01*
X125488909Y-71925217D01*
X125449500Y-72174028D01*
X125449500Y-72425971D01*
X125488909Y-72674782D01*
X125507927Y-72733315D01*
X125566759Y-72914379D01*
X125681130Y-73138845D01*
X125829207Y-73342656D01*
X126007344Y-73520793D01*
X126007347Y-73520795D01*
X126211151Y-73668867D01*
X126211155Y-73668870D01*
X126328459Y-73728640D01*
X126404757Y-73788788D01*
X126452228Y-73873556D01*
X126463647Y-73970037D01*
X126437275Y-74063544D01*
X126377127Y-74139842D01*
X126292359Y-74187313D01*
X126215415Y-74199500D01*
X124210639Y-74199500D01*
X124210637Y-74199501D01*
X124093238Y-74214955D01*
X124002121Y-74252698D01*
X123947159Y-74275464D01*
X123947158Y-74275464D01*
X123947155Y-74275466D01*
X123821723Y-74371713D01*
X123821713Y-74371723D01*
X123725466Y-74497155D01*
X123664955Y-74643239D01*
X123649500Y-74760637D01*
X123649500Y-79439360D01*
X123649501Y-79439362D01*
X123664955Y-79556761D01*
X123670559Y-79570289D01*
X123725464Y-79702841D01*
X123821718Y-79828282D01*
X123947159Y-79924536D01*
X124093238Y-79985044D01*
X124210639Y-80000500D01*
X126289360Y-80000499D01*
X126406762Y-79985044D01*
X126552841Y-79924536D01*
X126678282Y-79828282D01*
X126774536Y-79702841D01*
X126835044Y-79556762D01*
X126850500Y-79439361D01*
X126850499Y-74760640D01*
X126835044Y-74643238D01*
X126774536Y-74497159D01*
X126678282Y-74371718D01*
X126618365Y-74325742D01*
X126554307Y-74252698D01*
X126523078Y-74160698D01*
X126529433Y-74063752D01*
X126572403Y-73976616D01*
X126645448Y-73912557D01*
X126737448Y-73881328D01*
X126808901Y-73882264D01*
X126924029Y-73900499D01*
X126924034Y-73900499D01*
X126924038Y-73900500D01*
X126924041Y-73900500D01*
X129375959Y-73900500D01*
X129375962Y-73900500D01*
X129375965Y-73900499D01*
X129375971Y-73900499D01*
X129497008Y-73881328D01*
X129624785Y-73861090D01*
X129864379Y-73783241D01*
X130088845Y-73668870D01*
X130292656Y-73520793D01*
X130470793Y-73342656D01*
X130618870Y-73138845D01*
X130733241Y-72914379D01*
X130811090Y-72674785D01*
X130831881Y-72543513D01*
X130850499Y-72425971D01*
X130850500Y-72425959D01*
X130850500Y-72174040D01*
X130850499Y-72174028D01*
X130824951Y-72012729D01*
X130811090Y-71925215D01*
X130733241Y-71685621D01*
X130618870Y-71461155D01*
X130470793Y-71257344D01*
X130292656Y-71079207D01*
X130292652Y-71079204D01*
X130116119Y-70950945D01*
X130050170Y-70879602D01*
X130016544Y-70788452D01*
X130020358Y-70691372D01*
X130061033Y-70603141D01*
X130132376Y-70537192D01*
X130223526Y-70503566D01*
X130262478Y-70500500D01*
X136934108Y-70500500D01*
X136992472Y-70500500D01*
X137007505Y-70500954D01*
X137020011Y-70501710D01*
X137286261Y-70517815D01*
X137316088Y-70521437D01*
X137583363Y-70570417D01*
X137612546Y-70577610D01*
X137871956Y-70658446D01*
X137900059Y-70669103D01*
X138147845Y-70780623D01*
X138174464Y-70794594D01*
X138406989Y-70935161D01*
X138431734Y-70952241D01*
X138645616Y-71119806D01*
X138668123Y-71139745D01*
X138860254Y-71331876D01*
X138880193Y-71354383D01*
X139047758Y-71568265D01*
X139064838Y-71593010D01*
X139205405Y-71825535D01*
X139219379Y-71852160D01*
X139330893Y-72099934D01*
X139341555Y-72128049D01*
X139422387Y-72387448D01*
X139429583Y-72416642D01*
X139478560Y-72683899D01*
X139482185Y-72713749D01*
X139499046Y-72992494D01*
X139499500Y-73007528D01*
X139499500Y-113472656D01*
X139480546Y-113567944D01*
X139426570Y-113648726D01*
X139345788Y-113702702D01*
X139250500Y-113721656D01*
X139155212Y-113702702D01*
X139074430Y-113648726D01*
X139020454Y-113567944D01*
X138939755Y-113373119D01*
X138939749Y-113373108D01*
X138929377Y-113353704D01*
X138763729Y-113043796D01*
X138556271Y-112733315D01*
X138319381Y-112444662D01*
X138055338Y-112180619D01*
X137901923Y-112054715D01*
X137766688Y-111943731D01*
X137456201Y-111736269D01*
X137126891Y-111560250D01*
X137126880Y-111560244D01*
X136781901Y-111417350D01*
X136781894Y-111417347D01*
X136781889Y-111417345D01*
X136781880Y-111417342D01*
X136424562Y-111308950D01*
X136058324Y-111236101D01*
X135686707Y-111199500D01*
X135313293Y-111199500D01*
X135313292Y-111199500D01*
X134941675Y-111236101D01*
X134575437Y-111308950D01*
X134218119Y-111417342D01*
X134218098Y-111417350D01*
X133873119Y-111560244D01*
X133873108Y-111560250D01*
X133543798Y-111736269D01*
X133233311Y-111943731D01*
X132944665Y-112180616D01*
X132680616Y-112444665D01*
X132443731Y-112733311D01*
X132236269Y-113043798D01*
X132060250Y-113373108D01*
X132060244Y-113373119D01*
X131917350Y-113718098D01*
X131917342Y-113718119D01*
X131808950Y-114075437D01*
X131736101Y-114441675D01*
X131699500Y-114813292D01*
X131699500Y-115186707D01*
X131736101Y-115558324D01*
X131808950Y-115924562D01*
X131917342Y-116281880D01*
X131917350Y-116281901D01*
X132060244Y-116626880D01*
X132060250Y-116626891D01*
X132236269Y-116956201D01*
X132443731Y-117266688D01*
X132571303Y-117422135D01*
X132680619Y-117555338D01*
X132944662Y-117819381D01*
X133233315Y-118056271D01*
X133543796Y-118263729D01*
X133873117Y-118439754D01*
X134218106Y-118582653D01*
X134218118Y-118582656D01*
X134218119Y-118582657D01*
X134575437Y-118691049D01*
X134793987Y-118734521D01*
X134941678Y-118763899D01*
X135313293Y-118800500D01*
X135313296Y-118800500D01*
X135686704Y-118800500D01*
X135686707Y-118800500D01*
X136058322Y-118763899D01*
X136278862Y-118720030D01*
X136424562Y-118691049D01*
X136678541Y-118614004D01*
X136781894Y-118582653D01*
X137126883Y-118439754D01*
X137456204Y-118263729D01*
X137766685Y-118056271D01*
X138055338Y-117819381D01*
X138319381Y-117555338D01*
X138556271Y-117266685D01*
X138763729Y-116956204D01*
X138939754Y-116626883D01*
X139020454Y-116432053D01*
X139068583Y-116360024D01*
X139074430Y-116351273D01*
X139122854Y-116318916D01*
X139155211Y-116297297D01*
X139250500Y-116278343D01*
X139345788Y-116297297D01*
X139426570Y-116351273D01*
X139440108Y-116371535D01*
X139480546Y-116432054D01*
X139480546Y-116432055D01*
X139499500Y-116527343D01*
X139499500Y-116992471D01*
X139499046Y-117007505D01*
X139482185Y-117286250D01*
X139478560Y-117316100D01*
X139429583Y-117583357D01*
X139422387Y-117612551D01*
X139341555Y-117871950D01*
X139330893Y-117900065D01*
X139219379Y-118147839D01*
X139205405Y-118174464D01*
X139064838Y-118406989D01*
X139047758Y-118431734D01*
X138880193Y-118645616D01*
X138860254Y-118668123D01*
X138668123Y-118860254D01*
X138645616Y-118880193D01*
X138431734Y-119047758D01*
X138406989Y-119064838D01*
X138174464Y-119205405D01*
X138147839Y-119219379D01*
X137900065Y-119330893D01*
X137871950Y-119341555D01*
X137612551Y-119422387D01*
X137583357Y-119429583D01*
X137316100Y-119478560D01*
X137286250Y-119482185D01*
X137007506Y-119499046D01*
X136992472Y-119499500D01*
X103007528Y-119499500D01*
X102992494Y-119499046D01*
X102713749Y-119482185D01*
X102683899Y-119478560D01*
X102416642Y-119429583D01*
X102387448Y-119422387D01*
X102128049Y-119341555D01*
X102099934Y-119330893D01*
X101852160Y-119219379D01*
X101825535Y-119205405D01*
X101593010Y-119064838D01*
X101568265Y-119047758D01*
X101354383Y-118880193D01*
X101331876Y-118860254D01*
X101139745Y-118668123D01*
X101119806Y-118645616D01*
X100952241Y-118431734D01*
X100935161Y-118406989D01*
X100794594Y-118174464D01*
X100780620Y-118147839D01*
X100746976Y-118073086D01*
X100669103Y-117900059D01*
X100658444Y-117871950D01*
X100642063Y-117819383D01*
X100577610Y-117612546D01*
X100570416Y-117583357D01*
X100569236Y-117576918D01*
X100521437Y-117316088D01*
X100517815Y-117286261D01*
X100500954Y-117007504D01*
X100500500Y-116992471D01*
X100500500Y-116527343D01*
X100519454Y-116432055D01*
X100573430Y-116351273D01*
X100654212Y-116297297D01*
X100749500Y-116278343D01*
X100844788Y-116297297D01*
X100925570Y-116351273D01*
X100979545Y-116432053D01*
X101060245Y-116626880D01*
X101060250Y-116626891D01*
X101236269Y-116956201D01*
X101443731Y-117266688D01*
X101571303Y-117422135D01*
X101680619Y-117555338D01*
X101944662Y-117819381D01*
X102233315Y-118056271D01*
X102543796Y-118263729D01*
X102873117Y-118439754D01*
X103218106Y-118582653D01*
X103218118Y-118582656D01*
X103218119Y-118582657D01*
X103575437Y-118691049D01*
X103793987Y-118734521D01*
X103941678Y-118763899D01*
X104313293Y-118800500D01*
X104313296Y-118800500D01*
X104686704Y-118800500D01*
X104686707Y-118800500D01*
X105058322Y-118763899D01*
X105278862Y-118720030D01*
X105424562Y-118691049D01*
X105678541Y-118614004D01*
X105781894Y-118582653D01*
X106126883Y-118439754D01*
X106456204Y-118263729D01*
X106766685Y-118056271D01*
X107055338Y-117819381D01*
X107133485Y-117741234D01*
X119849500Y-117741234D01*
X119849500Y-117908765D01*
X119882185Y-118073086D01*
X119924178Y-118174464D01*
X119946297Y-118227863D01*
X120039374Y-118367162D01*
X120157838Y-118485626D01*
X120297137Y-118578703D01*
X120451918Y-118642816D01*
X120616233Y-118675500D01*
X120616235Y-118675500D01*
X120783765Y-118675500D01*
X120783767Y-118675500D01*
X120948082Y-118642816D01*
X121102863Y-118578703D01*
X121242162Y-118485626D01*
X121360626Y-118367162D01*
X121453703Y-118227863D01*
X121517816Y-118073082D01*
X121550500Y-117908767D01*
X121550500Y-117741233D01*
X121517816Y-117576918D01*
X121453703Y-117422137D01*
X121360626Y-117282838D01*
X121242162Y-117164374D01*
X121102863Y-117071297D01*
X121102860Y-117071296D01*
X121102859Y-117071295D01*
X120948086Y-117007185D01*
X120948082Y-117007184D01*
X120783767Y-116974500D01*
X120616233Y-116974500D01*
X120488035Y-117000000D01*
X120451913Y-117007185D01*
X120297140Y-117071295D01*
X120297135Y-117071298D01*
X120157841Y-117164371D01*
X120039371Y-117282841D01*
X119946298Y-117422135D01*
X119946295Y-117422140D01*
X119882185Y-117576913D01*
X119849500Y-117741234D01*
X107133485Y-117741234D01*
X107319381Y-117555338D01*
X107556271Y-117266685D01*
X107763729Y-116956204D01*
X107939754Y-116626883D01*
X108082653Y-116281894D01*
X108114004Y-116178541D01*
X108191049Y-115924562D01*
X108220030Y-115778862D01*
X108263899Y-115558322D01*
X108300500Y-115186707D01*
X108300500Y-114813293D01*
X108263899Y-114441678D01*
X108206617Y-114153703D01*
X108191049Y-114075437D01*
X108082657Y-113718119D01*
X108082656Y-113718118D01*
X108082653Y-113718106D01*
X107939754Y-113373117D01*
X107763729Y-113043796D01*
X107556271Y-112733315D01*
X107319381Y-112444662D01*
X107055338Y-112180619D01*
X106901923Y-112054715D01*
X106766688Y-111943731D01*
X106456201Y-111736269D01*
X106126891Y-111560250D01*
X106126880Y-111560244D01*
X105822204Y-111434044D01*
X105781901Y-111417350D01*
X105781894Y-111417347D01*
X105781889Y-111417345D01*
X105781880Y-111417342D01*
X105424562Y-111308950D01*
X105058324Y-111236101D01*
X104856570Y-111216230D01*
X112849500Y-111216230D01*
X112849500Y-111383764D01*
X112882184Y-111548079D01*
X112889381Y-111565455D01*
X112892914Y-111598642D01*
X112890615Y-111624031D01*
X112893114Y-111649403D01*
X112884310Y-111693665D01*
X112884153Y-111695401D01*
X112883850Y-111695978D01*
X112883592Y-111697276D01*
X112882185Y-111701912D01*
X112882184Y-111701918D01*
X112849500Y-111866233D01*
X112849500Y-112033767D01*
X112881996Y-112197137D01*
X112882185Y-112198086D01*
X112946295Y-112352859D01*
X112946297Y-112352863D01*
X113039374Y-112492162D01*
X113157838Y-112610626D01*
X113297137Y-112703703D01*
X113451918Y-112767816D01*
X113616233Y-112800500D01*
X113616235Y-112800500D01*
X113783765Y-112800500D01*
X113783767Y-112800500D01*
X113948082Y-112767816D01*
X114004708Y-112744359D01*
X114099995Y-112725404D01*
X114195279Y-112744355D01*
X114251913Y-112767814D01*
X114251914Y-112767814D01*
X114251918Y-112767816D01*
X114416233Y-112800500D01*
X114416235Y-112800500D01*
X114583765Y-112800500D01*
X114583767Y-112800500D01*
X114748082Y-112767816D01*
X114779708Y-112754716D01*
X114874996Y-112735760D01*
X114970281Y-112754711D01*
X114970290Y-112754715D01*
X114970292Y-112754716D01*
X115001913Y-112767814D01*
X115001914Y-112767814D01*
X115001918Y-112767816D01*
X115166233Y-112800500D01*
X115166235Y-112800500D01*
X115333765Y-112800500D01*
X115333767Y-112800500D01*
X115498082Y-112767816D01*
X115652863Y-112703703D01*
X115792162Y-112610626D01*
X115910626Y-112492162D01*
X116003703Y-112352863D01*
X116067816Y-112198082D01*
X116100500Y-112033767D01*
X116100500Y-111866233D01*
X116067816Y-111701918D01*
X116067812Y-111701909D01*
X116066410Y-111697286D01*
X116065934Y-111692463D01*
X116065429Y-111689920D01*
X116065679Y-111689870D01*
X116064263Y-111675493D01*
X116057463Y-111654685D01*
X116059700Y-111629181D01*
X116058425Y-111616233D01*
X117174500Y-111616233D01*
X117174500Y-111783767D01*
X117207184Y-111948082D01*
X117251352Y-112054711D01*
X117270306Y-112149999D01*
X117251353Y-112245285D01*
X117207184Y-112351918D01*
X117174500Y-112516233D01*
X117174500Y-112683767D01*
X117207184Y-112848082D01*
X117207185Y-112848086D01*
X117259756Y-112975001D01*
X117271297Y-113002863D01*
X117364374Y-113142162D01*
X117482838Y-113260626D01*
X117622137Y-113353703D01*
X117776918Y-113417816D01*
X117941233Y-113450500D01*
X117941235Y-113450500D01*
X118108765Y-113450500D01*
X118108767Y-113450500D01*
X118273082Y-113417816D01*
X118279703Y-113415073D01*
X118374986Y-113396115D01*
X118470272Y-113415063D01*
X118476918Y-113417816D01*
X118641233Y-113450500D01*
X118641235Y-113450500D01*
X118808765Y-113450500D01*
X118808767Y-113450500D01*
X118973082Y-113417816D01*
X119127863Y-113353703D01*
X119267162Y-113260626D01*
X119385626Y-113142162D01*
X119478703Y-113002863D01*
X119542816Y-112848082D01*
X119575500Y-112683767D01*
X119575500Y-112516233D01*
X119542816Y-112351918D01*
X119498647Y-112245285D01*
X119479693Y-112150002D01*
X119498646Y-112054716D01*
X119542816Y-111948082D01*
X119575500Y-111783767D01*
X119575500Y-111666233D01*
X123799500Y-111666233D01*
X123799500Y-111833767D01*
X123822238Y-111948082D01*
X123832185Y-111998085D01*
X123855641Y-112054715D01*
X123874594Y-112150003D01*
X123855641Y-112245285D01*
X123832185Y-112301914D01*
X123832184Y-112301917D01*
X123832184Y-112301918D01*
X123803791Y-112444662D01*
X123799500Y-112466234D01*
X123799500Y-112633765D01*
X123832184Y-112798084D01*
X123865996Y-112879712D01*
X123884950Y-112975001D01*
X123865996Y-113070288D01*
X123832184Y-113151915D01*
X123799500Y-113316234D01*
X123799500Y-113483765D01*
X123832185Y-113648086D01*
X123896295Y-113802859D01*
X123896297Y-113802863D01*
X123989374Y-113942162D01*
X124107838Y-114060626D01*
X124247137Y-114153703D01*
X124401918Y-114217816D01*
X124566233Y-114250500D01*
X124566235Y-114250500D01*
X124733765Y-114250500D01*
X124733767Y-114250500D01*
X124898082Y-114217816D01*
X125052863Y-114153703D01*
X125192162Y-114060626D01*
X125310626Y-113942162D01*
X125403703Y-113802863D01*
X125467816Y-113648082D01*
X125500500Y-113483767D01*
X125500500Y-113316233D01*
X125467816Y-113151918D01*
X125434003Y-113070288D01*
X125415049Y-112975002D01*
X125434001Y-112879717D01*
X125467816Y-112798082D01*
X125500500Y-112633767D01*
X125500500Y-112466233D01*
X125467816Y-112301918D01*
X125444359Y-112245291D01*
X125425404Y-112150005D01*
X125444355Y-112054720D01*
X125467816Y-111998082D01*
X125500500Y-111833767D01*
X125500500Y-111666233D01*
X125467816Y-111501918D01*
X125403703Y-111347137D01*
X125310626Y-111207838D01*
X125192162Y-111089374D01*
X125052863Y-110996297D01*
X125052860Y-110996296D01*
X125052859Y-110996295D01*
X124898086Y-110932185D01*
X124898082Y-110932184D01*
X124733767Y-110899500D01*
X124566233Y-110899500D01*
X124401918Y-110932184D01*
X124401913Y-110932185D01*
X124247140Y-110996295D01*
X124247135Y-110996298D01*
X124107841Y-111089371D01*
X123989371Y-111207841D01*
X123896298Y-111347135D01*
X123896295Y-111347140D01*
X123832185Y-111501913D01*
X123832184Y-111501917D01*
X123832184Y-111501918D01*
X123799500Y-111666233D01*
X119575500Y-111666233D01*
X119575500Y-111616233D01*
X119542816Y-111451918D01*
X119478703Y-111297137D01*
X119385626Y-111157838D01*
X119267162Y-111039374D01*
X119202694Y-110996298D01*
X119127864Y-110946298D01*
X119127863Y-110946297D01*
X119127860Y-110946296D01*
X119127859Y-110946295D01*
X118973086Y-110882185D01*
X118973082Y-110882184D01*
X118808767Y-110849500D01*
X118641233Y-110849500D01*
X118476918Y-110882184D01*
X118476917Y-110882184D01*
X118476914Y-110882185D01*
X118470285Y-110884931D01*
X118374997Y-110903884D01*
X118279715Y-110884931D01*
X118273085Y-110882185D01*
X118273086Y-110882185D01*
X118273082Y-110882184D01*
X118108767Y-110849500D01*
X117941233Y-110849500D01*
X117776918Y-110882184D01*
X117776913Y-110882185D01*
X117622140Y-110946295D01*
X117622135Y-110946298D01*
X117482841Y-111039371D01*
X117364371Y-111157841D01*
X117271298Y-111297135D01*
X117271295Y-111297140D01*
X117207185Y-111451913D01*
X117207184Y-111451917D01*
X117207184Y-111451918D01*
X117174500Y-111616233D01*
X116058425Y-111616233D01*
X116056885Y-111600599D01*
X116064922Y-111557817D01*
X116067300Y-111549326D01*
X116067816Y-111548082D01*
X116100500Y-111383767D01*
X116100500Y-111216233D01*
X116067816Y-111051918D01*
X116003703Y-110897137D01*
X115910626Y-110757838D01*
X115792162Y-110639374D01*
X115792153Y-110639368D01*
X115652864Y-110546298D01*
X115652863Y-110546297D01*
X115652860Y-110546296D01*
X115652859Y-110546295D01*
X115498086Y-110482185D01*
X115498082Y-110482184D01*
X115333767Y-110449500D01*
X115166233Y-110449500D01*
X115001933Y-110482181D01*
X115001918Y-110482184D01*
X114970284Y-110495287D01*
X114874995Y-110514239D01*
X114779716Y-110495287D01*
X114769670Y-110491126D01*
X114748082Y-110482184D01*
X114583767Y-110449500D01*
X114416233Y-110449500D01*
X114350507Y-110462573D01*
X114251915Y-110482184D01*
X114195288Y-110505640D01*
X114100000Y-110524593D01*
X114004715Y-110505639D01*
X113948084Y-110482181D01*
X113865924Y-110465839D01*
X113783767Y-110449497D01*
X113616233Y-110449497D01*
X113451918Y-110482181D01*
X113451913Y-110482182D01*
X113297140Y-110546292D01*
X113297135Y-110546295D01*
X113157841Y-110639368D01*
X113039371Y-110757838D01*
X112946298Y-110897132D01*
X112946295Y-110897137D01*
X112882185Y-111051910D01*
X112882184Y-111051914D01*
X112882184Y-111051915D01*
X112849500Y-111216230D01*
X104856570Y-111216230D01*
X104686707Y-111199500D01*
X104313293Y-111199500D01*
X104313292Y-111199500D01*
X103941675Y-111236101D01*
X103575437Y-111308950D01*
X103218119Y-111417342D01*
X103218098Y-111417350D01*
X102873119Y-111560244D01*
X102873108Y-111560250D01*
X102543798Y-111736269D01*
X102233311Y-111943731D01*
X101944665Y-112180616D01*
X101680616Y-112444665D01*
X101443731Y-112733311D01*
X101236269Y-113043798D01*
X101060250Y-113373108D01*
X101060244Y-113373119D01*
X100979546Y-113567944D01*
X100925570Y-113648726D01*
X100844788Y-113702702D01*
X100749500Y-113721656D01*
X100654212Y-113702702D01*
X100573430Y-113648726D01*
X100519454Y-113567944D01*
X100500500Y-113472656D01*
X100500500Y-109916234D01*
X128649500Y-109916234D01*
X128649500Y-110083765D01*
X128682185Y-110248086D01*
X128746295Y-110402859D01*
X128746298Y-110402864D01*
X128834424Y-110534755D01*
X128839374Y-110542162D01*
X128957838Y-110660626D01*
X129097137Y-110753703D01*
X129251918Y-110817816D01*
X129416233Y-110850500D01*
X129416235Y-110850500D01*
X129583765Y-110850500D01*
X129583767Y-110850500D01*
X129748082Y-110817816D01*
X129804708Y-110794359D01*
X129899995Y-110775404D01*
X129995279Y-110794355D01*
X130051913Y-110817814D01*
X130051914Y-110817814D01*
X130051918Y-110817816D01*
X130216233Y-110850500D01*
X130216235Y-110850500D01*
X130383765Y-110850500D01*
X130383767Y-110850500D01*
X130548082Y-110817816D01*
X130579708Y-110804716D01*
X130674996Y-110785760D01*
X130770281Y-110804711D01*
X130770290Y-110804715D01*
X130770292Y-110804716D01*
X130801913Y-110817814D01*
X130801914Y-110817814D01*
X130801918Y-110817816D01*
X130966233Y-110850500D01*
X130966235Y-110850500D01*
X131133765Y-110850500D01*
X131133767Y-110850500D01*
X131298082Y-110817816D01*
X131452863Y-110753703D01*
X131592162Y-110660626D01*
X131710626Y-110542162D01*
X131803703Y-110402863D01*
X131867816Y-110248082D01*
X131900500Y-110083767D01*
X131900500Y-109916233D01*
X131867816Y-109751918D01*
X131803703Y-109597137D01*
X131710626Y-109457838D01*
X131592162Y-109339374D01*
X131452863Y-109246297D01*
X131452860Y-109246296D01*
X131452859Y-109246295D01*
X131298086Y-109182185D01*
X131298082Y-109182184D01*
X131133767Y-109149500D01*
X130966233Y-109149500D01*
X130801918Y-109182184D01*
X130770284Y-109195287D01*
X130674995Y-109214239D01*
X130579716Y-109195287D01*
X130569670Y-109191126D01*
X130548082Y-109182184D01*
X130383767Y-109149500D01*
X130216233Y-109149500D01*
X130051918Y-109182184D01*
X130051917Y-109182184D01*
X130051914Y-109182185D01*
X129995285Y-109205641D01*
X129899997Y-109224594D01*
X129804715Y-109205641D01*
X129748085Y-109182185D01*
X129748086Y-109182185D01*
X129748082Y-109182184D01*
X129583767Y-109149500D01*
X129416233Y-109149500D01*
X129251918Y-109182184D01*
X129251913Y-109182185D01*
X129097140Y-109246295D01*
X129097135Y-109246298D01*
X128957841Y-109339371D01*
X128839371Y-109457841D01*
X128746298Y-109597135D01*
X128746295Y-109597140D01*
X128682185Y-109751913D01*
X128649500Y-109916234D01*
X100500500Y-109916234D01*
X100500500Y-107016234D01*
X119749500Y-107016234D01*
X119749500Y-107183765D01*
X119782185Y-107348086D01*
X119831779Y-107467814D01*
X119846297Y-107502863D01*
X119939374Y-107642162D01*
X120057838Y-107760626D01*
X120197137Y-107853703D01*
X120351918Y-107917816D01*
X120516233Y-107950500D01*
X120516235Y-107950500D01*
X120683765Y-107950500D01*
X120683767Y-107950500D01*
X120848082Y-107917816D01*
X121002863Y-107853703D01*
X121142162Y-107760626D01*
X121260626Y-107642162D01*
X121353703Y-107502863D01*
X121417816Y-107348082D01*
X121450500Y-107183767D01*
X121450500Y-107016233D01*
X121417816Y-106851918D01*
X121410940Y-106835319D01*
X121408105Y-106821066D01*
X121401479Y-106808130D01*
X121398703Y-106773808D01*
X121391985Y-106740034D01*
X121394820Y-106725778D01*
X121393649Y-106711291D01*
X121404219Y-106678520D01*
X121410937Y-106644745D01*
X121419012Y-106632658D01*
X121423474Y-106618827D01*
X121440816Y-106600025D01*
X121463395Y-106566233D01*
X124649500Y-106566233D01*
X124649500Y-106733767D01*
X124680313Y-106888674D01*
X124682185Y-106898086D01*
X124746295Y-107052859D01*
X124746298Y-107052864D01*
X124833764Y-107183767D01*
X124839374Y-107192162D01*
X124957838Y-107310626D01*
X125097137Y-107403703D01*
X125251918Y-107467816D01*
X125416233Y-107500500D01*
X125416235Y-107500500D01*
X125583765Y-107500500D01*
X125583767Y-107500500D01*
X125748082Y-107467816D01*
X125902863Y-107403703D01*
X126042162Y-107310626D01*
X126160626Y-107192162D01*
X126253703Y-107052863D01*
X126317816Y-106898082D01*
X126319687Y-106888672D01*
X126356866Y-106798914D01*
X126425565Y-106730215D01*
X126515324Y-106693035D01*
X126602856Y-106691316D01*
X126617588Y-106693649D01*
X126660843Y-106700500D01*
X126660847Y-106700500D01*
X127139153Y-106700500D01*
X127139157Y-106700500D01*
X127364660Y-106664784D01*
X127581799Y-106594231D01*
X127785228Y-106490579D01*
X127969937Y-106356379D01*
X128131379Y-106194937D01*
X128265579Y-106010228D01*
X128369231Y-105806799D01*
X128439784Y-105589660D01*
X128475500Y-105364157D01*
X128475500Y-105135843D01*
X128439784Y-104910340D01*
X128369231Y-104693201D01*
X128265579Y-104489772D01*
X128131379Y-104305063D01*
X128002382Y-104176066D01*
X127948409Y-104095288D01*
X127929455Y-104000000D01*
X127948409Y-103904712D01*
X128002382Y-103823933D01*
X128131379Y-103694937D01*
X128265579Y-103510228D01*
X128369231Y-103306799D01*
X128439784Y-103089660D01*
X128475500Y-102864157D01*
X128475500Y-102635843D01*
X128439784Y-102410340D01*
X128369231Y-102193201D01*
X128302660Y-102062547D01*
X128265581Y-101989775D01*
X128265580Y-101989774D01*
X128265579Y-101989772D01*
X128131379Y-101805063D01*
X128002382Y-101676066D01*
X127948409Y-101595288D01*
X127929455Y-101500000D01*
X127948409Y-101404712D01*
X128002382Y-101323933D01*
X128131379Y-101194937D01*
X128265579Y-101010228D01*
X128369231Y-100806799D01*
X128439784Y-100589660D01*
X128475500Y-100364157D01*
X128475500Y-100135843D01*
X128439784Y-99910340D01*
X128369231Y-99693201D01*
X128265579Y-99489772D01*
X128146517Y-99325899D01*
X128105843Y-99237669D01*
X128102029Y-99140589D01*
X128135655Y-99049439D01*
X128191959Y-98985470D01*
X128229940Y-98954940D01*
X128345842Y-98810753D01*
X128428037Y-98645021D01*
X128472683Y-98465495D01*
X128473360Y-98455519D01*
X128475498Y-98423982D01*
X128475500Y-98423950D01*
X128475500Y-97076049D01*
X128475498Y-97076017D01*
X128472684Y-97034517D01*
X128472683Y-97034515D01*
X128472683Y-97034505D01*
X128428037Y-96854979D01*
X128428036Y-96854978D01*
X128428036Y-96854975D01*
X128428035Y-96854974D01*
X128345844Y-96689251D01*
X128345843Y-96689250D01*
X128345842Y-96689247D01*
X128229940Y-96545060D01*
X128085753Y-96429158D01*
X128085751Y-96429157D01*
X128085748Y-96429155D01*
X127920023Y-96346963D01*
X127920024Y-96346963D01*
X127812305Y-96320175D01*
X127740495Y-96302317D01*
X127740491Y-96302316D01*
X127740482Y-96302315D01*
X127698982Y-96299501D01*
X127698957Y-96299500D01*
X127698954Y-96299500D01*
X126101046Y-96299500D01*
X126101042Y-96299500D01*
X126101017Y-96299501D01*
X126059517Y-96302315D01*
X126059506Y-96302316D01*
X126059505Y-96302317D01*
X126023599Y-96311246D01*
X125879975Y-96346963D01*
X125879974Y-96346964D01*
X125714251Y-96429155D01*
X125714245Y-96429159D01*
X125570064Y-96545056D01*
X125570056Y-96545064D01*
X125454159Y-96689245D01*
X125454155Y-96689251D01*
X125371964Y-96854974D01*
X125371963Y-96854975D01*
X125327317Y-97034506D01*
X125327315Y-97034517D01*
X125324501Y-97076017D01*
X125324500Y-97076049D01*
X125324500Y-98423950D01*
X125324501Y-98423982D01*
X125327315Y-98465482D01*
X125327316Y-98465491D01*
X125327317Y-98465495D01*
X125345175Y-98537305D01*
X125371963Y-98645024D01*
X125371964Y-98645025D01*
X125454155Y-98810748D01*
X125454157Y-98810751D01*
X125454158Y-98810753D01*
X125570060Y-98954940D01*
X125570064Y-98954943D01*
X125608038Y-98985468D01*
X125670432Y-99059941D01*
X125699577Y-99152621D01*
X125691035Y-99249400D01*
X125653482Y-99325899D01*
X125534418Y-99489775D01*
X125430769Y-99693200D01*
X125430767Y-99693205D01*
X125360215Y-99910343D01*
X125324501Y-100135831D01*
X125324500Y-100135847D01*
X125324500Y-100364152D01*
X125324501Y-100364168D01*
X125360215Y-100589656D01*
X125360216Y-100589660D01*
X125378032Y-100644492D01*
X125430767Y-100806794D01*
X125430769Y-100806799D01*
X125534418Y-101010224D01*
X125534419Y-101010224D01*
X125534421Y-101010228D01*
X125668621Y-101194937D01*
X125797617Y-101323933D01*
X125851591Y-101404712D01*
X125870545Y-101500000D01*
X125851591Y-101595288D01*
X125797617Y-101676066D01*
X125705757Y-101767927D01*
X125668619Y-101805065D01*
X125624570Y-101865693D01*
X125543877Y-101976758D01*
X125534420Y-101989774D01*
X125534418Y-101989775D01*
X125430769Y-102193200D01*
X125430767Y-102193205D01*
X125360215Y-102410343D01*
X125324501Y-102635831D01*
X125324500Y-102635847D01*
X125324500Y-102864152D01*
X125324501Y-102864168D01*
X125360215Y-103089656D01*
X125430767Y-103306794D01*
X125430769Y-103306799D01*
X125534418Y-103510224D01*
X125534419Y-103510224D01*
X125534421Y-103510228D01*
X125668621Y-103694937D01*
X125797617Y-103823933D01*
X125851591Y-103904712D01*
X125870545Y-104000000D01*
X125851591Y-104095288D01*
X125797617Y-104176066D01*
X125704802Y-104268882D01*
X125668619Y-104305065D01*
X125595225Y-104406083D01*
X125559308Y-104455519D01*
X125534420Y-104489774D01*
X125534418Y-104489775D01*
X125430769Y-104693200D01*
X125430767Y-104693205D01*
X125360215Y-104910343D01*
X125324501Y-105135831D01*
X125324500Y-105135847D01*
X125324500Y-105364157D01*
X125358888Y-105581278D01*
X125355073Y-105678358D01*
X125314398Y-105766588D01*
X125243054Y-105832537D01*
X125208244Y-105850274D01*
X125097134Y-105896298D01*
X124957841Y-105989371D01*
X124839371Y-106107841D01*
X124746298Y-106247135D01*
X124746295Y-106247140D01*
X124682185Y-106401913D01*
X124682184Y-106401917D01*
X124682184Y-106401918D01*
X124649500Y-106566233D01*
X121463395Y-106566233D01*
X121464912Y-106563963D01*
X121486413Y-106544815D01*
X121494280Y-106538585D01*
X121629662Y-106448126D01*
X121748126Y-106329662D01*
X121841203Y-106190363D01*
X121905316Y-106035582D01*
X121938000Y-105871267D01*
X121938000Y-105703733D01*
X121905316Y-105539418D01*
X121841203Y-105384637D01*
X121748126Y-105245338D01*
X121629662Y-105126874D01*
X121490363Y-105033797D01*
X121490360Y-105033796D01*
X121490359Y-105033795D01*
X121335586Y-104969685D01*
X121335582Y-104969684D01*
X121171267Y-104937000D01*
X121003733Y-104937000D01*
X120839418Y-104969684D01*
X120839413Y-104969685D01*
X120684640Y-105033795D01*
X120684635Y-105033798D01*
X120545341Y-105126871D01*
X120426871Y-105245341D01*
X120333798Y-105384635D01*
X120333795Y-105384640D01*
X120269685Y-105539413D01*
X120269684Y-105539417D01*
X120269684Y-105539418D01*
X120242048Y-105678358D01*
X120237000Y-105703734D01*
X120237000Y-105871265D01*
X120269684Y-106035583D01*
X120276560Y-106052182D01*
X120295514Y-106147470D01*
X120276560Y-106242758D01*
X120222584Y-106323539D01*
X120184854Y-106354503D01*
X120182047Y-106356380D01*
X120057839Y-106439373D01*
X119939371Y-106557841D01*
X119846298Y-106697135D01*
X119846295Y-106697140D01*
X119782185Y-106851913D01*
X119782185Y-106851915D01*
X119782184Y-106851918D01*
X119750575Y-107010832D01*
X119749500Y-107016234D01*
X100500500Y-107016234D01*
X100500500Y-90526049D01*
X106874500Y-90526049D01*
X106874500Y-91373950D01*
X106874501Y-91373982D01*
X106877315Y-91415482D01*
X106877317Y-91415493D01*
X106921963Y-91595024D01*
X106921964Y-91595025D01*
X107004155Y-91760748D01*
X107004159Y-91760754D01*
X107121778Y-91907077D01*
X107166704Y-91993220D01*
X107175246Y-92089999D01*
X107146101Y-92182679D01*
X107129151Y-92209437D01*
X107048241Y-92320800D01*
X106962451Y-92489172D01*
X106904059Y-92668885D01*
X106874501Y-92855507D01*
X106874500Y-92855523D01*
X106874500Y-93044476D01*
X106874501Y-93044492D01*
X106904059Y-93231114D01*
X106904060Y-93231118D01*
X106962453Y-93410832D01*
X107048240Y-93579199D01*
X107159310Y-93732073D01*
X107201170Y-93773933D01*
X107255144Y-93854712D01*
X107274098Y-93950000D01*
X107255144Y-94045288D01*
X107201170Y-94126066D01*
X107159310Y-94167927D01*
X107159306Y-94167931D01*
X107048241Y-94320800D01*
X106962451Y-94489172D01*
X106904059Y-94668885D01*
X106874501Y-94855507D01*
X106874500Y-94855523D01*
X106874500Y-95044476D01*
X106874501Y-95044492D01*
X106904059Y-95231114D01*
X106957946Y-95396963D01*
X106962453Y-95410832D01*
X107048240Y-95579199D01*
X107159310Y-95732073D01*
X107201170Y-95773933D01*
X107255144Y-95854712D01*
X107274098Y-95950000D01*
X107255144Y-96045288D01*
X107201170Y-96126066D01*
X107159310Y-96167927D01*
X107159306Y-96167931D01*
X107094898Y-96256582D01*
X107048240Y-96320801D01*
X107034820Y-96347140D01*
X106962451Y-96489172D01*
X106904059Y-96668885D01*
X106874501Y-96855507D01*
X106874500Y-96855523D01*
X106874500Y-97044476D01*
X106874501Y-97044492D01*
X106904059Y-97231114D01*
X106962386Y-97410628D01*
X106962453Y-97410832D01*
X107048240Y-97579199D01*
X107078496Y-97620842D01*
X107151414Y-97721206D01*
X107159310Y-97732073D01*
X107201170Y-97773933D01*
X107255144Y-97854712D01*
X107274098Y-97950000D01*
X107255144Y-98045288D01*
X107201170Y-98126066D01*
X107159310Y-98167927D01*
X107159306Y-98167931D01*
X107048241Y-98320800D01*
X106962451Y-98489172D01*
X106904059Y-98668885D01*
X106874501Y-98855507D01*
X106874500Y-98855523D01*
X106874500Y-99044476D01*
X106874501Y-99044492D01*
X106904059Y-99231114D01*
X106950462Y-99373930D01*
X106962453Y-99410832D01*
X107048240Y-99579199D01*
X107088281Y-99634310D01*
X107154948Y-99726070D01*
X107159310Y-99732073D01*
X107201170Y-99773933D01*
X107255144Y-99854712D01*
X107274098Y-99950000D01*
X107255144Y-100045288D01*
X107201170Y-100126066D01*
X107159310Y-100167927D01*
X107159306Y-100167931D01*
X107085959Y-100268885D01*
X107048240Y-100320801D01*
X107004136Y-100407361D01*
X106962451Y-100489172D01*
X106904059Y-100668885D01*
X106874501Y-100855507D01*
X106874500Y-100855523D01*
X106874500Y-101044476D01*
X106874501Y-101044492D01*
X106904059Y-101231114D01*
X106958311Y-101398086D01*
X106962453Y-101410832D01*
X107048240Y-101579199D01*
X107088281Y-101634310D01*
X107154948Y-101726070D01*
X107159310Y-101732073D01*
X107292927Y-101865690D01*
X107445801Y-101976760D01*
X107614168Y-102062547D01*
X107793882Y-102120940D01*
X107980519Y-102150500D01*
X107980523Y-102150500D01*
X108719477Y-102150500D01*
X108719481Y-102150500D01*
X108906118Y-102120940D01*
X109085832Y-102062547D01*
X109254199Y-101976760D01*
X109407073Y-101865690D01*
X109540690Y-101732073D01*
X109651760Y-101579199D01*
X109737547Y-101410832D01*
X109795940Y-101231118D01*
X109825500Y-101044481D01*
X109825500Y-100855519D01*
X109795940Y-100668882D01*
X109753783Y-100539139D01*
X109737549Y-100489173D01*
X109737547Y-100489170D01*
X109737547Y-100489168D01*
X109700383Y-100416230D01*
X112774500Y-100416230D01*
X112774500Y-100583764D01*
X112807184Y-100748079D01*
X112814381Y-100765455D01*
X112817914Y-100798642D01*
X112815615Y-100824031D01*
X112818114Y-100849403D01*
X112809310Y-100893665D01*
X112809153Y-100895401D01*
X112808850Y-100895978D01*
X112808592Y-100897276D01*
X112807185Y-100901912D01*
X112807184Y-100901918D01*
X112774500Y-101066233D01*
X112774500Y-101233767D01*
X112798889Y-101356379D01*
X112807185Y-101398086D01*
X112871295Y-101552859D01*
X112871298Y-101552864D01*
X112953621Y-101676070D01*
X112964374Y-101692162D01*
X113082838Y-101810626D01*
X113222137Y-101903703D01*
X113376918Y-101967816D01*
X113541233Y-102000500D01*
X113541235Y-102000500D01*
X113708765Y-102000500D01*
X113708767Y-102000500D01*
X113873082Y-101967816D01*
X113929708Y-101944359D01*
X114024995Y-101925404D01*
X114120279Y-101944355D01*
X114176913Y-101967814D01*
X114176914Y-101967814D01*
X114176918Y-101967816D01*
X114341233Y-102000500D01*
X114341235Y-102000500D01*
X114508765Y-102000500D01*
X114508767Y-102000500D01*
X114673082Y-101967816D01*
X114704708Y-101954716D01*
X114799996Y-101935760D01*
X114895281Y-101954711D01*
X114895290Y-101954715D01*
X114895292Y-101954716D01*
X114926913Y-101967814D01*
X114926914Y-101967814D01*
X114926918Y-101967816D01*
X115091233Y-102000500D01*
X115091235Y-102000500D01*
X115258765Y-102000500D01*
X115258767Y-102000500D01*
X115423082Y-101967816D01*
X115577863Y-101903703D01*
X115717162Y-101810626D01*
X115835626Y-101692162D01*
X115928703Y-101552863D01*
X115992816Y-101398082D01*
X116025500Y-101233767D01*
X116025500Y-101066233D01*
X115992816Y-100901918D01*
X115992812Y-100901909D01*
X115991410Y-100897286D01*
X115990934Y-100892463D01*
X115990429Y-100889920D01*
X115990679Y-100889870D01*
X115989263Y-100875493D01*
X115982463Y-100854685D01*
X115984700Y-100829181D01*
X115983425Y-100816233D01*
X117099500Y-100816233D01*
X117099500Y-100983767D01*
X117132184Y-101148082D01*
X117176352Y-101254711D01*
X117195306Y-101349999D01*
X117176351Y-101445288D01*
X117132184Y-101551918D01*
X117099500Y-101716233D01*
X117099500Y-101883767D01*
X117132184Y-102048082D01*
X117132185Y-102048086D01*
X117192296Y-102193205D01*
X117196297Y-102202863D01*
X117289374Y-102342162D01*
X117407838Y-102460626D01*
X117547137Y-102553703D01*
X117701918Y-102617816D01*
X117866233Y-102650500D01*
X117866235Y-102650500D01*
X118033765Y-102650500D01*
X118033767Y-102650500D01*
X118198082Y-102617816D01*
X118204703Y-102615073D01*
X118299986Y-102596115D01*
X118395272Y-102615063D01*
X118401918Y-102617816D01*
X118566233Y-102650500D01*
X118566235Y-102650500D01*
X118733765Y-102650500D01*
X118733767Y-102650500D01*
X118898082Y-102617816D01*
X119052863Y-102553703D01*
X119192162Y-102460626D01*
X119310626Y-102342162D01*
X119403703Y-102202863D01*
X119467816Y-102048082D01*
X119500500Y-101883767D01*
X119500500Y-101716233D01*
X119467816Y-101551918D01*
X119423647Y-101445286D01*
X119404693Y-101350002D01*
X119423644Y-101254719D01*
X119467816Y-101148082D01*
X119500500Y-100983767D01*
X119500500Y-100816233D01*
X119467816Y-100651918D01*
X119464735Y-100644481D01*
X119403704Y-100497140D01*
X119403703Y-100497137D01*
X119310626Y-100357838D01*
X119192162Y-100239374D01*
X119052863Y-100146297D01*
X119052860Y-100146296D01*
X119052859Y-100146295D01*
X118898086Y-100082185D01*
X118898082Y-100082184D01*
X118733767Y-100049500D01*
X118566233Y-100049500D01*
X118401918Y-100082184D01*
X118401917Y-100082184D01*
X118401914Y-100082185D01*
X118395285Y-100084931D01*
X118299997Y-100103884D01*
X118204715Y-100084931D01*
X118198085Y-100082185D01*
X118198086Y-100082185D01*
X118198082Y-100082184D01*
X118033767Y-100049500D01*
X117866233Y-100049500D01*
X117701918Y-100082184D01*
X117701913Y-100082185D01*
X117547140Y-100146295D01*
X117547135Y-100146298D01*
X117407841Y-100239371D01*
X117289371Y-100357841D01*
X117196298Y-100497135D01*
X117196295Y-100497140D01*
X117132185Y-100651913D01*
X117132184Y-100651917D01*
X117132184Y-100651918D01*
X117099500Y-100816233D01*
X115983425Y-100816233D01*
X115981885Y-100800599D01*
X115989922Y-100757817D01*
X115992300Y-100749326D01*
X115992816Y-100748082D01*
X116025500Y-100583767D01*
X116025500Y-100416233D01*
X115992816Y-100251918D01*
X115928703Y-100097137D01*
X115835626Y-99957838D01*
X115717162Y-99839374D01*
X115717153Y-99839368D01*
X115647991Y-99793155D01*
X115577863Y-99746297D01*
X115577860Y-99746296D01*
X115577859Y-99746295D01*
X115423086Y-99682185D01*
X115423082Y-99682184D01*
X115258767Y-99649500D01*
X115091233Y-99649500D01*
X114926933Y-99682181D01*
X114926918Y-99682184D01*
X114895284Y-99695287D01*
X114799995Y-99714239D01*
X114704716Y-99695287D01*
X114694670Y-99691126D01*
X114673082Y-99682184D01*
X114508767Y-99649500D01*
X114341233Y-99649500D01*
X114275507Y-99662573D01*
X114176915Y-99682184D01*
X114120288Y-99705640D01*
X114025000Y-99724593D01*
X113929715Y-99705639D01*
X113873084Y-99682181D01*
X113790924Y-99665839D01*
X113708767Y-99649497D01*
X113541233Y-99649497D01*
X113376918Y-99682181D01*
X113376913Y-99682182D01*
X113222140Y-99746292D01*
X113222135Y-99746295D01*
X113082841Y-99839368D01*
X112964371Y-99957838D01*
X112871298Y-100097132D01*
X112871295Y-100097137D01*
X112807185Y-100251910D01*
X112807184Y-100251914D01*
X112807184Y-100251915D01*
X112774500Y-100416230D01*
X109700383Y-100416230D01*
X109651760Y-100320801D01*
X109540690Y-100167927D01*
X109498829Y-100126066D01*
X109444856Y-100045288D01*
X109425902Y-99950000D01*
X109444856Y-99854712D01*
X109498829Y-99773933D01*
X109540690Y-99732073D01*
X109651760Y-99579199D01*
X109737547Y-99410832D01*
X109795940Y-99231118D01*
X109825500Y-99044481D01*
X109825500Y-98855519D01*
X109795940Y-98668882D01*
X109737547Y-98489168D01*
X109651760Y-98320801D01*
X109540690Y-98167927D01*
X109498829Y-98126066D01*
X109444856Y-98045288D01*
X109425902Y-97950000D01*
X109444856Y-97854712D01*
X109498829Y-97773933D01*
X109540690Y-97732073D01*
X109651760Y-97579199D01*
X109737547Y-97410832D01*
X109795940Y-97231118D01*
X109825500Y-97044481D01*
X109825500Y-96855519D01*
X109795940Y-96668882D01*
X109737547Y-96489168D01*
X109651760Y-96320801D01*
X109540690Y-96167927D01*
X109490433Y-96117670D01*
X109489247Y-96116233D01*
X119899500Y-96116233D01*
X119899500Y-96283767D01*
X119912071Y-96346964D01*
X119932185Y-96448086D01*
X119978008Y-96558711D01*
X119996297Y-96602863D01*
X120089374Y-96742162D01*
X120207838Y-96860626D01*
X120347137Y-96953703D01*
X120501918Y-97017816D01*
X120666233Y-97050500D01*
X120666235Y-97050500D01*
X120833765Y-97050500D01*
X120833767Y-97050500D01*
X120998082Y-97017816D01*
X121152863Y-96953703D01*
X121292162Y-96860626D01*
X121410626Y-96742162D01*
X121461360Y-96666233D01*
X122549500Y-96666233D01*
X122549500Y-96833767D01*
X122554843Y-96860626D01*
X122582185Y-96998086D01*
X122646295Y-97152859D01*
X122646298Y-97152864D01*
X122698585Y-97231118D01*
X122739374Y-97292162D01*
X122857838Y-97410626D01*
X122997137Y-97503703D01*
X123151918Y-97567816D01*
X123316233Y-97600500D01*
X123316235Y-97600500D01*
X123483765Y-97600500D01*
X123483767Y-97600500D01*
X123648082Y-97567816D01*
X123802863Y-97503703D01*
X123942162Y-97410626D01*
X124060626Y-97292162D01*
X124153703Y-97152863D01*
X124217816Y-96998082D01*
X124250500Y-96833767D01*
X124250500Y-96666233D01*
X124217816Y-96501918D01*
X124153703Y-96347137D01*
X124060626Y-96207838D01*
X123978837Y-96126049D01*
X135974500Y-96126049D01*
X135974500Y-96973950D01*
X135974501Y-96973982D01*
X135977315Y-97015482D01*
X135977316Y-97015491D01*
X135977317Y-97015495D01*
X135992368Y-97076017D01*
X136021963Y-97195024D01*
X136021964Y-97195025D01*
X136104155Y-97360748D01*
X136104157Y-97360751D01*
X136104158Y-97360753D01*
X136219066Y-97503704D01*
X136221778Y-97507077D01*
X136266704Y-97593220D01*
X136275246Y-97689999D01*
X136246101Y-97782679D01*
X136229150Y-97809437D01*
X136148240Y-97920801D01*
X136084811Y-98045288D01*
X136062451Y-98089172D01*
X136004059Y-98268885D01*
X135974501Y-98455507D01*
X135974500Y-98455523D01*
X135974500Y-98644476D01*
X135974501Y-98644492D01*
X136004059Y-98831114D01*
X136004060Y-98831118D01*
X136011990Y-98855523D01*
X136054211Y-98985468D01*
X136062453Y-99010832D01*
X136148240Y-99179199D01*
X136259310Y-99332073D01*
X136301170Y-99373933D01*
X136355144Y-99454712D01*
X136374098Y-99550000D01*
X136355144Y-99645288D01*
X136301170Y-99726066D01*
X136259310Y-99767927D01*
X136259306Y-99767931D01*
X136170454Y-99890226D01*
X136148240Y-99920801D01*
X136084811Y-100045288D01*
X136062451Y-100089172D01*
X136004059Y-100268885D01*
X135974501Y-100455507D01*
X135974500Y-100455523D01*
X135974500Y-100644476D01*
X135974501Y-100644492D01*
X136003091Y-100825000D01*
X136004060Y-100831118D01*
X136023150Y-100889870D01*
X136062256Y-101010228D01*
X136062453Y-101010832D01*
X136148240Y-101179199D01*
X136203103Y-101254711D01*
X136253393Y-101323930D01*
X136259310Y-101332073D01*
X136301170Y-101373933D01*
X136355144Y-101454712D01*
X136374098Y-101550000D01*
X136355144Y-101645288D01*
X136301170Y-101726066D01*
X136259310Y-101767927D01*
X136259306Y-101767931D01*
X136188278Y-101865693D01*
X136148240Y-101920801D01*
X136083387Y-102048082D01*
X136062451Y-102089172D01*
X136004059Y-102268885D01*
X135974501Y-102455507D01*
X135974500Y-102455523D01*
X135974500Y-102644476D01*
X135974501Y-102644492D01*
X135975453Y-102650500D01*
X136004060Y-102831118D01*
X136062453Y-103010832D01*
X136148240Y-103179199D01*
X136259310Y-103332073D01*
X136301170Y-103373933D01*
X136355144Y-103454712D01*
X136374098Y-103550000D01*
X136355144Y-103645288D01*
X136301170Y-103726066D01*
X136259310Y-103767927D01*
X136259306Y-103767931D01*
X136170454Y-103890226D01*
X136148240Y-103920801D01*
X136107886Y-104000000D01*
X136062451Y-104089172D01*
X136004059Y-104268885D01*
X135974501Y-104455507D01*
X135974500Y-104455523D01*
X135974500Y-104644476D01*
X135974501Y-104644492D01*
X136004059Y-104831114D01*
X136004060Y-104831118D01*
X136062453Y-105010832D01*
X136148240Y-105179199D01*
X136259310Y-105332073D01*
X136301170Y-105373933D01*
X136355144Y-105454712D01*
X136374098Y-105550000D01*
X136355144Y-105645288D01*
X136301170Y-105726066D01*
X136260649Y-105766588D01*
X136259306Y-105767931D01*
X136199481Y-105850274D01*
X136148240Y-105920801D01*
X136089756Y-106035583D01*
X136062451Y-106089172D01*
X136004059Y-106268885D01*
X135974501Y-106455507D01*
X135974500Y-106455523D01*
X135974500Y-106644476D01*
X135974501Y-106644492D01*
X135994983Y-106773808D01*
X136004060Y-106831118D01*
X136062453Y-107010832D01*
X136148240Y-107179199D01*
X136259310Y-107332073D01*
X136392927Y-107465690D01*
X136545801Y-107576760D01*
X136714168Y-107662547D01*
X136893882Y-107720940D01*
X137080519Y-107750500D01*
X137080523Y-107750500D01*
X137819477Y-107750500D01*
X137819481Y-107750500D01*
X138006118Y-107720940D01*
X138185832Y-107662547D01*
X138354199Y-107576760D01*
X138507073Y-107465690D01*
X138640690Y-107332073D01*
X138751760Y-107179199D01*
X138837547Y-107010832D01*
X138895940Y-106831118D01*
X138925500Y-106644481D01*
X138925500Y-106455519D01*
X138895940Y-106268882D01*
X138837547Y-106089168D01*
X138751760Y-105920801D01*
X138640690Y-105767927D01*
X138598829Y-105726066D01*
X138544856Y-105645288D01*
X138525902Y-105550000D01*
X138544856Y-105454712D01*
X138598829Y-105373933D01*
X138640690Y-105332073D01*
X138751760Y-105179199D01*
X138837547Y-105010832D01*
X138895940Y-104831118D01*
X138925500Y-104644481D01*
X138925500Y-104455519D01*
X138895940Y-104268882D01*
X138837547Y-104089168D01*
X138751760Y-103920801D01*
X138640690Y-103767927D01*
X138598829Y-103726066D01*
X138544856Y-103645288D01*
X138525902Y-103550000D01*
X138544856Y-103454712D01*
X138598829Y-103373933D01*
X138640690Y-103332073D01*
X138751760Y-103179199D01*
X138837547Y-103010832D01*
X138895940Y-102831118D01*
X138925500Y-102644481D01*
X138925500Y-102455519D01*
X138895940Y-102268882D01*
X138837547Y-102089168D01*
X138751760Y-101920801D01*
X138640690Y-101767927D01*
X138598829Y-101726066D01*
X138544856Y-101645288D01*
X138525902Y-101550000D01*
X138544856Y-101454712D01*
X138598829Y-101373933D01*
X138640690Y-101332073D01*
X138751760Y-101179199D01*
X138837547Y-101010832D01*
X138895940Y-100831118D01*
X138925500Y-100644481D01*
X138925500Y-100455519D01*
X138895940Y-100268882D01*
X138837547Y-100089168D01*
X138751760Y-99920801D01*
X138640690Y-99767927D01*
X138598829Y-99726066D01*
X138544856Y-99645288D01*
X138525902Y-99550000D01*
X138544856Y-99454712D01*
X138598829Y-99373933D01*
X138640690Y-99332073D01*
X138751760Y-99179199D01*
X138837547Y-99010832D01*
X138895940Y-98831118D01*
X138925500Y-98644481D01*
X138925500Y-98455519D01*
X138895940Y-98268882D01*
X138837547Y-98089168D01*
X138751760Y-97920801D01*
X138670849Y-97809437D01*
X138630175Y-97721206D01*
X138626361Y-97624126D01*
X138659988Y-97532976D01*
X138678222Y-97507077D01*
X138679940Y-97504940D01*
X138795842Y-97360753D01*
X138878037Y-97195021D01*
X138922683Y-97015495D01*
X138925500Y-96973954D01*
X138925500Y-96126046D01*
X138922683Y-96084505D01*
X138878037Y-95904979D01*
X138878036Y-95904978D01*
X138878036Y-95904975D01*
X138878035Y-95904974D01*
X138795844Y-95739251D01*
X138795843Y-95739250D01*
X138795842Y-95739247D01*
X138679940Y-95595060D01*
X138535753Y-95479158D01*
X138535751Y-95479157D01*
X138535748Y-95479155D01*
X138370025Y-95396964D01*
X138370024Y-95396963D01*
X138262305Y-95370175D01*
X138190495Y-95352317D01*
X138190491Y-95352316D01*
X138190482Y-95352315D01*
X138148982Y-95349501D01*
X138148957Y-95349500D01*
X138148954Y-95349500D01*
X136751046Y-95349500D01*
X136751042Y-95349500D01*
X136751017Y-95349501D01*
X136709517Y-95352315D01*
X136709506Y-95352316D01*
X136709505Y-95352317D01*
X136673599Y-95361246D01*
X136529975Y-95396963D01*
X136529974Y-95396964D01*
X136364251Y-95479155D01*
X136364245Y-95479159D01*
X136220064Y-95595056D01*
X136220056Y-95595064D01*
X136104159Y-95739245D01*
X136104155Y-95739251D01*
X136021964Y-95904974D01*
X136021963Y-95904975D01*
X135977317Y-96084506D01*
X135977315Y-96084517D01*
X135974501Y-96126017D01*
X135974500Y-96126049D01*
X123978837Y-96126049D01*
X123942162Y-96089374D01*
X123922140Y-96075996D01*
X123802864Y-95996298D01*
X123802863Y-95996297D01*
X123802860Y-95996296D01*
X123802859Y-95996295D01*
X123648086Y-95932185D01*
X123648082Y-95932184D01*
X123483767Y-95899500D01*
X123316233Y-95899500D01*
X123181489Y-95926302D01*
X123151913Y-95932185D01*
X122997140Y-95996295D01*
X122997135Y-95996298D01*
X122857841Y-96089371D01*
X122739371Y-96207841D01*
X122646298Y-96347135D01*
X122646295Y-96347140D01*
X122582185Y-96501913D01*
X122582184Y-96501917D01*
X122582184Y-96501918D01*
X122549500Y-96666233D01*
X121461360Y-96666233D01*
X121503703Y-96602863D01*
X121567816Y-96448082D01*
X121600500Y-96283767D01*
X121600500Y-96116233D01*
X121567816Y-95951918D01*
X121503703Y-95797137D01*
X121410626Y-95657838D01*
X121292162Y-95539374D01*
X121152863Y-95446297D01*
X121152860Y-95446296D01*
X121152859Y-95446295D01*
X120998086Y-95382185D01*
X120998082Y-95382184D01*
X120833767Y-95349500D01*
X120666233Y-95349500D01*
X120501918Y-95382184D01*
X120501913Y-95382185D01*
X120347140Y-95446295D01*
X120347135Y-95446298D01*
X120207841Y-95539371D01*
X120089371Y-95657841D01*
X119996298Y-95797135D01*
X119996295Y-95797140D01*
X119932185Y-95951913D01*
X119932184Y-95951917D01*
X119932184Y-95951918D01*
X119899500Y-96116233D01*
X109489247Y-96116233D01*
X109482875Y-96108514D01*
X109465374Y-96075996D01*
X109444856Y-96045288D01*
X109442515Y-96033522D01*
X109436832Y-96022962D01*
X109433107Y-95986222D01*
X109425902Y-95950000D01*
X109428241Y-95938236D01*
X109427032Y-95926302D01*
X109437651Y-95890930D01*
X109444856Y-95854712D01*
X109451520Y-95844738D01*
X109454969Y-95833251D01*
X109478312Y-95804640D01*
X109498829Y-95773933D01*
X109540690Y-95732073D01*
X109651760Y-95579199D01*
X109737547Y-95410832D01*
X109795940Y-95231118D01*
X109825500Y-95044481D01*
X109825500Y-94855519D01*
X109795940Y-94668882D01*
X109737547Y-94489168D01*
X109651760Y-94320801D01*
X109540690Y-94167927D01*
X109498829Y-94126066D01*
X109444856Y-94045288D01*
X109425902Y-93950000D01*
X109444856Y-93854712D01*
X109498829Y-93773933D01*
X109540690Y-93732073D01*
X109651760Y-93579199D01*
X109737547Y-93410832D01*
X109795940Y-93231118D01*
X109825500Y-93044481D01*
X109825500Y-92855519D01*
X109795940Y-92668882D01*
X109737547Y-92489168D01*
X109651760Y-92320801D01*
X109570849Y-92209437D01*
X109530175Y-92121206D01*
X109526361Y-92024126D01*
X109559988Y-91932976D01*
X109578222Y-91907077D01*
X109579940Y-91904940D01*
X109695842Y-91760753D01*
X109778037Y-91595021D01*
X109822683Y-91415495D01*
X109825500Y-91373954D01*
X109825500Y-90526046D01*
X109822683Y-90484505D01*
X109778037Y-90304979D01*
X109778036Y-90304978D01*
X109778036Y-90304975D01*
X109778035Y-90304974D01*
X109695844Y-90139251D01*
X109695843Y-90139250D01*
X109695842Y-90139247D01*
X109579940Y-89995060D01*
X109435753Y-89879158D01*
X109435751Y-89879157D01*
X109435748Y-89879155D01*
X109270025Y-89796964D01*
X109270024Y-89796963D01*
X109162305Y-89770175D01*
X109090495Y-89752317D01*
X109090491Y-89752316D01*
X109090482Y-89752315D01*
X109048982Y-89749501D01*
X109048957Y-89749500D01*
X109048954Y-89749500D01*
X107651046Y-89749500D01*
X107651042Y-89749500D01*
X107651017Y-89749501D01*
X107609517Y-89752315D01*
X107609506Y-89752316D01*
X107609505Y-89752317D01*
X107573599Y-89761246D01*
X107429975Y-89796963D01*
X107429974Y-89796964D01*
X107264251Y-89879155D01*
X107264245Y-89879159D01*
X107120064Y-89995056D01*
X107120056Y-89995064D01*
X107004159Y-90139245D01*
X107004155Y-90139251D01*
X106921964Y-90304974D01*
X106921963Y-90304975D01*
X106877317Y-90484506D01*
X106877315Y-90484517D01*
X106874501Y-90526017D01*
X106874500Y-90526049D01*
X100500500Y-90526049D01*
X100500500Y-89516230D01*
X112874500Y-89516230D01*
X112874500Y-89683764D01*
X112907184Y-89848079D01*
X112914381Y-89865455D01*
X112917914Y-89898642D01*
X112915615Y-89924031D01*
X112918114Y-89949403D01*
X112909310Y-89993665D01*
X112909153Y-89995401D01*
X112908850Y-89995978D01*
X112908592Y-89997276D01*
X112907185Y-90001912D01*
X112907184Y-90001918D01*
X112874500Y-90166233D01*
X112874500Y-90333767D01*
X112904484Y-90484506D01*
X112907185Y-90498086D01*
X112971295Y-90652859D01*
X112971297Y-90652863D01*
X113064374Y-90792162D01*
X113182838Y-90910626D01*
X113322137Y-91003703D01*
X113476918Y-91067816D01*
X113641233Y-91100500D01*
X113641235Y-91100500D01*
X113808765Y-91100500D01*
X113808767Y-91100500D01*
X113973082Y-91067816D01*
X114029708Y-91044359D01*
X114124995Y-91025404D01*
X114220279Y-91044355D01*
X114276913Y-91067814D01*
X114276914Y-91067814D01*
X114276918Y-91067816D01*
X114441233Y-91100500D01*
X114441235Y-91100500D01*
X114608765Y-91100500D01*
X114608767Y-91100500D01*
X114773082Y-91067816D01*
X114804708Y-91054716D01*
X114899996Y-91035760D01*
X114995281Y-91054711D01*
X114995290Y-91054715D01*
X114995292Y-91054716D01*
X115026913Y-91067814D01*
X115026914Y-91067814D01*
X115026918Y-91067816D01*
X115191233Y-91100500D01*
X115191235Y-91100500D01*
X115358765Y-91100500D01*
X115358767Y-91100500D01*
X115523082Y-91067816D01*
X115677863Y-91003703D01*
X115817162Y-90910626D01*
X115935626Y-90792162D01*
X116028703Y-90652863D01*
X116092816Y-90498082D01*
X116125500Y-90333767D01*
X116125500Y-90166233D01*
X116092816Y-90001918D01*
X116092812Y-90001909D01*
X116091410Y-89997286D01*
X116090934Y-89992463D01*
X116090429Y-89989920D01*
X116090679Y-89989870D01*
X116089263Y-89975493D01*
X116082463Y-89954685D01*
X116084700Y-89929181D01*
X116083425Y-89916233D01*
X117199500Y-89916233D01*
X117199500Y-90083767D01*
X117232184Y-90248082D01*
X117276352Y-90354711D01*
X117295306Y-90449999D01*
X117276351Y-90545288D01*
X117232184Y-90651918D01*
X117199500Y-90816233D01*
X117199500Y-90983767D01*
X117232184Y-91148082D01*
X117232185Y-91148086D01*
X117296295Y-91302859D01*
X117296298Y-91302864D01*
X117371555Y-91415495D01*
X117389374Y-91442162D01*
X117507838Y-91560626D01*
X117647137Y-91653703D01*
X117801918Y-91717816D01*
X117966233Y-91750500D01*
X117966235Y-91750500D01*
X118133765Y-91750500D01*
X118133767Y-91750500D01*
X118298082Y-91717816D01*
X118304703Y-91715073D01*
X118399986Y-91696115D01*
X118495272Y-91715063D01*
X118501918Y-91717816D01*
X118666233Y-91750500D01*
X118666235Y-91750500D01*
X118833765Y-91750500D01*
X118833767Y-91750500D01*
X118998082Y-91717816D01*
X119152863Y-91653703D01*
X119292162Y-91560626D01*
X119410626Y-91442162D01*
X119503703Y-91302863D01*
X119567816Y-91148082D01*
X119600500Y-90983767D01*
X119600500Y-90816233D01*
X119567816Y-90651918D01*
X119523647Y-90545286D01*
X119504693Y-90450002D01*
X119523644Y-90354719D01*
X119567816Y-90248082D01*
X119600500Y-90083767D01*
X119600500Y-89916233D01*
X119567816Y-89751918D01*
X119503703Y-89597137D01*
X119410626Y-89457838D01*
X119292162Y-89339374D01*
X119152863Y-89246297D01*
X119152860Y-89246296D01*
X119152859Y-89246295D01*
X118998086Y-89182185D01*
X118998082Y-89182184D01*
X118833767Y-89149500D01*
X118666233Y-89149500D01*
X118501918Y-89182184D01*
X118501917Y-89182184D01*
X118501914Y-89182185D01*
X118495285Y-89184931D01*
X118399997Y-89203884D01*
X118304715Y-89184931D01*
X118298085Y-89182185D01*
X118298086Y-89182185D01*
X118298082Y-89182184D01*
X118133767Y-89149500D01*
X117966233Y-89149500D01*
X117801918Y-89182184D01*
X117801913Y-89182185D01*
X117647140Y-89246295D01*
X117647135Y-89246298D01*
X117507841Y-89339371D01*
X117389371Y-89457841D01*
X117296298Y-89597135D01*
X117296295Y-89597140D01*
X117232185Y-89751913D01*
X117232184Y-89751917D01*
X117232184Y-89751918D01*
X117199500Y-89916233D01*
X116083425Y-89916233D01*
X116081885Y-89900599D01*
X116089922Y-89857817D01*
X116092300Y-89849326D01*
X116092816Y-89848082D01*
X116125500Y-89683767D01*
X116125500Y-89516233D01*
X116092816Y-89351918D01*
X116028703Y-89197137D01*
X115935626Y-89057838D01*
X115817162Y-88939374D01*
X115817153Y-88939368D01*
X115677864Y-88846298D01*
X115677863Y-88846297D01*
X115677860Y-88846296D01*
X115677859Y-88846295D01*
X115523086Y-88782185D01*
X115523082Y-88782184D01*
X115358767Y-88749500D01*
X115191233Y-88749500D01*
X115026933Y-88782181D01*
X115026918Y-88782184D01*
X114995284Y-88795287D01*
X114899995Y-88814239D01*
X114804716Y-88795287D01*
X114794670Y-88791126D01*
X114773082Y-88782184D01*
X114608767Y-88749500D01*
X114441233Y-88749500D01*
X114375507Y-88762573D01*
X114276915Y-88782184D01*
X114220288Y-88805640D01*
X114125000Y-88824593D01*
X114029715Y-88805639D01*
X113973084Y-88782181D01*
X113890924Y-88765839D01*
X113808767Y-88749497D01*
X113641233Y-88749497D01*
X113476918Y-88782181D01*
X113476913Y-88782182D01*
X113322140Y-88846292D01*
X113322135Y-88846295D01*
X113182841Y-88939368D01*
X113064371Y-89057838D01*
X112971298Y-89197132D01*
X112971295Y-89197137D01*
X112907185Y-89351910D01*
X112907184Y-89351914D01*
X112907184Y-89351915D01*
X112874500Y-89516230D01*
X100500500Y-89516230D01*
X100500500Y-85166234D01*
X119799500Y-85166234D01*
X119799500Y-85333765D01*
X119832185Y-85498086D01*
X119896295Y-85652859D01*
X119896297Y-85652863D01*
X119989374Y-85792162D01*
X120107838Y-85910626D01*
X120247137Y-86003703D01*
X120401918Y-86067816D01*
X120566233Y-86100500D01*
X120566235Y-86100500D01*
X120733765Y-86100500D01*
X120733767Y-86100500D01*
X120898082Y-86067816D01*
X121052863Y-86003703D01*
X121192162Y-85910626D01*
X121310626Y-85792162D01*
X121403703Y-85652863D01*
X121467816Y-85498082D01*
X121500500Y-85333767D01*
X121500500Y-85166233D01*
X121470209Y-85013948D01*
X121470209Y-84976949D01*
X121466709Y-84940122D01*
X121470209Y-84928724D01*
X121470209Y-84916798D01*
X121484369Y-84882612D01*
X121495229Y-84847248D01*
X121502186Y-84839597D01*
X121507389Y-84827038D01*
X121557119Y-84772357D01*
X121576887Y-84756246D01*
X121583027Y-84753703D01*
X121624414Y-84726049D01*
X127349500Y-84726049D01*
X127349500Y-86373950D01*
X127349501Y-86373982D01*
X127352315Y-86415482D01*
X127352317Y-86415493D01*
X127396963Y-86595024D01*
X127396964Y-86595025D01*
X127479155Y-86760748D01*
X127479157Y-86760751D01*
X127479158Y-86760753D01*
X127595060Y-86904940D01*
X127739247Y-87020842D01*
X127739250Y-87020843D01*
X127739251Y-87020844D01*
X127904974Y-87103035D01*
X127904975Y-87103036D01*
X127904978Y-87103036D01*
X127904979Y-87103037D01*
X128084505Y-87147683D01*
X128084515Y-87147683D01*
X128084517Y-87147684D01*
X128119700Y-87150069D01*
X128126046Y-87150500D01*
X128126050Y-87150500D01*
X129773950Y-87150500D01*
X129773954Y-87150500D01*
X129793108Y-87149201D01*
X129815482Y-87147684D01*
X129815483Y-87147683D01*
X129815495Y-87147683D01*
X129995021Y-87103037D01*
X129995022Y-87103036D01*
X129995024Y-87103036D01*
X129995025Y-87103035D01*
X130160753Y-87020842D01*
X130304940Y-86904940D01*
X130420842Y-86760753D01*
X130503037Y-86595021D01*
X130547683Y-86415495D01*
X130550500Y-86373954D01*
X130550500Y-84726046D01*
X130550069Y-84719700D01*
X130547684Y-84684517D01*
X130547683Y-84684515D01*
X130547683Y-84684505D01*
X130503037Y-84504979D01*
X130503036Y-84504978D01*
X130503036Y-84504975D01*
X130503035Y-84504974D01*
X130420844Y-84339251D01*
X130420843Y-84339250D01*
X130420842Y-84339247D01*
X130304940Y-84195060D01*
X130160753Y-84079158D01*
X130160751Y-84079157D01*
X130160748Y-84079155D01*
X129995025Y-83996964D01*
X129995024Y-83996963D01*
X129887305Y-83970175D01*
X129815495Y-83952317D01*
X129815491Y-83952316D01*
X129815482Y-83952315D01*
X129773982Y-83949501D01*
X129773957Y-83949500D01*
X129773954Y-83949500D01*
X128126046Y-83949500D01*
X128126042Y-83949500D01*
X128126017Y-83949501D01*
X128084517Y-83952315D01*
X128084506Y-83952316D01*
X128084505Y-83952317D01*
X128048599Y-83961246D01*
X127904975Y-83996963D01*
X127904974Y-83996964D01*
X127739251Y-84079155D01*
X127739245Y-84079159D01*
X127595064Y-84195056D01*
X127595056Y-84195064D01*
X127479159Y-84339245D01*
X127479155Y-84339251D01*
X127396964Y-84504974D01*
X127396963Y-84504975D01*
X127375976Y-84589370D01*
X127358256Y-84660626D01*
X127352317Y-84684506D01*
X127352315Y-84684517D01*
X127349501Y-84726017D01*
X127349500Y-84726049D01*
X121624414Y-84726049D01*
X121722326Y-84660626D01*
X121840790Y-84542162D01*
X121933867Y-84402863D01*
X121997980Y-84248082D01*
X122030664Y-84083767D01*
X122030664Y-83916233D01*
X121997980Y-83751918D01*
X121933867Y-83597137D01*
X121840790Y-83457838D01*
X121722326Y-83339374D01*
X121583027Y-83246297D01*
X121583024Y-83246296D01*
X121583023Y-83246295D01*
X121428250Y-83182185D01*
X121428246Y-83182184D01*
X121263931Y-83149500D01*
X121096397Y-83149500D01*
X120932082Y-83182184D01*
X120932077Y-83182185D01*
X120777304Y-83246295D01*
X120777299Y-83246298D01*
X120638005Y-83339371D01*
X120519535Y-83457841D01*
X120426462Y-83597135D01*
X120426459Y-83597140D01*
X120362349Y-83751913D01*
X120329664Y-83916234D01*
X120329664Y-84083766D01*
X120359954Y-84236048D01*
X120359953Y-84333203D01*
X120322773Y-84422962D01*
X120254076Y-84491659D01*
X120107842Y-84589370D01*
X119989371Y-84707841D01*
X119896298Y-84847135D01*
X119896295Y-84847140D01*
X119832185Y-85001913D01*
X119799500Y-85166234D01*
X100500500Y-85166234D01*
X100500500Y-76527343D01*
X100519454Y-76432055D01*
X100573430Y-76351273D01*
X100654212Y-76297297D01*
X100749500Y-76278343D01*
X100844788Y-76297297D01*
X100925570Y-76351273D01*
X100979545Y-76432053D01*
X101060246Y-76626883D01*
X101236271Y-76956204D01*
X101443729Y-77266685D01*
X101680619Y-77555338D01*
X101944662Y-77819381D01*
X102233315Y-78056271D01*
X102543796Y-78263729D01*
X102873117Y-78439754D01*
X103218106Y-78582653D01*
X103218118Y-78582656D01*
X103218119Y-78582657D01*
X103575437Y-78691049D01*
X103793987Y-78734521D01*
X103941678Y-78763899D01*
X104313293Y-78800500D01*
X104313296Y-78800500D01*
X104686704Y-78800500D01*
X104686707Y-78800500D01*
X105058322Y-78763899D01*
X105278862Y-78720030D01*
X105424562Y-78691049D01*
X105678541Y-78614004D01*
X105781894Y-78582653D01*
X105881898Y-78541230D01*
X112874500Y-78541230D01*
X112874500Y-78708764D01*
X112907184Y-78873079D01*
X112914381Y-78890455D01*
X112917914Y-78923642D01*
X112915615Y-78949031D01*
X112918114Y-78974403D01*
X112909310Y-79018665D01*
X112909153Y-79020401D01*
X112908850Y-79020978D01*
X112908592Y-79022276D01*
X112907185Y-79026912D01*
X112907184Y-79026918D01*
X112874500Y-79191233D01*
X112874500Y-79358767D01*
X112906996Y-79522137D01*
X112907185Y-79523086D01*
X112971295Y-79677859D01*
X112971297Y-79677863D01*
X113064374Y-79817162D01*
X113182838Y-79935626D01*
X113322137Y-80028703D01*
X113476918Y-80092816D01*
X113641233Y-80125500D01*
X113641235Y-80125500D01*
X113808765Y-80125500D01*
X113808767Y-80125500D01*
X113973082Y-80092816D01*
X114029708Y-80069359D01*
X114124995Y-80050404D01*
X114220279Y-80069355D01*
X114276913Y-80092814D01*
X114276914Y-80092814D01*
X114276918Y-80092816D01*
X114441233Y-80125500D01*
X114441235Y-80125500D01*
X114608765Y-80125500D01*
X114608767Y-80125500D01*
X114773082Y-80092816D01*
X114804708Y-80079716D01*
X114899996Y-80060760D01*
X114995281Y-80079711D01*
X114995290Y-80079715D01*
X114995292Y-80079716D01*
X115026913Y-80092814D01*
X115026914Y-80092814D01*
X115026918Y-80092816D01*
X115191233Y-80125500D01*
X115191235Y-80125500D01*
X115358765Y-80125500D01*
X115358767Y-80125500D01*
X115523082Y-80092816D01*
X115677863Y-80028703D01*
X115817162Y-79935626D01*
X115935626Y-79817162D01*
X116028703Y-79677863D01*
X116092816Y-79523082D01*
X116125500Y-79358767D01*
X116125500Y-79191233D01*
X116092816Y-79026918D01*
X116092812Y-79026909D01*
X116091410Y-79022286D01*
X116090934Y-79017463D01*
X116090429Y-79014920D01*
X116090679Y-79014870D01*
X116089263Y-79000493D01*
X116082463Y-78979685D01*
X116084700Y-78954181D01*
X116083425Y-78941233D01*
X117199500Y-78941233D01*
X117199500Y-79108767D01*
X117232184Y-79273082D01*
X117276352Y-79379711D01*
X117295306Y-79474999D01*
X117276351Y-79570288D01*
X117232184Y-79676918D01*
X117199500Y-79841233D01*
X117199500Y-80008767D01*
X117232184Y-80173082D01*
X117232185Y-80173086D01*
X117296295Y-80327859D01*
X117296297Y-80327863D01*
X117389374Y-80467162D01*
X117507838Y-80585626D01*
X117647137Y-80678703D01*
X117801918Y-80742816D01*
X117966233Y-80775500D01*
X117966235Y-80775500D01*
X118133765Y-80775500D01*
X118133767Y-80775500D01*
X118298082Y-80742816D01*
X118304703Y-80740073D01*
X118399986Y-80721115D01*
X118495272Y-80740063D01*
X118501918Y-80742816D01*
X118666233Y-80775500D01*
X118666235Y-80775500D01*
X118833765Y-80775500D01*
X118833767Y-80775500D01*
X118998082Y-80742816D01*
X119152863Y-80678703D01*
X119292162Y-80585626D01*
X119410626Y-80467162D01*
X119503703Y-80327863D01*
X119567816Y-80173082D01*
X119600500Y-80008767D01*
X119600500Y-79841233D01*
X119567816Y-79676918D01*
X119523647Y-79570286D01*
X119504693Y-79475002D01*
X119523644Y-79379719D01*
X119567816Y-79273082D01*
X119600500Y-79108767D01*
X119600500Y-78941233D01*
X119567816Y-78776918D01*
X119503703Y-78622137D01*
X119410626Y-78482838D01*
X119292162Y-78364374D01*
X119152863Y-78271297D01*
X119152860Y-78271296D01*
X119152859Y-78271295D01*
X118998086Y-78207185D01*
X118998082Y-78207184D01*
X118833767Y-78174500D01*
X118666233Y-78174500D01*
X118501918Y-78207184D01*
X118501917Y-78207184D01*
X118501914Y-78207185D01*
X118495285Y-78209931D01*
X118399997Y-78228884D01*
X118304715Y-78209931D01*
X118298085Y-78207185D01*
X118298086Y-78207185D01*
X118298082Y-78207184D01*
X118133767Y-78174500D01*
X117966233Y-78174500D01*
X117801918Y-78207184D01*
X117801913Y-78207185D01*
X117647140Y-78271295D01*
X117647135Y-78271298D01*
X117507841Y-78364371D01*
X117389371Y-78482841D01*
X117296298Y-78622135D01*
X117296295Y-78622140D01*
X117232185Y-78776913D01*
X117232184Y-78776917D01*
X117232184Y-78776918D01*
X117199500Y-78941233D01*
X116083425Y-78941233D01*
X116081885Y-78925599D01*
X116089922Y-78882817D01*
X116092300Y-78874326D01*
X116092816Y-78873082D01*
X116125500Y-78708767D01*
X116125500Y-78541233D01*
X116092816Y-78376918D01*
X116028703Y-78222137D01*
X115935626Y-78082838D01*
X115817162Y-77964374D01*
X115817153Y-77964368D01*
X115677864Y-77871298D01*
X115677863Y-77871297D01*
X115677860Y-77871296D01*
X115677859Y-77871295D01*
X115523086Y-77807185D01*
X115523082Y-77807184D01*
X115358767Y-77774500D01*
X115191233Y-77774500D01*
X115026933Y-77807181D01*
X115026918Y-77807184D01*
X114995284Y-77820287D01*
X114899995Y-77839239D01*
X114804716Y-77820287D01*
X114794670Y-77816126D01*
X114773082Y-77807184D01*
X114608767Y-77774500D01*
X114441233Y-77774500D01*
X114375507Y-77787573D01*
X114276915Y-77807184D01*
X114220288Y-77830640D01*
X114125000Y-77849593D01*
X114029715Y-77830639D01*
X113973084Y-77807181D01*
X113890924Y-77790839D01*
X113808767Y-77774497D01*
X113641233Y-77774497D01*
X113476918Y-77807181D01*
X113476913Y-77807182D01*
X113322140Y-77871292D01*
X113322135Y-77871295D01*
X113182841Y-77964368D01*
X113064371Y-78082838D01*
X112971298Y-78222132D01*
X112971295Y-78222137D01*
X112907185Y-78376910D01*
X112907184Y-78376914D01*
X112907184Y-78376915D01*
X112874500Y-78541230D01*
X105881898Y-78541230D01*
X106126883Y-78439754D01*
X106456204Y-78263729D01*
X106766685Y-78056271D01*
X107055338Y-77819381D01*
X107319381Y-77555338D01*
X107556271Y-77266685D01*
X107763729Y-76956204D01*
X107939754Y-76626883D01*
X108082653Y-76281894D01*
X108114004Y-76178541D01*
X108191049Y-75924562D01*
X108220030Y-75778862D01*
X108263899Y-75558322D01*
X108300500Y-75186707D01*
X108300500Y-74813293D01*
X108263899Y-74441678D01*
X108215727Y-74199501D01*
X108191049Y-74075437D01*
X108082657Y-73718119D01*
X108082656Y-73718118D01*
X108082653Y-73718106D01*
X107939754Y-73373117D01*
X107763729Y-73043796D01*
X107556271Y-72733315D01*
X107508234Y-72674782D01*
X107466346Y-72623740D01*
X107319381Y-72444662D01*
X107055338Y-72180619D01*
X106945763Y-72090694D01*
X106766688Y-71943731D01*
X106456201Y-71736269D01*
X106126891Y-71560250D01*
X106126880Y-71560244D01*
X105781901Y-71417350D01*
X105781894Y-71417347D01*
X105781889Y-71417345D01*
X105781880Y-71417342D01*
X105424562Y-71308950D01*
X105058324Y-71236101D01*
X104686707Y-71199500D01*
X104313293Y-71199500D01*
X104313292Y-71199500D01*
X103941675Y-71236101D01*
X103575437Y-71308950D01*
X103218119Y-71417342D01*
X103218098Y-71417350D01*
X102873119Y-71560244D01*
X102873108Y-71560250D01*
X102543798Y-71736269D01*
X102233311Y-71943731D01*
X101944665Y-72180616D01*
X101680616Y-72444665D01*
X101443731Y-72733311D01*
X101236269Y-73043798D01*
X101060250Y-73373108D01*
X101060244Y-73373119D01*
X100979546Y-73567944D01*
X100925570Y-73648726D01*
X100844788Y-73702702D01*
X100749500Y-73721656D01*
X100654212Y-73702702D01*
X100573430Y-73648726D01*
X100519454Y-73567944D01*
X100500500Y-73472656D01*
X100500500Y-73007528D01*
X100500954Y-72992495D01*
X100516631Y-72733315D01*
X100517815Y-72713736D01*
X100521437Y-72683913D01*
X100570418Y-72416632D01*
X100577609Y-72387457D01*
X100658448Y-72128037D01*
X100669101Y-72099945D01*
X100780626Y-71852147D01*
X100794589Y-71825543D01*
X100935161Y-71593010D01*
X100952241Y-71568265D01*
X101119813Y-71354374D01*
X101139737Y-71331884D01*
X101331884Y-71139737D01*
X101354374Y-71119813D01*
X101568268Y-70952238D01*
X101593010Y-70935161D01*
X101630926Y-70912240D01*
X101825543Y-70794589D01*
X101852147Y-70780626D01*
X102099945Y-70669101D01*
X102128037Y-70658448D01*
X102387457Y-70577609D01*
X102416632Y-70570418D01*
X102683913Y-70521437D01*
X102713736Y-70517815D01*
X102980895Y-70501655D01*
X102992495Y-70500954D01*
X103007528Y-70500500D01*
X103065892Y-70500500D01*
X126037522Y-70500500D01*
X126132810Y-70519454D01*
G37*
G04 #@! TD.AperFunction*
M02*
