G04 #@! TF.GenerationSoftware,KiCad,Pcbnew,9.0.4*
G04 #@! TF.CreationDate,2025-09-21T20:32:14-07:00*
G04 #@! TF.ProjectId,stepper_juicer_v1,73746570-7065-4725-9f6a-75696365725f,rev?*
G04 #@! TF.SameCoordinates,Original*
G04 #@! TF.FileFunction,Legend,Bot*
G04 #@! TF.FilePolarity,Positive*
%FSLAX46Y46*%
G04 Gerber Fmt 4.6, Leading zero omitted, Abs format (unit mm)*
G04 Created by KiCad (PCBNEW 9.0.4) date 2025-09-21 20:32:14*
%MOMM*%
%LPD*%
G01*
G04 APERTURE LIST*
G04 Aperture macros list*
%AMRoundRect*
0 Rectangle with rounded corners*
0 $1 Rounding radius*
0 $2 $3 $4 $5 $6 $7 $8 $9 X,Y pos of 4 corners*
0 Add a 4 corners polygon primitive as box body*
4,1,4,$2,$3,$4,$5,$6,$7,$8,$9,$2,$3,0*
0 Add four circle primitives for the rounded corners*
1,1,$1+$1,$2,$3*
1,1,$1+$1,$4,$5*
1,1,$1+$1,$6,$7*
1,1,$1+$1,$8,$9*
0 Add four rect primitives between the rounded corners*
20,1,$1+$1,$2,$3,$4,$5,0*
20,1,$1+$1,$4,$5,$6,$7,0*
20,1,$1+$1,$6,$7,$8,$9,0*
20,1,$1+$1,$8,$9,$2,$3,0*%
G04 Aperture macros list end*
%ADD10C,0.200000*%
%ADD11C,0.120000*%
%ADD12C,6.400000*%
%ADD13R,2.000000X4.600000*%
%ADD14O,2.000000X4.200000*%
%ADD15O,4.200000X2.000000*%
%ADD16O,1.750000X1.200000*%
%ADD17RoundRect,0.250000X-0.625000X0.350000X-0.625000X-0.350000X0.625000X-0.350000X0.625000X0.350000X0*%
%ADD18C,2.000000*%
%ADD19RoundRect,0.250000X-0.750000X0.750000X-0.750000X-0.750000X0.750000X-0.750000X0.750000X0.750000X0*%
%ADD20C,1.000000*%
%ADD21RoundRect,0.250000X-0.725000X0.600000X-0.725000X-0.600000X0.725000X-0.600000X0.725000X0.600000X0*%
%ADD22O,1.950000X1.700000*%
G04 APERTURE END LIST*
D10*
G36*
X120358570Y-86343891D02*
G01*
X117461728Y-86343891D01*
X117461728Y-85859573D01*
X117572839Y-85859573D01*
X117585178Y-85896589D01*
X117610742Y-85926066D01*
X117627333Y-85936509D01*
X117708055Y-85976870D01*
X117784819Y-86053634D01*
X117874563Y-86188250D01*
X117874607Y-86188304D01*
X117874621Y-86188337D01*
X117874694Y-86188410D01*
X117886983Y-86203417D01*
X117895211Y-86208927D01*
X117902211Y-86215927D01*
X117911262Y-86219676D01*
X117919403Y-86225128D01*
X117929110Y-86227069D01*
X117938259Y-86230859D01*
X117948059Y-86230859D01*
X117957664Y-86232780D01*
X117967376Y-86230859D01*
X117977277Y-86230859D01*
X117986326Y-86227110D01*
X117995940Y-86225209D01*
X118004181Y-86219714D01*
X118013325Y-86215927D01*
X118020250Y-86209001D01*
X118028405Y-86203565D01*
X118033915Y-86195336D01*
X118040915Y-86188337D01*
X118044664Y-86179285D01*
X118050116Y-86171145D01*
X118052057Y-86161437D01*
X118055847Y-86152289D01*
X118057747Y-86132986D01*
X118057768Y-86132885D01*
X118057761Y-86132850D01*
X118057768Y-86132780D01*
X118057768Y-85232780D01*
X118243482Y-85232780D01*
X118262991Y-85230859D01*
X118299039Y-85215927D01*
X118326629Y-85188337D01*
X118341561Y-85152289D01*
X118341561Y-85113271D01*
X118478737Y-85113271D01*
X118478737Y-85152289D01*
X118493669Y-85188337D01*
X118506105Y-85203491D01*
X119060841Y-85758228D01*
X119095863Y-85863292D01*
X119095863Y-85918697D01*
X119066058Y-85978306D01*
X119041389Y-86002974D01*
X118981780Y-86032780D01*
X118790899Y-86032780D01*
X118731289Y-86002975D01*
X118695146Y-85966831D01*
X118679992Y-85954395D01*
X118643944Y-85939463D01*
X118604926Y-85939463D01*
X118568878Y-85954395D01*
X118541288Y-85981985D01*
X118526356Y-86018033D01*
X118526356Y-86057051D01*
X118541288Y-86093099D01*
X118553724Y-86108253D01*
X118601343Y-86155871D01*
X118609009Y-86162163D01*
X118610742Y-86164161D01*
X118613750Y-86166054D01*
X118616496Y-86168308D01*
X118618936Y-86169318D01*
X118627333Y-86174604D01*
X118722570Y-86222223D01*
X118740879Y-86229229D01*
X118744462Y-86229483D01*
X118747783Y-86230859D01*
X118767292Y-86232780D01*
X119005387Y-86232780D01*
X119024896Y-86230859D01*
X119028216Y-86229483D01*
X119031800Y-86229229D01*
X119050108Y-86222223D01*
X119145346Y-86174604D01*
X119153742Y-86169318D01*
X119156182Y-86168308D01*
X119158928Y-86166054D01*
X119161936Y-86164161D01*
X119163665Y-86162166D01*
X119171336Y-86155872D01*
X119206934Y-86120273D01*
X119382363Y-86120273D01*
X119385129Y-86159193D01*
X119402579Y-86194092D01*
X119432055Y-86219657D01*
X119469071Y-86231995D01*
X119507991Y-86229229D01*
X119542890Y-86211779D01*
X119568455Y-86182303D01*
X119576446Y-86164403D01*
X119814911Y-85449007D01*
X120053376Y-86164402D01*
X120061367Y-86182303D01*
X120086932Y-86211779D01*
X120121831Y-86229228D01*
X120160751Y-86231995D01*
X120197767Y-86219656D01*
X120227243Y-86194091D01*
X120244693Y-86159192D01*
X120247459Y-86120272D01*
X120243112Y-86101157D01*
X119909779Y-85101157D01*
X119901788Y-85083257D01*
X119897103Y-85077855D01*
X119893910Y-85071469D01*
X119884441Y-85063256D01*
X119876223Y-85053781D01*
X119869831Y-85050584D01*
X119864434Y-85045904D01*
X119852540Y-85041939D01*
X119841324Y-85036331D01*
X119834196Y-85035824D01*
X119827418Y-85033565D01*
X119814913Y-85034454D01*
X119802404Y-85033565D01*
X119795622Y-85035825D01*
X119788498Y-85036332D01*
X119777289Y-85041935D01*
X119765388Y-85045903D01*
X119759987Y-85050586D01*
X119753599Y-85053781D01*
X119745383Y-85063252D01*
X119735912Y-85071468D01*
X119732717Y-85077857D01*
X119728034Y-85083257D01*
X119720043Y-85101158D01*
X119386710Y-86101157D01*
X119382363Y-86120273D01*
X119206934Y-86120273D01*
X119218954Y-86108253D01*
X119225246Y-86100586D01*
X119227244Y-86098854D01*
X119229137Y-86095845D01*
X119231391Y-86093100D01*
X119232401Y-86090659D01*
X119237687Y-86082263D01*
X119285306Y-85987026D01*
X119292312Y-85968717D01*
X119292566Y-85965133D01*
X119293942Y-85961813D01*
X119295863Y-85942304D01*
X119295863Y-85847066D01*
X119294890Y-85837192D01*
X119295078Y-85834558D01*
X119294290Y-85831094D01*
X119293942Y-85827557D01*
X119292930Y-85825115D01*
X119290731Y-85815443D01*
X119243112Y-85672586D01*
X119235121Y-85654686D01*
X119232765Y-85651970D01*
X119231391Y-85648652D01*
X119218955Y-85633498D01*
X118818238Y-85232780D01*
X119195863Y-85232780D01*
X119215372Y-85230859D01*
X119251420Y-85215927D01*
X119279010Y-85188337D01*
X119293942Y-85152289D01*
X119293942Y-85113271D01*
X119279010Y-85077223D01*
X119251420Y-85049633D01*
X119215372Y-85034701D01*
X119195863Y-85032780D01*
X118576816Y-85032780D01*
X118557307Y-85034701D01*
X118521259Y-85049633D01*
X118493669Y-85077223D01*
X118478737Y-85113271D01*
X118341561Y-85113271D01*
X118326629Y-85077223D01*
X118299039Y-85049633D01*
X118262991Y-85034701D01*
X118243482Y-85032780D01*
X117672054Y-85032780D01*
X117652545Y-85034701D01*
X117616497Y-85049633D01*
X117588907Y-85077223D01*
X117573975Y-85113271D01*
X117573975Y-85152289D01*
X117588907Y-85188337D01*
X117616497Y-85215927D01*
X117652545Y-85230859D01*
X117672054Y-85232780D01*
X117857768Y-85232780D01*
X117857768Y-85843739D01*
X117838003Y-85823974D01*
X117830332Y-85817679D01*
X117828603Y-85815685D01*
X117825595Y-85813791D01*
X117822849Y-85811538D01*
X117820409Y-85810527D01*
X117812013Y-85805242D01*
X117716775Y-85757623D01*
X117698467Y-85750617D01*
X117659547Y-85747851D01*
X117622531Y-85760190D01*
X117593054Y-85785754D01*
X117575605Y-85820653D01*
X117572839Y-85859573D01*
X117461728Y-85859573D01*
X117461728Y-84921669D01*
X120358570Y-84921669D01*
X120358570Y-86343891D01*
G37*
G36*
X132994224Y-83317802D02*
G01*
X133061297Y-83384875D01*
X133096749Y-83455780D01*
X133138720Y-83623661D01*
X133138720Y-83741899D01*
X133096749Y-83909780D01*
X133061297Y-83980686D01*
X132994224Y-84047758D01*
X132889160Y-84082780D01*
X132767292Y-84082780D01*
X132767292Y-83282780D01*
X132889160Y-83282780D01*
X132994224Y-83317802D01*
G37*
G36*
X133449831Y-84393891D02*
G01*
X130360943Y-84393891D01*
X130360943Y-83611352D01*
X130472054Y-83611352D01*
X130472054Y-83754209D01*
X130472389Y-83757611D01*
X130472172Y-83759070D01*
X130473251Y-83766367D01*
X130473975Y-83773718D01*
X130474539Y-83775081D01*
X130475040Y-83778463D01*
X130522659Y-83968938D01*
X130523172Y-83970375D01*
X130523224Y-83971098D01*
X130526332Y-83979222D01*
X130529254Y-83987399D01*
X130529684Y-83987979D01*
X130530230Y-83989406D01*
X130577849Y-84084644D01*
X130583134Y-84093040D01*
X130584145Y-84095480D01*
X130586398Y-84098226D01*
X130588292Y-84101234D01*
X130590286Y-84102963D01*
X130596581Y-84110634D01*
X130691819Y-84205872D01*
X130706973Y-84218308D01*
X130710291Y-84219682D01*
X130713007Y-84222038D01*
X130730907Y-84230029D01*
X130873764Y-84277648D01*
X130883436Y-84279847D01*
X130885878Y-84280859D01*
X130889415Y-84281207D01*
X130892879Y-84281995D01*
X130895513Y-84281807D01*
X130905387Y-84282780D01*
X131048244Y-84282780D01*
X131067753Y-84280859D01*
X131071073Y-84279483D01*
X131074657Y-84279229D01*
X131092965Y-84272223D01*
X131188203Y-84224604D01*
X131204793Y-84214161D01*
X131230358Y-84184684D01*
X131242696Y-84147668D01*
X131239931Y-84108748D01*
X131222482Y-84073850D01*
X131193005Y-84048285D01*
X131155989Y-84035946D01*
X131117069Y-84038712D01*
X131098760Y-84045718D01*
X131024637Y-84082780D01*
X130921613Y-84082780D01*
X130816549Y-84047758D01*
X130749477Y-83980686D01*
X130714024Y-83909780D01*
X130672054Y-83741899D01*
X130672054Y-83623662D01*
X130714024Y-83455780D01*
X130749477Y-83384874D01*
X130816549Y-83317802D01*
X130921615Y-83282780D01*
X130984398Y-83282780D01*
X131089462Y-83317802D01*
X131091101Y-83319440D01*
X131091101Y-83511352D01*
X131000625Y-83511352D01*
X130981116Y-83513273D01*
X130945068Y-83528205D01*
X130917478Y-83555795D01*
X130902546Y-83591843D01*
X130902546Y-83630861D01*
X130917478Y-83666909D01*
X130945068Y-83694499D01*
X130981116Y-83709431D01*
X131000625Y-83711352D01*
X131191101Y-83711352D01*
X131210610Y-83709431D01*
X131246658Y-83694499D01*
X131274248Y-83666909D01*
X131289180Y-83630861D01*
X131291101Y-83611352D01*
X131291101Y-83278019D01*
X131289180Y-83258510D01*
X131278362Y-83232394D01*
X131274248Y-83222461D01*
X131261811Y-83207308D01*
X131237284Y-83182780D01*
X131519673Y-83182780D01*
X131519673Y-84182780D01*
X131520167Y-84187797D01*
X131519917Y-84189765D01*
X131520611Y-84192311D01*
X131521594Y-84202289D01*
X131526685Y-84214579D01*
X131530184Y-84227408D01*
X131534086Y-84232446D01*
X131536526Y-84238337D01*
X131545931Y-84247742D01*
X131554074Y-84258257D01*
X131559608Y-84261419D01*
X131564116Y-84265927D01*
X131576401Y-84271015D01*
X131587951Y-84277616D01*
X131594275Y-84278419D01*
X131600164Y-84280859D01*
X131613465Y-84280859D01*
X131626658Y-84282536D01*
X131632807Y-84280859D01*
X131639182Y-84280859D01*
X131651472Y-84275767D01*
X131664301Y-84272269D01*
X131669339Y-84268366D01*
X131675230Y-84265927D01*
X131684635Y-84256521D01*
X131695150Y-84248379D01*
X131700953Y-84240203D01*
X131702820Y-84238337D01*
X131703578Y-84236504D01*
X131706497Y-84232394D01*
X132091101Y-83559336D01*
X132091101Y-84182780D01*
X132093022Y-84202289D01*
X132107954Y-84238337D01*
X132135544Y-84265927D01*
X132171592Y-84280859D01*
X132210610Y-84280859D01*
X132246658Y-84265927D01*
X132274248Y-84238337D01*
X132289180Y-84202289D01*
X132291101Y-84182780D01*
X132291101Y-83182780D01*
X132567292Y-83182780D01*
X132567292Y-84182780D01*
X132569213Y-84202289D01*
X132584145Y-84238337D01*
X132611735Y-84265927D01*
X132647783Y-84280859D01*
X132667292Y-84282780D01*
X132905387Y-84282780D01*
X132915260Y-84281807D01*
X132917894Y-84281995D01*
X132921357Y-84281207D01*
X132924896Y-84280859D01*
X132927338Y-84279847D01*
X132937010Y-84277648D01*
X133079866Y-84230029D01*
X133097767Y-84222038D01*
X133100482Y-84219682D01*
X133103801Y-84218308D01*
X133118955Y-84205872D01*
X133214193Y-84110634D01*
X133220484Y-84102967D01*
X133222482Y-84101235D01*
X133224377Y-84098223D01*
X133226629Y-84095480D01*
X133227638Y-84093042D01*
X133232925Y-84084644D01*
X133280544Y-83989407D01*
X133281090Y-83987978D01*
X133281520Y-83987399D01*
X133284441Y-83979222D01*
X133287550Y-83971098D01*
X133287601Y-83970377D01*
X133288115Y-83968939D01*
X133335734Y-83778463D01*
X133336234Y-83775081D01*
X133336799Y-83773718D01*
X133337522Y-83766367D01*
X133338602Y-83759070D01*
X133338384Y-83757611D01*
X133338720Y-83754209D01*
X133338720Y-83611352D01*
X133338384Y-83607949D01*
X133338602Y-83606491D01*
X133337522Y-83599193D01*
X133336799Y-83591843D01*
X133336234Y-83590479D01*
X133335734Y-83587098D01*
X133288115Y-83396622D01*
X133287601Y-83395183D01*
X133287550Y-83394463D01*
X133284441Y-83386338D01*
X133281520Y-83378162D01*
X133281090Y-83377582D01*
X133280544Y-83376154D01*
X133232925Y-83280917D01*
X133227638Y-83272518D01*
X133226629Y-83270081D01*
X133224377Y-83267337D01*
X133222482Y-83264326D01*
X133220484Y-83262593D01*
X133214193Y-83254927D01*
X133118955Y-83159689D01*
X133103801Y-83147253D01*
X133100482Y-83145878D01*
X133097768Y-83143524D01*
X133079868Y-83135532D01*
X132937010Y-83087912D01*
X132927337Y-83085712D01*
X132924896Y-83084701D01*
X132921358Y-83084352D01*
X132917895Y-83083565D01*
X132915260Y-83083752D01*
X132905387Y-83082780D01*
X132667292Y-83082780D01*
X132647783Y-83084701D01*
X132611735Y-83099633D01*
X132584145Y-83127223D01*
X132569213Y-83163271D01*
X132567292Y-83182780D01*
X132291101Y-83182780D01*
X132290606Y-83177762D01*
X132290857Y-83175795D01*
X132290162Y-83173248D01*
X132289180Y-83163271D01*
X132284090Y-83150984D01*
X132280591Y-83138152D01*
X132276686Y-83133110D01*
X132274248Y-83127223D01*
X132264844Y-83117819D01*
X132256700Y-83107303D01*
X132251165Y-83104140D01*
X132246658Y-83099633D01*
X132234372Y-83094544D01*
X132222823Y-83087944D01*
X132216498Y-83087140D01*
X132210610Y-83084701D01*
X132197310Y-83084701D01*
X132184117Y-83083024D01*
X132177968Y-83084701D01*
X132171592Y-83084701D01*
X132159305Y-83089790D01*
X132146473Y-83093290D01*
X132141431Y-83097194D01*
X132135544Y-83099633D01*
X132126140Y-83109036D01*
X132115624Y-83117181D01*
X132109820Y-83125356D01*
X132107954Y-83127223D01*
X132107195Y-83129055D01*
X132104277Y-83133166D01*
X131719673Y-83806223D01*
X131719673Y-83182780D01*
X131717752Y-83163271D01*
X131702820Y-83127223D01*
X131675230Y-83099633D01*
X131639182Y-83084701D01*
X131600164Y-83084701D01*
X131564116Y-83099633D01*
X131536526Y-83127223D01*
X131521594Y-83163271D01*
X131519673Y-83182780D01*
X131237284Y-83182780D01*
X131214193Y-83159689D01*
X131199039Y-83147253D01*
X131195720Y-83145878D01*
X131193006Y-83143524D01*
X131175106Y-83135532D01*
X131032248Y-83087912D01*
X131022575Y-83085712D01*
X131020134Y-83084701D01*
X131016596Y-83084352D01*
X131013133Y-83083565D01*
X131010498Y-83083752D01*
X131000625Y-83082780D01*
X130905387Y-83082780D01*
X130895513Y-83083752D01*
X130892879Y-83083565D01*
X130889415Y-83084352D01*
X130885878Y-83084701D01*
X130883436Y-83085712D01*
X130873764Y-83087912D01*
X130730907Y-83135532D01*
X130713006Y-83143524D01*
X130710291Y-83145878D01*
X130706973Y-83147253D01*
X130691819Y-83159689D01*
X130596581Y-83254927D01*
X130590286Y-83262597D01*
X130588292Y-83264327D01*
X130586398Y-83267334D01*
X130584145Y-83270081D01*
X130583134Y-83272520D01*
X130577849Y-83280917D01*
X130530230Y-83376155D01*
X130529684Y-83377581D01*
X130529254Y-83378162D01*
X130526332Y-83386338D01*
X130523224Y-83394463D01*
X130523172Y-83395185D01*
X130522659Y-83396623D01*
X130475040Y-83587098D01*
X130474539Y-83590479D01*
X130473975Y-83591843D01*
X130473251Y-83599193D01*
X130472172Y-83606491D01*
X130472389Y-83607949D01*
X130472054Y-83611352D01*
X130360943Y-83611352D01*
X130360943Y-82971669D01*
X133449831Y-82971669D01*
X133449831Y-84393891D01*
G37*
G36*
X125541389Y-83934014D02*
G01*
X125566058Y-83958682D01*
X125595863Y-84018292D01*
X125595863Y-84018697D01*
X125566058Y-84078306D01*
X125541389Y-84102974D01*
X125481780Y-84132780D01*
X125338518Y-84132780D01*
X125278908Y-84102975D01*
X125254240Y-84078306D01*
X125224435Y-84018696D01*
X125224435Y-84018292D01*
X125254240Y-83958682D01*
X125278908Y-83934013D01*
X125338518Y-83904209D01*
X125481780Y-83904209D01*
X125541389Y-83934014D01*
G37*
G36*
X125541387Y-83362583D02*
G01*
X125566058Y-83387254D01*
X125595863Y-83446864D01*
X125595863Y-83590126D01*
X125566058Y-83649735D01*
X125541389Y-83674403D01*
X125481780Y-83704209D01*
X125338518Y-83704209D01*
X125278908Y-83674404D01*
X125254240Y-83649735D01*
X125224435Y-83590125D01*
X125224435Y-83446864D01*
X125254240Y-83387254D01*
X125278909Y-83362584D01*
X125338517Y-83332780D01*
X125481781Y-83332780D01*
X125541387Y-83362583D01*
G37*
G36*
X126858570Y-84490726D02*
G01*
X123961728Y-84490726D01*
X123961728Y-83578621D01*
X124072839Y-83578621D01*
X124073975Y-83583616D01*
X124073975Y-83585623D01*
X124074986Y-83588065D01*
X124077186Y-83597737D01*
X124315281Y-84312022D01*
X124323272Y-84329923D01*
X124348837Y-84359399D01*
X124383736Y-84376848D01*
X124422656Y-84379615D01*
X124459672Y-84367276D01*
X124489148Y-84341711D01*
X124506598Y-84306812D01*
X124509364Y-84267892D01*
X124505017Y-84248777D01*
X124310796Y-83666114D01*
X124548244Y-83666114D01*
X124548244Y-83899447D01*
X124550165Y-83918956D01*
X124565097Y-83955004D01*
X124592687Y-83982594D01*
X124628735Y-83997526D01*
X124667753Y-83997526D01*
X124703801Y-83982594D01*
X124731391Y-83955004D01*
X124746323Y-83918956D01*
X124748244Y-83899447D01*
X124748244Y-83666114D01*
X124791101Y-83666114D01*
X124810610Y-83664193D01*
X124846658Y-83649261D01*
X124874248Y-83621671D01*
X124889180Y-83585623D01*
X124889180Y-83546605D01*
X124874248Y-83510557D01*
X124846658Y-83482967D01*
X124810610Y-83468035D01*
X124791101Y-83466114D01*
X124748244Y-83466114D01*
X124748244Y-83423257D01*
X125024435Y-83423257D01*
X125024435Y-83613733D01*
X125026356Y-83633242D01*
X125027731Y-83636562D01*
X125027986Y-83640146D01*
X125034992Y-83658454D01*
X125082611Y-83753692D01*
X125087896Y-83762088D01*
X125088907Y-83764528D01*
X125091160Y-83767274D01*
X125093054Y-83770282D01*
X125095048Y-83772011D01*
X125101343Y-83779682D01*
X125125870Y-83804209D01*
X125101343Y-83828736D01*
X125095048Y-83836406D01*
X125093054Y-83838136D01*
X125091160Y-83841143D01*
X125088907Y-83843890D01*
X125087896Y-83846329D01*
X125082611Y-83854726D01*
X125034992Y-83949964D01*
X125027986Y-83968272D01*
X125027731Y-83971855D01*
X125026356Y-83975176D01*
X125024435Y-83994685D01*
X125024435Y-84042304D01*
X125026356Y-84061813D01*
X125027731Y-84065133D01*
X125027986Y-84068717D01*
X125034992Y-84087025D01*
X125082611Y-84182263D01*
X125087896Y-84190659D01*
X125088907Y-84193099D01*
X125091160Y-84195845D01*
X125093054Y-84198853D01*
X125095048Y-84200582D01*
X125101343Y-84208253D01*
X125148962Y-84255871D01*
X125156628Y-84262163D01*
X125158361Y-84264161D01*
X125161369Y-84266054D01*
X125164115Y-84268308D01*
X125166555Y-84269318D01*
X125174952Y-84274604D01*
X125270189Y-84322223D01*
X125288498Y-84329229D01*
X125292081Y-84329483D01*
X125295402Y-84330859D01*
X125314911Y-84332780D01*
X125505387Y-84332780D01*
X125524896Y-84330859D01*
X125528216Y-84329483D01*
X125531800Y-84329229D01*
X125550108Y-84322223D01*
X125645346Y-84274604D01*
X125653742Y-84269318D01*
X125656182Y-84268308D01*
X125658928Y-84266054D01*
X125661936Y-84264161D01*
X125663665Y-84262166D01*
X125671336Y-84255872D01*
X125706934Y-84220273D01*
X125882363Y-84220273D01*
X125885129Y-84259193D01*
X125902579Y-84294092D01*
X125932055Y-84319657D01*
X125969071Y-84331995D01*
X126007991Y-84329229D01*
X126042890Y-84311779D01*
X126068455Y-84282303D01*
X126076446Y-84264403D01*
X126314911Y-83549007D01*
X126553376Y-84264402D01*
X126561367Y-84282303D01*
X126586932Y-84311779D01*
X126621831Y-84329228D01*
X126660751Y-84331995D01*
X126697767Y-84319656D01*
X126727243Y-84294091D01*
X126744693Y-84259192D01*
X126747459Y-84220272D01*
X126743112Y-84201157D01*
X126409779Y-83201157D01*
X126401788Y-83183257D01*
X126397103Y-83177855D01*
X126393910Y-83171469D01*
X126384441Y-83163256D01*
X126376223Y-83153781D01*
X126369831Y-83150584D01*
X126364434Y-83145904D01*
X126352540Y-83141939D01*
X126341324Y-83136331D01*
X126334196Y-83135824D01*
X126327418Y-83133565D01*
X126314913Y-83134454D01*
X126302404Y-83133565D01*
X126295622Y-83135825D01*
X126288498Y-83136332D01*
X126277289Y-83141935D01*
X126265388Y-83145903D01*
X126259987Y-83150586D01*
X126253599Y-83153781D01*
X126245383Y-83163252D01*
X126235912Y-83171468D01*
X126232717Y-83177857D01*
X126228034Y-83183257D01*
X126220043Y-83201158D01*
X125886710Y-84201157D01*
X125882363Y-84220273D01*
X125706934Y-84220273D01*
X125718954Y-84208253D01*
X125725246Y-84200586D01*
X125727244Y-84198854D01*
X125729137Y-84195845D01*
X125731391Y-84193100D01*
X125732401Y-84190659D01*
X125737687Y-84182263D01*
X125785306Y-84087026D01*
X125792312Y-84068717D01*
X125792566Y-84065133D01*
X125793942Y-84061813D01*
X125795863Y-84042304D01*
X125795863Y-83994685D01*
X125793942Y-83975176D01*
X125792566Y-83971855D01*
X125792312Y-83968272D01*
X125785306Y-83949963D01*
X125737687Y-83854726D01*
X125732401Y-83846329D01*
X125731391Y-83843889D01*
X125729137Y-83841143D01*
X125727244Y-83838135D01*
X125725246Y-83836402D01*
X125718954Y-83828736D01*
X125694427Y-83804209D01*
X125718954Y-83779682D01*
X125725246Y-83772015D01*
X125727244Y-83770283D01*
X125729137Y-83767274D01*
X125731391Y-83764529D01*
X125732401Y-83762088D01*
X125737687Y-83753692D01*
X125785306Y-83658455D01*
X125792312Y-83640146D01*
X125792566Y-83636562D01*
X125793942Y-83633242D01*
X125795863Y-83613733D01*
X125795863Y-83423257D01*
X125793942Y-83403748D01*
X125792566Y-83400427D01*
X125792312Y-83396844D01*
X125785306Y-83378535D01*
X125737687Y-83283298D01*
X125732401Y-83274901D01*
X125731391Y-83272461D01*
X125729137Y-83269715D01*
X125727244Y-83266707D01*
X125725246Y-83264974D01*
X125718954Y-83257308D01*
X125671336Y-83209689D01*
X125663669Y-83203397D01*
X125661938Y-83201401D01*
X125658927Y-83199506D01*
X125656182Y-83197253D01*
X125653742Y-83196242D01*
X125645347Y-83190958D01*
X125550109Y-83143338D01*
X125531801Y-83136331D01*
X125528215Y-83136076D01*
X125524896Y-83134701D01*
X125505387Y-83132780D01*
X125314911Y-83132780D01*
X125295402Y-83134701D01*
X125292081Y-83136076D01*
X125288498Y-83136331D01*
X125270189Y-83143338D01*
X125174951Y-83190958D01*
X125166558Y-83196241D01*
X125164115Y-83197253D01*
X125161365Y-83199509D01*
X125158361Y-83201401D01*
X125156631Y-83203395D01*
X125148962Y-83209690D01*
X125101343Y-83257308D01*
X125095048Y-83264978D01*
X125093054Y-83266708D01*
X125091160Y-83269715D01*
X125088907Y-83272462D01*
X125087896Y-83274901D01*
X125082611Y-83283298D01*
X125034992Y-83378536D01*
X125027986Y-83396844D01*
X125027731Y-83400427D01*
X125026356Y-83403748D01*
X125024435Y-83423257D01*
X124748244Y-83423257D01*
X124748244Y-83232780D01*
X124746323Y-83213271D01*
X124731391Y-83177223D01*
X124703801Y-83149633D01*
X124667753Y-83134701D01*
X124628735Y-83134701D01*
X124592687Y-83149633D01*
X124565097Y-83177223D01*
X124550165Y-83213271D01*
X124548244Y-83232780D01*
X124548244Y-83466114D01*
X124172054Y-83466114D01*
X124162180Y-83467086D01*
X124159547Y-83466899D01*
X124157645Y-83467532D01*
X124152545Y-83468035D01*
X124137740Y-83474167D01*
X124122531Y-83479237D01*
X124119815Y-83481592D01*
X124116497Y-83482967D01*
X124105166Y-83494297D01*
X124093055Y-83504802D01*
X124091447Y-83508016D01*
X124088907Y-83510557D01*
X124082772Y-83525365D01*
X124075605Y-83539701D01*
X124075350Y-83543284D01*
X124073975Y-83546605D01*
X124073975Y-83562636D01*
X124072839Y-83578621D01*
X123961728Y-83578621D01*
X123961728Y-83021669D01*
X126858570Y-83021669D01*
X126858570Y-84490726D01*
G37*
D11*
X119800000Y-83950000D02*
G75*
G02*
X118400000Y-83950000I-700000J0D01*
G01*
X118400000Y-83950000D02*
G75*
G02*
X119800000Y-83950000I700000J0D01*
G01*
X131850000Y-82050000D02*
G75*
G02*
X130450000Y-82050000I-700000J0D01*
G01*
X130450000Y-82050000D02*
G75*
G02*
X131850000Y-82050000I700000J0D01*
G01*
X125950000Y-81950000D02*
G75*
G02*
X124550000Y-81950000I-700000J0D01*
G01*
X124550000Y-81950000D02*
G75*
G02*
X125950000Y-81950000I700000J0D01*
G01*
%LPC*%
D12*
X135500000Y-115000000D03*
D13*
X125250000Y-77100000D03*
D14*
X131550000Y-77100000D03*
D15*
X128150000Y-72300000D03*
D12*
X104500000Y-115000000D03*
D16*
X108350000Y-100950000D03*
X108350000Y-98950000D03*
X108350000Y-96950000D03*
X108350000Y-94950000D03*
X108350000Y-92950000D03*
D17*
X108350000Y-90950000D03*
D12*
X104500000Y-75000000D03*
D18*
X128950000Y-90550000D03*
D19*
X128950000Y-85550000D03*
D16*
X137450000Y-106550000D03*
X137450000Y-104550000D03*
X137450000Y-102550000D03*
X137450000Y-100550000D03*
X137450000Y-98550000D03*
D17*
X137450000Y-96550000D03*
D20*
X119100000Y-83950000D03*
X131150000Y-82050000D03*
X125250000Y-81950000D03*
D21*
X126900000Y-97750000D03*
D22*
X126900000Y-100250000D03*
X126900000Y-102750000D03*
X126900000Y-105250000D03*
%LPD*%
M02*
