G04 #@! TF.GenerationSoftware,KiCad,Pcbnew,9.0.4*
G04 #@! TF.CreationDate,2025-09-21T20:32:14-07:00*
G04 #@! TF.ProjectId,stepper_juicer_v1,73746570-7065-4725-9f6a-75696365725f,rev?*
G04 #@! TF.SameCoordinates,Original*
G04 #@! TF.FileFunction,Copper,L4,Bot*
G04 #@! TF.FilePolarity,Positive*
%FSLAX46Y46*%
G04 Gerber Fmt 4.6, Leading zero omitted, Abs format (unit mm)*
G04 Created by KiCad (PCBNEW 9.0.4) date 2025-09-21 20:32:14*
%MOMM*%
%LPD*%
G01*
G04 APERTURE LIST*
G04 Aperture macros list*
%AMRoundRect*
0 Rectangle with rounded corners*
0 $1 Rounding radius*
0 $2 $3 $4 $5 $6 $7 $8 $9 X,Y pos of 4 corners*
0 Add a 4 corners polygon primitive as box body*
4,1,4,$2,$3,$4,$5,$6,$7,$8,$9,$2,$3,0*
0 Add four circle primitives for the rounded corners*
1,1,$1+$1,$2,$3*
1,1,$1+$1,$4,$5*
1,1,$1+$1,$6,$7*
1,1,$1+$1,$8,$9*
0 Add four rect primitives between the rounded corners*
20,1,$1+$1,$2,$3,$4,$5,0*
20,1,$1+$1,$4,$5,$6,$7,0*
20,1,$1+$1,$6,$7,$8,$9,0*
20,1,$1+$1,$8,$9,$2,$3,0*%
G04 Aperture macros list end*
G04 #@! TA.AperFunction,ComponentPad*
%ADD10C,6.400000*%
G04 #@! TD*
G04 #@! TA.AperFunction,ComponentPad*
%ADD11R,2.000000X4.600000*%
G04 #@! TD*
G04 #@! TA.AperFunction,ComponentPad*
%ADD12O,2.000000X4.200000*%
G04 #@! TD*
G04 #@! TA.AperFunction,ComponentPad*
%ADD13O,4.200000X2.000000*%
G04 #@! TD*
G04 #@! TA.AperFunction,ComponentPad*
%ADD14O,1.750000X1.200000*%
G04 #@! TD*
G04 #@! TA.AperFunction,ComponentPad*
%ADD15RoundRect,0.250000X-0.625000X0.350000X-0.625000X-0.350000X0.625000X-0.350000X0.625000X0.350000X0*%
G04 #@! TD*
G04 #@! TA.AperFunction,ComponentPad*
%ADD16C,2.000000*%
G04 #@! TD*
G04 #@! TA.AperFunction,ComponentPad*
%ADD17RoundRect,0.250000X-0.750000X0.750000X-0.750000X-0.750000X0.750000X-0.750000X0.750000X0.750000X0*%
G04 #@! TD*
G04 #@! TA.AperFunction,SMDPad,CuDef*
%ADD18C,1.000000*%
G04 #@! TD*
G04 #@! TA.AperFunction,ComponentPad*
%ADD19RoundRect,0.250000X-0.725000X0.600000X-0.725000X-0.600000X0.725000X-0.600000X0.725000X0.600000X0*%
G04 #@! TD*
G04 #@! TA.AperFunction,ComponentPad*
%ADD20O,1.950000X1.700000*%
G04 #@! TD*
G04 #@! TA.AperFunction,ViaPad*
%ADD21C,0.500000*%
G04 #@! TD*
G04 #@! TA.AperFunction,Conductor*
%ADD22C,1.500000*%
G04 #@! TD*
G04 #@! TA.AperFunction,Conductor*
%ADD23C,0.250000*%
G04 #@! TD*
G04 APERTURE END LIST*
D10*
X135500000Y-115000000D03*
D11*
X125250000Y-77100000D03*
D12*
X131550000Y-77100000D03*
D13*
X128150000Y-72300000D03*
D10*
X104500000Y-115000000D03*
D14*
X108350000Y-100950000D03*
X108350000Y-98950000D03*
X108350000Y-96950000D03*
X108350000Y-94950000D03*
X108350000Y-92950000D03*
D15*
X108350000Y-90950000D03*
D10*
X104500000Y-75000000D03*
D16*
X128950000Y-90550000D03*
D17*
X128950000Y-85550000D03*
D14*
X137450000Y-106550000D03*
X137450000Y-104550000D03*
X137450000Y-102550000D03*
X137450000Y-100550000D03*
X137450000Y-98550000D03*
D15*
X137450000Y-96550000D03*
D18*
X119100000Y-83950000D03*
X131150000Y-82050000D03*
X125250000Y-81950000D03*
D19*
X126900000Y-97750000D03*
D20*
X126900000Y-100250000D03*
X126900000Y-102750000D03*
X126900000Y-105250000D03*
D21*
X123500000Y-72500000D03*
X118500000Y-72500000D03*
X113500000Y-72500000D03*
X108500000Y-72500000D03*
X103499999Y-79980215D03*
X103500000Y-85000000D03*
X103500000Y-90000000D03*
X103500000Y-95000000D03*
X103500000Y-100000000D03*
X103500000Y-105000000D03*
X103500000Y-110000000D03*
X108500000Y-112500000D03*
X108500000Y-117500000D03*
X131000000Y-117500000D03*
X133500000Y-110000000D03*
X138500000Y-110000000D03*
X133500000Y-72500000D03*
X133500000Y-82500000D03*
X133500000Y-87500000D03*
X133500000Y-92500000D03*
X138500000Y-92500000D03*
X138500000Y-87500000D03*
X138500000Y-82500000D03*
X138500000Y-77500000D03*
X138500000Y-72500000D03*
X124650000Y-111750000D03*
X124650000Y-113400000D03*
X124650000Y-112550000D03*
X126400000Y-116650000D03*
X126400000Y-115600000D03*
X125400000Y-115600000D03*
X128400000Y-108900000D03*
X127350000Y-108000000D03*
X127400000Y-108900000D03*
X130300000Y-110000000D03*
X129500000Y-110000000D03*
X131050000Y-110000000D03*
X130500000Y-91500000D03*
X130500000Y-90500000D03*
X131500000Y-89500000D03*
X130500000Y-89500000D03*
X131500000Y-91500000D03*
X131500000Y-90500000D03*
X134000000Y-78500000D03*
X133000000Y-76500000D03*
X135000000Y-75496510D03*
X134042718Y-76486844D03*
X134000000Y-75500000D03*
X133000000Y-78500000D03*
X135000000Y-77500000D03*
X135000000Y-78500000D03*
X135000000Y-76500000D03*
X134000000Y-77500000D03*
X133000000Y-77500000D03*
X133000000Y-75500000D03*
X130800000Y-98300000D03*
X130850000Y-104600000D03*
X121180164Y-84000000D03*
X123400000Y-96750000D03*
X121087500Y-105787500D03*
X125500000Y-106650000D03*
X118750000Y-79025000D03*
X120725000Y-79875000D03*
X113725000Y-79275000D03*
X118050000Y-79925000D03*
X120025000Y-79875000D03*
X115275000Y-78625000D03*
X115275000Y-79275000D03*
X118050000Y-79025000D03*
X114525000Y-78625000D03*
X114525000Y-79275000D03*
X118750000Y-79925000D03*
X113725000Y-78624997D03*
X120750870Y-83419513D03*
X118075000Y-85775000D03*
X118950000Y-85775000D03*
X121375000Y-79875000D03*
X120650000Y-85250000D03*
X118675000Y-82350000D03*
X119375000Y-82331233D03*
X118750000Y-90000000D03*
X120725000Y-90850000D03*
X113725000Y-90250000D03*
X118050000Y-90900000D03*
X120025000Y-90850000D03*
X115275000Y-89600000D03*
X115275000Y-90250000D03*
X118050000Y-90000000D03*
X114525000Y-89600000D03*
X114525000Y-90250000D03*
X118750000Y-90900000D03*
X113725000Y-89599997D03*
X120661461Y-94389683D03*
X118075000Y-96750000D03*
X118950000Y-96750000D03*
X121375000Y-90850000D03*
X120750000Y-96200000D03*
X118675000Y-93325000D03*
X119375000Y-93306233D03*
X113625000Y-101150000D03*
X113625000Y-100499997D03*
X115175000Y-101150000D03*
X114425000Y-100500000D03*
X115175000Y-100500000D03*
X114425000Y-101150000D03*
X117950000Y-101800000D03*
X117950000Y-100900000D03*
X118650000Y-101800000D03*
X118650000Y-100900000D03*
X119925000Y-101750000D03*
X120625000Y-101750000D03*
X120580636Y-105269874D03*
X117975000Y-107650000D03*
X118850000Y-107650000D03*
X121275000Y-101750000D03*
X120600000Y-107100000D03*
X118575000Y-104225000D03*
X119275000Y-104206233D03*
X115250000Y-111300000D03*
X115250000Y-111950000D03*
X114500000Y-111950000D03*
X113700000Y-111950000D03*
X113700000Y-111299997D03*
X114500000Y-111300000D03*
X120700000Y-112550000D03*
X118925000Y-118450000D03*
X119350000Y-115006233D03*
X121350000Y-112550000D03*
X118650000Y-115025000D03*
X120634290Y-116063247D03*
X120000000Y-112550000D03*
X118050000Y-118450000D03*
X120700000Y-117825000D03*
X118725000Y-111700000D03*
X118025000Y-112600000D03*
X118025000Y-111700000D03*
X118725000Y-112600000D03*
D22*
X130100000Y-110000000D02*
X131050000Y-110000000D01*
X129549236Y-109449236D02*
X130100000Y-110000000D01*
X129599000Y-97802529D02*
X129599000Y-98797471D01*
X129601000Y-97800529D02*
X129599000Y-97802529D01*
X129601000Y-98799471D02*
X129601000Y-109397471D01*
X129601000Y-95398976D02*
X129601000Y-97800529D01*
X129599000Y-98797471D02*
X129601000Y-98799471D01*
X125250000Y-91047976D02*
X129601000Y-95398976D01*
X129601000Y-109397471D02*
X129549236Y-109449236D01*
X125250000Y-77100000D02*
X125250000Y-91047976D01*
D23*
X121241590Y-84000000D02*
X121180164Y-84000000D01*
X123350000Y-96700000D02*
X123350000Y-86108410D01*
X123400000Y-96750000D02*
X123350000Y-96700000D01*
X123350000Y-86108410D02*
X121241590Y-84000000D01*
X125500000Y-106650000D02*
X121950000Y-106650000D01*
X121950000Y-106650000D02*
X121087500Y-105787500D01*
G04 #@! TA.AperFunction,Conductor*
G36*
X126132810Y-70519454D02*
G01*
X126213592Y-70573430D01*
X126267568Y-70654212D01*
X126286522Y-70749500D01*
X126267568Y-70844788D01*
X126213592Y-70925570D01*
X126183881Y-70950945D01*
X126007347Y-71079204D01*
X125829204Y-71257347D01*
X125681134Y-71461148D01*
X125681131Y-71461153D01*
X125681130Y-71461155D01*
X125613947Y-71593010D01*
X125566757Y-71685625D01*
X125488909Y-71925217D01*
X125449500Y-72174028D01*
X125449500Y-72425971D01*
X125488909Y-72674782D01*
X125507927Y-72733315D01*
X125566759Y-72914379D01*
X125681130Y-73138845D01*
X125681133Y-73138849D01*
X125681134Y-73138851D01*
X125743101Y-73224141D01*
X125783776Y-73312372D01*
X125787590Y-73409452D01*
X125753964Y-73500602D01*
X125688015Y-73571945D01*
X125599784Y-73612620D01*
X125541656Y-73619500D01*
X113907088Y-73619500D01*
X113838249Y-73623425D01*
X113838221Y-73623428D01*
X113810250Y-73626629D01*
X113810241Y-73626630D01*
X113728283Y-73641783D01*
X113581646Y-73700791D01*
X113520749Y-73735134D01*
X113508315Y-73742342D01*
X113508305Y-73742349D01*
X113384238Y-73840278D01*
X111900194Y-75365547D01*
X111860360Y-75410792D01*
X111845025Y-75430065D01*
X111845009Y-75430087D01*
X111802220Y-75491254D01*
X111802213Y-75491266D01*
X111738083Y-75635718D01*
X111738081Y-75635724D01*
X111718298Y-75702768D01*
X111714393Y-75716612D01*
X111714390Y-75716624D01*
X111693556Y-75873296D01*
X111693556Y-75873299D01*
X111644571Y-113420473D01*
X111649072Y-113494959D01*
X111649074Y-113494975D01*
X111652789Y-113525266D01*
X111670100Y-113612614D01*
X111731673Y-113758190D01*
X111731676Y-113758196D01*
X111767051Y-113818428D01*
X111774507Y-113830782D01*
X111874593Y-113953108D01*
X111874595Y-113953111D01*
X112624611Y-114657671D01*
X112624655Y-114657711D01*
X112638810Y-114669837D01*
X112666700Y-114693732D01*
X112679682Y-114703863D01*
X112684562Y-114707671D01*
X112741917Y-114747335D01*
X112741918Y-114747335D01*
X112741922Y-114747338D01*
X112886475Y-114811287D01*
X112953514Y-114830972D01*
X112967393Y-114834868D01*
X113124108Y-114855500D01*
X113124109Y-114855500D01*
X114778200Y-114855500D01*
X114778217Y-114855500D01*
X114839329Y-114852408D01*
X114864229Y-114849882D01*
X114938783Y-114837580D01*
X115086891Y-114782359D01*
X115148612Y-114749614D01*
X115161263Y-114742708D01*
X115287814Y-114647997D01*
X115874306Y-114075437D01*
X115930245Y-114020827D01*
X116011670Y-113967825D01*
X116104186Y-113950000D01*
X116795500Y-113950000D01*
X116890788Y-113968954D01*
X116971570Y-114022930D01*
X117025546Y-114103712D01*
X117044500Y-114199000D01*
X117044500Y-117652382D01*
X117047058Y-117707980D01*
X117047059Y-117708006D01*
X117049148Y-117730651D01*
X117049149Y-117730661D01*
X117059606Y-117799932D01*
X117112104Y-117949002D01*
X117112111Y-117949018D01*
X117143735Y-118011351D01*
X117150388Y-118024089D01*
X117150390Y-118024092D01*
X117150395Y-118024101D01*
X117242778Y-118152361D01*
X117452767Y-118375474D01*
X117506671Y-118426151D01*
X117529929Y-118445481D01*
X117601803Y-118496838D01*
X117746356Y-118560787D01*
X117813395Y-118580472D01*
X117827274Y-118584368D01*
X117983989Y-118605000D01*
X117983995Y-118605000D01*
X117984603Y-118605080D01*
X118031643Y-118615996D01*
X118039609Y-118618681D01*
X118159290Y-118668255D01*
X118221290Y-118684868D01*
X118221291Y-118684868D01*
X118378006Y-118705500D01*
X118596988Y-118705500D01*
X118596994Y-118705500D01*
X118683167Y-118699337D01*
X118718102Y-118694314D01*
X118816315Y-118671720D01*
X118822545Y-118668784D01*
X118861047Y-118659197D01*
X118898752Y-118646834D01*
X118906461Y-118647889D01*
X118916819Y-118645311D01*
X118995628Y-118654195D01*
X119010093Y-118658232D01*
X119034290Y-118668255D01*
X119096290Y-118684868D01*
X119096291Y-118684868D01*
X119253006Y-118705500D01*
X120808754Y-118705500D01*
X120808755Y-118705500D01*
X120808760Y-118705499D01*
X120808774Y-118705499D01*
X120839691Y-118703652D01*
X120880825Y-118701196D01*
X120910130Y-118697683D01*
X120995117Y-118681263D01*
X121141117Y-118620688D01*
X121201605Y-118585718D01*
X121213995Y-118578357D01*
X121337014Y-118479103D01*
X121635537Y-118165653D01*
X121673480Y-118121785D01*
X121688128Y-118103112D01*
X121720545Y-118056268D01*
X121729329Y-118043575D01*
X121729331Y-118043571D01*
X121729334Y-118043567D01*
X121793011Y-117898893D01*
X121812570Y-117831816D01*
X121816439Y-117817934D01*
X121836777Y-117661181D01*
X121834403Y-116395747D01*
X121825923Y-116295895D01*
X121819101Y-116255565D01*
X121789392Y-116144918D01*
X121785746Y-116131338D01*
X121787009Y-116130998D01*
X121772361Y-116049940D01*
X121787353Y-115969112D01*
X121789374Y-115963559D01*
X121789381Y-115963544D01*
X121808940Y-115896467D01*
X121812809Y-115882585D01*
X121833147Y-115725832D01*
X121831171Y-114673194D01*
X121831430Y-114671880D01*
X121831180Y-114670563D01*
X121840813Y-114624244D01*
X121849947Y-114577874D01*
X121850689Y-114576758D01*
X121850963Y-114575443D01*
X121877589Y-114536335D01*
X121903771Y-114496991D01*
X121905513Y-114495260D01*
X121975068Y-114426904D01*
X122056316Y-114373633D01*
X122149599Y-114355500D01*
X124769776Y-114355500D01*
X124774819Y-114355163D01*
X124850311Y-114350120D01*
X124883001Y-114345733D01*
X124940298Y-114333401D01*
X124975943Y-114325730D01*
X124975944Y-114325729D01*
X124975946Y-114325729D01*
X125120180Y-114261062D01*
X125179659Y-114224400D01*
X125191837Y-114216692D01*
X125312009Y-114114008D01*
X125468234Y-113940424D01*
X125499474Y-113902758D01*
X125511620Y-113886846D01*
X125547338Y-113834602D01*
X125549031Y-113830777D01*
X125611286Y-113690051D01*
X125611287Y-113690049D01*
X125630972Y-113623010D01*
X125634868Y-113609131D01*
X125655500Y-113452416D01*
X125655500Y-111655684D01*
X125649869Y-111573298D01*
X125645278Y-111539870D01*
X125624443Y-111445198D01*
X125558887Y-111301366D01*
X125521859Y-111242115D01*
X125514076Y-111229985D01*
X125410653Y-111110448D01*
X125262928Y-110979137D01*
X125262924Y-110979134D01*
X125262912Y-110979123D01*
X125224637Y-110947805D01*
X125208465Y-110935641D01*
X125208454Y-110935633D01*
X125155485Y-110900002D01*
X125155480Y-110899999D01*
X125155478Y-110899998D01*
X125153287Y-110899049D01*
X125149830Y-110897553D01*
X125142911Y-110894431D01*
X125135970Y-110891171D01*
X125076601Y-110858695D01*
X125050353Y-110850965D01*
X125037477Y-110844919D01*
X124946063Y-110818870D01*
X124946051Y-110818867D01*
X124943226Y-110818062D01*
X124929321Y-110814278D01*
X124925565Y-110813813D01*
X124925553Y-110813811D01*
X124919777Y-110813098D01*
X124911770Y-110811977D01*
X124897643Y-110809763D01*
X124897642Y-110809763D01*
X124817414Y-110797190D01*
X124799326Y-110798220D01*
X124785786Y-110796547D01*
X124772446Y-110794900D01*
X124772444Y-110794900D01*
X122041479Y-110816747D01*
X121995602Y-110808002D01*
X121949572Y-110799954D01*
X121947940Y-110798917D01*
X121946042Y-110798556D01*
X121867558Y-110747870D01*
X121832571Y-110714473D01*
X121776731Y-110634968D01*
X121755567Y-110540146D01*
X121755500Y-110534358D01*
X121755500Y-107624500D01*
X121774454Y-107529212D01*
X121828430Y-107448430D01*
X121909212Y-107394454D01*
X122004500Y-107375500D01*
X124982001Y-107375500D01*
X125077289Y-107394454D01*
X125094792Y-107402732D01*
X125151917Y-107426394D01*
X125251918Y-107467816D01*
X125416233Y-107500500D01*
X125416235Y-107500500D01*
X125583765Y-107500500D01*
X125583767Y-107500500D01*
X125748082Y-107467816D01*
X125902863Y-107403703D01*
X126042162Y-107310626D01*
X126160626Y-107192162D01*
X126253703Y-107052863D01*
X126317816Y-106898082D01*
X126319687Y-106888672D01*
X126356866Y-106798914D01*
X126425565Y-106730215D01*
X126515324Y-106693035D01*
X126602856Y-106691316D01*
X126617588Y-106693649D01*
X126660843Y-106700500D01*
X126660847Y-106700500D01*
X127139153Y-106700500D01*
X127139157Y-106700500D01*
X127364660Y-106664784D01*
X127581799Y-106594231D01*
X127785228Y-106490579D01*
X127855142Y-106439783D01*
X127943371Y-106399108D01*
X128040451Y-106395293D01*
X128131601Y-106428920D01*
X128202944Y-106494868D01*
X128243620Y-106583099D01*
X128250500Y-106641228D01*
X128250500Y-109036587D01*
X128246537Y-109080837D01*
X128243534Y-109097461D01*
X128231990Y-109132993D01*
X128231988Y-109133000D01*
X128231987Y-109133006D01*
X128216342Y-109231789D01*
X128198736Y-109342949D01*
X128198736Y-109342955D01*
X128198735Y-109342962D01*
X128198735Y-109345543D01*
X128198735Y-109345544D01*
X128198736Y-109417049D01*
X128198736Y-109555527D01*
X128198739Y-109555554D01*
X128212829Y-109644505D01*
X128212829Y-109644506D01*
X128231989Y-109765478D01*
X128231991Y-109765487D01*
X128266576Y-109871926D01*
X128296317Y-109963459D01*
X128297427Y-109967096D01*
X128299250Y-109971099D01*
X128301579Y-109975305D01*
X128340536Y-110051759D01*
X128394185Y-110157052D01*
X128394189Y-110157058D01*
X128394192Y-110157063D01*
X128439130Y-110218913D01*
X128439462Y-110219371D01*
X128439496Y-110219417D01*
X128439497Y-110219420D01*
X128519134Y-110329030D01*
X128545594Y-110355489D01*
X128545598Y-110355496D01*
X128545600Y-110355495D01*
X129069893Y-110879788D01*
X129069893Y-110879789D01*
X129220201Y-111030098D01*
X129220212Y-111030107D01*
X129360707Y-111132183D01*
X129360708Y-111132183D01*
X129378088Y-111144809D01*
X129392184Y-111155051D01*
X129581588Y-111251557D01*
X129783757Y-111317246D01*
X129857601Y-111328941D01*
X129993703Y-111350499D01*
X129993710Y-111350499D01*
X129993713Y-111350500D01*
X129993716Y-111350500D01*
X131156284Y-111350500D01*
X131156287Y-111350500D01*
X131156290Y-111350499D01*
X131156296Y-111350499D01*
X131255476Y-111334789D01*
X131366243Y-111317246D01*
X131568412Y-111251557D01*
X131757816Y-111155051D01*
X131929792Y-111030104D01*
X132080104Y-110879792D01*
X132205051Y-110707816D01*
X132301557Y-110518412D01*
X132367246Y-110316243D01*
X132400500Y-110106287D01*
X132400500Y-109893713D01*
X132400499Y-109893710D01*
X132400499Y-109893703D01*
X132367246Y-109683759D01*
X132367246Y-109683757D01*
X132301557Y-109481588D01*
X132205051Y-109292184D01*
X132080104Y-109120208D01*
X131929792Y-108969896D01*
X131757816Y-108844949D01*
X131568412Y-108748443D01*
X131568409Y-108748442D01*
X131568407Y-108748441D01*
X131366240Y-108682753D01*
X131161547Y-108650332D01*
X131070397Y-108616705D01*
X130999054Y-108550756D01*
X130958380Y-108462525D01*
X130951500Y-108404398D01*
X130951500Y-98693177D01*
X130950733Y-98683431D01*
X130951264Y-98683389D01*
X130949500Y-98660959D01*
X130949500Y-97939042D01*
X130951265Y-97916615D01*
X130950732Y-97916574D01*
X130951500Y-97906814D01*
X130951500Y-96126049D01*
X135974500Y-96126049D01*
X135974500Y-96973950D01*
X135974501Y-96973982D01*
X135977315Y-97015482D01*
X135977316Y-97015491D01*
X135977317Y-97015495D01*
X135990623Y-97068998D01*
X136021963Y-97195024D01*
X136021964Y-97195025D01*
X136104155Y-97360748D01*
X136104159Y-97360754D01*
X136221778Y-97507077D01*
X136266704Y-97593220D01*
X136275246Y-97689999D01*
X136246101Y-97782679D01*
X136229150Y-97809437D01*
X136148240Y-97920801D01*
X136084811Y-98045288D01*
X136062451Y-98089172D01*
X136004059Y-98268885D01*
X135974501Y-98455507D01*
X135974500Y-98455523D01*
X135974500Y-98644476D01*
X135974501Y-98644492D01*
X136004059Y-98831114D01*
X136004060Y-98831118D01*
X136062453Y-99010832D01*
X136148240Y-99179199D01*
X136259310Y-99332073D01*
X136301170Y-99373933D01*
X136355144Y-99454712D01*
X136374098Y-99550000D01*
X136355144Y-99645288D01*
X136301170Y-99726066D01*
X136259310Y-99767927D01*
X136259306Y-99767931D01*
X136170454Y-99890226D01*
X136148240Y-99920801D01*
X136084811Y-100045288D01*
X136062451Y-100089172D01*
X136004059Y-100268885D01*
X135974501Y-100455507D01*
X135974500Y-100455523D01*
X135974500Y-100644476D01*
X135974501Y-100644492D01*
X136004059Y-100831114D01*
X136004060Y-100831118D01*
X136062453Y-101010832D01*
X136148240Y-101179199D01*
X136259310Y-101332073D01*
X136301170Y-101373933D01*
X136355144Y-101454712D01*
X136374098Y-101550000D01*
X136355144Y-101645288D01*
X136301170Y-101726066D01*
X136259310Y-101767927D01*
X136259306Y-101767931D01*
X136148241Y-101920800D01*
X136062451Y-102089172D01*
X136004059Y-102268885D01*
X135974501Y-102455507D01*
X135974500Y-102455523D01*
X135974500Y-102644476D01*
X135974501Y-102644492D01*
X136004059Y-102831114D01*
X136004060Y-102831118D01*
X136062453Y-103010832D01*
X136148240Y-103179199D01*
X136259310Y-103332073D01*
X136301170Y-103373933D01*
X136355144Y-103454712D01*
X136374098Y-103550000D01*
X136355144Y-103645288D01*
X136301170Y-103726066D01*
X136259310Y-103767927D01*
X136259306Y-103767931D01*
X136148241Y-103920800D01*
X136062451Y-104089172D01*
X136004059Y-104268885D01*
X135974501Y-104455507D01*
X135974500Y-104455523D01*
X135974500Y-104644476D01*
X135974501Y-104644492D01*
X136004059Y-104831114D01*
X136004060Y-104831118D01*
X136062453Y-105010832D01*
X136148240Y-105179199D01*
X136259310Y-105332073D01*
X136301170Y-105373933D01*
X136355144Y-105454712D01*
X136374098Y-105550000D01*
X136355144Y-105645288D01*
X136301170Y-105726066D01*
X136259310Y-105767927D01*
X136259306Y-105767931D01*
X136192410Y-105860006D01*
X136148240Y-105920801D01*
X136092100Y-106030982D01*
X136062451Y-106089172D01*
X136004059Y-106268885D01*
X135974501Y-106455507D01*
X135974500Y-106455523D01*
X135974500Y-106644476D01*
X135974501Y-106644492D01*
X135988641Y-106733767D01*
X136004060Y-106831118D01*
X136062453Y-107010832D01*
X136148240Y-107179199D01*
X136259310Y-107332073D01*
X136392927Y-107465690D01*
X136545801Y-107576760D01*
X136714168Y-107662547D01*
X136893882Y-107720940D01*
X137080519Y-107750500D01*
X137080523Y-107750500D01*
X137819477Y-107750500D01*
X137819481Y-107750500D01*
X138006118Y-107720940D01*
X138185832Y-107662547D01*
X138354199Y-107576760D01*
X138507073Y-107465690D01*
X138640690Y-107332073D01*
X138751760Y-107179199D01*
X138837547Y-107010832D01*
X138895940Y-106831118D01*
X138925500Y-106644481D01*
X138925500Y-106455519D01*
X138895940Y-106268882D01*
X138837547Y-106089168D01*
X138751760Y-105920801D01*
X138640690Y-105767927D01*
X138598829Y-105726066D01*
X138544856Y-105645288D01*
X138525902Y-105550000D01*
X138544856Y-105454712D01*
X138598829Y-105373933D01*
X138640690Y-105332073D01*
X138751760Y-105179199D01*
X138837547Y-105010832D01*
X138895940Y-104831118D01*
X138925500Y-104644481D01*
X138925500Y-104455519D01*
X138895940Y-104268882D01*
X138837547Y-104089168D01*
X138751760Y-103920801D01*
X138640690Y-103767927D01*
X138598829Y-103726066D01*
X138544856Y-103645288D01*
X138525902Y-103550000D01*
X138544856Y-103454712D01*
X138598829Y-103373933D01*
X138640690Y-103332073D01*
X138751760Y-103179199D01*
X138837547Y-103010832D01*
X138895940Y-102831118D01*
X138925500Y-102644481D01*
X138925500Y-102455519D01*
X138895940Y-102268882D01*
X138837547Y-102089168D01*
X138751760Y-101920801D01*
X138640690Y-101767927D01*
X138598829Y-101726066D01*
X138544856Y-101645288D01*
X138525902Y-101550000D01*
X138544856Y-101454712D01*
X138598829Y-101373933D01*
X138640690Y-101332073D01*
X138751760Y-101179199D01*
X138837547Y-101010832D01*
X138895940Y-100831118D01*
X138925500Y-100644481D01*
X138925500Y-100455519D01*
X138895940Y-100268882D01*
X138837547Y-100089168D01*
X138751760Y-99920801D01*
X138640690Y-99767927D01*
X138598829Y-99726066D01*
X138544856Y-99645288D01*
X138525902Y-99550000D01*
X138544856Y-99454712D01*
X138598829Y-99373933D01*
X138640690Y-99332073D01*
X138751760Y-99179199D01*
X138837547Y-99010832D01*
X138895940Y-98831118D01*
X138925500Y-98644481D01*
X138925500Y-98455519D01*
X138895940Y-98268882D01*
X138837547Y-98089168D01*
X138751760Y-97920801D01*
X138670849Y-97809437D01*
X138630175Y-97721206D01*
X138626361Y-97624126D01*
X138659988Y-97532976D01*
X138678222Y-97507077D01*
X138679940Y-97504940D01*
X138795842Y-97360753D01*
X138878037Y-97195021D01*
X138922683Y-97015495D01*
X138925500Y-96973954D01*
X138925500Y-96126046D01*
X138922683Y-96084505D01*
X138878037Y-95904979D01*
X138878036Y-95904978D01*
X138878036Y-95904975D01*
X138878035Y-95904974D01*
X138795844Y-95739251D01*
X138795843Y-95739250D01*
X138795842Y-95739247D01*
X138679940Y-95595060D01*
X138535753Y-95479158D01*
X138535751Y-95479157D01*
X138535748Y-95479155D01*
X138370025Y-95396964D01*
X138370024Y-95396963D01*
X138262305Y-95370175D01*
X138190495Y-95352317D01*
X138190491Y-95352316D01*
X138190482Y-95352315D01*
X138148982Y-95349501D01*
X138148957Y-95349500D01*
X138148954Y-95349500D01*
X136751046Y-95349500D01*
X136751042Y-95349500D01*
X136751017Y-95349501D01*
X136709517Y-95352315D01*
X136709506Y-95352316D01*
X136709505Y-95352317D01*
X136673599Y-95361246D01*
X136529975Y-95396963D01*
X136529974Y-95396964D01*
X136364251Y-95479155D01*
X136364245Y-95479159D01*
X136220064Y-95595056D01*
X136220056Y-95595064D01*
X136104159Y-95739245D01*
X136104155Y-95739251D01*
X136021964Y-95904974D01*
X136021963Y-95904975D01*
X135977317Y-96084506D01*
X135977315Y-96084517D01*
X135974501Y-96126017D01*
X135974500Y-96126049D01*
X130951500Y-96126049D01*
X130951500Y-95292691D01*
X130951499Y-95292679D01*
X130918246Y-95082735D01*
X130918246Y-95082733D01*
X130852557Y-94880564D01*
X130756051Y-94691160D01*
X130631104Y-94519184D01*
X130480792Y-94368872D01*
X130480791Y-94368871D01*
X126673430Y-90561510D01*
X126619454Y-90480728D01*
X126600500Y-90385440D01*
X126600500Y-84726049D01*
X127349500Y-84726049D01*
X127349500Y-86373950D01*
X127349501Y-86373982D01*
X127352315Y-86415482D01*
X127352317Y-86415493D01*
X127396963Y-86595024D01*
X127396964Y-86595025D01*
X127479155Y-86760748D01*
X127479157Y-86760751D01*
X127479158Y-86760753D01*
X127595060Y-86904940D01*
X127739247Y-87020842D01*
X127739250Y-87020843D01*
X127739251Y-87020844D01*
X127904974Y-87103035D01*
X127904975Y-87103036D01*
X127904978Y-87103036D01*
X127904979Y-87103037D01*
X128084505Y-87147683D01*
X128084515Y-87147683D01*
X128084517Y-87147684D01*
X128119700Y-87150069D01*
X128126046Y-87150500D01*
X128126050Y-87150500D01*
X129773950Y-87150500D01*
X129773954Y-87150500D01*
X129793108Y-87149201D01*
X129815482Y-87147684D01*
X129815483Y-87147683D01*
X129815495Y-87147683D01*
X129995021Y-87103037D01*
X129995022Y-87103036D01*
X129995024Y-87103036D01*
X129995025Y-87103035D01*
X130160753Y-87020842D01*
X130304940Y-86904940D01*
X130420842Y-86760753D01*
X130503037Y-86595021D01*
X130547683Y-86415495D01*
X130550500Y-86373954D01*
X130550500Y-84726046D01*
X130547683Y-84684505D01*
X130503037Y-84504979D01*
X130503036Y-84504978D01*
X130503036Y-84504975D01*
X130503035Y-84504974D01*
X130420844Y-84339251D01*
X130420843Y-84339250D01*
X130420842Y-84339247D01*
X130304940Y-84195060D01*
X130160753Y-84079158D01*
X130160751Y-84079157D01*
X130160748Y-84079155D01*
X129995025Y-83996964D01*
X129995024Y-83996963D01*
X129887305Y-83970175D01*
X129815495Y-83952317D01*
X129815491Y-83952316D01*
X129815482Y-83952315D01*
X129773982Y-83949501D01*
X129773957Y-83949500D01*
X129773954Y-83949500D01*
X128126046Y-83949500D01*
X128126042Y-83949500D01*
X128126017Y-83949501D01*
X128084517Y-83952315D01*
X128084506Y-83952316D01*
X128084505Y-83952317D01*
X128048599Y-83961246D01*
X127904975Y-83996963D01*
X127904974Y-83996964D01*
X127739251Y-84079155D01*
X127739245Y-84079159D01*
X127595064Y-84195056D01*
X127595056Y-84195064D01*
X127479159Y-84339245D01*
X127479155Y-84339251D01*
X127396964Y-84504974D01*
X127396963Y-84504975D01*
X127352317Y-84684506D01*
X127352315Y-84684517D01*
X127349501Y-84726017D01*
X127349500Y-84726049D01*
X126600500Y-84726049D01*
X126600500Y-80881746D01*
X126619454Y-80786458D01*
X126673430Y-80705676D01*
X126691807Y-80689045D01*
X127312950Y-80180838D01*
X127381488Y-80115145D01*
X127407279Y-80086216D01*
X127472338Y-79998425D01*
X127536287Y-79853872D01*
X127555972Y-79786833D01*
X127559868Y-79772954D01*
X127580500Y-79616239D01*
X127580500Y-74924943D01*
X127577637Y-74866132D01*
X127575297Y-74842154D01*
X127563776Y-74769772D01*
X127509679Y-74621250D01*
X127477403Y-74559284D01*
X127477387Y-74559254D01*
X127470596Y-74546584D01*
X127376856Y-74419332D01*
X127376853Y-74419329D01*
X127376848Y-74419322D01*
X127283347Y-74322080D01*
X127230967Y-74240260D01*
X127213885Y-74144618D01*
X127234703Y-74049720D01*
X127290253Y-73970012D01*
X127372077Y-73917630D01*
X127462837Y-73900500D01*
X129375959Y-73900500D01*
X129375962Y-73900500D01*
X129375965Y-73900499D01*
X129375971Y-73900499D01*
X129493513Y-73881881D01*
X129624785Y-73861090D01*
X129864379Y-73783241D01*
X130088845Y-73668870D01*
X130292656Y-73520793D01*
X130470793Y-73342656D01*
X130618870Y-73138845D01*
X130733241Y-72914379D01*
X130811090Y-72674785D01*
X130831881Y-72543513D01*
X130850499Y-72425971D01*
X130850500Y-72425959D01*
X130850500Y-72174040D01*
X130850499Y-72174028D01*
X130824951Y-72012729D01*
X130811090Y-71925215D01*
X130733241Y-71685621D01*
X130618870Y-71461155D01*
X130470793Y-71257344D01*
X130292656Y-71079207D01*
X130292652Y-71079204D01*
X130116119Y-70950945D01*
X130050170Y-70879602D01*
X130016544Y-70788452D01*
X130020358Y-70691372D01*
X130061033Y-70603141D01*
X130132376Y-70537192D01*
X130223526Y-70503566D01*
X130262478Y-70500500D01*
X136934108Y-70500500D01*
X136992472Y-70500500D01*
X137007505Y-70500954D01*
X137020011Y-70501710D01*
X137286261Y-70517815D01*
X137316088Y-70521437D01*
X137583363Y-70570417D01*
X137612546Y-70577610D01*
X137871956Y-70658446D01*
X137900059Y-70669103D01*
X138147845Y-70780623D01*
X138174464Y-70794594D01*
X138406989Y-70935161D01*
X138431734Y-70952241D01*
X138645616Y-71119806D01*
X138668123Y-71139745D01*
X138860254Y-71331876D01*
X138880193Y-71354383D01*
X139047758Y-71568265D01*
X139064838Y-71593010D01*
X139205405Y-71825535D01*
X139219379Y-71852160D01*
X139330893Y-72099934D01*
X139341555Y-72128049D01*
X139422387Y-72387448D01*
X139429583Y-72416642D01*
X139478560Y-72683899D01*
X139482185Y-72713749D01*
X139499046Y-72992494D01*
X139499500Y-73007528D01*
X139499500Y-113472656D01*
X139480546Y-113567944D01*
X139426570Y-113648726D01*
X139345788Y-113702702D01*
X139250500Y-113721656D01*
X139155212Y-113702702D01*
X139074430Y-113648726D01*
X139020454Y-113567944D01*
X138939755Y-113373119D01*
X138939749Y-113373108D01*
X138763730Y-113043798D01*
X138556268Y-112733311D01*
X138319383Y-112444665D01*
X138319381Y-112444662D01*
X138055338Y-112180619D01*
X137945763Y-112090694D01*
X137766688Y-111943731D01*
X137456201Y-111736269D01*
X137126891Y-111560250D01*
X137126880Y-111560244D01*
X136781901Y-111417350D01*
X136781894Y-111417347D01*
X136781889Y-111417345D01*
X136781880Y-111417342D01*
X136424562Y-111308950D01*
X136058324Y-111236101D01*
X135686707Y-111199500D01*
X135313293Y-111199500D01*
X135313292Y-111199500D01*
X134941675Y-111236101D01*
X134575437Y-111308950D01*
X134218119Y-111417342D01*
X134218098Y-111417350D01*
X133873119Y-111560244D01*
X133873108Y-111560250D01*
X133543798Y-111736269D01*
X133233311Y-111943731D01*
X132944665Y-112180616D01*
X132680616Y-112444665D01*
X132443731Y-112733311D01*
X132236269Y-113043798D01*
X132060250Y-113373108D01*
X132060244Y-113373119D01*
X131917350Y-113718098D01*
X131917342Y-113718119D01*
X131808950Y-114075437D01*
X131736101Y-114441675D01*
X131699500Y-114813292D01*
X131699500Y-115186707D01*
X131736101Y-115558324D01*
X131808950Y-115924562D01*
X131917342Y-116281880D01*
X131917350Y-116281901D01*
X132060244Y-116626880D01*
X132060250Y-116626891D01*
X132236269Y-116956201D01*
X132443731Y-117266688D01*
X132590694Y-117445763D01*
X132680619Y-117555338D01*
X132944662Y-117819381D01*
X133102607Y-117949002D01*
X133217844Y-118043575D01*
X133233315Y-118056271D01*
X133543796Y-118263729D01*
X133847667Y-118426151D01*
X133873108Y-118439749D01*
X133873119Y-118439755D01*
X133886943Y-118445481D01*
X134218106Y-118582653D01*
X134218118Y-118582656D01*
X134218119Y-118582657D01*
X134575437Y-118691049D01*
X134793987Y-118734521D01*
X134941678Y-118763899D01*
X135313293Y-118800500D01*
X135313296Y-118800500D01*
X135686704Y-118800500D01*
X135686707Y-118800500D01*
X136058322Y-118763899D01*
X136278862Y-118720030D01*
X136424562Y-118691049D01*
X136708226Y-118605000D01*
X136781894Y-118582653D01*
X137126883Y-118439754D01*
X137456204Y-118263729D01*
X137766685Y-118056271D01*
X138055338Y-117819381D01*
X138319381Y-117555338D01*
X138556271Y-117266685D01*
X138763729Y-116956204D01*
X138939754Y-116626883D01*
X139020454Y-116432053D01*
X139041263Y-116400912D01*
X139074430Y-116351273D01*
X139149692Y-116300985D01*
X139155211Y-116297297D01*
X139250500Y-116278343D01*
X139345788Y-116297297D01*
X139426570Y-116351273D01*
X139452840Y-116390589D01*
X139480546Y-116432054D01*
X139480546Y-116432055D01*
X139499500Y-116527343D01*
X139499500Y-116992471D01*
X139499046Y-117007505D01*
X139482185Y-117286250D01*
X139478560Y-117316100D01*
X139429583Y-117583357D01*
X139422387Y-117612551D01*
X139341555Y-117871950D01*
X139330893Y-117900065D01*
X139219379Y-118147839D01*
X139205405Y-118174464D01*
X139064838Y-118406989D01*
X139047758Y-118431734D01*
X138880193Y-118645616D01*
X138860254Y-118668123D01*
X138668123Y-118860254D01*
X138645616Y-118880193D01*
X138431734Y-119047758D01*
X138406989Y-119064838D01*
X138174464Y-119205405D01*
X138147839Y-119219379D01*
X137900065Y-119330893D01*
X137871950Y-119341555D01*
X137612551Y-119422387D01*
X137583357Y-119429583D01*
X137316100Y-119478560D01*
X137286250Y-119482185D01*
X137007506Y-119499046D01*
X136992472Y-119499500D01*
X103007528Y-119499500D01*
X102992494Y-119499046D01*
X102713749Y-119482185D01*
X102683899Y-119478560D01*
X102416642Y-119429583D01*
X102387448Y-119422387D01*
X102128049Y-119341555D01*
X102099934Y-119330893D01*
X101852160Y-119219379D01*
X101825535Y-119205405D01*
X101593010Y-119064838D01*
X101568265Y-119047758D01*
X101354383Y-118880193D01*
X101331876Y-118860254D01*
X101139745Y-118668123D01*
X101119806Y-118645616D01*
X100952241Y-118431734D01*
X100935161Y-118406989D01*
X100794594Y-118174464D01*
X100780620Y-118147839D01*
X100768894Y-118121786D01*
X100669103Y-117900059D01*
X100658444Y-117871950D01*
X100642063Y-117819383D01*
X100577610Y-117612546D01*
X100570416Y-117583357D01*
X100521437Y-117316088D01*
X100517815Y-117286261D01*
X100500954Y-117007504D01*
X100500500Y-116992471D01*
X100500500Y-116527343D01*
X100519454Y-116432055D01*
X100573430Y-116351273D01*
X100654212Y-116297297D01*
X100749500Y-116278343D01*
X100844788Y-116297297D01*
X100925570Y-116351273D01*
X100979545Y-116432053D01*
X101060245Y-116626880D01*
X101060250Y-116626891D01*
X101236269Y-116956201D01*
X101443731Y-117266688D01*
X101590694Y-117445763D01*
X101680619Y-117555338D01*
X101944662Y-117819381D01*
X102102607Y-117949002D01*
X102217844Y-118043575D01*
X102233315Y-118056271D01*
X102543796Y-118263729D01*
X102847667Y-118426151D01*
X102873108Y-118439749D01*
X102873119Y-118439755D01*
X102886943Y-118445481D01*
X103218106Y-118582653D01*
X103218118Y-118582656D01*
X103218119Y-118582657D01*
X103575437Y-118691049D01*
X103793987Y-118734521D01*
X103941678Y-118763899D01*
X104313293Y-118800500D01*
X104313296Y-118800500D01*
X104686704Y-118800500D01*
X104686707Y-118800500D01*
X105058322Y-118763899D01*
X105278862Y-118720030D01*
X105424562Y-118691049D01*
X105708226Y-118605000D01*
X105781894Y-118582653D01*
X106126883Y-118439754D01*
X106456204Y-118263729D01*
X106766685Y-118056271D01*
X107055338Y-117819381D01*
X107319381Y-117555338D01*
X107556271Y-117266685D01*
X107763729Y-116956204D01*
X107939754Y-116626883D01*
X108082653Y-116281894D01*
X108149150Y-116062684D01*
X108191049Y-115924562D01*
X108230579Y-115725832D01*
X108263899Y-115558322D01*
X108300500Y-115186707D01*
X108300500Y-114813293D01*
X108263899Y-114441678D01*
X108220676Y-114224383D01*
X108191049Y-114075437D01*
X108082657Y-113718119D01*
X108082656Y-113718118D01*
X108082653Y-113718106D01*
X107968333Y-113442114D01*
X107939755Y-113373119D01*
X107939749Y-113373108D01*
X107763730Y-113043798D01*
X107556268Y-112733311D01*
X107319383Y-112444665D01*
X107319381Y-112444662D01*
X107055338Y-112180619D01*
X106945763Y-112090694D01*
X106766688Y-111943731D01*
X106456201Y-111736269D01*
X106126891Y-111560250D01*
X106126880Y-111560244D01*
X105781901Y-111417350D01*
X105781894Y-111417347D01*
X105781889Y-111417345D01*
X105781880Y-111417342D01*
X105424562Y-111308950D01*
X105058324Y-111236101D01*
X104686707Y-111199500D01*
X104313293Y-111199500D01*
X104313292Y-111199500D01*
X103941675Y-111236101D01*
X103575437Y-111308950D01*
X103218119Y-111417342D01*
X103218098Y-111417350D01*
X102873119Y-111560244D01*
X102873108Y-111560250D01*
X102543798Y-111736269D01*
X102233311Y-111943731D01*
X101944665Y-112180616D01*
X101680616Y-112444665D01*
X101443731Y-112733311D01*
X101236269Y-113043798D01*
X101060250Y-113373108D01*
X101060244Y-113373119D01*
X100979546Y-113567944D01*
X100925570Y-113648726D01*
X100844788Y-113702702D01*
X100749500Y-113721656D01*
X100654212Y-113702702D01*
X100573430Y-113648726D01*
X100519454Y-113567944D01*
X100500500Y-113472656D01*
X100500500Y-90526049D01*
X106874500Y-90526049D01*
X106874500Y-91373950D01*
X106874501Y-91373982D01*
X106877315Y-91415482D01*
X106877317Y-91415493D01*
X106921963Y-91595024D01*
X106921964Y-91595025D01*
X107004155Y-91760748D01*
X107004159Y-91760754D01*
X107121778Y-91907077D01*
X107166704Y-91993220D01*
X107175246Y-92089999D01*
X107146101Y-92182679D01*
X107129151Y-92209437D01*
X107048241Y-92320800D01*
X106962451Y-92489172D01*
X106904059Y-92668885D01*
X106874501Y-92855507D01*
X106874500Y-92855523D01*
X106874500Y-93044476D01*
X106874501Y-93044492D01*
X106904059Y-93231114D01*
X106904060Y-93231118D01*
X106962453Y-93410832D01*
X107048240Y-93579199D01*
X107159310Y-93732073D01*
X107201170Y-93773933D01*
X107255144Y-93854712D01*
X107274098Y-93950000D01*
X107255144Y-94045288D01*
X107201170Y-94126066D01*
X107159310Y-94167927D01*
X107159306Y-94167931D01*
X107070454Y-94290226D01*
X107048240Y-94320801D01*
X107023747Y-94368872D01*
X106962451Y-94489172D01*
X106904059Y-94668885D01*
X106874501Y-94855507D01*
X106874500Y-94855523D01*
X106874500Y-95044476D01*
X106874501Y-95044492D01*
X106904059Y-95231114D01*
X106957946Y-95396963D01*
X106962453Y-95410832D01*
X107048240Y-95579199D01*
X107159310Y-95732073D01*
X107201170Y-95773933D01*
X107255144Y-95854712D01*
X107274098Y-95950000D01*
X107255144Y-96045288D01*
X107201170Y-96126066D01*
X107159310Y-96167927D01*
X107159306Y-96167931D01*
X107092119Y-96260407D01*
X107048240Y-96320801D01*
X106962453Y-96489168D01*
X106962451Y-96489172D01*
X106904059Y-96668885D01*
X106874501Y-96855507D01*
X106874500Y-96855523D01*
X106874500Y-97044476D01*
X106874501Y-97044492D01*
X106904059Y-97231114D01*
X106904060Y-97231118D01*
X106906814Y-97239593D01*
X106946181Y-97360754D01*
X106962453Y-97410832D01*
X107048240Y-97579199D01*
X107078496Y-97620842D01*
X107151414Y-97721206D01*
X107159310Y-97732073D01*
X107201170Y-97773933D01*
X107255144Y-97854712D01*
X107274098Y-97950000D01*
X107255144Y-98045288D01*
X107201170Y-98126066D01*
X107159310Y-98167927D01*
X107159306Y-98167931D01*
X107048241Y-98320800D01*
X106962451Y-98489172D01*
X106904059Y-98668885D01*
X106874501Y-98855507D01*
X106874500Y-98855523D01*
X106874500Y-99044476D01*
X106874501Y-99044492D01*
X106904059Y-99231114D01*
X106950462Y-99373930D01*
X106962453Y-99410832D01*
X107048240Y-99579199D01*
X107088281Y-99634310D01*
X107154948Y-99726070D01*
X107159310Y-99732073D01*
X107201170Y-99773933D01*
X107255144Y-99854712D01*
X107274098Y-99950000D01*
X107255144Y-100045288D01*
X107201170Y-100126066D01*
X107159310Y-100167927D01*
X107159306Y-100167931D01*
X107048241Y-100320800D01*
X106962451Y-100489172D01*
X106904059Y-100668885D01*
X106874501Y-100855507D01*
X106874500Y-100855523D01*
X106874500Y-101044476D01*
X106874501Y-101044492D01*
X106904059Y-101231114D01*
X106950462Y-101373930D01*
X106962453Y-101410832D01*
X107048240Y-101579199D01*
X107088281Y-101634310D01*
X107154948Y-101726070D01*
X107159310Y-101732073D01*
X107292927Y-101865690D01*
X107445801Y-101976760D01*
X107614168Y-102062547D01*
X107793882Y-102120940D01*
X107980519Y-102150500D01*
X107980523Y-102150500D01*
X108719477Y-102150500D01*
X108719481Y-102150500D01*
X108906118Y-102120940D01*
X109085832Y-102062547D01*
X109254199Y-101976760D01*
X109407073Y-101865690D01*
X109540690Y-101732073D01*
X109651760Y-101579199D01*
X109737547Y-101410832D01*
X109795940Y-101231118D01*
X109825500Y-101044481D01*
X109825500Y-100855519D01*
X109795940Y-100668882D01*
X109737547Y-100489168D01*
X109651760Y-100320801D01*
X109540690Y-100167927D01*
X109498829Y-100126066D01*
X109444856Y-100045288D01*
X109425902Y-99950000D01*
X109444856Y-99854712D01*
X109498829Y-99773933D01*
X109540690Y-99732073D01*
X109651760Y-99579199D01*
X109737547Y-99410832D01*
X109795940Y-99231118D01*
X109825500Y-99044481D01*
X109825500Y-98855519D01*
X109795940Y-98668882D01*
X109737547Y-98489168D01*
X109651760Y-98320801D01*
X109540690Y-98167927D01*
X109498829Y-98126066D01*
X109444856Y-98045288D01*
X109425902Y-97950000D01*
X109444856Y-97854712D01*
X109498829Y-97773933D01*
X109540690Y-97732073D01*
X109651760Y-97579199D01*
X109737547Y-97410832D01*
X109795940Y-97231118D01*
X109825500Y-97044481D01*
X109825500Y-96855519D01*
X109795940Y-96668882D01*
X109737547Y-96489168D01*
X109651760Y-96320801D01*
X109540690Y-96167927D01*
X109498829Y-96126066D01*
X109444856Y-96045288D01*
X109425902Y-95950000D01*
X109444856Y-95854712D01*
X109498829Y-95773933D01*
X109540690Y-95732073D01*
X109651760Y-95579199D01*
X109737547Y-95410832D01*
X109795940Y-95231118D01*
X109825500Y-95044481D01*
X109825500Y-94855519D01*
X109795940Y-94668882D01*
X109737547Y-94489168D01*
X109651760Y-94320801D01*
X109540690Y-94167927D01*
X109498829Y-94126066D01*
X109444856Y-94045288D01*
X109425902Y-93950000D01*
X109444856Y-93854712D01*
X109498829Y-93773933D01*
X109540690Y-93732073D01*
X109651760Y-93579199D01*
X109737547Y-93410832D01*
X109795940Y-93231118D01*
X109825500Y-93044481D01*
X109825500Y-92855519D01*
X109795940Y-92668882D01*
X109737547Y-92489168D01*
X109651760Y-92320801D01*
X109570849Y-92209437D01*
X109530175Y-92121206D01*
X109526361Y-92024126D01*
X109559988Y-91932976D01*
X109578222Y-91907077D01*
X109579940Y-91904940D01*
X109695842Y-91760753D01*
X109778037Y-91595021D01*
X109822683Y-91415495D01*
X109825500Y-91373954D01*
X109825500Y-90526046D01*
X109825069Y-90519700D01*
X109822684Y-90484517D01*
X109822683Y-90484515D01*
X109822683Y-90484505D01*
X109778037Y-90304979D01*
X109778036Y-90304978D01*
X109778036Y-90304975D01*
X109778035Y-90304974D01*
X109695844Y-90139251D01*
X109695843Y-90139250D01*
X109695842Y-90139247D01*
X109579940Y-89995060D01*
X109435753Y-89879158D01*
X109435751Y-89879157D01*
X109435748Y-89879155D01*
X109270025Y-89796964D01*
X109270024Y-89796963D01*
X109162305Y-89770175D01*
X109090495Y-89752317D01*
X109090491Y-89752316D01*
X109090482Y-89752315D01*
X109048982Y-89749501D01*
X109048957Y-89749500D01*
X109048954Y-89749500D01*
X107651046Y-89749500D01*
X107651042Y-89749500D01*
X107651017Y-89749501D01*
X107609517Y-89752315D01*
X107609506Y-89752316D01*
X107609505Y-89752317D01*
X107573599Y-89761246D01*
X107429975Y-89796963D01*
X107429974Y-89796964D01*
X107264251Y-89879155D01*
X107264245Y-89879159D01*
X107120064Y-89995056D01*
X107120056Y-89995064D01*
X107004159Y-90139245D01*
X107004155Y-90139251D01*
X106921964Y-90304974D01*
X106921963Y-90304975D01*
X106901953Y-90385440D01*
X106878257Y-90480728D01*
X106877317Y-90484506D01*
X106877315Y-90484517D01*
X106874501Y-90526017D01*
X106874500Y-90526049D01*
X100500500Y-90526049D01*
X100500500Y-76527343D01*
X100519454Y-76432055D01*
X100573430Y-76351273D01*
X100654212Y-76297297D01*
X100749500Y-76278343D01*
X100844788Y-76297297D01*
X100925570Y-76351273D01*
X100979545Y-76432053D01*
X101060246Y-76626883D01*
X101236271Y-76956204D01*
X101443729Y-77266685D01*
X101680619Y-77555338D01*
X101944662Y-77819381D01*
X102233315Y-78056271D01*
X102543796Y-78263729D01*
X102873117Y-78439754D01*
X103218106Y-78582653D01*
X103218118Y-78582656D01*
X103218119Y-78582657D01*
X103575437Y-78691049D01*
X103793987Y-78734521D01*
X103941678Y-78763899D01*
X104313293Y-78800500D01*
X104313296Y-78800500D01*
X104686704Y-78800500D01*
X104686707Y-78800500D01*
X105058322Y-78763899D01*
X105278862Y-78720030D01*
X105424562Y-78691049D01*
X105678541Y-78614004D01*
X105781894Y-78582653D01*
X106126883Y-78439754D01*
X106456204Y-78263729D01*
X106766685Y-78056271D01*
X107055338Y-77819381D01*
X107319381Y-77555338D01*
X107556271Y-77266685D01*
X107763729Y-76956204D01*
X107939754Y-76626883D01*
X108082653Y-76281894D01*
X108114004Y-76178541D01*
X108191049Y-75924562D01*
X108232413Y-75716612D01*
X108263899Y-75558322D01*
X108300500Y-75186707D01*
X108300500Y-74813293D01*
X108263899Y-74441678D01*
X108223834Y-74240260D01*
X108191049Y-74075437D01*
X108082657Y-73718119D01*
X108082656Y-73718118D01*
X108082653Y-73718106D01*
X107968333Y-73442114D01*
X107939755Y-73373119D01*
X107939749Y-73373108D01*
X107814533Y-73138845D01*
X107763729Y-73043796D01*
X107556271Y-72733315D01*
X107508234Y-72674782D01*
X107466346Y-72623740D01*
X107319381Y-72444662D01*
X107055338Y-72180619D01*
X106945763Y-72090694D01*
X106766688Y-71943731D01*
X106456201Y-71736269D01*
X106126891Y-71560250D01*
X106126880Y-71560244D01*
X105781901Y-71417350D01*
X105781894Y-71417347D01*
X105781889Y-71417345D01*
X105781880Y-71417342D01*
X105424562Y-71308950D01*
X105058324Y-71236101D01*
X104686707Y-71199500D01*
X104313293Y-71199500D01*
X104313292Y-71199500D01*
X103941675Y-71236101D01*
X103575437Y-71308950D01*
X103218119Y-71417342D01*
X103218098Y-71417350D01*
X102873119Y-71560244D01*
X102873108Y-71560250D01*
X102543798Y-71736269D01*
X102233311Y-71943731D01*
X101944665Y-72180616D01*
X101680616Y-72444665D01*
X101443731Y-72733311D01*
X101236269Y-73043798D01*
X101060250Y-73373108D01*
X101060244Y-73373119D01*
X100979546Y-73567944D01*
X100925570Y-73648726D01*
X100844788Y-73702702D01*
X100749500Y-73721656D01*
X100654212Y-73702702D01*
X100573430Y-73648726D01*
X100519454Y-73567944D01*
X100500500Y-73472656D01*
X100500500Y-73007528D01*
X100500954Y-72992495D01*
X100516631Y-72733315D01*
X100517815Y-72713736D01*
X100521437Y-72683913D01*
X100570418Y-72416632D01*
X100577609Y-72387457D01*
X100658448Y-72128037D01*
X100669101Y-72099945D01*
X100780626Y-71852147D01*
X100794589Y-71825543D01*
X100935161Y-71593010D01*
X100952241Y-71568265D01*
X101119813Y-71354374D01*
X101139737Y-71331884D01*
X101331884Y-71139737D01*
X101354374Y-71119813D01*
X101568268Y-70952238D01*
X101593010Y-70935161D01*
X101630926Y-70912240D01*
X101825543Y-70794589D01*
X101852147Y-70780626D01*
X102099945Y-70669101D01*
X102128037Y-70658448D01*
X102387457Y-70577609D01*
X102416632Y-70570418D01*
X102683913Y-70521437D01*
X102713736Y-70517815D01*
X102980895Y-70501655D01*
X102992495Y-70500954D01*
X103007528Y-70500500D01*
X103065892Y-70500500D01*
X126037522Y-70500500D01*
X126132810Y-70519454D01*
G37*
G04 #@! TD.AperFunction*
G04 #@! TA.AperFunction,Conductor*
G36*
X120633578Y-78394685D02*
G01*
X120648731Y-78406155D01*
X120654949Y-78411660D01*
X120692093Y-78470836D01*
X120696749Y-78505051D01*
X120693109Y-79322556D01*
X120673126Y-79389507D01*
X120622462Y-79433939D01*
X120612187Y-79438836D01*
X120551114Y-79455201D01*
X120448387Y-79514511D01*
X120443803Y-79519094D01*
X120428352Y-79526459D01*
X120406222Y-79530012D01*
X120385311Y-79538095D01*
X120372389Y-79535444D01*
X120359366Y-79537535D01*
X120338825Y-79528557D01*
X120316867Y-79524053D01*
X120305615Y-79516822D01*
X120301614Y-79514512D01*
X120301613Y-79514511D01*
X120198886Y-79455201D01*
X120084309Y-79424500D01*
X119965691Y-79424500D01*
X119851114Y-79455201D01*
X119851112Y-79455201D01*
X119851112Y-79455202D01*
X119748387Y-79514511D01*
X119748384Y-79514513D01*
X119664513Y-79598384D01*
X119664511Y-79598387D01*
X119605201Y-79701114D01*
X119574500Y-79815691D01*
X119574500Y-79934309D01*
X119605201Y-80048886D01*
X119664511Y-80151613D01*
X119748387Y-80235489D01*
X119851114Y-80294799D01*
X119965691Y-80325500D01*
X119965694Y-80325500D01*
X120084306Y-80325500D01*
X120084309Y-80325500D01*
X120198886Y-80294799D01*
X120301613Y-80235489D01*
X120301614Y-80235487D01*
X120308651Y-80231425D01*
X120309662Y-80233177D01*
X120364671Y-80211906D01*
X120428846Y-80223776D01*
X120443959Y-80231061D01*
X120448387Y-80235489D01*
X120551114Y-80294799D01*
X120607544Y-80309919D01*
X120618038Y-80314978D01*
X120635663Y-80330904D01*
X120655946Y-80343267D01*
X120661109Y-80353897D01*
X120669879Y-80361821D01*
X120676096Y-80384747D01*
X120686475Y-80406114D01*
X120688191Y-80427229D01*
X120677277Y-82878243D01*
X120657294Y-82945194D01*
X120604287Y-82990714D01*
X120585377Y-82997464D01*
X120576991Y-82999711D01*
X120576984Y-82999714D01*
X120474260Y-83059022D01*
X120474254Y-83059026D01*
X120390383Y-83142897D01*
X120390381Y-83142900D01*
X120331071Y-83245627D01*
X120300370Y-83360204D01*
X120300370Y-83478822D01*
X120331071Y-83593399D01*
X120390381Y-83696126D01*
X120474257Y-83780002D01*
X120576984Y-83839312D01*
X120580555Y-83840268D01*
X120583229Y-83841898D01*
X120584488Y-83842420D01*
X120584406Y-83842616D01*
X120640214Y-83876633D01*
X120670743Y-83939480D01*
X120672459Y-83960595D01*
X120644186Y-90310665D01*
X120624203Y-90377616D01*
X120579691Y-90418903D01*
X120566641Y-90426040D01*
X120551114Y-90430201D01*
X120448387Y-90489511D01*
X120445717Y-90492180D01*
X120434504Y-90498314D01*
X120409341Y-90503806D01*
X120385311Y-90513095D01*
X120375761Y-90511135D01*
X120366241Y-90513214D01*
X120342104Y-90504230D01*
X120316867Y-90499053D01*
X120305615Y-90491822D01*
X120301614Y-90489512D01*
X120301613Y-90489511D01*
X120198886Y-90430201D01*
X120084309Y-90399500D01*
X119965691Y-90399500D01*
X119851114Y-90430201D01*
X119851112Y-90430201D01*
X119851112Y-90430202D01*
X119748387Y-90489511D01*
X119748384Y-90489513D01*
X119664513Y-90573384D01*
X119664511Y-90573387D01*
X119605201Y-90676114D01*
X119574500Y-90790691D01*
X119574500Y-90909309D01*
X119605201Y-91023886D01*
X119664511Y-91126613D01*
X119748387Y-91210489D01*
X119851114Y-91269799D01*
X119965691Y-91300500D01*
X119965694Y-91300500D01*
X120084306Y-91300500D01*
X120084309Y-91300500D01*
X120198886Y-91269799D01*
X120301613Y-91210489D01*
X120301614Y-91210487D01*
X120308651Y-91206425D01*
X120309662Y-91208177D01*
X120364671Y-91186906D01*
X120433117Y-91200938D01*
X120435298Y-91202123D01*
X120445947Y-91208049D01*
X120448387Y-91210489D01*
X120551114Y-91269799D01*
X120562289Y-91272793D01*
X120575683Y-91280247D01*
X120589865Y-91294659D01*
X120607131Y-91305181D01*
X120613871Y-91319053D01*
X120624690Y-91330047D01*
X120628829Y-91349838D01*
X120637666Y-91368025D01*
X120639384Y-91389151D01*
X120628483Y-93837531D01*
X120608500Y-93904482D01*
X120555493Y-93950002D01*
X120536582Y-93956752D01*
X120487575Y-93969884D01*
X120487573Y-93969884D01*
X120487573Y-93969885D01*
X120384848Y-94029194D01*
X120384845Y-94029196D01*
X120300974Y-94113067D01*
X120300972Y-94113070D01*
X120241662Y-94215797D01*
X120210961Y-94330374D01*
X120210961Y-94448992D01*
X120241662Y-94563569D01*
X120300972Y-94666296D01*
X120384848Y-94750172D01*
X120487575Y-94809482D01*
X120531663Y-94821295D01*
X120591322Y-94857658D01*
X120621852Y-94920504D01*
X120623568Y-94941621D01*
X120595717Y-101196858D01*
X120575734Y-101263809D01*
X120524817Y-101308362D01*
X120514666Y-101313172D01*
X120451114Y-101330201D01*
X120348387Y-101389511D01*
X120343720Y-101394177D01*
X120328099Y-101401580D01*
X120306093Y-101405061D01*
X120285311Y-101413095D01*
X120272253Y-101410416D01*
X120259088Y-101412499D01*
X120238693Y-101403531D01*
X120216867Y-101399053D01*
X120205615Y-101391822D01*
X120201614Y-101389512D01*
X120201613Y-101389511D01*
X120098886Y-101330201D01*
X119984309Y-101299500D01*
X119865691Y-101299500D01*
X119751114Y-101330201D01*
X119751112Y-101330201D01*
X119751112Y-101330202D01*
X119648387Y-101389511D01*
X119648384Y-101389513D01*
X119564513Y-101473384D01*
X119564511Y-101473387D01*
X119505201Y-101576114D01*
X119474500Y-101690691D01*
X119474500Y-101809309D01*
X119505201Y-101923886D01*
X119564511Y-102026613D01*
X119648387Y-102110489D01*
X119751114Y-102169799D01*
X119865691Y-102200500D01*
X119865694Y-102200500D01*
X119984306Y-102200500D01*
X119984309Y-102200500D01*
X120098886Y-102169799D01*
X120201613Y-102110489D01*
X120201614Y-102110487D01*
X120208651Y-102106425D01*
X120209662Y-102108177D01*
X120264671Y-102086906D01*
X120328582Y-102098649D01*
X120343874Y-102105976D01*
X120348387Y-102110489D01*
X120451114Y-102169799D01*
X120510003Y-102185578D01*
X120520375Y-102190548D01*
X120538143Y-102206527D01*
X120558547Y-102218964D01*
X120563647Y-102229463D01*
X120572327Y-102237269D01*
X120578635Y-102260318D01*
X120589076Y-102281811D01*
X120590792Y-102302926D01*
X120580080Y-104709034D01*
X120560097Y-104775985D01*
X120507090Y-104821505D01*
X120488177Y-104828256D01*
X120406750Y-104850075D01*
X120406749Y-104850075D01*
X120406747Y-104850076D01*
X120304023Y-104909385D01*
X120304020Y-104909387D01*
X120220149Y-104993258D01*
X120220147Y-104993261D01*
X120160837Y-105095988D01*
X120130136Y-105210565D01*
X120130136Y-105329183D01*
X120160837Y-105443760D01*
X120220147Y-105546487D01*
X120304023Y-105630363D01*
X120406750Y-105689673D01*
X120483183Y-105710153D01*
X120542842Y-105746517D01*
X120555699Y-105763350D01*
X120575248Y-105794068D01*
X120575000Y-105850000D01*
X120610987Y-105850223D01*
X120647264Y-105907224D01*
X120649806Y-105916025D01*
X120655764Y-105922988D01*
X120662427Y-105941706D01*
X120667699Y-105961382D01*
X120667700Y-105961385D01*
X120667701Y-105961386D01*
X120727011Y-106064113D01*
X120810887Y-106147989D01*
X120913614Y-106207299D01*
X121028191Y-106238000D01*
X121028194Y-106238000D01*
X121036251Y-106239061D01*
X121036003Y-106240937D01*
X121093039Y-106257685D01*
X121138794Y-106310489D01*
X121150000Y-106362000D01*
X121150000Y-110900000D01*
X121700000Y-111425000D01*
X124777290Y-111400381D01*
X124803887Y-111407960D01*
X124831214Y-111412243D01*
X124840542Y-111418406D01*
X124844483Y-111419529D01*
X124860656Y-111431694D01*
X125008381Y-111563005D01*
X125045409Y-111622256D01*
X125050000Y-111655684D01*
X125050000Y-113452416D01*
X125030315Y-113519455D01*
X125018169Y-113535367D01*
X124861944Y-113708951D01*
X124802465Y-113745613D01*
X124769775Y-113750000D01*
X121799998Y-113750000D01*
X121224999Y-114315087D01*
X121227648Y-115726968D01*
X121208089Y-115794045D01*
X121155371Y-115839899D01*
X121086231Y-115849972D01*
X121022621Y-115821066D01*
X120996261Y-115789201D01*
X120994779Y-115786634D01*
X120910903Y-115702758D01*
X120808176Y-115643448D01*
X120693599Y-115612747D01*
X120574981Y-115612747D01*
X120460404Y-115643448D01*
X120460402Y-115643448D01*
X120460402Y-115643449D01*
X120357677Y-115702758D01*
X120357674Y-115702760D01*
X120273803Y-115786631D01*
X120273801Y-115786634D01*
X120214491Y-115889361D01*
X120183790Y-116003938D01*
X120183790Y-116122556D01*
X120214491Y-116237133D01*
X120273801Y-116339860D01*
X120357677Y-116423736D01*
X120460404Y-116483046D01*
X120574981Y-116513747D01*
X120574984Y-116513747D01*
X120693596Y-116513747D01*
X120693599Y-116513747D01*
X120808176Y-116483046D01*
X120910903Y-116423736D01*
X120994779Y-116339860D01*
X120997516Y-116335118D01*
X121048077Y-116286904D01*
X121116684Y-116273677D01*
X121181550Y-116299641D01*
X121222082Y-116356553D01*
X121228904Y-116396883D01*
X121231278Y-117662317D01*
X121211719Y-117729394D01*
X121197071Y-117748067D01*
X120898548Y-118061517D01*
X120838060Y-118096487D01*
X120808755Y-118100000D01*
X119253006Y-118100000D01*
X119191006Y-118083387D01*
X119098886Y-118030201D01*
X118984309Y-117999500D01*
X118865691Y-117999500D01*
X118751114Y-118030201D01*
X118658993Y-118083387D01*
X118643505Y-118087537D01*
X118631929Y-118094977D01*
X118596994Y-118100000D01*
X118378006Y-118100000D01*
X118316006Y-118083387D01*
X118223886Y-118030201D01*
X118109309Y-117999500D01*
X117990691Y-117999500D01*
X117983989Y-117999500D01*
X117916950Y-117979815D01*
X117893692Y-117960485D01*
X117683703Y-117737372D01*
X117652091Y-117675063D01*
X117650000Y-117652387D01*
X117650000Y-114965691D01*
X118199500Y-114965691D01*
X118199500Y-115084309D01*
X118230201Y-115198886D01*
X118289511Y-115301613D01*
X118373387Y-115385489D01*
X118476114Y-115444799D01*
X118590691Y-115475500D01*
X118590694Y-115475500D01*
X118709306Y-115475500D01*
X118709309Y-115475500D01*
X118823886Y-115444799D01*
X118926613Y-115385489D01*
X118926615Y-115385486D01*
X118926620Y-115385484D01*
X118933064Y-115380540D01*
X118934243Y-115382077D01*
X118986262Y-115353666D01*
X119055954Y-115358642D01*
X119074636Y-115367443D01*
X119176108Y-115426029D01*
X119176109Y-115426030D01*
X119176111Y-115426030D01*
X119176114Y-115426032D01*
X119290691Y-115456733D01*
X119290694Y-115456733D01*
X119409306Y-115456733D01*
X119409309Y-115456733D01*
X119523886Y-115426032D01*
X119626613Y-115366722D01*
X119710489Y-115282846D01*
X119769799Y-115180119D01*
X119800500Y-115065542D01*
X119800500Y-114946924D01*
X119769799Y-114832347D01*
X119710489Y-114729620D01*
X119626613Y-114645744D01*
X119523886Y-114586434D01*
X119409309Y-114555733D01*
X119290691Y-114555733D01*
X119176114Y-114586434D01*
X119176112Y-114586434D01*
X119176112Y-114586435D01*
X119073387Y-114645744D01*
X119066941Y-114650691D01*
X119065763Y-114649156D01*
X119013708Y-114677572D01*
X118944017Y-114672579D01*
X118925364Y-114663790D01*
X118902676Y-114650691D01*
X118823886Y-114605201D01*
X118709309Y-114574500D01*
X118590691Y-114574500D01*
X118476114Y-114605201D01*
X118476112Y-114605201D01*
X118476112Y-114605202D01*
X118373387Y-114664511D01*
X118373384Y-114664513D01*
X118289513Y-114748384D01*
X118289511Y-114748387D01*
X118230201Y-114851114D01*
X118199500Y-114965691D01*
X117650000Y-114965691D01*
X117650000Y-112490691D01*
X119549500Y-112490691D01*
X119549500Y-112609309D01*
X119580201Y-112723886D01*
X119639511Y-112826613D01*
X119723387Y-112910489D01*
X119826114Y-112969799D01*
X119940691Y-113000500D01*
X119940694Y-113000500D01*
X120059306Y-113000500D01*
X120059309Y-113000500D01*
X120173886Y-112969799D01*
X120276613Y-112910489D01*
X120276614Y-112910487D01*
X120283651Y-112906425D01*
X120284662Y-112908177D01*
X120339671Y-112886906D01*
X120408117Y-112900938D01*
X120419367Y-112908167D01*
X120423384Y-112910486D01*
X120423387Y-112910489D01*
X120526114Y-112969799D01*
X120640691Y-113000500D01*
X120640694Y-113000500D01*
X120759306Y-113000500D01*
X120759309Y-113000500D01*
X120873886Y-112969799D01*
X120873888Y-112969797D01*
X120873890Y-112969797D01*
X120873891Y-112969796D01*
X120962999Y-112918349D01*
X121030899Y-112901875D01*
X121087001Y-112918349D01*
X121176108Y-112969796D01*
X121176109Y-112969797D01*
X121176111Y-112969797D01*
X121176114Y-112969799D01*
X121290691Y-113000500D01*
X121290694Y-113000500D01*
X121409306Y-113000500D01*
X121409309Y-113000500D01*
X121523886Y-112969799D01*
X121626613Y-112910489D01*
X121710489Y-112826613D01*
X121769799Y-112723886D01*
X121800500Y-112609309D01*
X121800500Y-112490691D01*
X121769799Y-112376114D01*
X121710489Y-112273387D01*
X121626613Y-112189511D01*
X121523886Y-112130201D01*
X121409309Y-112099500D01*
X121290691Y-112099500D01*
X121176114Y-112130201D01*
X121176112Y-112130201D01*
X121176112Y-112130202D01*
X121087001Y-112181651D01*
X121019100Y-112198124D01*
X120962999Y-112181651D01*
X120873886Y-112130201D01*
X120759309Y-112099500D01*
X120640691Y-112099500D01*
X120526114Y-112130201D01*
X120423387Y-112189511D01*
X120423385Y-112189512D01*
X120416349Y-112193575D01*
X120415338Y-112191824D01*
X120360311Y-112213095D01*
X120291867Y-112199053D01*
X120280615Y-112191822D01*
X120276614Y-112189512D01*
X120276613Y-112189511D01*
X120173886Y-112130201D01*
X120059309Y-112099500D01*
X119940691Y-112099500D01*
X119826114Y-112130201D01*
X119826112Y-112130201D01*
X119826112Y-112130202D01*
X119723387Y-112189511D01*
X119723384Y-112189513D01*
X119639513Y-112273384D01*
X119639511Y-112273387D01*
X119580201Y-112376114D01*
X119549500Y-112490691D01*
X117650000Y-112490691D01*
X117650000Y-108190907D01*
X117669685Y-108123868D01*
X117722489Y-108078113D01*
X117791647Y-108068169D01*
X117806071Y-108071127D01*
X117915691Y-108100500D01*
X117915694Y-108100500D01*
X118034306Y-108100500D01*
X118034309Y-108100500D01*
X118148886Y-108069799D01*
X118251613Y-108010489D01*
X118324819Y-107937283D01*
X118386142Y-107903798D01*
X118455834Y-107908782D01*
X118500181Y-107937283D01*
X118573387Y-108010489D01*
X118676114Y-108069799D01*
X118790691Y-108100500D01*
X118790694Y-108100500D01*
X118909306Y-108100500D01*
X118909309Y-108100500D01*
X119023886Y-108069799D01*
X119126613Y-108010489D01*
X119210489Y-107926613D01*
X119269799Y-107823886D01*
X119300500Y-107709309D01*
X119300500Y-107590691D01*
X119269799Y-107476114D01*
X119210489Y-107373387D01*
X119126613Y-107289511D01*
X119023886Y-107230201D01*
X118909309Y-107199500D01*
X118790691Y-107199500D01*
X118676114Y-107230201D01*
X118676112Y-107230201D01*
X118676112Y-107230202D01*
X118573387Y-107289511D01*
X118573384Y-107289513D01*
X118500181Y-107362717D01*
X118438858Y-107396202D01*
X118369166Y-107391218D01*
X118324819Y-107362717D01*
X118251615Y-107289513D01*
X118251613Y-107289511D01*
X118148886Y-107230201D01*
X118034309Y-107199500D01*
X117915691Y-107199500D01*
X117806093Y-107228867D01*
X117736244Y-107227204D01*
X117678381Y-107188042D01*
X117650877Y-107123813D01*
X117650000Y-107109092D01*
X117650000Y-104165691D01*
X118124500Y-104165691D01*
X118124500Y-104284309D01*
X118155201Y-104398886D01*
X118214511Y-104501613D01*
X118298387Y-104585489D01*
X118401114Y-104644799D01*
X118515691Y-104675500D01*
X118515694Y-104675500D01*
X118634306Y-104675500D01*
X118634309Y-104675500D01*
X118748886Y-104644799D01*
X118851613Y-104585489D01*
X118851615Y-104585486D01*
X118851620Y-104585484D01*
X118858064Y-104580540D01*
X118859243Y-104582077D01*
X118911262Y-104553666D01*
X118980954Y-104558642D01*
X118999636Y-104567443D01*
X119101108Y-104626029D01*
X119101109Y-104626030D01*
X119101111Y-104626030D01*
X119101114Y-104626032D01*
X119215691Y-104656733D01*
X119215694Y-104656733D01*
X119334306Y-104656733D01*
X119334309Y-104656733D01*
X119448886Y-104626032D01*
X119551613Y-104566722D01*
X119635489Y-104482846D01*
X119694799Y-104380119D01*
X119725500Y-104265542D01*
X119725500Y-104146924D01*
X119694799Y-104032347D01*
X119635489Y-103929620D01*
X119551613Y-103845744D01*
X119448886Y-103786434D01*
X119334309Y-103755733D01*
X119215691Y-103755733D01*
X119101114Y-103786434D01*
X119101112Y-103786434D01*
X119101112Y-103786435D01*
X118998387Y-103845744D01*
X118991941Y-103850691D01*
X118990763Y-103849156D01*
X118938708Y-103877572D01*
X118869017Y-103872579D01*
X118850364Y-103863790D01*
X118827676Y-103850691D01*
X118748886Y-103805201D01*
X118634309Y-103774500D01*
X118515691Y-103774500D01*
X118401114Y-103805201D01*
X118401112Y-103805201D01*
X118401112Y-103805202D01*
X118298387Y-103864511D01*
X118298384Y-103864513D01*
X118214513Y-103948384D01*
X118214511Y-103948387D01*
X118155201Y-104051114D01*
X118124500Y-104165691D01*
X117650000Y-104165691D01*
X117650000Y-97239592D01*
X117669685Y-97172553D01*
X117722489Y-97126798D01*
X117791647Y-97116854D01*
X117836001Y-97132206D01*
X117901108Y-97169796D01*
X117901109Y-97169797D01*
X117901111Y-97169797D01*
X117901114Y-97169799D01*
X118015691Y-97200500D01*
X118015694Y-97200500D01*
X118134306Y-97200500D01*
X118134309Y-97200500D01*
X118248886Y-97169799D01*
X118351613Y-97110489D01*
X118424819Y-97037283D01*
X118486142Y-97003798D01*
X118555834Y-97008782D01*
X118600181Y-97037283D01*
X118673387Y-97110489D01*
X118776114Y-97169799D01*
X118890691Y-97200500D01*
X118890694Y-97200500D01*
X119009306Y-97200500D01*
X119009309Y-97200500D01*
X119123886Y-97169799D01*
X119226613Y-97110489D01*
X119310489Y-97026613D01*
X119369799Y-96923886D01*
X119400500Y-96809309D01*
X119400500Y-96690691D01*
X119369799Y-96576114D01*
X119310489Y-96473387D01*
X119226613Y-96389511D01*
X119123886Y-96330201D01*
X119009309Y-96299500D01*
X118890691Y-96299500D01*
X118776114Y-96330201D01*
X118776112Y-96330201D01*
X118776112Y-96330202D01*
X118673387Y-96389511D01*
X118673384Y-96389513D01*
X118600181Y-96462717D01*
X118538858Y-96496202D01*
X118469166Y-96491218D01*
X118424819Y-96462717D01*
X118351615Y-96389513D01*
X118351613Y-96389511D01*
X118248886Y-96330201D01*
X118134309Y-96299500D01*
X118015691Y-96299500D01*
X117910505Y-96327684D01*
X117901110Y-96330202D01*
X117836000Y-96367794D01*
X117768100Y-96384267D01*
X117702073Y-96361414D01*
X117658882Y-96306493D01*
X117650000Y-96260407D01*
X117650000Y-93265691D01*
X118224500Y-93265691D01*
X118224500Y-93384309D01*
X118255201Y-93498886D01*
X118314511Y-93601613D01*
X118398387Y-93685489D01*
X118501114Y-93744799D01*
X118615691Y-93775500D01*
X118615694Y-93775500D01*
X118734306Y-93775500D01*
X118734309Y-93775500D01*
X118848886Y-93744799D01*
X118951613Y-93685489D01*
X118951615Y-93685486D01*
X118951620Y-93685484D01*
X118958064Y-93680540D01*
X118959243Y-93682077D01*
X119011262Y-93653666D01*
X119080954Y-93658642D01*
X119099636Y-93667443D01*
X119201108Y-93726029D01*
X119201109Y-93726030D01*
X119201111Y-93726030D01*
X119201114Y-93726032D01*
X119315691Y-93756733D01*
X119315694Y-93756733D01*
X119434306Y-93756733D01*
X119434309Y-93756733D01*
X119548886Y-93726032D01*
X119651613Y-93666722D01*
X119735489Y-93582846D01*
X119794799Y-93480119D01*
X119825500Y-93365542D01*
X119825500Y-93246924D01*
X119794799Y-93132347D01*
X119735489Y-93029620D01*
X119651613Y-92945744D01*
X119548886Y-92886434D01*
X119434309Y-92855733D01*
X119315691Y-92855733D01*
X119201114Y-92886434D01*
X119201112Y-92886434D01*
X119201112Y-92886435D01*
X119098387Y-92945744D01*
X119091941Y-92950691D01*
X119090763Y-92949156D01*
X119038708Y-92977572D01*
X118969017Y-92972579D01*
X118950364Y-92963790D01*
X118927676Y-92950691D01*
X118848886Y-92905201D01*
X118734309Y-92874500D01*
X118615691Y-92874500D01*
X118501114Y-92905201D01*
X118501112Y-92905201D01*
X118501112Y-92905202D01*
X118398387Y-92964511D01*
X118398384Y-92964513D01*
X118314513Y-93048384D01*
X118314511Y-93048387D01*
X118255201Y-93151114D01*
X118224500Y-93265691D01*
X117650000Y-93265691D01*
X117650000Y-86264592D01*
X117669685Y-86197553D01*
X117722489Y-86151798D01*
X117791647Y-86141854D01*
X117836001Y-86157206D01*
X117901108Y-86194796D01*
X117901109Y-86194797D01*
X117901111Y-86194797D01*
X117901114Y-86194799D01*
X118015691Y-86225500D01*
X118015694Y-86225500D01*
X118134306Y-86225500D01*
X118134309Y-86225500D01*
X118248886Y-86194799D01*
X118351613Y-86135489D01*
X118424819Y-86062283D01*
X118486142Y-86028798D01*
X118555834Y-86033782D01*
X118600181Y-86062283D01*
X118673387Y-86135489D01*
X118776114Y-86194799D01*
X118890691Y-86225500D01*
X118890694Y-86225500D01*
X119009306Y-86225500D01*
X119009309Y-86225500D01*
X119123886Y-86194799D01*
X119226613Y-86135489D01*
X119310489Y-86051613D01*
X119369799Y-85948886D01*
X119400500Y-85834309D01*
X119400500Y-85715691D01*
X119369799Y-85601114D01*
X119310489Y-85498387D01*
X119226613Y-85414511D01*
X119123886Y-85355201D01*
X119009309Y-85324500D01*
X118890691Y-85324500D01*
X118776114Y-85355201D01*
X118776112Y-85355201D01*
X118776112Y-85355202D01*
X118673387Y-85414511D01*
X118673384Y-85414513D01*
X118600181Y-85487717D01*
X118538858Y-85521202D01*
X118469166Y-85516218D01*
X118424819Y-85487717D01*
X118351615Y-85414513D01*
X118351613Y-85414511D01*
X118248886Y-85355201D01*
X118134309Y-85324500D01*
X118015691Y-85324500D01*
X117910505Y-85352684D01*
X117901110Y-85355202D01*
X117836000Y-85392794D01*
X117768100Y-85409267D01*
X117702073Y-85386414D01*
X117658882Y-85331493D01*
X117650000Y-85285407D01*
X117650000Y-82290691D01*
X118224500Y-82290691D01*
X118224500Y-82409309D01*
X118255201Y-82523886D01*
X118314511Y-82626613D01*
X118398387Y-82710489D01*
X118501114Y-82769799D01*
X118615691Y-82800500D01*
X118615694Y-82800500D01*
X118734306Y-82800500D01*
X118734309Y-82800500D01*
X118848886Y-82769799D01*
X118951613Y-82710489D01*
X118951615Y-82710486D01*
X118951620Y-82710484D01*
X118958064Y-82705540D01*
X118959243Y-82707077D01*
X119011262Y-82678666D01*
X119080954Y-82683642D01*
X119099636Y-82692443D01*
X119201108Y-82751029D01*
X119201109Y-82751030D01*
X119201111Y-82751030D01*
X119201114Y-82751032D01*
X119315691Y-82781733D01*
X119315694Y-82781733D01*
X119434306Y-82781733D01*
X119434309Y-82781733D01*
X119548886Y-82751032D01*
X119651613Y-82691722D01*
X119735489Y-82607846D01*
X119794799Y-82505119D01*
X119825500Y-82390542D01*
X119825500Y-82271924D01*
X119794799Y-82157347D01*
X119735489Y-82054620D01*
X119651613Y-81970744D01*
X119548886Y-81911434D01*
X119434309Y-81880733D01*
X119315691Y-81880733D01*
X119201114Y-81911434D01*
X119201112Y-81911434D01*
X119201112Y-81911435D01*
X119098387Y-81970744D01*
X119091941Y-81975691D01*
X119090763Y-81974156D01*
X119038708Y-82002572D01*
X118969017Y-81997579D01*
X118950364Y-81988790D01*
X118927676Y-81975691D01*
X118848886Y-81930201D01*
X118734309Y-81899500D01*
X118615691Y-81899500D01*
X118501114Y-81930201D01*
X118501112Y-81930201D01*
X118501112Y-81930202D01*
X118398387Y-81989511D01*
X118398384Y-81989513D01*
X118314513Y-82073384D01*
X118314511Y-82073387D01*
X118255201Y-82176114D01*
X118224500Y-82290691D01*
X117650000Y-82290691D01*
X117650000Y-78928142D01*
X117669685Y-78861103D01*
X117688480Y-78838351D01*
X117963849Y-78576095D01*
X118139083Y-78409207D01*
X118201204Y-78377227D01*
X118224600Y-78375000D01*
X120566539Y-78375000D01*
X120633578Y-78394685D01*
G37*
G04 #@! TD.AperFunction*
G04 #@! TA.AperFunction,Conductor*
G36*
X126364247Y-74244685D02*
G01*
X126386588Y-74263051D01*
X126940384Y-74838999D01*
X126972660Y-74900965D01*
X126975000Y-74924943D01*
X126975000Y-79616239D01*
X126955315Y-79683278D01*
X126929524Y-79712207D01*
X126184256Y-80321972D01*
X126119908Y-80349188D01*
X126105737Y-80350000D01*
X124322145Y-80350000D01*
X124255106Y-80330315D01*
X124239764Y-80318679D01*
X123416619Y-79586994D01*
X123379591Y-79527743D01*
X123375000Y-79494315D01*
X123375000Y-78224999D01*
X122439000Y-77325000D01*
X117467568Y-77325000D01*
X117467566Y-77325000D01*
X115725000Y-79115972D01*
X115725000Y-113322762D01*
X115705315Y-113389801D01*
X115687621Y-113411491D01*
X114864838Y-114214729D01*
X114803117Y-114247474D01*
X114778217Y-114250000D01*
X113124108Y-114250000D01*
X113057069Y-114230315D01*
X113039208Y-114216377D01*
X112289170Y-113511796D01*
X112253786Y-113451549D01*
X112250070Y-113421257D01*
X112250130Y-113375000D01*
X112299055Y-75874094D01*
X112318827Y-75807083D01*
X112334176Y-75787792D01*
X113818216Y-74262527D01*
X113879075Y-74228206D01*
X113907090Y-74225000D01*
X126297208Y-74225000D01*
X126364247Y-74244685D01*
G37*
G04 #@! TD.AperFunction*
M02*
